<?xml version="1.0" encoding="UTF-8" standalone="no"?>
<!DOCTYPE svg PUBLIC "-//W3C//DTD SVG 1.1//EN"
 "http://www.w3.org/Graphics/SVG/1.1/DTD/svg11.dtd">
<!-- Generated by graphviz version 2.44.0 (20200408.0750)
 -->
<!-- Title: dependency&#45;cruiser output Pages: 1 -->
<svg width="214pt" height="180pt"
 viewBox="0.00 0.00 214.01 180.40" xmlns="http://www.w3.org/2000/svg" xmlns:xlink="http://www.w3.org/1999/xlink">
<g id="graph0" class="graph" transform="scale(1 1) rotate(0) translate(4 176.4)">
<title>dependency&#45;cruiser output</title>
<polygon fill="white" stroke="transparent" points="-4,4 -4,-176.4 210.01,-176.4 210.01,4 -4,4"/>
<g id="clust1" class="cluster">
<title>cluster_node_modules</title>
<path fill="#ffffff" stroke="black" stroke-width="2" d="M130,-26.4C130,-26.4 186.01,-26.4 186.01,-26.4 192.01,-26.4 198.01,-32.4 198.01,-38.4 198.01,-38.4 198.01,-129.4 198.01,-129.4 198.01,-135.4 192.01,-141.4 186.01,-141.4 186.01,-141.4 130,-141.4 130,-141.4 124,-141.4 118,-135.4 118,-129.4 118,-129.4 118,-38.4 118,-38.4 118,-32.4 124,-26.4 130,-26.4"/>
<text text-anchor="middle" x="158" y="-129.3" font-family="Helvetica,sans-Serif" font-weight="bold" font-size="9.00">node_modules</text>
</g>
<g id="clust2" class="cluster">
<title>cluster_using&#45;express</title>
<path fill="#ffffff" stroke="black" stroke-width="2" d="M20,-41.4C20,-41.4 98,-41.4 98,-41.4 104,-41.4 110,-47.4 110,-53.4 110,-53.4 110,-152.4 110,-152.4 110,-158.4 104,-164.4 98,-164.4 98,-164.4 20,-164.4 20,-164.4 14,-164.4 8,-158.4 8,-152.4 8,-152.4 8,-53.4 8,-53.4 8,-47.4 14,-41.4 20,-41.4"/>
<text text-anchor="middle" x="59" y="-152.3" font-family="Helvetica,sans-Serif" font-weight="bold" font-size="9.00">using&#45;express</text>
</g>
<g id="clust3" class="cluster">
<title>cluster_using&#45;express/7&#45;authenticated</title>
<path fill="#ffffff" stroke="black" stroke-width="2" d="M28,-49.4C28,-49.4 90,-49.4 90,-49.4 96,-49.4 102,-55.4 102,-61.4 102,-61.4 102,-125.4 102,-125.4 102,-131.4 96,-137.4 90,-137.4 90,-137.4 28,-137.4 28,-137.4 22,-137.4 16,-131.4 16,-125.4 16,-125.4 16,-61.4 16,-61.4 16,-55.4 22,-49.4 28,-49.4"/>
<text text-anchor="middle" x="59" y="-125.3" font-family="Helvetica,sans-Serif" font-weight="bold" font-size="9.00">7&#45;authenticated</text>
</g>
<g id="clust4" class="cluster">
<title>cluster_using&#45;express/7&#45;authenticated/basic&#45;auth</title>
<path fill="#ffffff" stroke="black" stroke-width="2" d="M36,-57.4C36,-57.4 82,-57.4 82,-57.4 88,-57.4 94,-63.4 94,-69.4 94,-69.4 94,-98.4 94,-98.4 94,-104.4 88,-110.4 82,-110.4 82,-110.4 36,-110.4 36,-110.4 30,-110.4 24,-104.4 24,-98.4 24,-98.4 24,-69.4 24,-69.4 24,-63.4 30,-57.4 36,-57.4"/>
<text text-anchor="middle" x="59" y="-98.3" font-family="Helvetica,sans-Serif" font-weight="bold" font-size="9.00">basic&#45;auth</text>
</g>
<!-- fs -->
<g id="node1" class="node">
<title>fs</title>
<path fill="#ffffcc" stroke="grey" d="M178.8,-167.7C178.8,-167.7 137.2,-167.7 137.2,-167.7 134.1,-167.7 131,-164.6 131,-161.5 131,-161.5 131,-155.3 131,-155.3 131,-152.2 134.1,-149.1 137.2,-149.1 137.2,-149.1 178.8,-149.1 178.8,-149.1 181.9,-149.1 185,-152.2 185,-155.3 185,-155.3 185,-161.5 185,-161.5 185,-164.6 181.9,-167.7 178.8,-167.7"/>
<text text-anchor="middle" x="158" y="-155.7" font-family="Helvetica,sans-Serif" font-size="9.00" fill="grey">fs</text>
</g>
<!-- node_modules/body&#45;parser -->
<g id="node2" class="node">
<title>node_modules/body&#45;parser</title>
<g id="a_node2"><a xlink:href="node_modules/body-parser" xlink:title="body&#45;parser">
<polygon fill="#c40b0a" fill-opacity="0.101961" stroke="black" points="190.01,-114.7 128.06,-114.7 126,-112.63 126,-96.1 187.94,-96.1 190.01,-98.17 190.01,-114.7"/>
<polyline fill="none" stroke="black" points="187.94,-112.63 126,-112.63 "/>
<polyline fill="none" stroke="black" points="187.94,-112.63 187.94,-96.1 "/>
<polyline fill="none" stroke="black" points="187.94,-112.63 190.01,-114.7 "/>
<text text-anchor="middle" x="158" y="-102.7" font-family="Helvetica,sans-Serif" font-size="9.00" fill="#c40b0a">body&#45;parser</text>
</a>
</g>
</g>
<!-- node_modules/express -->
<g id="node3" class="node">
<title>node_modules/express</title>
<g id="a_node3"><a xlink:href="node_modules/express" xlink:title="express">
<polygon fill="#c40b0a" fill-opacity="0.101961" stroke="black" points="185,-83.7 133.07,-83.7 131,-81.63 131,-65.1 182.94,-65.1 185,-67.17 185,-83.7"/>
<polyline fill="none" stroke="black" points="182.94,-81.63 131,-81.63 "/>
<polyline fill="none" stroke="black" points="182.94,-81.63 182.94,-65.1 "/>
<polyline fill="none" stroke="black" points="182.94,-81.63 185,-83.7 "/>
<text text-anchor="middle" x="158" y="-71.7" font-family="Helvetica,sans-Serif" font-size="9.00" fill="#c40b0a">express</text>
</a>
</g>
</g>
<!-- node_modules/morgan -->
<g id="node4" class="node">
<title>node_modules/morgan</title>
<g id="a_node4"><a xlink:href="node_modules/morgan" xlink:title="morgan">
<polygon fill="#c40b0a" fill-opacity="0.101961" stroke="black" points="185,-52.7 133.07,-52.7 131,-50.63 131,-34.1 182.94,-34.1 185,-36.17 185,-52.7"/>
<polyline fill="none" stroke="black" points="182.94,-50.63 131,-50.63 "/>
<polyline fill="none" stroke="black" points="182.94,-50.63 182.94,-34.1 "/>
<polyline fill="none" stroke="black" points="182.94,-50.63 185,-52.7 "/>
<text text-anchor="middle" x="158" y="-40.7" font-family="Helvetica,sans-Serif" font-size="9.00" fill="#c40b0a">morgan</text>
</a>
</g>
</g>
<!-- using&#45;express/7&#45;authenticated/basic&#45;auth/index.js -->
<g id="node5" class="node">
<title>using&#45;express/7&#45;authenticated/basic&#45;auth/index.js</title>
<g id="a_node5"><a xlink:href="using-express/7-authenticated/basic-auth/index.js" xlink:title="index.js">
<path fill="#ffffcc" stroke="black" d="M79.8,-83.7C79.8,-83.7 38.2,-83.7 38.2,-83.7 35.1,-83.7 32,-80.6 32,-77.5 32,-77.5 32,-71.3 32,-71.3 32,-68.2 35.1,-65.1 38.2,-65.1 38.2,-65.1 79.8,-65.1 79.8,-65.1 82.9,-65.1 86,-68.2 86,-71.3 86,-71.3 86,-77.5 86,-77.5 86,-80.6 82.9,-83.7 79.8,-83.7"/>
<text text-anchor="middle" x="59" y="-71.7" font-family="Helvetica,sans-Serif" font-size="9.00">index.js</text>
</a>
</g>
</g>
<!-- using&#45;express/7&#45;authenticated/basic&#45;auth/index.js&#45;&gt;fs -->
<g id="edge3" class="edge">
<title>using&#45;express/7&#45;authenticated/basic&#45;auth/index.js&#45;&gt;fs</title>
<path fill="none" stroke="#000000" stroke-dasharray="5,2" stroke-opacity="0.200000" d="M65.54,-83.94C74.66,-98.86 94.23,-127.72 118,-144.4 120.19,-145.93 122.56,-147.32 125.02,-148.56"/>
<polygon fill="#000000" fill-opacity="0.200000" stroke="#000000" stroke-opacity="0.200000" points="124.53,-150.65 130.86,-151.22 126.27,-146.82 124.53,-150.65"/>
</g>
<!-- using&#45;express/7&#45;authenticated/basic&#45;auth/index.js&#45;&gt;node_modules/body&#45;parser -->
<g id="edge1" class="edge">
<title>using&#45;express/7&#45;authenticated/basic&#45;auth/index.js&#45;&gt;node_modules/body&#45;parser</title>
<path fill="none" stroke="#000000" stroke-opacity="0.200000" d="M86.25,-82.79C97.14,-86.27 109.95,-90.36 121.65,-94.1"/>
<polygon fill="#000000" fill-opacity="0.200000" stroke="#000000" stroke-opacity="0.200000" points="121.3,-96.19 127.65,-96.02 122.58,-92.19 121.3,-96.19"/>
</g>
<!-- using&#45;express/7&#45;authenticated/basic&#45;auth/index.js&#45;&gt;node_modules/express -->
<g id="edge2" class="edge">
<title>using&#45;express/7&#45;authenticated/basic&#45;auth/index.js&#45;&gt;node_modules/express</title>
<path fill="none" stroke="#000000" stroke-opacity="0.200000" d="M86.25,-74.4C98,-74.4 111.98,-74.4 124.4,-74.4"/>
<polygon fill="#000000" fill-opacity="0.200000" stroke="#000000" stroke-opacity="0.200000" points="124.73,-76.5 130.73,-74.4 124.73,-72.3 124.73,-76.5"/>
</g>
<!-- using&#45;express/7&#45;authenticated/basic&#45;auth/index.js&#45;&gt;node_modules/morgan -->
<g id="edge4" class="edge">
<title>using&#45;express/7&#45;authenticated/basic&#45;auth/index.js&#45;&gt;node_modules/morgan</title>
<path fill="none" stroke="#000000" stroke-opacity="0.200000" d="M86.25,-66.01C98.11,-62.22 112.24,-57.7 124.74,-53.71"/>
<polygon fill="#000000" fill-opacity="0.200000" stroke="#000000" stroke-opacity="0.200000" points="125.66,-55.62 130.73,-51.8 124.38,-51.62 125.66,-55.62"/>
</g>
<!-- util -->
<g id="node6" class="node">
<title>util</title>
<path fill="#ffffcc" stroke="grey" d="M178.8,-18.7C178.8,-18.7 137.2,-18.7 137.2,-18.7 134.1,-18.7 131,-15.6 131,-12.5 131,-12.5 131,-6.3 131,-6.3 131,-3.2 134.1,-0.1 137.2,-0.1 137.2,-0.1 178.8,-0.1 178.8,-0.1 181.9,-0.1 185,-3.2 185,-6.3 185,-6.3 185,-12.5 185,-12.5 185,-15.6 181.9,-18.7 178.8,-18.7"/>
<text text-anchor="middle" x="158" y="-6.7" font-family="Helvetica,sans-Serif" font-size="9.00" fill="grey">util</text>
</g>
<!-- using&#45;express/7&#45;authenticated/basic&#45;auth/index.js&#45;&gt;util -->
<g id="edge5" class="edge">
<title>using&#45;express/7&#45;authenticated/basic&#45;auth/index.js&#45;&gt;util</title>
<path fill="none" stroke="#000000" stroke-dasharray="5,2" stroke-opacity="0.200000" d="M68.59,-64.92C79.23,-53.67 98.37,-34.98 118,-23.4 120.23,-22.08 122.61,-20.86 125.04,-19.73"/>
<polygon fill="#000000" fill-opacity="0.200000" stroke="#000000" stroke-opacity="0.200000" points="126.1,-21.56 130.79,-17.26 124.44,-17.7 126.1,-21.56"/>
</g>
</g>
</svg>
