<?xml version="1.0" encoding="UTF-8" standalone="no"?>
<!DOCTYPE svg PUBLIC "-//W3C//DTD SVG 1.1//EN"
 "http://www.w3.org/Graphics/SVG/1.1/DTD/svg11.dtd">
<!-- Generated by graphviz version 2.44.0 (20200408.0750)
 -->
<!-- Title: dependency&#45;cruiser output Pages: 1 -->
<svg width="270pt" height="238pt"
 viewBox="0.00 0.00 270.01 237.80" xmlns="http://www.w3.org/2000/svg" xmlns:xlink="http://www.w3.org/1999/xlink">
<g id="graph0" class="graph" transform="scale(1 1) rotate(0) translate(4 233.8)">
<title>dependency&#45;cruiser output</title>
<polygon fill="white" stroke="transparent" points="-4,4 -4,-233.8 266.01,-233.8 266.01,4 -4,4"/>
<g id="clust1" class="cluster">
<title>cluster_node_modules</title>
<path fill="#ffffff" stroke="black" stroke-width="2" d="M186,-26.4C186,-26.4 242.01,-26.4 242.01,-26.4 248.01,-26.4 254.01,-32.4 254.01,-38.4 254.01,-38.4 254.01,-129.4 254.01,-129.4 254.01,-135.4 248.01,-141.4 242.01,-141.4 242.01,-141.4 186,-141.4 186,-141.4 180,-141.4 174,-135.4 174,-129.4 174,-129.4 174,-38.4 174,-38.4 174,-32.4 180,-26.4 186,-26.4"/>
<text text-anchor="middle" x="214" y="-129.3" font-family="Helvetica,sans-Serif" font-weight="bold" font-size="9.00">node_modules</text>
</g>
<g id="clust2" class="cluster">
<title>cluster_using&#45;express</title>
<path fill="#ffffff" stroke="black" stroke-width="2" d="M12,-72.4C12,-72.4 154,-72.4 154,-72.4 160,-72.4 166,-78.4 166,-84.4 166,-84.4 166,-183.4 166,-183.4 166,-189.4 160,-195.4 154,-195.4 154,-195.4 12,-195.4 12,-195.4 6,-195.4 0,-189.4 0,-183.4 0,-183.4 0,-84.4 0,-84.4 0,-78.4 6,-72.4 12,-72.4"/>
<text text-anchor="middle" x="83" y="-183.3" font-family="Helvetica,sans-Serif" font-weight="bold" font-size="9.00">using&#45;express</text>
</g>
<g id="clust3" class="cluster">
<title>cluster_using&#45;express/7&#45;authenticated</title>
<path fill="#ffffff" stroke="black" stroke-width="2" d="M20,-80.4C20,-80.4 146,-80.4 146,-80.4 152,-80.4 158,-86.4 158,-92.4 158,-92.4 158,-156.4 158,-156.4 158,-162.4 152,-168.4 146,-168.4 146,-168.4 20,-168.4 20,-168.4 14,-168.4 8,-162.4 8,-156.4 8,-156.4 8,-92.4 8,-92.4 8,-86.4 14,-80.4 20,-80.4"/>
<text text-anchor="middle" x="83" y="-156.3" font-family="Helvetica,sans-Serif" font-weight="bold" font-size="9.00">7&#45;authenticated</text>
</g>
<g id="clust4" class="cluster">
<title>cluster_using&#45;express/7&#45;authenticated/bearer&#45;auth&#45;with&#45;stored&#45;token</title>
<path fill="#ffffff" stroke="black" stroke-width="2" d="M28,-88.4C28,-88.4 138,-88.4 138,-88.4 144,-88.4 150,-94.4 150,-100.4 150,-100.4 150,-129.4 150,-129.4 150,-135.4 144,-141.4 138,-141.4 138,-141.4 28,-141.4 28,-141.4 22,-141.4 16,-135.4 16,-129.4 16,-129.4 16,-100.4 16,-100.4 16,-94.4 22,-88.4 28,-88.4"/>
<text text-anchor="middle" x="83" y="-129.3" font-family="Helvetica,sans-Serif" font-weight="bold" font-size="9.00">bearer&#45;auth&#45;with&#45;stored&#45;token</text>
</g>
<!-- crypto -->
<g id="node1" class="node">
<title>crypto</title>
<path fill="#ffffcc" stroke="grey" d="M234.8,-229.7C234.8,-229.7 193.2,-229.7 193.2,-229.7 190.1,-229.7 187,-226.6 187,-223.5 187,-223.5 187,-217.3 187,-217.3 187,-214.2 190.1,-211.1 193.2,-211.1 193.2,-211.1 234.8,-211.1 234.8,-211.1 237.9,-211.1 241,-214.2 241,-217.3 241,-217.3 241,-223.5 241,-223.5 241,-226.6 237.9,-229.7 234.8,-229.7"/>
<text text-anchor="middle" x="214" y="-217.7" font-family="Helvetica,sans-Serif" font-size="9.00" fill="grey">crypto</text>
</g>
<!-- fs -->
<g id="node2" class="node">
<title>fs</title>
<path fill="#ffffcc" stroke="grey" d="M234.8,-198.7C234.8,-198.7 193.2,-198.7 193.2,-198.7 190.1,-198.7 187,-195.6 187,-192.5 187,-192.5 187,-186.3 187,-186.3 187,-183.2 190.1,-180.1 193.2,-180.1 193.2,-180.1 234.8,-180.1 234.8,-180.1 237.9,-180.1 241,-183.2 241,-186.3 241,-186.3 241,-192.5 241,-192.5 241,-195.6 237.9,-198.7 234.8,-198.7"/>
<text text-anchor="middle" x="214" y="-186.7" font-family="Helvetica,sans-Serif" font-size="9.00" fill="grey">fs</text>
</g>
<!-- moment -->
<g id="node3" class="node">
<title>moment</title>
<path fill="#ffffcc" stroke="red" d="M234.8,-167.7C234.8,-167.7 193.2,-167.7 193.2,-167.7 190.1,-167.7 187,-164.6 187,-161.5 187,-161.5 187,-155.3 187,-155.3 187,-152.2 190.1,-149.1 193.2,-149.1 193.2,-149.1 234.8,-149.1 234.8,-149.1 237.9,-149.1 241,-152.2 241,-155.3 241,-155.3 241,-161.5 241,-161.5 241,-164.6 237.9,-167.7 234.8,-167.7"/>
<text text-anchor="middle" x="214" y="-155.7" font-family="Helvetica,sans-Serif" font-size="9.00" fill="red">moment</text>
</g>
<!-- node_modules/body&#45;parser -->
<g id="node4" class="node">
<title>node_modules/body&#45;parser</title>
<g id="a_node4"><a xlink:href="node_modules/body-parser" xlink:title="body&#45;parser">
<polygon fill="#c40b0a" fill-opacity="0.101961" stroke="black" points="246.01,-114.7 184.06,-114.7 182,-112.63 182,-96.1 243.94,-96.1 246.01,-98.17 246.01,-114.7"/>
<polyline fill="none" stroke="black" points="243.94,-112.63 182,-112.63 "/>
<polyline fill="none" stroke="black" points="243.94,-112.63 243.94,-96.1 "/>
<polyline fill="none" stroke="black" points="243.94,-112.63 246.01,-114.7 "/>
<text text-anchor="middle" x="214" y="-102.7" font-family="Helvetica,sans-Serif" font-size="9.00" fill="#c40b0a">body&#45;parser</text>
</a>
</g>
</g>
<!-- node_modules/express -->
<g id="node5" class="node">
<title>node_modules/express</title>
<g id="a_node5"><a xlink:href="node_modules/express" xlink:title="express">
<polygon fill="#c40b0a" fill-opacity="0.101961" stroke="black" points="241,-83.7 189.07,-83.7 187,-81.63 187,-65.1 238.94,-65.1 241,-67.17 241,-83.7"/>
<polyline fill="none" stroke="black" points="238.94,-81.63 187,-81.63 "/>
<polyline fill="none" stroke="black" points="238.94,-81.63 238.94,-65.1 "/>
<polyline fill="none" stroke="black" points="238.94,-81.63 241,-83.7 "/>
<text text-anchor="middle" x="214" y="-71.7" font-family="Helvetica,sans-Serif" font-size="9.00" fill="#c40b0a">express</text>
</a>
</g>
</g>
<!-- node_modules/morgan -->
<g id="node6" class="node">
<title>node_modules/morgan</title>
<g id="a_node6"><a xlink:href="node_modules/morgan" xlink:title="morgan">
<polygon fill="#c40b0a" fill-opacity="0.101961" stroke="black" points="241,-52.7 189.07,-52.7 187,-50.63 187,-34.1 238.94,-34.1 241,-36.17 241,-52.7"/>
<polyline fill="none" stroke="black" points="238.94,-50.63 187,-50.63 "/>
<polyline fill="none" stroke="black" points="238.94,-50.63 238.94,-34.1 "/>
<polyline fill="none" stroke="black" points="238.94,-50.63 241,-52.7 "/>
<text text-anchor="middle" x="214" y="-40.7" font-family="Helvetica,sans-Serif" font-size="9.00" fill="#c40b0a">morgan</text>
</a>
</g>
</g>
<!-- using&#45;express/7&#45;authenticated/bearer&#45;auth&#45;with&#45;stored&#45;token/index.js -->
<g id="node7" class="node">
<title>using&#45;express/7&#45;authenticated/bearer&#45;auth&#45;with&#45;stored&#45;token/index.js</title>
<g id="a_node7"><a xlink:href="using-express/7-authenticated/bearer-auth-with-stored-token/index.js" xlink:title="index.js">
<path fill="#ffffcc" stroke="black" d="M103.8,-114.7C103.8,-114.7 62.2,-114.7 62.2,-114.7 59.1,-114.7 56,-111.6 56,-108.5 56,-108.5 56,-102.3 56,-102.3 56,-99.2 59.1,-96.1 62.2,-96.1 62.2,-96.1 103.8,-96.1 103.8,-96.1 106.9,-96.1 110,-99.2 110,-102.3 110,-102.3 110,-108.5 110,-108.5 110,-111.6 106.9,-114.7 103.8,-114.7"/>
<text text-anchor="middle" x="83" y="-102.7" font-family="Helvetica,sans-Serif" font-size="9.00">index.js</text>
</a>
</g>
</g>
<!-- using&#45;express/7&#45;authenticated/bearer&#45;auth&#45;with&#45;stored&#45;token/index.js&#45;&gt;crypto -->
<g id="edge2" class="edge">
<title>using&#45;express/7&#45;authenticated/bearer&#45;auth&#45;with&#45;stored&#45;token/index.js&#45;&gt;crypto</title>
<path fill="none" stroke="#000000" stroke-dasharray="5,2" stroke-opacity="0.200000" d="M90.37,-114.86C103.77,-134.12 136.71,-178.28 174,-204.4 176.35,-206.05 178.89,-207.56 181.52,-208.95"/>
<polygon fill="#000000" fill-opacity="0.200000" stroke="#000000" stroke-opacity="0.200000" points="180.67,-210.87 186.98,-211.62 182.51,-207.1 180.67,-210.87"/>
</g>
<!-- using&#45;express/7&#45;authenticated/bearer&#45;auth&#45;with&#45;stored&#45;token/index.js&#45;&gt;fs -->
<g id="edge4" class="edge">
<title>using&#45;express/7&#45;authenticated/bearer&#45;auth&#45;with&#45;stored&#45;token/index.js&#45;&gt;fs</title>
<path fill="none" stroke="#000000" stroke-dasharray="5,2" stroke-opacity="0.200000" d="M94.45,-114.74C110.61,-128.82 143.04,-155.75 174,-173.4 176.49,-174.82 179.13,-176.18 181.82,-177.47"/>
<polygon fill="#000000" fill-opacity="0.200000" stroke="#000000" stroke-opacity="0.200000" points="181.04,-179.42 187.38,-180 182.79,-175.6 181.04,-179.42"/>
</g>
<!-- using&#45;express/7&#45;authenticated/bearer&#45;auth&#45;with&#45;stored&#45;token/index.js&#45;&gt;moment -->
<g id="edge5" class="edge">
<title>using&#45;express/7&#45;authenticated/bearer&#45;auth&#45;with&#45;stored&#45;token/index.js&#45;&gt;moment</title>
<path fill="none" stroke="#000000" stroke-width="2" stroke-opacity="0.200000" d="M104.58,-114.76C122.72,-122.91 149.93,-134.88 174,-144.4 176.33,-145.32 178.75,-146.25 181.2,-147.17"/>
<polygon fill="#000000" fill-opacity="0.200000" stroke="#000000" stroke-width="2" stroke-opacity="0.200000" points="180.55,-149.17 186.9,-149.29 182.01,-145.24 180.55,-149.17"/>
</g>
<!-- using&#45;express/7&#45;authenticated/bearer&#45;auth&#45;with&#45;stored&#45;token/index.js&#45;&gt;node_modules/body&#45;parser -->
<g id="edge1" class="edge">
<title>using&#45;express/7&#45;authenticated/bearer&#45;auth&#45;with&#45;stored&#45;token/index.js&#45;&gt;node_modules/body&#45;parser</title>
<path fill="none" stroke="#000000" stroke-opacity="0.200000" d="M110.11,-105.4C129,-105.4 154.81,-105.4 175.85,-105.4"/>
<polygon fill="#000000" fill-opacity="0.200000" stroke="#000000" stroke-opacity="0.200000" points="175.93,-107.5 181.93,-105.4 175.93,-103.3 175.93,-107.5"/>
</g>
<!-- using&#45;express/7&#45;authenticated/bearer&#45;auth&#45;with&#45;stored&#45;token/index.js&#45;&gt;node_modules/express -->
<g id="edge3" class="edge">
<title>using&#45;express/7&#45;authenticated/bearer&#45;auth&#45;with&#45;stored&#45;token/index.js&#45;&gt;node_modules/express</title>
<path fill="none" stroke="#000000" stroke-opacity="0.200000" d="M110.11,-99.13C130.56,-94.21 159.12,-87.35 180.97,-82.1"/>
<polygon fill="#000000" fill-opacity="0.200000" stroke="#000000" stroke-opacity="0.200000" points="181.59,-84.11 186.94,-80.66 180.61,-80.02 181.59,-84.11"/>
</g>
<!-- using&#45;express/7&#45;authenticated/bearer&#45;auth&#45;with&#45;stored&#45;token/index.js&#45;&gt;node_modules/morgan -->
<g id="edge6" class="edge">
<title>using&#45;express/7&#45;authenticated/bearer&#45;auth&#45;with&#45;stored&#45;token/index.js&#45;&gt;node_modules/morgan</title>
<path fill="none" stroke="#000000" stroke-opacity="0.200000" d="M101.38,-95.97C119.35,-86.35 148.33,-71.2 174,-59.4 177.08,-57.99 180.31,-56.56 183.55,-55.17"/>
<polygon fill="#000000" fill-opacity="0.200000" stroke="#000000" stroke-opacity="0.200000" points="184.64,-57 189.35,-52.73 183.01,-53.12 184.64,-57"/>
</g>
<!-- util -->
<g id="node8" class="node">
<title>util</title>
<path fill="#ffffcc" stroke="grey" d="M234.8,-18.7C234.8,-18.7 193.2,-18.7 193.2,-18.7 190.1,-18.7 187,-15.6 187,-12.5 187,-12.5 187,-6.3 187,-6.3 187,-3.2 190.1,-0.1 193.2,-0.1 193.2,-0.1 234.8,-0.1 234.8,-0.1 237.9,-0.1 241,-3.2 241,-6.3 241,-6.3 241,-12.5 241,-12.5 241,-15.6 237.9,-18.7 234.8,-18.7"/>
<text text-anchor="middle" x="214" y="-6.7" font-family="Helvetica,sans-Serif" font-size="9.00" fill="grey">util</text>
</g>
<!-- using&#45;express/7&#45;authenticated/bearer&#45;auth&#45;with&#45;stored&#45;token/index.js&#45;&gt;util -->
<g id="edge7" class="edge">
<title>using&#45;express/7&#45;authenticated/bearer&#45;auth&#45;with&#45;stored&#45;token/index.js&#45;&gt;util</title>
<path fill="none" stroke="#000000" stroke-dasharray="5,2" stroke-opacity="0.200000" d="M92,-95.99C106.68,-79.25 139.59,-44.11 174,-23.4 176.22,-22.06 178.59,-20.83 181.01,-19.69"/>
<polygon fill="#000000" fill-opacity="0.200000" stroke="#000000" stroke-opacity="0.200000" points="182.08,-21.52 186.75,-17.21 180.41,-17.66 182.08,-21.52"/>
</g>
</g>
</svg>
