<?xml version="1.0" encoding="UTF-8" standalone="no"?>
<!DOCTYPE svg PUBLIC "-//W3C//DTD SVG 1.1//EN"
 "http://www.w3.org/Graphics/SVG/1.1/DTD/svg11.dtd">
<!-- Generated by graphviz version 2.44.0 (20200408.0750)
 -->
<!-- Title: dependency&#45;cruiser output Pages: 1 -->
<svg width="237pt" height="461pt"
 viewBox="0.00 0.00 237.02 460.80" xmlns="http://www.w3.org/2000/svg" xmlns:xlink="http://www.w3.org/1999/xlink">
<g id="graph0" class="graph" transform="scale(1 1) rotate(0) translate(4 456.8)">
<title>dependency&#45;cruiser output</title>
<polygon fill="white" stroke="transparent" points="-4,4 -4,-456.8 233.02,-456.8 233.02,4 -4,4"/>
<g id="clust1" class="cluster">
<title>cluster_node_modules</title>
<path fill="#ffffff" stroke="black" stroke-width="2" d="M122.75,-26.4C122.75,-26.4 178.76,-26.4 178.76,-26.4 184.76,-26.4 190.76,-32.4 190.76,-38.4 190.76,-38.4 190.76,-160.4 190.76,-160.4 190.76,-166.4 184.76,-172.4 178.76,-172.4 178.76,-172.4 122.75,-172.4 122.75,-172.4 116.75,-172.4 110.75,-166.4 110.75,-160.4 110.75,-160.4 110.75,-38.4 110.75,-38.4 110.75,-32.4 116.75,-26.4 122.75,-26.4"/>
<text text-anchor="middle" x="150.76" y="-160.3" font-family="Helvetica,sans-Serif" font-weight="bold" font-size="9.00">node_modules</text>
</g>
<g id="clust2" class="cluster">
<title>cluster_reverse&#45;engineer</title>
<path fill="#ffffff" stroke="black" stroke-width="2" d="M20,-206.4C20,-206.4 209.02,-206.4 209.02,-206.4 215.02,-206.4 221.02,-212.4 221.02,-218.4 221.02,-218.4 221.02,-414.4 221.02,-414.4 221.02,-420.4 215.02,-426.4 209.02,-426.4 209.02,-426.4 20,-426.4 20,-426.4 14,-426.4 8,-420.4 8,-414.4 8,-414.4 8,-218.4 8,-218.4 8,-212.4 14,-206.4 20,-206.4"/>
<text text-anchor="middle" x="114.51" y="-414.3" font-family="Helvetica,sans-Serif" font-weight="bold" font-size="9.00">reverse&#45;engineer</text>
</g>
<g id="clust3" class="cluster">
<title>cluster_reverse&#45;engineer/textidor&#45;series</title>
<path fill="#ffffff" stroke="black" stroke-width="2" d="M28,-214.4C28,-214.4 201.02,-214.4 201.02,-214.4 207.02,-214.4 213.02,-220.4 213.02,-226.4 213.02,-226.4 213.02,-387.4 213.02,-387.4 213.02,-393.4 207.02,-399.4 201.02,-399.4 201.02,-399.4 28,-399.4 28,-399.4 22,-399.4 16,-393.4 16,-387.4 16,-387.4 16,-226.4 16,-226.4 16,-220.4 22,-214.4 28,-214.4"/>
<text text-anchor="middle" x="114.51" y="-387.3" font-family="Helvetica,sans-Serif" font-weight="bold" font-size="9.00">textidor&#45;series</text>
</g>
<g id="clust4" class="cluster">
<title>cluster_reverse&#45;engineer/textidor&#45;series/1&#45;textidor</title>
<path fill="#ffffff" stroke="black" stroke-width="2" d="M36,-222.4C36,-222.4 193.02,-222.4 193.02,-222.4 199.02,-222.4 205.02,-228.4 205.02,-234.4 205.02,-234.4 205.02,-360.4 205.02,-360.4 205.02,-366.4 199.02,-372.4 193.02,-372.4 193.02,-372.4 36,-372.4 36,-372.4 30,-372.4 24,-366.4 24,-360.4 24,-360.4 24,-234.4 24,-234.4 24,-228.4 30,-222.4 36,-222.4"/>
<text text-anchor="middle" x="114.51" y="-360.3" font-family="Helvetica,sans-Serif" font-weight="bold" font-size="9.00">1&#45;textidor</text>
</g>
<g id="clust5" class="cluster">
<title>cluster_reverse&#45;engineer/textidor&#45;series/1&#45;textidor/config</title>
<path fill="#ffffff" stroke="black" stroke-width="2" d="M116.5,-230.4C116.5,-230.4 185.02,-230.4 185.02,-230.4 191.02,-230.4 197.02,-236.4 197.02,-242.4 197.02,-242.4 197.02,-333.4 197.02,-333.4 197.02,-339.4 191.02,-345.4 185.02,-345.4 185.02,-345.4 116.5,-345.4 116.5,-345.4 110.5,-345.4 104.5,-339.4 104.5,-333.4 104.5,-333.4 104.5,-242.4 104.5,-242.4 104.5,-236.4 110.5,-230.4 116.5,-230.4"/>
<text text-anchor="middle" x="150.76" y="-333.3" font-family="Helvetica,sans-Serif" font-weight="bold" font-size="9.00">config</text>
</g>
<!-- fs -->
<g id="node1" class="node">
<title>fs</title>
<path fill="#ffffcc" stroke="grey" d="M171.56,-198.7C171.56,-198.7 129.96,-198.7 129.96,-198.7 126.86,-198.7 123.76,-195.6 123.76,-192.5 123.76,-192.5 123.76,-186.3 123.76,-186.3 123.76,-183.2 126.86,-180.1 129.96,-180.1 129.96,-180.1 171.56,-180.1 171.56,-180.1 174.66,-180.1 177.76,-183.2 177.76,-186.3 177.76,-186.3 177.76,-192.5 177.76,-192.5 177.76,-195.6 174.66,-198.7 171.56,-198.7"/>
<text text-anchor="middle" x="150.76" y="-186.7" font-family="Helvetica,sans-Serif" font-size="9.00" fill="grey">fs</text>
</g>
<!-- node_modules/body&#45;parser -->
<g id="node2" class="node">
<title>node_modules/body&#45;parser</title>
<g id="a_node2"><a xlink:href="node_modules/body-parser" xlink:title="body&#45;parser">
<polygon fill="#c40b0a" fill-opacity="0.101961" stroke="black" points="182.77,-52.7 120.82,-52.7 118.75,-50.63 118.75,-34.1 180.7,-34.1 182.77,-36.17 182.77,-52.7"/>
<polyline fill="none" stroke="black" points="180.7,-50.63 118.75,-50.63 "/>
<polyline fill="none" stroke="black" points="180.7,-50.63 180.7,-34.1 "/>
<polyline fill="none" stroke="black" points="180.7,-50.63 182.77,-52.7 "/>
<text text-anchor="middle" x="150.76" y="-40.7" font-family="Helvetica,sans-Serif" font-size="9.00" fill="#c40b0a">body&#45;parser</text>
</a>
</g>
</g>
<!-- node_modules/cors -->
<g id="node3" class="node">
<title>node_modules/cors</title>
<g id="a_node3"><a xlink:href="node_modules/cors" xlink:title="cors">
<polygon fill="#c40b0a" fill-opacity="0.101961" stroke="black" points="177.76,-114.7 125.83,-114.7 123.76,-112.63 123.76,-96.1 175.69,-96.1 177.76,-98.17 177.76,-114.7"/>
<polyline fill="none" stroke="black" points="175.69,-112.63 123.76,-112.63 "/>
<polyline fill="none" stroke="black" points="175.69,-112.63 175.69,-96.1 "/>
<polyline fill="none" stroke="black" points="175.69,-112.63 177.76,-114.7 "/>
<text text-anchor="middle" x="150.76" y="-102.7" font-family="Helvetica,sans-Serif" font-size="9.00" fill="#c40b0a">cors</text>
</a>
</g>
</g>
<!-- node_modules/express -->
<g id="node4" class="node">
<title>node_modules/express</title>
<g id="a_node4"><a xlink:href="node_modules/express" xlink:title="express">
<polygon fill="#c40b0a" fill-opacity="0.101961" stroke="black" points="177.76,-83.7 125.83,-83.7 123.76,-81.63 123.76,-65.1 175.69,-65.1 177.76,-67.17 177.76,-83.7"/>
<polyline fill="none" stroke="black" points="175.69,-81.63 123.76,-81.63 "/>
<polyline fill="none" stroke="black" points="175.69,-81.63 175.69,-65.1 "/>
<polyline fill="none" stroke="black" points="175.69,-81.63 177.76,-83.7 "/>
<text text-anchor="middle" x="150.76" y="-71.7" font-family="Helvetica,sans-Serif" font-size="9.00" fill="#c40b0a">express</text>
</a>
</g>
</g>
<!-- node_modules/morgan -->
<g id="node5" class="node">
<title>node_modules/morgan</title>
<g id="a_node5"><a xlink:href="node_modules/morgan" xlink:title="morgan">
<polygon fill="#c40b0a" fill-opacity="0.101961" stroke="black" points="177.76,-145.7 125.83,-145.7 123.76,-143.63 123.76,-127.1 175.69,-127.1 177.76,-129.17 177.76,-145.7"/>
<polyline fill="none" stroke="black" points="175.69,-143.63 123.76,-143.63 "/>
<polyline fill="none" stroke="black" points="175.69,-143.63 175.69,-127.1 "/>
<polyline fill="none" stroke="black" points="175.69,-143.63 177.76,-145.7 "/>
<text text-anchor="middle" x="150.76" y="-133.7" font-family="Helvetica,sans-Serif" font-size="9.00" fill="#c40b0a">morgan</text>
</a>
</g>
</g>
<!-- path -->
<g id="node6" class="node">
<title>path</title>
<path fill="#ffffcc" stroke="grey" d="M171.56,-18.7C171.56,-18.7 129.96,-18.7 129.96,-18.7 126.86,-18.7 123.76,-15.6 123.76,-12.5 123.76,-12.5 123.76,-6.3 123.76,-6.3 123.76,-3.2 126.86,-0.1 129.96,-0.1 129.96,-0.1 171.56,-0.1 171.56,-0.1 174.66,-0.1 177.76,-3.2 177.76,-6.3 177.76,-6.3 177.76,-12.5 177.76,-12.5 177.76,-15.6 174.66,-18.7 171.56,-18.7"/>
<text text-anchor="middle" x="150.76" y="-6.7" font-family="Helvetica,sans-Serif" font-size="9.00" fill="grey">path</text>
</g>
<!-- public -->
<g id="node7" class="node">
<title>public</title>
<g id="a_node7"><a xlink:href="public" xlink:title="public">
<polygon fill="#ccffcc" stroke="black" points="91.25,-452.7 39.32,-452.7 37.25,-450.63 37.25,-434.1 89.18,-434.1 91.25,-436.17 91.25,-452.7"/>
<polyline fill="none" stroke="black" points="89.18,-450.63 37.25,-450.63 "/>
<polyline fill="none" stroke="black" points="89.18,-450.63 89.18,-434.1 "/>
<polyline fill="none" stroke="black" points="89.18,-450.63 91.25,-452.7 "/>
<text text-anchor="middle" x="64.25" y="-440.7" font-family="Helvetica,sans-Serif" font-size="9.00">public</text>
</a>
</g>
</g>
<!-- reverse&#45;engineer/textidor&#45;series/1&#45;textidor/config/development.js -->
<g id="node8" class="node">
<title>reverse&#45;engineer/textidor&#45;series/1&#45;textidor/config/development.js</title>
<g id="a_node8"><a xlink:href="reverse-engineer/textidor-series/1-textidor/config/development.js" xlink:title="development.js">
<path fill="#ccffcc" stroke="black" d="M182.57,-318.7C182.57,-318.7 118.94,-318.7 118.94,-318.7 115.84,-318.7 112.74,-315.6 112.74,-312.5 112.74,-312.5 112.74,-306.3 112.74,-306.3 112.74,-303.2 115.84,-300.1 118.94,-300.1 118.94,-300.1 182.57,-300.1 182.57,-300.1 185.67,-300.1 188.77,-303.2 188.77,-306.3 188.77,-306.3 188.77,-312.5 188.77,-312.5 188.77,-315.6 185.67,-318.7 182.57,-318.7"/>
<text text-anchor="middle" x="150.76" y="-306.7" font-family="Helvetica,sans-Serif" font-size="9.00">development.js</text>
</a>
</g>
</g>
<!-- reverse&#45;engineer/textidor&#45;series/1&#45;textidor/config/index.js -->
<g id="node9" class="node">
<title>reverse&#45;engineer/textidor&#45;series/1&#45;textidor/config/index.js</title>
<g id="a_node9"><a xlink:href="reverse-engineer/textidor-series/1-textidor/config/index.js" xlink:title="index.js">
<path fill="#ffffcc" stroke="black" d="M171.56,-287.7C171.56,-287.7 129.96,-287.7 129.96,-287.7 126.86,-287.7 123.76,-284.6 123.76,-281.5 123.76,-281.5 123.76,-275.3 123.76,-275.3 123.76,-272.2 126.86,-269.1 129.96,-269.1 129.96,-269.1 171.56,-269.1 171.56,-269.1 174.66,-269.1 177.76,-272.2 177.76,-275.3 177.76,-275.3 177.76,-281.5 177.76,-281.5 177.76,-284.6 174.66,-287.7 171.56,-287.7"/>
<text text-anchor="middle" x="150.76" y="-275.7" font-family="Helvetica,sans-Serif" font-size="9.00">index.js</text>
</a>
</g>
</g>
<!-- reverse&#45;engineer/textidor&#45;series/1&#45;textidor/config/production.js -->
<g id="node10" class="node">
<title>reverse&#45;engineer/textidor&#45;series/1&#45;textidor/config/production.js</title>
<g id="a_node10"><a xlink:href="reverse-engineer/textidor-series/1-textidor/config/production.js" xlink:title="production.js">
<path fill="#ccffcc" stroke="black" d="M178.07,-256.7C178.07,-256.7 123.45,-256.7 123.45,-256.7 120.35,-256.7 117.25,-253.6 117.25,-250.5 117.25,-250.5 117.25,-244.3 117.25,-244.3 117.25,-241.2 120.35,-238.1 123.45,-238.1 123.45,-238.1 178.07,-238.1 178.07,-238.1 181.17,-238.1 184.27,-241.2 184.27,-244.3 184.27,-244.3 184.27,-250.5 184.27,-250.5 184.27,-253.6 181.17,-256.7 178.07,-256.7"/>
<text text-anchor="middle" x="150.76" y="-244.7" font-family="Helvetica,sans-Serif" font-size="9.00">production.js</text>
</a>
</g>
</g>
<!-- reverse&#45;engineer/textidor&#45;series/1&#45;textidor/demo.min.js -->
<g id="node11" class="node">
<title>reverse&#45;engineer/textidor&#45;series/1&#45;textidor/demo.min.js</title>
<g id="a_node11"><a xlink:href="reverse-engineer/textidor-series/1-textidor/demo.min.js" xlink:title="demo.min.js">
<path fill="#ffffcc" stroke="black" d="M90.05,-279.7C90.05,-279.7 38.45,-279.7 38.45,-279.7 35.35,-279.7 32.25,-276.6 32.25,-273.5 32.25,-273.5 32.25,-267.3 32.25,-267.3 32.25,-264.2 35.35,-261.1 38.45,-261.1 38.45,-261.1 90.05,-261.1 90.05,-261.1 93.15,-261.1 96.25,-264.2 96.25,-267.3 96.25,-267.3 96.25,-273.5 96.25,-273.5 96.25,-276.6 93.15,-279.7 90.05,-279.7"/>
<text text-anchor="middle" x="64.25" y="-267.7" font-family="Helvetica,sans-Serif" font-size="9.00">demo.min.js</text>
</a>
</g>
</g>
<!-- reverse&#45;engineer/textidor&#45;series/1&#45;textidor/demo.min.js&#45;&gt;fs -->
<g id="edge1" class="edge">
<title>reverse&#45;engineer/textidor&#45;series/1&#45;textidor/demo.min.js&#45;&gt;fs</title>
<path fill="none" stroke="#000000" stroke-dasharray="5,2" stroke-opacity="0.200000" d="M88.99,-260.97C91.79,-259.11 94.4,-256.93 96.5,-254.4 104.49,-244.77 97.64,-237.87 104.5,-227.4 110.84,-217.74 120.36,-209.22 129.03,-202.71"/>
<polygon fill="#000000" fill-opacity="0.200000" stroke="#000000" stroke-opacity="0.200000" points="130.65,-204.14 134.29,-198.93 128.19,-200.73 130.65,-204.14"/>
</g>
<!-- reverse&#45;engineer/textidor&#45;series/1&#45;textidor/demo.min.js&#45;&gt;node_modules/morgan -->
<g id="edge2" class="edge">
<title>reverse&#45;engineer/textidor&#45;series/1&#45;textidor/demo.min.js&#45;&gt;node_modules/morgan</title>
<path fill="none" stroke="#000000" stroke-opacity="0.200000" d="M90.05,-260.88C92.54,-259.06 94.78,-256.92 96.5,-254.4 116.64,-224.88 87.81,-206 104.5,-174.4 109.82,-164.33 119.03,-155.85 127.76,-149.48"/>
<polygon fill="#000000" fill-opacity="0.200000" stroke="#000000" stroke-opacity="0.200000" points="129.36,-150.93 133.09,-145.78 126.97,-147.47 129.36,-150.93"/>
</g>
<!-- reverse&#45;engineer/textidor&#45;series/1&#45;textidor/index.js -->
<g id="node12" class="node">
<title>reverse&#45;engineer/textidor&#45;series/1&#45;textidor/index.js</title>
<g id="a_node12"><a xlink:href="reverse-engineer/textidor-series/1-textidor/index.js" xlink:title="index.js">
<path fill="#ffffcc" stroke="black" d="M85.05,-248.7C85.05,-248.7 43.45,-248.7 43.45,-248.7 40.35,-248.7 37.25,-245.6 37.25,-242.5 37.25,-242.5 37.25,-236.3 37.25,-236.3 37.25,-233.2 40.35,-230.1 43.45,-230.1 43.45,-230.1 85.05,-230.1 85.05,-230.1 88.15,-230.1 91.25,-233.2 91.25,-236.3 91.25,-236.3 91.25,-242.5 91.25,-242.5 91.25,-245.6 88.15,-248.7 85.05,-248.7"/>
<text text-anchor="middle" x="64.25" y="-236.7" font-family="Helvetica,sans-Serif" font-size="9.00">index.js</text>
</a>
</g>
</g>
<!-- reverse&#45;engineer/textidor&#45;series/1&#45;textidor/index.js&#45;&gt;fs -->
<g id="edge7" class="edge">
<title>reverse&#45;engineer/textidor&#45;series/1&#45;textidor/index.js&#45;&gt;fs</title>
<path fill="none" stroke="#000000" stroke-dasharray="5,2" stroke-opacity="0.200000" d="M81.15,-230C94.6,-222.03 114,-210.56 128.73,-201.84"/>
<polygon fill="#000000" fill-opacity="0.200000" stroke="#000000" stroke-opacity="0.200000" points="129.84,-203.63 133.93,-198.76 127.7,-200.01 129.84,-203.63"/>
</g>
<!-- reverse&#45;engineer/textidor&#45;series/1&#45;textidor/index.js&#45;&gt;node_modules/body&#45;parser -->
<g id="edge4" class="edge">
<title>reverse&#45;engineer/textidor&#45;series/1&#45;textidor/index.js&#45;&gt;node_modules/body&#45;parser</title>
<path fill="none" stroke="#000000" stroke-opacity="0.200000" d="M66.11,-229.95C69.3,-196.66 81.54,-85.42 104.5,-59.4 106.84,-56.74 109.66,-54.53 112.72,-52.68"/>
<polygon fill="#000000" fill-opacity="0.200000" stroke="#000000" stroke-opacity="0.200000" points="114.07,-54.35 118.45,-49.74 112.15,-50.61 114.07,-54.35"/>
</g>
<!-- reverse&#45;engineer/textidor&#45;series/1&#45;textidor/index.js&#45;&gt;node_modules/cors -->
<g id="edge5" class="edge">
<title>reverse&#45;engineer/textidor&#45;series/1&#45;textidor/index.js&#45;&gt;node_modules/cors</title>
<path fill="none" stroke="#000000" stroke-opacity="0.200000" d="M65.68,-230.02C67.18,-208 73.95,-152.52 104.5,-121.4 108.19,-117.64 112.82,-114.76 117.7,-112.55"/>
<polygon fill="#000000" fill-opacity="0.200000" stroke="#000000" stroke-opacity="0.200000" points="118.69,-114.42 123.5,-110.27 117.15,-110.51 118.69,-114.42"/>
</g>
<!-- reverse&#45;engineer/textidor&#45;series/1&#45;textidor/index.js&#45;&gt;node_modules/express -->
<g id="edge6" class="edge">
<title>reverse&#45;engineer/textidor&#45;series/1&#45;textidor/index.js&#45;&gt;node_modules/express</title>
<path fill="none" stroke="#000000" stroke-opacity="0.200000" d="M64.9,-229.97C64.45,-204.11 66.81,-131.33 104.5,-90.4 108.23,-86.35 113.05,-83.32 118.15,-81.06"/>
<polygon fill="#000000" fill-opacity="0.200000" stroke="#000000" stroke-opacity="0.200000" points="118.92,-83.02 123.76,-78.9 117.4,-79.1 118.92,-83.02"/>
</g>
<!-- reverse&#45;engineer/textidor&#45;series/1&#45;textidor/index.js&#45;&gt;node_modules/morgan -->
<g id="edge8" class="edge">
<title>reverse&#45;engineer/textidor&#45;series/1&#45;textidor/index.js&#45;&gt;node_modules/morgan</title>
<path fill="none" stroke="#000000" stroke-opacity="0.200000" d="M69.71,-229.94C76.23,-216.69 89.25,-192.23 104.5,-174.4 112.34,-165.23 122.53,-156.47 131.25,-149.67"/>
<polygon fill="#000000" fill-opacity="0.200000" stroke="#000000" stroke-opacity="0.200000" points="132.96,-151.02 136.46,-145.71 130.42,-147.67 132.96,-151.02"/>
</g>
<!-- reverse&#45;engineer/textidor&#45;series/1&#45;textidor/index.js&#45;&gt;path -->
<g id="edge9" class="edge">
<title>reverse&#45;engineer/textidor&#45;series/1&#45;textidor/index.js&#45;&gt;path</title>
<path fill="none" stroke="#000000" stroke-dasharray="5,2" stroke-opacity="0.200000" d="M65.71,-229.65C67.69,-191.75 76.69,-54.77 104.5,-23.4 108.03,-19.42 112.67,-16.56 117.62,-14.5"/>
<polygon fill="#000000" fill-opacity="0.200000" stroke="#000000" stroke-opacity="0.200000" points="118.57,-16.39 123.54,-12.44 117.19,-12.43 118.57,-16.39"/>
</g>
<!-- reverse&#45;engineer/textidor&#45;series/1&#45;textidor/index.js&#45;&gt;reverse&#45;engineer/textidor&#45;series/1&#45;textidor/config/index.js -->
<g id="edge3" class="edge">
<title>reverse&#45;engineer/textidor&#45;series/1&#45;textidor/index.js&#45;&gt;reverse&#45;engineer/textidor&#45;series/1&#45;textidor/config/index.js</title>
<path fill="none" stroke="#000000" stroke-width="2" stroke-opacity="0.200000" d="M85.51,-248.85C89.26,-250.85 93.07,-253.07 96.5,-255.4 100.41,-258.05 100.42,-260.01 104.5,-262.4 108.65,-264.83 113.22,-266.97 117.82,-268.84"/>
<polygon fill="#000000" fill-opacity="0.200000" stroke="#000000" stroke-width="2" stroke-opacity="0.200000" points="117.28,-270.88 123.63,-271.06 118.77,-266.95 117.28,-270.88"/>
</g>
</g>
</svg>
