<?xml version="1.0" encoding="UTF-8" standalone="no"?>
<!DOCTYPE svg PUBLIC "-//W3C//DTD SVG 1.1//EN"
 "http://www.w3.org/Graphics/SVG/1.1/DTD/svg11.dtd">
<!-- Generated by graphviz version 2.44.0 (20200408.0750)
 -->
<!-- Title: dependency&#45;cruiser output Pages: 1 -->
<svg width="322pt" height="300pt"
 viewBox="0.00 0.00 322.26 300.00" xmlns="http://www.w3.org/2000/svg" xmlns:xlink="http://www.w3.org/1999/xlink">
<g id="graph0" class="graph" transform="scale(1 1) rotate(0) translate(4 296)">
<title>dependency&#45;cruiser output</title>
<polygon fill="white" stroke="transparent" points="-4,4 -4,-296 318.26,-296 318.26,4 -4,4"/>
<g id="clust1" class="cluster">
<title>cluster_example&#45;apps</title>
<path fill="#ffffff" stroke="black" stroke-width="2" d="M20,-100C20,-100 240.26,-100 240.26,-100 246.26,-100 252.26,-106 252.26,-112 252.26,-112 252.26,-272 252.26,-272 252.26,-278 246.26,-284 240.26,-284 240.26,-284 20,-284 20,-284 14,-284 8,-278 8,-272 8,-272 8,-112 8,-112 8,-106 14,-100 20,-100"/>
<text text-anchor="middle" x="130.13" y="-271.9" font-family="Helvetica,sans-Serif" font-weight="bold" font-size="9.00">example&#45;apps</text>
</g>
<g id="clust2" class="cluster">
<title>cluster_example&#45;apps/weather&#45;it&#45;promised</title>
<path fill="#ffffff" stroke="black" stroke-width="2" d="M28,-108C28,-108 232.26,-108 232.26,-108 238.26,-108 244.26,-114 244.26,-120 244.26,-120 244.26,-245 244.26,-245 244.26,-251 238.26,-257 232.26,-257 232.26,-257 28,-257 28,-257 22,-257 16,-251 16,-245 16,-245 16,-120 16,-120 16,-114 22,-108 28,-108"/>
<text text-anchor="middle" x="130.13" y="-244.9" font-family="Helvetica,sans-Serif" font-weight="bold" font-size="9.00">weather&#45;it&#45;promised</text>
</g>
<g id="clust3" class="cluster">
<title>cluster_example&#45;apps/weather&#45;it&#45;promised/config</title>
<path fill="#ffffff" stroke="black" stroke-width="2" d="M178.26,-177C178.26,-177 224.26,-177 224.26,-177 230.26,-177 236.26,-183 236.26,-189 236.26,-189 236.26,-218 236.26,-218 236.26,-224 230.26,-230 224.26,-230 224.26,-230 178.26,-230 178.26,-230 172.26,-230 166.26,-224 166.26,-218 166.26,-218 166.26,-189 166.26,-189 166.26,-183 172.26,-177 178.26,-177"/>
<text text-anchor="middle" x="201.26" y="-217.9" font-family="Helvetica,sans-Serif" font-weight="bold" font-size="9.00">config</text>
</g>
<g id="clust4" class="cluster">
<title>cluster_example&#45;apps/weather&#45;it&#45;promised/renderer</title>
<path fill="#ffffff" stroke="black" stroke-width="2" d="M98,-116C98,-116 144,-116 144,-116 150,-116 156,-122 156,-128 156,-128 156,-157 156,-157 156,-163 150,-169 144,-169 144,-169 98,-169 98,-169 92,-169 86,-163 86,-157 86,-157 86,-128 86,-128 86,-122 92,-116 98,-116"/>
<text text-anchor="middle" x="121" y="-156.9" font-family="Helvetica,sans-Serif" font-weight="bold" font-size="9.00">renderer</text>
</g>
<g id="clust5" class="cluster">
<title>cluster_example&#45;apps/weather&#45;it&#45;promised/weather</title>
<path fill="#ffffff" stroke="black" stroke-width="2" d="M98,-177C98,-177 144,-177 144,-177 150,-177 156,-183 156,-189 156,-189 156,-218 156,-218 156,-224 150,-230 144,-230 144,-230 98,-230 98,-230 92,-230 86,-224 86,-218 86,-218 86,-189 86,-189 86,-183 92,-177 98,-177"/>
<text text-anchor="middle" x="121" y="-217.9" font-family="Helvetica,sans-Serif" font-weight="bold" font-size="9.00">weather</text>
</g>
<g id="clust6" class="cluster">
<title>cluster_node_modules</title>
<path fill="#ffffff" stroke="black" stroke-width="2" d="M176,-8C176,-8 226.52,-8 226.52,-8 232.52,-8 238.52,-14 238.52,-20 238.52,-20 238.52,-80 238.52,-80 238.52,-86 232.52,-92 226.52,-92 226.52,-92 176,-92 176,-92 170,-92 164,-86 164,-80 164,-80 164,-20 164,-20 164,-14 170,-8 176,-8"/>
<text text-anchor="middle" x="201.26" y="-79.9" font-family="Helvetica,sans-Serif" font-weight="bold" font-size="9.00">node_modules</text>
</g>
<!-- dotenv -->
<g id="node1" class="node">
<title>dotenv</title>
<path fill="#ffffcc" stroke="red" d="M308.06,-203.3C308.06,-203.3 266.46,-203.3 266.46,-203.3 263.36,-203.3 260.26,-200.2 260.26,-197.1 260.26,-197.1 260.26,-190.9 260.26,-190.9 260.26,-187.8 263.36,-184.7 266.46,-184.7 266.46,-184.7 308.06,-184.7 308.06,-184.7 311.16,-184.7 314.26,-187.8 314.26,-190.9 314.26,-190.9 314.26,-197.1 314.26,-197.1 314.26,-200.2 311.16,-203.3 308.06,-203.3"/>
<text text-anchor="middle" x="287.26" y="-191.3" font-family="Helvetica,sans-Serif" font-size="9.00" fill="red">dotenv</text>
</g>
<!-- example&#45;apps/weather&#45;it&#45;promised/config/index.js -->
<g id="node2" class="node">
<title>example&#45;apps/weather&#45;it&#45;promised/config/index.js</title>
<g id="a_node2"><a xlink:href="example-apps/weather-it-promised/config/index.js" xlink:title="index.js">
<path fill="#ffffcc" stroke="black" d="M222.06,-203.3C222.06,-203.3 180.46,-203.3 180.46,-203.3 177.36,-203.3 174.26,-200.2 174.26,-197.1 174.26,-197.1 174.26,-190.9 174.26,-190.9 174.26,-187.8 177.36,-184.7 180.46,-184.7 180.46,-184.7 222.06,-184.7 222.06,-184.7 225.16,-184.7 228.26,-187.8 228.26,-190.9 228.26,-190.9 228.26,-197.1 228.26,-197.1 228.26,-200.2 225.16,-203.3 222.06,-203.3"/>
<text text-anchor="middle" x="201.26" y="-191.3" font-family="Helvetica,sans-Serif" font-size="9.00">index.js</text>
</a>
</g>
</g>
<!-- example&#45;apps/weather&#45;it&#45;promised/config/index.js&#45;&gt;dotenv -->
<g id="edge1" class="edge">
<title>example&#45;apps/weather&#45;it&#45;promised/config/index.js&#45;&gt;dotenv</title>
<path fill="none" stroke="#000000" stroke-width="2" stroke-opacity="0.200000" d="M228.38,-194C236.44,-194 245.41,-194 253.84,-194"/>
<polygon fill="#000000" fill-opacity="0.200000" stroke="#000000" stroke-width="2" stroke-opacity="0.200000" points="254.16,-196.1 260.16,-194 254.16,-191.9 254.16,-196.1"/>
</g>
<!-- example&#45;apps/weather&#45;it&#45;promised/index.js -->
<g id="node3" class="node">
<title>example&#45;apps/weather&#45;it&#45;promised/index.js</title>
<g id="a_node3"><a xlink:href="example-apps/weather-it-promised/index.js" xlink:title="index.js">
<path fill="#ffffcc" stroke="black" d="M71.8,-172.3C71.8,-172.3 30.2,-172.3 30.2,-172.3 27.1,-172.3 24,-169.2 24,-166.1 24,-166.1 24,-159.9 24,-159.9 24,-156.8 27.1,-153.7 30.2,-153.7 30.2,-153.7 71.8,-153.7 71.8,-153.7 74.9,-153.7 78,-156.8 78,-159.9 78,-159.9 78,-166.1 78,-166.1 78,-169.2 74.9,-172.3 71.8,-172.3"/>
<text text-anchor="middle" x="51" y="-160.3" font-family="Helvetica,sans-Serif" font-size="9.00">index.js</text>
</a>
</g>
</g>
<!-- example&#45;apps/weather&#45;it&#45;promised/renderer/index.js -->
<g id="node4" class="node">
<title>example&#45;apps/weather&#45;it&#45;promised/renderer/index.js</title>
<g id="a_node4"><a xlink:href="example-apps/weather-it-promised/renderer/index.js" xlink:title="index.js">
<path fill="#ffffcc" stroke="black" d="M141.8,-142.3C141.8,-142.3 100.2,-142.3 100.2,-142.3 97.1,-142.3 94,-139.2 94,-136.1 94,-136.1 94,-129.9 94,-129.9 94,-126.8 97.1,-123.7 100.2,-123.7 100.2,-123.7 141.8,-123.7 141.8,-123.7 144.9,-123.7 148,-126.8 148,-129.9 148,-129.9 148,-136.1 148,-136.1 148,-139.2 144.9,-142.3 141.8,-142.3"/>
<text text-anchor="middle" x="121" y="-130.3" font-family="Helvetica,sans-Serif" font-size="9.00">index.js</text>
</a>
</g>
</g>
<!-- example&#45;apps/weather&#45;it&#45;promised/index.js&#45;&gt;example&#45;apps/weather&#45;it&#45;promised/renderer/index.js -->
<g id="edge2" class="edge">
<title>example&#45;apps/weather&#45;it&#45;promised/index.js&#45;&gt;example&#45;apps/weather&#45;it&#45;promised/renderer/index.js</title>
<path fill="none" stroke="#000000" stroke-width="2" stroke-opacity="0.200000" d="M73.14,-153.67C79.35,-150.93 86.23,-147.9 92.76,-145.02"/>
<polygon fill="#000000" fill-opacity="0.200000" stroke="#000000" stroke-width="2" stroke-opacity="0.200000" points="93.99,-146.77 98.64,-142.43 92.3,-142.93 93.99,-146.77"/>
</g>
<!-- example&#45;apps/weather&#45;it&#45;promised/weather/index.js -->
<g id="node5" class="node">
<title>example&#45;apps/weather&#45;it&#45;promised/weather/index.js</title>
<g id="a_node5"><a xlink:href="example-apps/weather-it-promised/weather/index.js" xlink:title="index.js">
<path fill="#ffffcc" stroke="black" d="M141.8,-203.3C141.8,-203.3 100.2,-203.3 100.2,-203.3 97.1,-203.3 94,-200.2 94,-197.1 94,-197.1 94,-190.9 94,-190.9 94,-187.8 97.1,-184.7 100.2,-184.7 100.2,-184.7 141.8,-184.7 141.8,-184.7 144.9,-184.7 148,-187.8 148,-190.9 148,-190.9 148,-197.1 148,-197.1 148,-200.2 144.9,-203.3 141.8,-203.3"/>
<text text-anchor="middle" x="121" y="-191.3" font-family="Helvetica,sans-Serif" font-size="9.00">index.js</text>
</a>
</g>
</g>
<!-- example&#45;apps/weather&#45;it&#45;promised/index.js&#45;&gt;example&#45;apps/weather&#45;it&#45;promised/weather/index.js -->
<g id="edge3" class="edge">
<title>example&#45;apps/weather&#45;it&#45;promised/index.js&#45;&gt;example&#45;apps/weather&#45;it&#45;promised/weather/index.js</title>
<path fill="none" stroke="#000000" stroke-width="2" stroke-opacity="0.200000" d="M72.77,-172.47C79.36,-175.47 86.74,-178.84 93.67,-182"/>
<polygon fill="#000000" fill-opacity="0.200000" stroke="#000000" stroke-width="2" stroke-opacity="0.200000" points="93.02,-184.01 99.36,-184.59 94.77,-180.19 93.02,-184.01"/>
</g>
<!-- node_modules/boxen -->
<g id="node6" class="node">
<title>node_modules/boxen</title>
<g id="a_node6"><a xlink:href="node_modules/boxen" xlink:title="boxen">
<polygon fill="#c40b0a" fill-opacity="0.101961" stroke="black" points="228.26,-34.3 176.33,-34.3 174.26,-32.23 174.26,-15.7 226.19,-15.7 228.26,-17.77 228.26,-34.3"/>
<polyline fill="none" stroke="black" points="226.19,-32.23 174.26,-32.23 "/>
<polyline fill="none" stroke="black" points="226.19,-32.23 226.19,-15.7 "/>
<polyline fill="none" stroke="black" points="226.19,-32.23 228.26,-34.3 "/>
<text text-anchor="middle" x="201.26" y="-22.3" font-family="Helvetica,sans-Serif" font-size="9.00" fill="#c40b0a">boxen</text>
</a>
</g>
</g>
<!-- example&#45;apps/weather&#45;it&#45;promised/renderer/index.js&#45;&gt;node_modules/boxen -->
<g id="edge4" class="edge">
<title>example&#45;apps/weather&#45;it&#45;promised/renderer/index.js&#45;&gt;node_modules/boxen</title>
<path fill="none" stroke="#000000" stroke-opacity="0.200000" d="M123.93,-123.64C128.14,-105.43 139.76,-64.93 164,-41 165.47,-39.55 167.09,-38.22 168.81,-37"/>
<polygon fill="#000000" fill-opacity="0.200000" stroke="#000000" stroke-opacity="0.200000" points="170.2,-38.61 174.21,-33.67 168,-35.04 170.2,-38.61"/>
</g>
<!-- example&#45;apps/weather&#45;it&#45;promised/weather/index.js&#45;&gt;example&#45;apps/weather&#45;it&#45;promised/config/index.js -->
<g id="edge5" class="edge">
<title>example&#45;apps/weather&#45;it&#45;promised/weather/index.js&#45;&gt;example&#45;apps/weather&#45;it&#45;promised/config/index.js</title>
<path fill="none" stroke="#000000" stroke-width="2" stroke-opacity="0.200000" d="M148.06,-194C154.46,-194 161.39,-194 168.04,-194"/>
<polygon fill="#000000" fill-opacity="0.200000" stroke="#000000" stroke-width="2" stroke-opacity="0.200000" points="168.05,-196.1 174.05,-194 168.05,-191.9 168.05,-196.1"/>
</g>
<!-- node_modules/node&#45;fetch -->
<g id="node7" class="node">
<title>node_modules/node&#45;fetch</title>
<g id="a_node7"><a xlink:href="node_modules/node-fetch" xlink:title="node&#45;fetch">
<polygon fill="#c40b0a" fill-opacity="0.101961" stroke="black" points="230.28,-65.3 174.31,-65.3 172.24,-63.23 172.24,-46.7 228.21,-46.7 230.28,-48.77 230.28,-65.3"/>
<polyline fill="none" stroke="black" points="228.21,-63.23 172.24,-63.23 "/>
<polyline fill="none" stroke="black" points="228.21,-63.23 228.21,-46.7 "/>
<polyline fill="none" stroke="black" points="228.21,-63.23 230.28,-65.3 "/>
<text text-anchor="middle" x="201.26" y="-53.3" font-family="Helvetica,sans-Serif" font-size="9.00" fill="#c40b0a">node&#45;fetch</text>
</a>
</g>
</g>
<!-- example&#45;apps/weather&#45;it&#45;promised/weather/index.js&#45;&gt;node_modules/node&#45;fetch -->
<g id="edge6" class="edge">
<title>example&#45;apps/weather&#45;it&#45;promised/weather/index.js&#45;&gt;node_modules/node&#45;fetch</title>
<path fill="none" stroke="#000000" stroke-opacity="0.200000" d="M140.97,-184.67C146.39,-181.28 151.93,-177.03 156,-172 180.79,-141.37 192.75,-95.33 197.55,-71.51"/>
<polygon fill="#000000" fill-opacity="0.200000" stroke="#000000" stroke-opacity="0.200000" points="199.66,-71.7 198.73,-65.41 195.53,-70.91 199.66,-71.7"/>
</g>
</g>
</svg>
