<?xml version="1.0" encoding="UTF-8" standalone="no"?>
<!DOCTYPE svg PUBLIC "-//W3C//DTD SVG 1.1//EN"
 "http://www.w3.org/Graphics/SVG/1.1/DTD/svg11.dtd">
<!-- Generated by graphviz version 2.44.0 (20200408.0750)
 -->
<!-- Title: dependency&#45;cruiser output Pages: 1 -->
<svg width="302pt" height="454pt"
 viewBox="0.00 0.00 301.52 454.00" xmlns="http://www.w3.org/2000/svg" xmlns:xlink="http://www.w3.org/1999/xlink">
<g id="graph0" class="graph" transform="scale(1 1) rotate(0) translate(4 450)">
<title>dependency&#45;cruiser output</title>
<polygon fill="white" stroke="transparent" points="-4,4 -4,-450 297.52,-450 297.52,4 -4,4"/>
<g id="clust1" class="cluster">
<title>cluster_node_modules</title>
<path fill="#ffffff" stroke="black" stroke-width="2" d="M198.51,-8C198.51,-8 254.52,-8 254.52,-8 260.52,-8 266.52,-14 266.52,-20 266.52,-20 266.52,-111 266.52,-111 266.52,-117 260.52,-123 254.52,-123 254.52,-123 198.51,-123 198.51,-123 192.51,-123 186.51,-117 186.51,-111 186.51,-111 186.51,-20 186.51,-20 186.51,-14 192.51,-8 198.51,-8"/>
<text text-anchor="middle" x="226.52" y="-110.9" font-family="Helvetica,sans-Serif" font-weight="bold" font-size="9.00">node_modules</text>
</g>
<g id="clust2" class="cluster">
<title>cluster_using&#45;express</title>
<path fill="#ffffff" stroke="black" stroke-width="2" d="M20,-157C20,-157 273.52,-157 273.52,-157 279.52,-157 285.52,-163 285.52,-169 285.52,-169 285.52,-426 285.52,-426 285.52,-432 279.52,-438 273.52,-438 273.52,-438 20,-438 20,-438 14,-438 8,-432 8,-426 8,-426 8,-169 8,-169 8,-163 14,-157 20,-157"/>
<text text-anchor="middle" x="146.76" y="-425.9" font-family="Helvetica,sans-Serif" font-weight="bold" font-size="9.00">using&#45;express</text>
</g>
<g id="clust3" class="cluster">
<title>cluster_using&#45;express/2&#45;express&#45;dynamic&#45;serving</title>
<path fill="#ffffff" stroke="black" stroke-width="2" d="M28,-165C28,-165 265.52,-165 265.52,-165 271.52,-165 277.52,-171 277.52,-177 277.52,-177 277.52,-399 277.52,-399 277.52,-405 271.52,-411 265.52,-411 265.52,-411 28,-411 28,-411 22,-411 16,-405 16,-399 16,-399 16,-177 16,-177 16,-171 22,-165 28,-165"/>
<text text-anchor="middle" x="146.76" y="-398.9" font-family="Helvetica,sans-Serif" font-weight="bold" font-size="9.00">2&#45;express&#45;dynamic&#45;serving</text>
</g>
<g id="clust4" class="cluster">
<title>cluster_using&#45;express/2&#45;express&#45;dynamic&#45;serving/exercise</title>
<path fill="#ffffff" stroke="black" stroke-width="2" d="M36,-173C36,-173 257.52,-173 257.52,-173 263.52,-173 269.52,-179 269.52,-185 269.52,-185 269.52,-372 269.52,-372 269.52,-378 263.52,-384 257.52,-384 257.52,-384 36,-384 36,-384 30,-384 24,-378 24,-372 24,-372 24,-185 24,-185 24,-179 30,-173 36,-173"/>
<text text-anchor="middle" x="146.76" y="-371.9" font-family="Helvetica,sans-Serif" font-weight="bold" font-size="9.00">exercise</text>
</g>
<g id="clust5" class="cluster">
<title>cluster_using&#45;express/2&#45;express&#45;dynamic&#45;serving/exercise/config</title>
<path fill="#ffffff" stroke="black" stroke-width="2" d="M106,-242C106,-242 249.52,-242 249.52,-242 255.52,-242 261.52,-248 261.52,-254 261.52,-254 261.52,-345 261.52,-345 261.52,-351 255.52,-357 249.52,-357 249.52,-357 106,-357 106,-357 100,-357 94,-351 94,-345 94,-345 94,-254 94,-254 94,-248 100,-242 106,-242"/>
<text text-anchor="middle" x="177.76" y="-344.9" font-family="Helvetica,sans-Serif" font-weight="bold" font-size="9.00">config</text>
</g>
<g id="clust6" class="cluster">
<title>cluster_using&#45;express/2&#45;express&#45;dynamic&#45;serving/exercise/middleware</title>
<path fill="#ffffff" stroke="black" stroke-width="2" d="M117.26,-181C117.26,-181 163.26,-181 163.26,-181 169.26,-181 175.26,-187 175.26,-193 175.26,-193 175.26,-222 175.26,-222 175.26,-228 169.26,-234 163.26,-234 163.26,-234 117.26,-234 117.26,-234 111.26,-234 105.26,-228 105.26,-222 105.26,-222 105.26,-193 105.26,-193 105.26,-187 111.26,-181 117.26,-181"/>
<text text-anchor="middle" x="140.26" y="-221.9" font-family="Helvetica,sans-Serif" font-weight="bold" font-size="9.00">middleware</text>
</g>
<!-- fs -->
<g id="node1" class="node">
<title>fs</title>
<path fill="#ffffcc" stroke="grey" d="M247.32,-149.3C247.32,-149.3 205.72,-149.3 205.72,-149.3 202.62,-149.3 199.52,-146.2 199.52,-143.1 199.52,-143.1 199.52,-136.9 199.52,-136.9 199.52,-133.8 202.62,-130.7 205.72,-130.7 205.72,-130.7 247.32,-130.7 247.32,-130.7 250.42,-130.7 253.52,-133.8 253.52,-136.9 253.52,-136.9 253.52,-143.1 253.52,-143.1 253.52,-146.2 250.42,-149.3 247.32,-149.3"/>
<text text-anchor="middle" x="226.52" y="-137.3" font-family="Helvetica,sans-Serif" font-size="9.00" fill="grey">fs</text>
</g>
<!-- node_modules/body&#45;parser -->
<g id="node2" class="node">
<title>node_modules/body&#45;parser</title>
<g id="a_node2"><a xlink:href="node_modules/body-parser" xlink:title="body&#45;parser">
<polygon fill="#c40b0a" fill-opacity="0.101961" stroke="black" points="258.52,-65.3 196.58,-65.3 194.51,-63.23 194.51,-46.7 256.46,-46.7 258.52,-48.77 258.52,-65.3"/>
<polyline fill="none" stroke="black" points="256.46,-63.23 194.51,-63.23 "/>
<polyline fill="none" stroke="black" points="256.46,-63.23 256.46,-46.7 "/>
<polyline fill="none" stroke="black" points="256.46,-63.23 258.52,-65.3 "/>
<text text-anchor="middle" x="226.52" y="-53.3" font-family="Helvetica,sans-Serif" font-size="9.00" fill="#c40b0a">body&#45;parser</text>
</a>
</g>
</g>
<!-- node_modules/date&#45;fns -->
<g id="node3" class="node">
<title>node_modules/date&#45;fns</title>
<g id="a_node3"><a xlink:href="node_modules/date-fns" xlink:title="date&#45;fns">
<polygon fill="#c40b0a" fill-opacity="0.101961" stroke="black" points="253.52,-96.3 201.58,-96.3 199.52,-94.23 199.52,-77.7 251.45,-77.7 253.52,-79.77 253.52,-96.3"/>
<polyline fill="none" stroke="black" points="251.45,-94.23 199.52,-94.23 "/>
<polyline fill="none" stroke="black" points="251.45,-94.23 251.45,-77.7 "/>
<polyline fill="none" stroke="black" points="251.45,-94.23 253.52,-96.3 "/>
<text text-anchor="middle" x="226.52" y="-84.3" font-family="Helvetica,sans-Serif" font-size="9.00" fill="#c40b0a">date&#45;fns</text>
</a>
</g>
</g>
<!-- node_modules/express -->
<g id="node4" class="node">
<title>node_modules/express</title>
<g id="a_node4"><a xlink:href="node_modules/express" xlink:title="express">
<polygon fill="#c40b0a" fill-opacity="0.101961" stroke="black" points="253.52,-34.3 201.58,-34.3 199.52,-32.23 199.52,-15.7 251.45,-15.7 253.52,-17.77 253.52,-34.3"/>
<polyline fill="none" stroke="black" points="251.45,-32.23 199.52,-32.23 "/>
<polyline fill="none" stroke="black" points="251.45,-32.23 251.45,-15.7 "/>
<polyline fill="none" stroke="black" points="251.45,-32.23 253.52,-34.3 "/>
<text text-anchor="middle" x="226.52" y="-22.3" font-family="Helvetica,sans-Serif" font-size="9.00" fill="#c40b0a">express</text>
</a>
</g>
</g>
<!-- using&#45;express/2&#45;express&#45;dynamic&#45;serving/exercise/config/default.js -->
<g id="node5" class="node">
<title>using&#45;express/2&#45;express&#45;dynamic&#45;serving/exercise/config/default.js</title>
<g id="a_node5"><a xlink:href="using-express/2-express-dynamic-serving/exercise/config/default.js" xlink:title="default.js">
<path fill="#ffffcc" stroke="black" d="M247.32,-299.3C247.32,-299.3 205.72,-299.3 205.72,-299.3 202.62,-299.3 199.52,-296.2 199.52,-293.1 199.52,-293.1 199.52,-286.9 199.52,-286.9 199.52,-283.8 202.62,-280.7 205.72,-280.7 205.72,-280.7 247.32,-280.7 247.32,-280.7 250.42,-280.7 253.52,-283.8 253.52,-286.9 253.52,-286.9 253.52,-293.1 253.52,-293.1 253.52,-296.2 250.42,-299.3 247.32,-299.3"/>
<text text-anchor="middle" x="226.52" y="-287.3" font-family="Helvetica,sans-Serif" font-size="9.00">default.js</text>
</a>
</g>
</g>
<!-- using&#45;express/2&#45;express&#45;dynamic&#45;serving/exercise/config/development.js -->
<g id="node6" class="node">
<title>using&#45;express/2&#45;express&#45;dynamic&#45;serving/exercise/config/development.js</title>
<g id="a_node6"><a xlink:href="using-express/2-express-dynamic-serving/exercise/config/development.js" xlink:title="development.js">
<path fill="#ccffcc" stroke="black" d="M172.07,-330.3C172.07,-330.3 108.44,-330.3 108.44,-330.3 105.34,-330.3 102.24,-327.2 102.24,-324.1 102.24,-324.1 102.24,-317.9 102.24,-317.9 102.24,-314.8 105.34,-311.7 108.44,-311.7 108.44,-311.7 172.07,-311.7 172.07,-311.7 175.17,-311.7 178.27,-314.8 178.27,-317.9 178.27,-317.9 178.27,-324.1 178.27,-324.1 178.27,-327.2 175.17,-330.3 172.07,-330.3"/>
<text text-anchor="middle" x="140.26" y="-318.3" font-family="Helvetica,sans-Serif" font-size="9.00">development.js</text>
</a>
</g>
</g>
<!-- using&#45;express/2&#45;express&#45;dynamic&#45;serving/exercise/config/index.js -->
<g id="node7" class="node">
<title>using&#45;express/2&#45;express&#45;dynamic&#45;serving/exercise/config/index.js</title>
<g id="a_node7"><a xlink:href="using-express/2-express-dynamic-serving/exercise/config/index.js" xlink:title="index.js">
<path fill="#ffffcc" stroke="black" d="M161.06,-299.3C161.06,-299.3 119.46,-299.3 119.46,-299.3 116.36,-299.3 113.26,-296.2 113.26,-293.1 113.26,-293.1 113.26,-286.9 113.26,-286.9 113.26,-283.8 116.36,-280.7 119.46,-280.7 119.46,-280.7 161.06,-280.7 161.06,-280.7 164.16,-280.7 167.26,-283.8 167.26,-286.9 167.26,-286.9 167.26,-293.1 167.26,-293.1 167.26,-296.2 164.16,-299.3 161.06,-299.3"/>
<text text-anchor="middle" x="140.26" y="-287.3" font-family="Helvetica,sans-Serif" font-size="9.00">index.js</text>
</a>
</g>
</g>
<!-- using&#45;express/2&#45;express&#45;dynamic&#45;serving/exercise/config/index.js&#45;&gt;using&#45;express/2&#45;express&#45;dynamic&#45;serving/exercise/config/default.js -->
<g id="edge1" class="edge">
<title>using&#45;express/2&#45;express&#45;dynamic&#45;serving/exercise/config/index.js&#45;&gt;using&#45;express/2&#45;express&#45;dynamic&#45;serving/exercise/config/default.js</title>
<path fill="none" stroke="#000000" stroke-width="2" stroke-opacity="0.200000" d="M167.46,-290C175.54,-290 184.54,-290 193,-290"/>
<polygon fill="#000000" fill-opacity="0.200000" stroke="#000000" stroke-width="2" stroke-opacity="0.200000" points="193.34,-292.1 199.34,-290 193.34,-287.9 193.34,-292.1"/>
</g>
<!-- using&#45;express/2&#45;express&#45;dynamic&#45;serving/exercise/config/production.js -->
<g id="node8" class="node">
<title>using&#45;express/2&#45;express&#45;dynamic&#45;serving/exercise/config/production.js</title>
<g id="a_node8"><a xlink:href="using-express/2-express-dynamic-serving/exercise/config/production.js" xlink:title="production.js">
<path fill="#ccffcc" stroke="black" d="M167.57,-268.3C167.57,-268.3 112.95,-268.3 112.95,-268.3 109.85,-268.3 106.75,-265.2 106.75,-262.1 106.75,-262.1 106.75,-255.9 106.75,-255.9 106.75,-252.8 109.85,-249.7 112.95,-249.7 112.95,-249.7 167.57,-249.7 167.57,-249.7 170.67,-249.7 173.77,-252.8 173.77,-255.9 173.77,-255.9 173.77,-262.1 173.77,-262.1 173.77,-265.2 170.67,-268.3 167.57,-268.3"/>
<text text-anchor="middle" x="140.26" y="-256.3" font-family="Helvetica,sans-Serif" font-size="9.00">production.js</text>
</a>
</g>
</g>
<!-- using&#45;express/2&#45;express&#45;dynamic&#45;serving/exercise/index.js -->
<g id="node9" class="node">
<title>using&#45;express/2&#45;express&#45;dynamic&#45;serving/exercise/index.js</title>
<g id="a_node9"><a xlink:href="using-express/2-express-dynamic-serving/exercise/index.js" xlink:title="index.js">
<path fill="#ffffcc" stroke="black" d="M79.8,-203.3C79.8,-203.3 38.2,-203.3 38.2,-203.3 35.1,-203.3 32,-200.2 32,-197.1 32,-197.1 32,-190.9 32,-190.9 32,-187.8 35.1,-184.7 38.2,-184.7 38.2,-184.7 79.8,-184.7 79.8,-184.7 82.9,-184.7 86,-187.8 86,-190.9 86,-190.9 86,-197.1 86,-197.1 86,-200.2 82.9,-203.3 79.8,-203.3"/>
<text text-anchor="middle" x="59" y="-191.3" font-family="Helvetica,sans-Serif" font-size="9.00">index.js</text>
</a>
</g>
</g>
<!-- using&#45;express/2&#45;express&#45;dynamic&#45;serving/exercise/index.js&#45;&gt;node_modules/body&#45;parser -->
<g id="edge4" class="edge">
<title>using&#45;express/2&#45;express&#45;dynamic&#45;serving/exercise/index.js&#45;&gt;node_modules/body&#45;parser</title>
<path fill="none" stroke="#000000" stroke-opacity="0.200000" d="M75.23,-184.69C100.1,-168.78 149.52,-134.08 178.51,-93 184.27,-84.84 179.54,-79.15 186.51,-72 187.63,-70.85 188.84,-69.79 190.12,-68.79"/>
<polygon fill="#000000" fill-opacity="0.200000" stroke="#000000" stroke-opacity="0.200000" points="191.52,-70.39 195.36,-65.32 189.2,-66.89 191.52,-70.39"/>
</g>
<!-- using&#45;express/2&#45;express&#45;dynamic&#45;serving/exercise/index.js&#45;&gt;node_modules/express -->
<g id="edge5" class="edge">
<title>using&#45;express/2&#45;express&#45;dynamic&#45;serving/exercise/index.js&#45;&gt;node_modules/express</title>
<path fill="none" stroke="#000000" stroke-opacity="0.200000" d="M60.96,-184.67C63.36,-165.62 71.15,-121.74 94,-94 119.82,-62.66 163.65,-43.76 193.56,-33.86"/>
<polygon fill="#000000" fill-opacity="0.200000" stroke="#000000" stroke-opacity="0.200000" points="194.28,-35.84 199.34,-32 192.99,-31.84 194.28,-35.84"/>
</g>
<!-- using&#45;express/2&#45;express&#45;dynamic&#45;serving/exercise/index.js&#45;&gt;using&#45;express/2&#45;express&#45;dynamic&#45;serving/exercise/config/index.js -->
<g id="edge2" class="edge">
<title>using&#45;express/2&#45;express&#45;dynamic&#45;serving/exercise/index.js&#45;&gt;using&#45;express/2&#45;express&#45;dynamic&#45;serving/exercise/config/index.js</title>
<path fill="none" stroke="#000000" stroke-width="2" stroke-opacity="0.200000" d="M61.5,-203.56C64.59,-220.17 73.22,-254.47 94,-274 97.75,-277.53 102.33,-280.28 107.12,-282.44"/>
<polygon fill="#000000" fill-opacity="0.200000" stroke="#000000" stroke-width="2" stroke-opacity="0.200000" points="106.45,-284.43 112.8,-284.7 108,-280.53 106.45,-284.43"/>
</g>
<!-- using&#45;express/2&#45;express&#45;dynamic&#45;serving/exercise/middleware/logger.js -->
<g id="node10" class="node">
<title>using&#45;express/2&#45;express&#45;dynamic&#45;serving/exercise/middleware/logger.js</title>
<g id="a_node10"><a xlink:href="using-express/2-express-dynamic-serving/exercise/middleware/logger.js" xlink:title="logger.js">
<path fill="#ffffcc" stroke="black" d="M161.06,-207.3C161.06,-207.3 119.46,-207.3 119.46,-207.3 116.36,-207.3 113.26,-204.2 113.26,-201.1 113.26,-201.1 113.26,-194.9 113.26,-194.9 113.26,-191.8 116.36,-188.7 119.46,-188.7 119.46,-188.7 161.06,-188.7 161.06,-188.7 164.16,-188.7 167.26,-191.8 167.26,-194.9 167.26,-194.9 167.26,-201.1 167.26,-201.1 167.26,-204.2 164.16,-207.3 161.06,-207.3"/>
<text text-anchor="middle" x="140.26" y="-195.3" font-family="Helvetica,sans-Serif" font-size="9.00">logger.js</text>
</a>
</g>
</g>
<!-- using&#45;express/2&#45;express&#45;dynamic&#45;serving/exercise/index.js&#45;&gt;using&#45;express/2&#45;express&#45;dynamic&#45;serving/exercise/middleware/logger.js -->
<g id="edge3" class="edge">
<title>using&#45;express/2&#45;express&#45;dynamic&#45;serving/exercise/index.js&#45;&gt;using&#45;express/2&#45;express&#45;dynamic&#45;serving/exercise/middleware/logger.js</title>
<path fill="none" stroke="#000000" stroke-width="2" stroke-opacity="0.200000" d="M86.39,-195.33C93.01,-195.67 100.19,-196.03 107.06,-196.37"/>
<polygon fill="#000000" fill-opacity="0.200000" stroke="#000000" stroke-width="2" stroke-opacity="0.200000" points="107.15,-198.48 113.25,-196.69 107.36,-194.29 107.15,-198.48"/>
</g>
<!-- using&#45;express/2&#45;express&#45;dynamic&#45;serving/exercise/middleware/logger.js&#45;&gt;fs -->
<g id="edge7" class="edge">
<title>using&#45;express/2&#45;express&#45;dynamic&#45;serving/exercise/middleware/logger.js&#45;&gt;fs</title>
<path fill="none" stroke="#000000" stroke-dasharray="5,2" stroke-opacity="0.200000" d="M154.8,-188.68C168.84,-179.01 190.91,-163.82 206.66,-152.98"/>
<polygon fill="#000000" fill-opacity="0.200000" stroke="#000000" stroke-opacity="0.200000" points="207.98,-154.62 211.73,-149.49 205.6,-151.16 207.98,-154.62"/>
</g>
<!-- using&#45;express/2&#45;express&#45;dynamic&#45;serving/exercise/middleware/logger.js&#45;&gt;node_modules/date&#45;fns -->
<g id="edge6" class="edge">
<title>using&#45;express/2&#45;express&#45;dynamic&#45;serving/exercise/middleware/logger.js&#45;&gt;node_modules/date&#45;fns</title>
<path fill="none" stroke="#000000" stroke-opacity="0.200000" d="M146.16,-188.53C153.81,-174.13 169.52,-146.16 186.51,-125 193.57,-116.21 202.52,-107.36 210.06,-100.42"/>
<polygon fill="#000000" fill-opacity="0.200000" stroke="#000000" stroke-opacity="0.200000" points="211.51,-101.94 214.55,-96.36 208.69,-98.83 211.51,-101.94"/>
</g>
</g>
</svg>
