<?xml version="1.0" encoding="UTF-8" standalone="no"?>
<!DOCTYPE svg PUBLIC "-//W3C//DTD SVG 1.1//EN"
 "http://www.w3.org/Graphics/SVG/1.1/DTD/svg11.dtd">
<!-- Generated by graphviz version 2.44.0 (20200408.0750)
 -->
<!-- Title: dependency&#45;cruiser output Pages: 1 -->
<svg width="312pt" height="472pt"
 viewBox="0.00 0.00 312.02 472.40" xmlns="http://www.w3.org/2000/svg" xmlns:xlink="http://www.w3.org/1999/xlink">
<g id="graph0" class="graph" transform="scale(1 1) rotate(0) translate(4 468.4)">
<title>dependency&#45;cruiser output</title>
<polygon fill="white" stroke="transparent" points="-4,4 -4,-468.4 308.02,-468.4 308.02,4 -4,4"/>
<g id="clust1" class="cluster">
<title>cluster_node_modules</title>
<path fill="#ffffff" stroke="black" stroke-width="2" d="M209.02,-8C209.02,-8 265.02,-8 265.02,-8 271.02,-8 277.02,-14 277.02,-20 277.02,-20 277.02,-111 277.02,-111 277.02,-117 271.02,-123 265.02,-123 265.02,-123 209.02,-123 209.02,-123 203.02,-123 197.02,-117 197.02,-111 197.02,-111 197.02,-20 197.02,-20 197.02,-14 203.02,-8 209.02,-8"/>
<text text-anchor="middle" x="237.02" y="-110.9" font-family="Helvetica,sans-Serif" font-weight="bold" font-size="9.00">node_modules</text>
</g>
<g id="clust2" class="cluster">
<title>cluster_using&#45;express</title>
<path fill="#ffffff" stroke="black" stroke-width="2" d="M20,-157C20,-157 284.02,-157 284.02,-157 290.02,-157 296.02,-163 296.02,-169 296.02,-169 296.02,-426 296.02,-426 296.02,-432 290.02,-438 284.02,-438 284.02,-438 20,-438 20,-438 14,-438 8,-432 8,-426 8,-426 8,-169 8,-169 8,-163 14,-157 20,-157"/>
<text text-anchor="middle" x="152.01" y="-425.9" font-family="Helvetica,sans-Serif" font-weight="bold" font-size="9.00">using&#45;express</text>
</g>
<g id="clust3" class="cluster">
<title>cluster_using&#45;express/3&#45;params&#45;queries&#45;body</title>
<path fill="#ffffff" stroke="black" stroke-width="2" d="M28,-165C28,-165 276.02,-165 276.02,-165 282.02,-165 288.02,-171 288.02,-177 288.02,-177 288.02,-399 288.02,-399 288.02,-405 282.02,-411 276.02,-411 276.02,-411 28,-411 28,-411 22,-411 16,-405 16,-399 16,-399 16,-177 16,-177 16,-171 22,-165 28,-165"/>
<text text-anchor="middle" x="152.01" y="-398.9" font-family="Helvetica,sans-Serif" font-weight="bold" font-size="9.00">3&#45;params&#45;queries&#45;body</text>
</g>
<g id="clust4" class="cluster">
<title>cluster_using&#45;express/3&#45;params&#45;queries&#45;body/exercise</title>
<path fill="#ffffff" stroke="black" stroke-width="2" d="M36,-173C36,-173 268.02,-173 268.02,-173 274.02,-173 280.02,-179 280.02,-185 280.02,-185 280.02,-372 280.02,-372 280.02,-378 274.02,-384 268.02,-384 268.02,-384 36,-384 36,-384 30,-384 24,-378 24,-372 24,-372 24,-185 24,-185 24,-179 30,-173 36,-173"/>
<text text-anchor="middle" x="152.01" y="-371.9" font-family="Helvetica,sans-Serif" font-weight="bold" font-size="9.00">exercise</text>
</g>
<g id="clust5" class="cluster">
<title>cluster_using&#45;express/3&#45;params&#45;queries&#45;body/exercise/config</title>
<path fill="#ffffff" stroke="black" stroke-width="2" d="M116.5,-242C116.5,-242 260.02,-242 260.02,-242 266.02,-242 272.02,-248 272.02,-254 272.02,-254 272.02,-345 272.02,-345 272.02,-351 266.02,-357 260.02,-357 260.02,-357 116.5,-357 116.5,-357 110.5,-357 104.5,-351 104.5,-345 104.5,-345 104.5,-254 104.5,-254 104.5,-248 110.5,-242 116.5,-242"/>
<text text-anchor="middle" x="188.26" y="-344.9" font-family="Helvetica,sans-Serif" font-weight="bold" font-size="9.00">config</text>
</g>
<g id="clust6" class="cluster">
<title>cluster_using&#45;express/3&#45;params&#45;queries&#45;body/exercise/middleware</title>
<path fill="#ffffff" stroke="black" stroke-width="2" d="M127.76,-181C127.76,-181 173.76,-181 173.76,-181 179.76,-181 185.76,-187 185.76,-193 185.76,-193 185.76,-222 185.76,-222 185.76,-228 179.76,-234 173.76,-234 173.76,-234 127.76,-234 127.76,-234 121.76,-234 115.76,-228 115.76,-222 115.76,-222 115.76,-193 115.76,-193 115.76,-187 121.76,-181 127.76,-181"/>
<text text-anchor="middle" x="150.76" y="-221.9" font-family="Helvetica,sans-Serif" font-weight="bold" font-size="9.00">middleware</text>
</g>
<!-- fs -->
<g id="node1" class="node">
<title>fs</title>
<path fill="#ffffcc" stroke="grey" d="M257.82,-149.3C257.82,-149.3 216.22,-149.3 216.22,-149.3 213.12,-149.3 210.02,-146.2 210.02,-143.1 210.02,-143.1 210.02,-136.9 210.02,-136.9 210.02,-133.8 213.12,-130.7 216.22,-130.7 216.22,-130.7 257.82,-130.7 257.82,-130.7 260.92,-130.7 264.02,-133.8 264.02,-136.9 264.02,-136.9 264.02,-143.1 264.02,-143.1 264.02,-146.2 260.92,-149.3 257.82,-149.3"/>
<text text-anchor="middle" x="237.02" y="-137.3" font-family="Helvetica,sans-Serif" font-size="9.00" fill="grey">fs</text>
</g>
<!-- node_modules/body&#45;parser -->
<g id="node2" class="node">
<title>node_modules/body&#45;parser</title>
<g id="a_node2"><a xlink:href="node_modules/body-parser" xlink:title="body&#45;parser">
<polygon fill="#c40b0a" fill-opacity="0.101961" stroke="black" points="269.03,-65.3 207.08,-65.3 205.01,-63.23 205.01,-46.7 266.96,-46.7 269.03,-48.77 269.03,-65.3"/>
<polyline fill="none" stroke="black" points="266.96,-63.23 205.01,-63.23 "/>
<polyline fill="none" stroke="black" points="266.96,-63.23 266.96,-46.7 "/>
<polyline fill="none" stroke="black" points="266.96,-63.23 269.03,-65.3 "/>
<text text-anchor="middle" x="237.02" y="-53.3" font-family="Helvetica,sans-Serif" font-size="9.00" fill="#c40b0a">body&#45;parser</text>
</a>
</g>
</g>
<!-- node_modules/date&#45;fns -->
<g id="node3" class="node">
<title>node_modules/date&#45;fns</title>
<g id="a_node3"><a xlink:href="node_modules/date-fns" xlink:title="date&#45;fns">
<polygon fill="#c40b0a" fill-opacity="0.101961" stroke="black" points="264.02,-96.3 212.09,-96.3 210.02,-94.23 210.02,-77.7 261.95,-77.7 264.02,-79.77 264.02,-96.3"/>
<polyline fill="none" stroke="black" points="261.95,-94.23 210.02,-94.23 "/>
<polyline fill="none" stroke="black" points="261.95,-94.23 261.95,-77.7 "/>
<polyline fill="none" stroke="black" points="261.95,-94.23 264.02,-96.3 "/>
<text text-anchor="middle" x="237.02" y="-84.3" font-family="Helvetica,sans-Serif" font-size="9.00" fill="#c40b0a">date&#45;fns</text>
</a>
</g>
</g>
<!-- node_modules/express -->
<g id="node4" class="node">
<title>node_modules/express</title>
<g id="a_node4"><a xlink:href="node_modules/express" xlink:title="express">
<polygon fill="#c40b0a" fill-opacity="0.101961" stroke="black" points="264.02,-34.3 212.09,-34.3 210.02,-32.23 210.02,-15.7 261.95,-15.7 264.02,-17.77 264.02,-34.3"/>
<polyline fill="none" stroke="black" points="261.95,-32.23 210.02,-32.23 "/>
<polyline fill="none" stroke="black" points="261.95,-32.23 261.95,-15.7 "/>
<polyline fill="none" stroke="black" points="261.95,-32.23 264.02,-34.3 "/>
<text text-anchor="middle" x="237.02" y="-22.3" font-family="Helvetica,sans-Serif" font-size="9.00" fill="#c40b0a">express</text>
</a>
</g>
</g>
<!-- public -->
<g id="node5" class="node">
<title>public</title>
<g id="a_node5"><a xlink:href="public" xlink:title="public">
<polygon fill="#ccffcc" stroke="black" points="91.25,-464.3 39.32,-464.3 37.25,-462.23 37.25,-445.7 89.18,-445.7 91.25,-447.77 91.25,-464.3"/>
<polyline fill="none" stroke="black" points="89.18,-462.23 37.25,-462.23 "/>
<polyline fill="none" stroke="black" points="89.18,-462.23 89.18,-445.7 "/>
<polyline fill="none" stroke="black" points="89.18,-462.23 91.25,-464.3 "/>
<text text-anchor="middle" x="64.25" y="-452.3" font-family="Helvetica,sans-Serif" font-size="9.00">public</text>
</a>
</g>
</g>
<!-- using&#45;express/3&#45;params&#45;queries&#45;body/exercise/config/default.js -->
<g id="node6" class="node">
<title>using&#45;express/3&#45;params&#45;queries&#45;body/exercise/config/default.js</title>
<g id="a_node6"><a xlink:href="using-express/3-params-queries-body/exercise/config/default.js" xlink:title="default.js">
<path fill="#ffffcc" stroke="black" d="M257.82,-299.3C257.82,-299.3 216.22,-299.3 216.22,-299.3 213.12,-299.3 210.02,-296.2 210.02,-293.1 210.02,-293.1 210.02,-286.9 210.02,-286.9 210.02,-283.8 213.12,-280.7 216.22,-280.7 216.22,-280.7 257.82,-280.7 257.82,-280.7 260.92,-280.7 264.02,-283.8 264.02,-286.9 264.02,-286.9 264.02,-293.1 264.02,-293.1 264.02,-296.2 260.92,-299.3 257.82,-299.3"/>
<text text-anchor="middle" x="237.02" y="-287.3" font-family="Helvetica,sans-Serif" font-size="9.00">default.js</text>
</a>
</g>
</g>
<!-- using&#45;express/3&#45;params&#45;queries&#45;body/exercise/config/development.js -->
<g id="node7" class="node">
<title>using&#45;express/3&#45;params&#45;queries&#45;body/exercise/config/development.js</title>
<g id="a_node7"><a xlink:href="using-express/3-params-queries-body/exercise/config/development.js" xlink:title="development.js">
<path fill="#ccffcc" stroke="black" d="M182.57,-330.3C182.57,-330.3 118.94,-330.3 118.94,-330.3 115.84,-330.3 112.74,-327.2 112.74,-324.1 112.74,-324.1 112.74,-317.9 112.74,-317.9 112.74,-314.8 115.84,-311.7 118.94,-311.7 118.94,-311.7 182.57,-311.7 182.57,-311.7 185.67,-311.7 188.77,-314.8 188.77,-317.9 188.77,-317.9 188.77,-324.1 188.77,-324.1 188.77,-327.2 185.67,-330.3 182.57,-330.3"/>
<text text-anchor="middle" x="150.76" y="-318.3" font-family="Helvetica,sans-Serif" font-size="9.00">development.js</text>
</a>
</g>
</g>
<!-- using&#45;express/3&#45;params&#45;queries&#45;body/exercise/config/index.js -->
<g id="node8" class="node">
<title>using&#45;express/3&#45;params&#45;queries&#45;body/exercise/config/index.js</title>
<g id="a_node8"><a xlink:href="using-express/3-params-queries-body/exercise/config/index.js" xlink:title="index.js">
<path fill="#ffffcc" stroke="black" d="M171.56,-299.3C171.56,-299.3 129.96,-299.3 129.96,-299.3 126.86,-299.3 123.76,-296.2 123.76,-293.1 123.76,-293.1 123.76,-286.9 123.76,-286.9 123.76,-283.8 126.86,-280.7 129.96,-280.7 129.96,-280.7 171.56,-280.7 171.56,-280.7 174.66,-280.7 177.76,-283.8 177.76,-286.9 177.76,-286.9 177.76,-293.1 177.76,-293.1 177.76,-296.2 174.66,-299.3 171.56,-299.3"/>
<text text-anchor="middle" x="150.76" y="-287.3" font-family="Helvetica,sans-Serif" font-size="9.00">index.js</text>
</a>
</g>
</g>
<!-- using&#45;express/3&#45;params&#45;queries&#45;body/exercise/config/index.js&#45;&gt;using&#45;express/3&#45;params&#45;queries&#45;body/exercise/config/default.js -->
<g id="edge1" class="edge">
<title>using&#45;express/3&#45;params&#45;queries&#45;body/exercise/config/index.js&#45;&gt;using&#45;express/3&#45;params&#45;queries&#45;body/exercise/config/default.js</title>
<path fill="none" stroke="#000000" stroke-width="2" stroke-opacity="0.200000" d="M177.96,-290C186.04,-290 195.04,-290 203.5,-290"/>
<polygon fill="#000000" fill-opacity="0.200000" stroke="#000000" stroke-width="2" stroke-opacity="0.200000" points="203.84,-292.1 209.84,-290 203.84,-287.9 203.84,-292.1"/>
</g>
<!-- using&#45;express/3&#45;params&#45;queries&#45;body/exercise/config/production.js -->
<g id="node9" class="node">
<title>using&#45;express/3&#45;params&#45;queries&#45;body/exercise/config/production.js</title>
<g id="a_node9"><a xlink:href="using-express/3-params-queries-body/exercise/config/production.js" xlink:title="production.js">
<path fill="#ccffcc" stroke="black" d="M178.07,-268.3C178.07,-268.3 123.45,-268.3 123.45,-268.3 120.35,-268.3 117.25,-265.2 117.25,-262.1 117.25,-262.1 117.25,-255.9 117.25,-255.9 117.25,-252.8 120.35,-249.7 123.45,-249.7 123.45,-249.7 178.07,-249.7 178.07,-249.7 181.17,-249.7 184.27,-252.8 184.27,-255.9 184.27,-255.9 184.27,-262.1 184.27,-262.1 184.27,-265.2 181.17,-268.3 178.07,-268.3"/>
<text text-anchor="middle" x="150.76" y="-256.3" font-family="Helvetica,sans-Serif" font-size="9.00">production.js</text>
</a>
</g>
</g>
<!-- using&#45;express/3&#45;params&#45;queries&#45;body/exercise/demo.min.js -->
<g id="node10" class="node">
<title>using&#45;express/3&#45;params&#45;queries&#45;body/exercise/demo.min.js</title>
<g id="a_node10"><a xlink:href="using-express/3-params-queries-body/exercise/demo.min.js" xlink:title="demo.min.js">
<path fill="#ffffcc" stroke="black" d="M90.05,-199.3C90.05,-199.3 38.45,-199.3 38.45,-199.3 35.35,-199.3 32.25,-196.2 32.25,-193.1 32.25,-193.1 32.25,-186.9 32.25,-186.9 32.25,-183.8 35.35,-180.7 38.45,-180.7 38.45,-180.7 90.05,-180.7 90.05,-180.7 93.15,-180.7 96.25,-183.8 96.25,-186.9 96.25,-186.9 96.25,-193.1 96.25,-193.1 96.25,-196.2 93.15,-199.3 90.05,-199.3"/>
<text text-anchor="middle" x="64.25" y="-187.3" font-family="Helvetica,sans-Serif" font-size="9.00">demo.min.js</text>
</a>
</g>
</g>
<!-- using&#45;express/3&#45;params&#45;queries&#45;body/exercise/demo.min.js&#45;&gt;node_modules/express -->
<g id="edge2" class="edge">
<title>using&#45;express/3&#45;params&#45;queries&#45;body/exercise/demo.min.js&#45;&gt;node_modules/express</title>
<path fill="none" stroke="#000000" stroke-opacity="0.200000" d="M67.94,-180.67C72.99,-164.34 85.18,-130.11 104.5,-107 136.9,-68.25 152.8,-65.41 197.02,-41 199.6,-39.57 202.34,-38.2 205.13,-36.89"/>
<polygon fill="#000000" fill-opacity="0.200000" stroke="#000000" stroke-opacity="0.200000" points="206.24,-38.69 210.86,-34.32 204.52,-34.86 206.24,-38.69"/>
</g>
<!-- using&#45;express/3&#45;params&#45;queries&#45;body/exercise/index.js -->
<g id="node11" class="node">
<title>using&#45;express/3&#45;params&#45;queries&#45;body/exercise/index.js</title>
<g id="a_node11"><a xlink:href="using-express/3-params-queries-body/exercise/index.js" xlink:title="index.js">
<path fill="#ffffcc" stroke="black" d="M85.05,-230.3C85.05,-230.3 43.45,-230.3 43.45,-230.3 40.35,-230.3 37.25,-227.2 37.25,-224.1 37.25,-224.1 37.25,-217.9 37.25,-217.9 37.25,-214.8 40.35,-211.7 43.45,-211.7 43.45,-211.7 85.05,-211.7 85.05,-211.7 88.15,-211.7 91.25,-214.8 91.25,-217.9 91.25,-217.9 91.25,-224.1 91.25,-224.1 91.25,-227.2 88.15,-230.3 85.05,-230.3"/>
<text text-anchor="middle" x="64.25" y="-218.3" font-family="Helvetica,sans-Serif" font-size="9.00">index.js</text>
</a>
</g>
</g>
<!-- using&#45;express/3&#45;params&#45;queries&#45;body/exercise/index.js&#45;&gt;node_modules/body&#45;parser -->
<g id="edge5" class="edge">
<title>using&#45;express/3&#45;params&#45;queries&#45;body/exercise/index.js&#45;&gt;node_modules/body&#45;parser</title>
<path fill="none" stroke="#000000" stroke-opacity="0.200000" d="M88.99,-211.57C91.79,-209.71 94.4,-207.53 96.5,-205 104.49,-195.37 96.85,-187.9 104.5,-178 131.33,-143.29 164.75,-163.55 189.02,-127 202.68,-106.42 181.81,-91.47 197.02,-72 197.83,-70.96 198.72,-69.99 199.67,-69.08"/>
<polygon fill="#000000" fill-opacity="0.200000" stroke="#000000" stroke-opacity="0.200000" points="201.43,-70.37 204.9,-65.04 198.87,-67.05 201.43,-70.37"/>
</g>
<!-- using&#45;express/3&#45;params&#45;queries&#45;body/exercise/index.js&#45;&gt;node_modules/express -->
<g id="edge6" class="edge">
<title>using&#45;express/3&#45;params&#45;queries&#45;body/exercise/index.js&#45;&gt;node_modules/express</title>
<path fill="none" stroke="#000000" stroke-opacity="0.200000" d="M89.74,-211.69C92.36,-209.83 94.71,-207.61 96.5,-205 115.94,-176.61 84.89,-156.27 104.5,-128 128.41,-93.54 163.87,-119.57 189.02,-86 201.19,-69.74 184.26,-56.81 197.02,-41 198.98,-38.56 201.38,-36.5 204,-34.74"/>
<polygon fill="#000000" fill-opacity="0.200000" stroke="#000000" stroke-opacity="0.200000" points="205.46,-36.33 209.66,-31.56 203.4,-32.67 205.46,-36.33"/>
</g>
<!-- using&#45;express/3&#45;params&#45;queries&#45;body/exercise/index.js&#45;&gt;using&#45;express/3&#45;params&#45;queries&#45;body/exercise/config/index.js -->
<g id="edge3" class="edge">
<title>using&#45;express/3&#45;params&#45;queries&#45;body/exercise/index.js&#45;&gt;using&#45;express/3&#45;params&#45;queries&#45;body/exercise/config/index.js</title>
<path fill="none" stroke="#000000" stroke-width="2" stroke-opacity="0.200000" d="M70.04,-230.59C76.39,-242.39 88.66,-262.29 104.5,-274 108.55,-276.99 113.2,-279.46 117.95,-281.49"/>
<polygon fill="#000000" fill-opacity="0.200000" stroke="#000000" stroke-width="2" stroke-opacity="0.200000" points="117.19,-283.45 123.54,-283.67 118.72,-279.53 117.19,-283.45"/>
</g>
<!-- using&#45;express/3&#45;params&#45;queries&#45;body/exercise/middleware/logger.js -->
<g id="node12" class="node">
<title>using&#45;express/3&#45;params&#45;queries&#45;body/exercise/middleware/logger.js</title>
<g id="a_node12"><a xlink:href="using-express/3-params-queries-body/exercise/middleware/logger.js" xlink:title="logger.js">
<path fill="#ffffcc" stroke="black" d="M171.56,-207.3C171.56,-207.3 129.96,-207.3 129.96,-207.3 126.86,-207.3 123.76,-204.2 123.76,-201.1 123.76,-201.1 123.76,-194.9 123.76,-194.9 123.76,-191.8 126.86,-188.7 129.96,-188.7 129.96,-188.7 171.56,-188.7 171.56,-188.7 174.66,-188.7 177.76,-191.8 177.76,-194.9 177.76,-194.9 177.76,-201.1 177.76,-201.1 177.76,-204.2 174.66,-207.3 171.56,-207.3"/>
<text text-anchor="middle" x="150.76" y="-195.3" font-family="Helvetica,sans-Serif" font-size="9.00">logger.js</text>
</a>
</g>
</g>
<!-- using&#45;express/3&#45;params&#45;queries&#45;body/exercise/index.js&#45;&gt;using&#45;express/3&#45;params&#45;queries&#45;body/exercise/middleware/logger.js -->
<g id="edge4" class="edge">
<title>using&#45;express/3&#45;params&#45;queries&#45;body/exercise/index.js&#45;&gt;using&#45;express/3&#45;params&#45;queries&#45;body/exercise/middleware/logger.js</title>
<path fill="none" stroke="#000000" stroke-width="2" stroke-opacity="0.200000" d="M91.53,-213.85C99.79,-211.6 109.02,-209.09 117.64,-206.74"/>
<polygon fill="#000000" fill-opacity="0.200000" stroke="#000000" stroke-width="2" stroke-opacity="0.200000" points="118.26,-208.75 123.5,-205.15 117.16,-204.7 118.26,-208.75"/>
</g>
<!-- using&#45;express/3&#45;params&#45;queries&#45;body/exercise/middleware/logger.js&#45;&gt;fs -->
<g id="edge8" class="edge">
<title>using&#45;express/3&#45;params&#45;queries&#45;body/exercise/middleware/logger.js&#45;&gt;fs</title>
<path fill="none" stroke="#000000" stroke-dasharray="5,2" stroke-opacity="0.200000" d="M165.3,-188.68C179.34,-179.01 201.41,-163.82 217.16,-152.98"/>
<polygon fill="#000000" fill-opacity="0.200000" stroke="#000000" stroke-opacity="0.200000" points="218.48,-154.62 222.23,-149.49 216.1,-151.16 218.48,-154.62"/>
</g>
<!-- using&#45;express/3&#45;params&#45;queries&#45;body/exercise/middleware/logger.js&#45;&gt;node_modules/date&#45;fns -->
<g id="edge7" class="edge">
<title>using&#45;express/3&#45;params&#45;queries&#45;body/exercise/middleware/logger.js&#45;&gt;node_modules/date&#45;fns</title>
<path fill="none" stroke="#000000" stroke-opacity="0.200000" d="M165.86,-188.59C173.87,-182.51 183.39,-173.9 189.02,-164 197.76,-148.62 188.53,-140.52 197.02,-125 202.2,-115.52 210.53,-106.93 218.16,-100.33"/>
<polygon fill="#000000" fill-opacity="0.200000" stroke="#000000" stroke-opacity="0.200000" points="219.51,-101.93 222.79,-96.48 216.83,-98.7 219.51,-101.93"/>
</g>
</g>
</svg>
