<?xml version="1.0" encoding="UTF-8" standalone="no"?>
<!DOCTYPE svg PUBLIC "-//W3C//DTD SVG 1.1//EN"
 "http://www.w3.org/Graphics/SVG/1.1/DTD/svg11.dtd">
<!-- Generated by graphviz version 2.44.0 (20200408.0750)
 -->
<!-- Title: dependency&#45;cruiser output Pages: 1 -->
<svg width="496pt" height="243pt"
 viewBox="0.00 0.00 496.01 243.00" xmlns="http://www.w3.org/2000/svg" xmlns:xlink="http://www.w3.org/1999/xlink">
<g id="graph0" class="graph" transform="scale(1 1) rotate(0) translate(4 239)">
<title>dependency&#45;cruiser output</title>
<polygon fill="white" stroke="transparent" points="-4,4 -4,-239 492.01,-239 492.01,4 -4,4"/>
<g id="clust1" class="cluster">
<title>cluster_in&#45;class</title>
<path fill="#ffffff" stroke="black" stroke-width="2" d="M20,-69C20,-69 414.01,-69 414.01,-69 420.01,-69 426.01,-75 426.01,-81 426.01,-81 426.01,-215 426.01,-215 426.01,-221 420.01,-227 414.01,-227 414.01,-227 20,-227 20,-227 14,-227 8,-221 8,-215 8,-215 8,-81 8,-81 8,-75 14,-69 20,-69"/>
<text text-anchor="middle" x="217" y="-214.9" font-family="Helvetica,sans-Serif" font-weight="bold" font-size="9.00">in&#45;class</text>
</g>
<g id="clust2" class="cluster">
<title>cluster_in&#45;class/week&#45;1</title>
<path fill="#ffffff" stroke="black" stroke-width="2" d="M28,-77C28,-77 406.01,-77 406.01,-77 412.01,-77 418.01,-83 418.01,-89 418.01,-89 418.01,-188 418.01,-188 418.01,-194 412.01,-200 406.01,-200 406.01,-200 28,-200 28,-200 22,-200 16,-194 16,-188 16,-188 16,-89 16,-89 16,-83 22,-77 28,-77"/>
<text text-anchor="middle" x="217" y="-187.9" font-family="Helvetica,sans-Serif" font-weight="bold" font-size="9.00">week&#45;1</text>
</g>
<g id="clust3" class="cluster">
<title>cluster_in&#45;class/week&#45;1/writing&#45;routes</title>
<path fill="#ffffff" stroke="black" stroke-width="2" d="M36,-85C36,-85 398.01,-85 398.01,-85 404.01,-85 410.01,-91 410.01,-97 410.01,-97 410.01,-161 410.01,-161 410.01,-167 404.01,-173 398.01,-173 398.01,-173 36,-173 36,-173 30,-173 24,-167 24,-161 24,-161 24,-97 24,-97 24,-91 30,-85 36,-85"/>
<text text-anchor="middle" x="217" y="-160.9" font-family="Helvetica,sans-Serif" font-weight="bold" font-size="9.00">writing&#45;routes</text>
</g>
<g id="clust4" class="cluster">
<title>cluster_in&#45;class/week&#45;1/writing&#45;routes/api</title>
<path fill="#ffffff" stroke="black" stroke-width="2" d="M106,-93C106,-93 390.01,-93 390.01,-93 396.01,-93 402.01,-99 402.01,-105 402.01,-105 402.01,-134 402.01,-134 402.01,-140 396.01,-146 390.01,-146 390.01,-146 106,-146 106,-146 100,-146 94,-140 94,-134 94,-134 94,-105 94,-105 94,-99 100,-93 106,-93"/>
<text text-anchor="middle" x="248" y="-133.9" font-family="Helvetica,sans-Serif" font-weight="bold" font-size="9.00">api</text>
</g>
<g id="clust5" class="cluster">
<title>cluster_node_modules</title>
<path fill="#ffffff" stroke="black" stroke-width="2" d="M246.25,-8C246.25,-8 297.25,-8 297.25,-8 303.25,-8 309.25,-14 309.25,-20 309.25,-20 309.25,-49 309.25,-49 309.25,-55 303.25,-61 297.25,-61 297.25,-61 246.25,-61 246.25,-61 240.25,-61 234.25,-55 234.25,-49 234.25,-49 234.25,-20 234.25,-20 234.25,-14 240.25,-8 246.25,-8"/>
<text text-anchor="middle" x="271.75" y="-48.9" font-family="Helvetica,sans-Serif" font-weight="bold" font-size="9.00">node_modules</text>
</g>
<!-- fs -->
<g id="node1" class="node">
<title>fs</title>
<path fill="#ffffcc" stroke="grey" d="M481.81,-150.3C481.81,-150.3 440.21,-150.3 440.21,-150.3 437.11,-150.3 434.01,-147.2 434.01,-144.1 434.01,-144.1 434.01,-137.9 434.01,-137.9 434.01,-134.8 437.11,-131.7 440.21,-131.7 440.21,-131.7 481.81,-131.7 481.81,-131.7 484.91,-131.7 488.01,-134.8 488.01,-137.9 488.01,-137.9 488.01,-144.1 488.01,-144.1 488.01,-147.2 484.91,-150.3 481.81,-150.3"/>
<text text-anchor="middle" x="461.01" y="-138.3" font-family="Helvetica,sans-Serif" font-size="9.00" fill="grey">fs</text>
</g>
<!-- in&#45;class/week&#45;1/writing&#45;routes/api/controllers.js -->
<g id="node2" class="node">
<title>in&#45;class/week&#45;1/writing&#45;routes/api/controllers.js</title>
<g id="a_node2"><a xlink:href="in-class/week-1/writing-routes/api/controllers.js" xlink:title="controllers.js">
<path fill="#ffffcc" stroke="black" d="M298.55,-119.3C298.55,-119.3 243.95,-119.3 243.95,-119.3 240.85,-119.3 237.75,-116.2 237.75,-113.1 237.75,-113.1 237.75,-106.9 237.75,-106.9 237.75,-103.8 240.85,-100.7 243.95,-100.7 243.95,-100.7 298.55,-100.7 298.55,-100.7 301.65,-100.7 304.75,-103.8 304.75,-106.9 304.75,-106.9 304.75,-113.1 304.75,-113.1 304.75,-116.2 301.65,-119.3 298.55,-119.3"/>
<text text-anchor="middle" x="271.25" y="-107.3" font-family="Helvetica,sans-Serif" font-size="9.00">controllers.js</text>
</a>
</g>
</g>
<!-- in&#45;class/week&#45;1/writing&#45;routes/api/data&#45;access.js -->
<g id="node3" class="node">
<title>in&#45;class/week&#45;1/writing&#45;routes/api/data&#45;access.js</title>
<g id="a_node3"><a xlink:href="in-class/week-1/writing-routes/api/data-access.js" xlink:title="data&#45;access.js">
<path fill="#ffffcc" stroke="black" d="M387.57,-119.3C387.57,-119.3 326.94,-119.3 326.94,-119.3 323.84,-119.3 320.74,-116.2 320.74,-113.1 320.74,-113.1 320.74,-106.9 320.74,-106.9 320.74,-103.8 323.84,-100.7 326.94,-100.7 326.94,-100.7 387.57,-100.7 387.57,-100.7 390.67,-100.7 393.77,-103.8 393.77,-106.9 393.77,-106.9 393.77,-113.1 393.77,-113.1 393.77,-116.2 390.67,-119.3 387.57,-119.3"/>
<text text-anchor="middle" x="357.25" y="-107.3" font-family="Helvetica,sans-Serif" font-size="9.00">data&#45;access.js</text>
</a>
</g>
</g>
<!-- in&#45;class/week&#45;1/writing&#45;routes/api/controllers.js&#45;&gt;in&#45;class/week&#45;1/writing&#45;routes/api/data&#45;access.js -->
<g id="edge1" class="edge">
<title>in&#45;class/week&#45;1/writing&#45;routes/api/controllers.js&#45;&gt;in&#45;class/week&#45;1/writing&#45;routes/api/data&#45;access.js</title>
<path fill="none" stroke="#000000" stroke-width="2" stroke-opacity="0.200000" d="M304.97,-110C308.03,-110 311.16,-110 314.3,-110"/>
<polygon fill="#000000" fill-opacity="0.200000" stroke="#000000" stroke-width="2" stroke-opacity="0.200000" points="314.7,-112.1 320.7,-110 314.7,-107.9 314.7,-112.1"/>
</g>
<!-- in&#45;class/week&#45;1/writing&#45;routes/api/data&#45;access.js&#45;&gt;fs -->
<g id="edge2" class="edge">
<title>in&#45;class/week&#45;1/writing&#45;routes/api/data&#45;access.js&#45;&gt;fs</title>
<path fill="none" stroke="#000000" stroke-dasharray="5,2" stroke-opacity="0.200000" d="M389.06,-119.39C401.33,-123.12 415.44,-127.42 427.84,-131.2"/>
<polygon fill="#000000" fill-opacity="0.200000" stroke="#000000" stroke-opacity="0.200000" points="427.42,-133.27 433.77,-133.01 428.65,-129.25 427.42,-133.27"/>
</g>
<!-- path -->
<g id="node4" class="node">
<title>path</title>
<path fill="#ffffcc" stroke="grey" d="M481.81,-119.3C481.81,-119.3 440.21,-119.3 440.21,-119.3 437.11,-119.3 434.01,-116.2 434.01,-113.1 434.01,-113.1 434.01,-106.9 434.01,-106.9 434.01,-103.8 437.11,-100.7 440.21,-100.7 440.21,-100.7 481.81,-100.7 481.81,-100.7 484.91,-100.7 488.01,-103.8 488.01,-106.9 488.01,-106.9 488.01,-113.1 488.01,-113.1 488.01,-116.2 484.91,-119.3 481.81,-119.3"/>
<text text-anchor="middle" x="461.01" y="-107.3" font-family="Helvetica,sans-Serif" font-size="9.00" fill="grey">path</text>
</g>
<!-- in&#45;class/week&#45;1/writing&#45;routes/api/data&#45;access.js&#45;&gt;path -->
<g id="edge3" class="edge">
<title>in&#45;class/week&#45;1/writing&#45;routes/api/data&#45;access.js&#45;&gt;path</title>
<path fill="none" stroke="#000000" stroke-dasharray="5,2" stroke-opacity="0.200000" d="M393.84,-110C404.86,-110 416.94,-110 427.72,-110"/>
<polygon fill="#000000" fill-opacity="0.200000" stroke="#000000" stroke-opacity="0.200000" points="427.9,-112.1 433.9,-110 427.9,-107.9 427.9,-112.1"/>
</g>
<!-- util -->
<g id="node5" class="node">
<title>util</title>
<path fill="#ffffcc" stroke="grey" d="M481.81,-88.3C481.81,-88.3 440.21,-88.3 440.21,-88.3 437.11,-88.3 434.01,-85.2 434.01,-82.1 434.01,-82.1 434.01,-75.9 434.01,-75.9 434.01,-72.8 437.11,-69.7 440.21,-69.7 440.21,-69.7 481.81,-69.7 481.81,-69.7 484.91,-69.7 488.01,-72.8 488.01,-75.9 488.01,-75.9 488.01,-82.1 488.01,-82.1 488.01,-85.2 484.91,-88.3 481.81,-88.3"/>
<text text-anchor="middle" x="461.01" y="-76.3" font-family="Helvetica,sans-Serif" font-size="9.00" fill="grey">util</text>
</g>
<!-- in&#45;class/week&#45;1/writing&#45;routes/api/data&#45;access.js&#45;&gt;util -->
<g id="edge4" class="edge">
<title>in&#45;class/week&#45;1/writing&#45;routes/api/data&#45;access.js&#45;&gt;util</title>
<path fill="none" stroke="#000000" stroke-dasharray="5,2" stroke-opacity="0.200000" d="M389.06,-100.61C401.33,-96.88 415.44,-92.58 427.84,-88.8"/>
<polygon fill="#000000" fill-opacity="0.200000" stroke="#000000" stroke-opacity="0.200000" points="428.65,-90.75 433.77,-86.99 427.42,-86.73 428.65,-90.75"/>
</g>
<!-- in&#45;class/week&#45;1/writing&#45;routes/api/index.js -->
<g id="node6" class="node">
<title>in&#45;class/week&#45;1/writing&#45;routes/api/index.js</title>
<g id="a_node6"><a xlink:href="in-class/week-1/writing-routes/api/index.js" xlink:title="index.js">
<path fill="#ffffcc" stroke="black" d="M149.8,-119.3C149.8,-119.3 108.2,-119.3 108.2,-119.3 105.1,-119.3 102,-116.2 102,-113.1 102,-113.1 102,-106.9 102,-106.9 102,-103.8 105.1,-100.7 108.2,-100.7 108.2,-100.7 149.8,-100.7 149.8,-100.7 152.9,-100.7 156,-103.8 156,-106.9 156,-106.9 156,-113.1 156,-113.1 156,-116.2 152.9,-119.3 149.8,-119.3"/>
<text text-anchor="middle" x="129" y="-107.3" font-family="Helvetica,sans-Serif" font-size="9.00">index.js</text>
</a>
</g>
</g>
<!-- in&#45;class/week&#45;1/writing&#45;routes/api/routes.js -->
<g id="node7" class="node">
<title>in&#45;class/week&#45;1/writing&#45;routes/api/routes.js</title>
<g id="a_node7"><a xlink:href="in-class/week-1/writing-routes/api/routes.js" xlink:title="routes.js">
<path fill="#ffffcc" stroke="black" d="M216.8,-119.3C216.8,-119.3 175.2,-119.3 175.2,-119.3 172.1,-119.3 169,-116.2 169,-113.1 169,-113.1 169,-106.9 169,-106.9 169,-103.8 172.1,-100.7 175.2,-100.7 175.2,-100.7 216.8,-100.7 216.8,-100.7 219.9,-100.7 223,-103.8 223,-106.9 223,-106.9 223,-113.1 223,-113.1 223,-116.2 219.9,-119.3 216.8,-119.3"/>
<text text-anchor="middle" x="196" y="-107.3" font-family="Helvetica,sans-Serif" font-size="9.00">routes.js</text>
</a>
</g>
</g>
<!-- in&#45;class/week&#45;1/writing&#45;routes/api/index.js&#45;&gt;in&#45;class/week&#45;1/writing&#45;routes/api/routes.js -->
<g id="edge5" class="edge">
<title>in&#45;class/week&#45;1/writing&#45;routes/api/index.js&#45;&gt;in&#45;class/week&#45;1/writing&#45;routes/api/routes.js</title>
<path fill="none" stroke="#000000" stroke-width="2" stroke-opacity="0.200000" d="M156.06,-110C158.32,-110 160.61,-110 162.9,-110"/>
<polygon fill="#000000" fill-opacity="0.200000" stroke="#000000" stroke-width="2" stroke-opacity="0.200000" points="162.93,-112.1 168.93,-110 162.93,-107.9 162.93,-112.1"/>
</g>
<!-- in&#45;class/week&#45;1/writing&#45;routes/api/routes.js&#45;&gt;in&#45;class/week&#45;1/writing&#45;routes/api/controllers.js -->
<g id="edge6" class="edge">
<title>in&#45;class/week&#45;1/writing&#45;routes/api/routes.js&#45;&gt;in&#45;class/week&#45;1/writing&#45;routes/api/controllers.js</title>
<path fill="none" stroke="#000000" stroke-width="2" stroke-opacity="0.200000" d="M223.03,-110C225.86,-110 228.79,-110 231.73,-110"/>
<polygon fill="#000000" fill-opacity="0.200000" stroke="#000000" stroke-width="2" stroke-opacity="0.200000" points="231.76,-112.1 237.76,-110 231.76,-107.9 231.76,-112.1"/>
</g>
<!-- node_modules/express -->
<g id="node8" class="node">
<title>node_modules/express</title>
<g id="a_node8"><a xlink:href="node_modules/express" xlink:title="express">
<polygon fill="#c40b0a" fill-opacity="0.101961" stroke="black" points="298.25,-34.3 246.32,-34.3 244.25,-32.23 244.25,-15.7 296.18,-15.7 298.25,-17.77 298.25,-34.3"/>
<polyline fill="none" stroke="black" points="296.18,-32.23 244.25,-32.23 "/>
<polyline fill="none" stroke="black" points="296.18,-32.23 296.18,-15.7 "/>
<polyline fill="none" stroke="black" points="296.18,-32.23 298.25,-34.3 "/>
<text text-anchor="middle" x="271.25" y="-22.3" font-family="Helvetica,sans-Serif" font-size="9.00" fill="#c40b0a">express</text>
</a>
</g>
</g>
<!-- in&#45;class/week&#45;1/writing&#45;routes/api/routes.js&#45;&gt;node_modules/express -->
<g id="edge7" class="edge">
<title>in&#45;class/week&#45;1/writing&#45;routes/api/routes.js&#45;&gt;node_modules/express</title>
<path fill="none" stroke="#000000" stroke-opacity="0.200000" d="M205.12,-100.58C217.99,-85.64 243.15,-56.45 258.15,-39.04"/>
<polygon fill="#000000" fill-opacity="0.200000" stroke="#000000" stroke-opacity="0.200000" points="259.77,-40.38 262.09,-34.46 256.59,-37.64 259.77,-40.38"/>
</g>
<!-- in&#45;class/week&#45;1/writing&#45;routes/index.js -->
<g id="node9" class="node">
<title>in&#45;class/week&#45;1/writing&#45;routes/index.js</title>
<g id="a_node9"><a xlink:href="in-class/week-1/writing-routes/index.js" xlink:title="index.js">
<path fill="#ffffcc" stroke="black" d="M79.8,-115.3C79.8,-115.3 38.2,-115.3 38.2,-115.3 35.1,-115.3 32,-112.2 32,-109.1 32,-109.1 32,-102.9 32,-102.9 32,-99.8 35.1,-96.7 38.2,-96.7 38.2,-96.7 79.8,-96.7 79.8,-96.7 82.9,-96.7 86,-99.8 86,-102.9 86,-102.9 86,-109.1 86,-109.1 86,-112.2 82.9,-115.3 79.8,-115.3"/>
<text text-anchor="middle" x="59" y="-103.3" font-family="Helvetica,sans-Serif" font-size="9.00">index.js</text>
</a>
</g>
</g>
<!-- in&#45;class/week&#45;1/writing&#45;routes/index.js&#45;&gt;in&#45;class/week&#45;1/writing&#45;routes/api/index.js -->
<g id="edge8" class="edge">
<title>in&#45;class/week&#45;1/writing&#45;routes/index.js&#45;&gt;in&#45;class/week&#45;1/writing&#45;routes/api/index.js</title>
<path fill="none" stroke="#000000" stroke-width="2" stroke-opacity="0.200000" d="M86.1,-107.54C89.12,-107.71 92.23,-107.9 95.33,-108.08"/>
<polygon fill="#000000" fill-opacity="0.200000" stroke="#000000" stroke-width="2" stroke-opacity="0.200000" points="95.52,-110.19 101.64,-108.45 95.77,-106 95.52,-110.19"/>
</g>
<!-- in&#45;class/week&#45;1/writing&#45;routes/index.js&#45;&gt;node_modules/express -->
<g id="edge9" class="edge">
<title>in&#45;class/week&#45;1/writing&#45;routes/index.js&#45;&gt;node_modules/express</title>
<path fill="none" stroke="#000000" stroke-opacity="0.200000" d="M79.29,-96.57C84.06,-94.33 89.19,-92.02 94,-90 143.62,-69.22 202.47,-48.23 238.06,-35.93"/>
<polygon fill="#000000" fill-opacity="0.200000" stroke="#000000" stroke-opacity="0.200000" points="239.01,-37.83 243.99,-33.89 237.64,-33.85 239.01,-37.83"/>
</g>
</g>
</svg>
