<?xml version="1.0" encoding="UTF-8" standalone="no"?>
<!DOCTYPE svg PUBLIC "-//W3C//DTD SVG 1.1//EN"
 "http://www.w3.org/Graphics/SVG/1.1/DTD/svg11.dtd">
<!-- Generated by graphviz version 2.44.0 (20200408.0750)
 -->
<!-- Title: dependency&#45;cruiser output Pages: 1 -->
<svg width="251pt" height="235pt"
 viewBox="0.00 0.00 250.51 235.00" xmlns="http://www.w3.org/2000/svg" xmlns:xlink="http://www.w3.org/1999/xlink">
<g id="graph0" class="graph" transform="scale(1 1) rotate(0) translate(4 231)">
<title>dependency&#45;cruiser output</title>
<polygon fill="white" stroke="transparent" points="-4,4 -4,-231 246.51,-231 246.51,4 -4,4"/>
<g id="clust1" class="cluster">
<title>cluster_example&#45;apps</title>
<path fill="#ffffff" stroke="black" stroke-width="2" d="M20,-131C20,-131 168.51,-131 168.51,-131 174.51,-131 180.51,-137 180.51,-143 180.51,-143 180.51,-207 180.51,-207 180.51,-213 174.51,-219 168.51,-219 168.51,-219 20,-219 20,-219 14,-219 8,-213 8,-207 8,-207 8,-143 8,-143 8,-137 14,-131 20,-131"/>
<text text-anchor="middle" x="94.26" y="-206.9" font-family="Helvetica,sans-Serif" font-weight="bold" font-size="9.00">example&#45;apps</text>
</g>
<g id="clust2" class="cluster">
<title>cluster_example&#45;apps/storage&#45;server</title>
<path fill="#ffffff" stroke="black" stroke-width="2" d="M28,-139C28,-139 160.51,-139 160.51,-139 166.51,-139 172.51,-145 172.51,-151 172.51,-151 172.51,-180 172.51,-180 172.51,-186 166.51,-192 160.51,-192 160.51,-192 28,-192 28,-192 22,-192 16,-186 16,-180 16,-180 16,-151 16,-151 16,-145 22,-139 28,-139"/>
<text text-anchor="middle" x="94.26" y="-179.9" font-family="Helvetica,sans-Serif" font-weight="bold" font-size="9.00">storage&#45;server</text>
</g>
<g id="clust3" class="cluster">
<title>cluster_node_modules</title>
<path fill="#ffffff" stroke="black" stroke-width="2" d="M99.75,-8C99.75,-8 155.76,-8 155.76,-8 161.76,-8 167.76,-14 167.76,-20 167.76,-20 167.76,-111 167.76,-111 167.76,-117 161.76,-123 155.76,-123 155.76,-123 99.75,-123 99.75,-123 93.75,-123 87.75,-117 87.75,-111 87.75,-111 87.75,-20 87.75,-20 87.75,-14 93.75,-8 99.75,-8"/>
<text text-anchor="middle" x="127.76" y="-110.9" font-family="Helvetica,sans-Serif" font-weight="bold" font-size="9.00">node_modules</text>
</g>
<!-- example&#45;apps/storage&#45;server/data&#45;access.js -->
<g id="node1" class="node">
<title>example&#45;apps/storage&#45;server/data&#45;access.js</title>
<g id="a_node1"><a xlink:href="example-apps/storage-server/data-access.js" xlink:title="data&#45;access.js">
<path fill="#ffffcc" stroke="black" d="M158.07,-165.3C158.07,-165.3 97.44,-165.3 97.44,-165.3 94.34,-165.3 91.24,-162.2 91.24,-159.1 91.24,-159.1 91.24,-152.9 91.24,-152.9 91.24,-149.8 94.34,-146.7 97.44,-146.7 97.44,-146.7 158.07,-146.7 158.07,-146.7 161.17,-146.7 164.27,-149.8 164.27,-152.9 164.27,-152.9 164.27,-159.1 164.27,-159.1 164.27,-162.2 161.17,-165.3 158.07,-165.3"/>
<text text-anchor="middle" x="127.76" y="-153.3" font-family="Helvetica,sans-Serif" font-size="9.00">data&#45;access.js</text>
</a>
</g>
</g>
<!-- fs -->
<g id="node2" class="node">
<title>fs</title>
<path fill="#ffffcc" stroke="grey" d="M236.31,-180.3C236.31,-180.3 194.71,-180.3 194.71,-180.3 191.61,-180.3 188.51,-177.2 188.51,-174.1 188.51,-174.1 188.51,-167.9 188.51,-167.9 188.51,-164.8 191.61,-161.7 194.71,-161.7 194.71,-161.7 236.31,-161.7 236.31,-161.7 239.41,-161.7 242.51,-164.8 242.51,-167.9 242.51,-167.9 242.51,-174.1 242.51,-174.1 242.51,-177.2 239.41,-180.3 236.31,-180.3"/>
<text text-anchor="middle" x="215.51" y="-168.3" font-family="Helvetica,sans-Serif" font-size="9.00" fill="grey">fs</text>
</g>
<!-- example&#45;apps/storage&#45;server/data&#45;access.js&#45;&gt;fs -->
<g id="edge1" class="edge">
<title>example&#45;apps/storage&#45;server/data&#45;access.js&#45;&gt;fs</title>
<path fill="none" stroke="#000000" stroke-dasharray="5,2" stroke-opacity="0.200000" d="M164.63,-162.27C170.49,-163.3 176.54,-164.36 182.31,-165.37"/>
<polygon fill="#000000" fill-opacity="0.200000" stroke="#000000" stroke-opacity="0.200000" points="182.16,-167.47 188.44,-166.44 182.89,-163.34 182.16,-167.47"/>
</g>
<!-- util -->
<g id="node3" class="node">
<title>util</title>
<path fill="#ffffcc" stroke="grey" d="M236.31,-149.3C236.31,-149.3 194.71,-149.3 194.71,-149.3 191.61,-149.3 188.51,-146.2 188.51,-143.1 188.51,-143.1 188.51,-136.9 188.51,-136.9 188.51,-133.8 191.61,-130.7 194.71,-130.7 194.71,-130.7 236.31,-130.7 236.31,-130.7 239.41,-130.7 242.51,-133.8 242.51,-136.9 242.51,-136.9 242.51,-143.1 242.51,-143.1 242.51,-146.2 239.41,-149.3 236.31,-149.3"/>
<text text-anchor="middle" x="215.51" y="-137.3" font-family="Helvetica,sans-Serif" font-size="9.00" fill="grey">util</text>
</g>
<!-- example&#45;apps/storage&#45;server/data&#45;access.js&#45;&gt;util -->
<g id="edge2" class="edge">
<title>example&#45;apps/storage&#45;server/data&#45;access.js&#45;&gt;util</title>
<path fill="none" stroke="#000000" stroke-dasharray="5,2" stroke-opacity="0.200000" d="M164.63,-149.31C170.49,-148.21 176.54,-147.09 182.31,-146.01"/>
<polygon fill="#000000" fill-opacity="0.200000" stroke="#000000" stroke-opacity="0.200000" points="182.92,-148.03 188.44,-144.87 182.15,-143.9 182.92,-148.03"/>
</g>
<!-- example&#45;apps/storage&#45;server/index.js -->
<g id="node4" class="node">
<title>example&#45;apps/storage&#45;server/index.js</title>
<g id="a_node4"><a xlink:href="example-apps/storage-server/index.js" xlink:title="index.js">
<path fill="#ffffcc" stroke="black" d="M71.8,-165.3C71.8,-165.3 30.2,-165.3 30.2,-165.3 27.1,-165.3 24,-162.2 24,-159.1 24,-159.1 24,-152.9 24,-152.9 24,-149.8 27.1,-146.7 30.2,-146.7 30.2,-146.7 71.8,-146.7 71.8,-146.7 74.9,-146.7 78,-149.8 78,-152.9 78,-152.9 78,-159.1 78,-159.1 78,-162.2 74.9,-165.3 71.8,-165.3"/>
<text text-anchor="middle" x="51" y="-153.3" font-family="Helvetica,sans-Serif" font-size="9.00">index.js</text>
</a>
</g>
</g>
<!-- example&#45;apps/storage&#45;server/index.js&#45;&gt;example&#45;apps/storage&#45;server/data&#45;access.js -->
<g id="edge3" class="edge">
<title>example&#45;apps/storage&#45;server/index.js&#45;&gt;example&#45;apps/storage&#45;server/data&#45;access.js</title>
<path fill="none" stroke="#000000" stroke-width="2" stroke-opacity="0.200000" d="M78.15,-156C80.38,-156 82.68,-156 85,-156"/>
<polygon fill="#000000" fill-opacity="0.200000" stroke="#000000" stroke-width="2" stroke-opacity="0.200000" points="85.16,-158.1 91.16,-156 85.16,-153.9 85.16,-158.1"/>
</g>
<!-- node_modules/body&#45;parser -->
<g id="node5" class="node">
<title>node_modules/body&#45;parser</title>
<g id="a_node5"><a xlink:href="node_modules/body-parser" xlink:title="body&#45;parser">
<polygon fill="#c40b0a" fill-opacity="0.101961" stroke="black" points="159.76,-96.3 97.82,-96.3 95.75,-94.23 95.75,-77.7 157.7,-77.7 159.76,-79.77 159.76,-96.3"/>
<polyline fill="none" stroke="black" points="157.7,-94.23 95.75,-94.23 "/>
<polyline fill="none" stroke="black" points="157.7,-94.23 157.7,-77.7 "/>
<polyline fill="none" stroke="black" points="157.7,-94.23 159.76,-96.3 "/>
<text text-anchor="middle" x="127.76" y="-84.3" font-family="Helvetica,sans-Serif" font-size="9.00" fill="#c40b0a">body&#45;parser</text>
</a>
</g>
</g>
<!-- example&#45;apps/storage&#45;server/index.js&#45;&gt;node_modules/body&#45;parser -->
<g id="edge4" class="edge">
<title>example&#45;apps/storage&#45;server/index.js&#45;&gt;node_modules/body&#45;parser</title>
<path fill="none" stroke="#000000" stroke-opacity="0.200000" d="M62.08,-146.69C74.83,-134.93 96.89,-114.57 111.65,-100.94"/>
<polygon fill="#000000" fill-opacity="0.200000" stroke="#000000" stroke-opacity="0.200000" points="113.37,-102.21 116.35,-96.6 110.52,-99.13 113.37,-102.21"/>
</g>
<!-- node_modules/express -->
<g id="node6" class="node">
<title>node_modules/express</title>
<g id="a_node6"><a xlink:href="node_modules/express" xlink:title="express">
<polygon fill="#c40b0a" fill-opacity="0.101961" stroke="black" points="154.76,-65.3 102.82,-65.3 100.76,-63.23 100.76,-46.7 152.69,-46.7 154.76,-48.77 154.76,-65.3"/>
<polyline fill="none" stroke="black" points="152.69,-63.23 100.76,-63.23 "/>
<polyline fill="none" stroke="black" points="152.69,-63.23 152.69,-46.7 "/>
<polyline fill="none" stroke="black" points="152.69,-63.23 154.76,-65.3 "/>
<text text-anchor="middle" x="127.76" y="-53.3" font-family="Helvetica,sans-Serif" font-size="9.00" fill="#c40b0a">express</text>
</a>
</g>
</g>
<!-- example&#45;apps/storage&#45;server/index.js&#45;&gt;node_modules/express -->
<g id="edge5" class="edge">
<title>example&#45;apps/storage&#45;server/index.js&#45;&gt;node_modules/express</title>
<path fill="none" stroke="#000000" stroke-opacity="0.200000" d="M53.58,-146.62C56.91,-129.56 66.21,-93.26 87.75,-72 89.92,-69.86 92.41,-68 95.06,-66.37"/>
<polygon fill="#000000" fill-opacity="0.200000" stroke="#000000" stroke-opacity="0.200000" points="96.38,-68.05 100.68,-63.37 94.4,-64.35 96.38,-68.05"/>
</g>
<!-- node_modules/morgan -->
<g id="node7" class="node">
<title>node_modules/morgan</title>
<g id="a_node7"><a xlink:href="node_modules/morgan" xlink:title="morgan">
<polygon fill="#c40b0a" fill-opacity="0.101961" stroke="black" points="154.76,-34.3 102.82,-34.3 100.76,-32.23 100.76,-15.7 152.69,-15.7 154.76,-17.77 154.76,-34.3"/>
<polyline fill="none" stroke="black" points="152.69,-32.23 100.76,-32.23 "/>
<polyline fill="none" stroke="black" points="152.69,-32.23 152.69,-15.7 "/>
<polyline fill="none" stroke="black" points="152.69,-32.23 154.76,-34.3 "/>
<text text-anchor="middle" x="127.76" y="-22.3" font-family="Helvetica,sans-Serif" font-size="9.00" fill="#c40b0a">morgan</text>
</a>
</g>
</g>
<!-- example&#45;apps/storage&#45;server/index.js&#45;&gt;node_modules/morgan -->
<g id="edge6" class="edge">
<title>example&#45;apps/storage&#45;server/index.js&#45;&gt;node_modules/morgan</title>
<path fill="none" stroke="#000000" stroke-opacity="0.200000" d="M52.31,-146.65C53.52,-125.21 59.37,-71.99 87.75,-41 89.81,-38.76 92.22,-36.82 94.83,-35.15"/>
<polygon fill="#000000" fill-opacity="0.200000" stroke="#000000" stroke-opacity="0.200000" points="96.15,-36.82 100.39,-32.08 94.12,-33.14 96.15,-36.82"/>
</g>
</g>
</svg>
