<?xml version="1.0" encoding="UTF-8" standalone="no"?>
<!DOCTYPE svg PUBLIC "-//W3C//DTD SVG 1.1//EN"
 "http://www.w3.org/Graphics/SVG/1.1/DTD/svg11.dtd">
<!-- Generated by graphviz version 2.44.0 (20200408.0750)
 -->
<!-- Title: dependency&#45;cruiser output Pages: 1 -->
<svg width="318pt" height="489pt"
 viewBox="0.00 0.00 317.52 489.00" xmlns="http://www.w3.org/2000/svg" xmlns:xlink="http://www.w3.org/1999/xlink">
<g id="graph0" class="graph" transform="scale(1 1) rotate(0) translate(4 485)">
<title>dependency&#45;cruiser output</title>
<polygon fill="white" stroke="transparent" points="-4,4 -4,-485 313.52,-485 313.52,4 -4,4"/>
<g id="clust1" class="cluster">
<title>cluster_node_modules</title>
<path fill="#ffffff" stroke="black" stroke-width="2" d="M206.51,-8C206.51,-8 262.52,-8 262.52,-8 268.52,-8 274.52,-14 274.52,-20 274.52,-20 274.52,-111 274.52,-111 274.52,-117 268.52,-123 262.52,-123 262.52,-123 206.51,-123 206.51,-123 200.51,-123 194.51,-117 194.51,-111 194.51,-111 194.51,-20 194.51,-20 194.51,-14 200.51,-8 206.51,-8"/>
<text text-anchor="middle" x="234.52" y="-110.9" font-family="Helvetica,sans-Serif" font-weight="bold" font-size="9.00">node_modules</text>
</g>
<g id="clust2" class="cluster">
<title>cluster_using&#45;express</title>
<path fill="#ffffff" stroke="black" stroke-width="2" d="M20,-157C20,-157 289.52,-157 289.52,-157 295.52,-157 301.52,-163 301.52,-169 301.52,-169 301.52,-461 301.52,-461 301.52,-467 295.52,-473 289.52,-473 289.52,-473 20,-473 20,-473 14,-473 8,-467 8,-461 8,-461 8,-169 8,-169 8,-163 14,-157 20,-157"/>
<text text-anchor="middle" x="154.76" y="-460.9" font-family="Helvetica,sans-Serif" font-weight="bold" font-size="9.00">using&#45;express</text>
</g>
<g id="clust3" class="cluster">
<title>cluster_using&#45;express/2&#45;express&#45;dynamic&#45;serving</title>
<path fill="#ffffff" stroke="black" stroke-width="2" d="M28,-165C28,-165 281.52,-165 281.52,-165 287.52,-165 293.52,-171 293.52,-177 293.52,-177 293.52,-434 293.52,-434 293.52,-440 287.52,-446 281.52,-446 281.52,-446 28,-446 28,-446 22,-446 16,-440 16,-434 16,-434 16,-177 16,-177 16,-171 22,-165 28,-165"/>
<text text-anchor="middle" x="154.76" y="-433.9" font-family="Helvetica,sans-Serif" font-weight="bold" font-size="9.00">2&#45;express&#45;dynamic&#45;serving</text>
</g>
<g id="clust4" class="cluster">
<title>cluster_using&#45;express/2&#45;express&#45;dynamic&#45;serving/examples</title>
<path fill="#ffffff" stroke="black" stroke-width="2" d="M36,-173C36,-173 273.52,-173 273.52,-173 279.52,-173 285.52,-179 285.52,-185 285.52,-185 285.52,-407 285.52,-407 285.52,-413 279.52,-419 273.52,-419 273.52,-419 36,-419 36,-419 30,-419 24,-413 24,-407 24,-407 24,-185 24,-185 24,-179 30,-173 36,-173"/>
<text text-anchor="middle" x="154.76" y="-406.9" font-family="Helvetica,sans-Serif" font-weight="bold" font-size="9.00">examples</text>
</g>
<g id="clust5" class="cluster">
<title>cluster_using&#45;express/2&#45;express&#45;dynamic&#45;serving/examples/hello&#45;world</title>
<path fill="#ffffff" stroke="black" stroke-width="2" d="M44,-181C44,-181 265.52,-181 265.52,-181 271.52,-181 277.52,-187 277.52,-193 277.52,-193 277.52,-380 277.52,-380 277.52,-386 271.52,-392 265.52,-392 265.52,-392 44,-392 44,-392 38,-392 32,-386 32,-380 32,-380 32,-193 32,-193 32,-187 38,-181 44,-181"/>
<text text-anchor="middle" x="154.76" y="-379.9" font-family="Helvetica,sans-Serif" font-weight="bold" font-size="9.00">hello&#45;world</text>
</g>
<g id="clust6" class="cluster">
<title>cluster_using&#45;express/2&#45;express&#45;dynamic&#45;serving/examples/hello&#45;world/config</title>
<path fill="#ffffff" stroke="black" stroke-width="2" d="M114,-250C114,-250 257.52,-250 257.52,-250 263.52,-250 269.52,-256 269.52,-262 269.52,-262 269.52,-353 269.52,-353 269.52,-359 263.52,-365 257.52,-365 257.52,-365 114,-365 114,-365 108,-365 102,-359 102,-353 102,-353 102,-262 102,-262 102,-256 108,-250 114,-250"/>
<text text-anchor="middle" x="185.76" y="-352.9" font-family="Helvetica,sans-Serif" font-weight="bold" font-size="9.00">config</text>
</g>
<g id="clust7" class="cluster">
<title>cluster_using&#45;express/2&#45;express&#45;dynamic&#45;serving/examples/hello&#45;world/middleware</title>
<path fill="#ffffff" stroke="black" stroke-width="2" d="M125.26,-189C125.26,-189 171.26,-189 171.26,-189 177.26,-189 183.26,-195 183.26,-201 183.26,-201 183.26,-230 183.26,-230 183.26,-236 177.26,-242 171.26,-242 171.26,-242 125.26,-242 125.26,-242 119.26,-242 113.26,-236 113.26,-230 113.26,-230 113.26,-201 113.26,-201 113.26,-195 119.26,-189 125.26,-189"/>
<text text-anchor="middle" x="148.26" y="-229.9" font-family="Helvetica,sans-Serif" font-weight="bold" font-size="9.00">middleware</text>
</g>
<!-- fs -->
<g id="node1" class="node">
<title>fs</title>
<path fill="#ffffcc" stroke="grey" d="M255.32,-149.3C255.32,-149.3 213.72,-149.3 213.72,-149.3 210.62,-149.3 207.52,-146.2 207.52,-143.1 207.52,-143.1 207.52,-136.9 207.52,-136.9 207.52,-133.8 210.62,-130.7 213.72,-130.7 213.72,-130.7 255.32,-130.7 255.32,-130.7 258.42,-130.7 261.52,-133.8 261.52,-136.9 261.52,-136.9 261.52,-143.1 261.52,-143.1 261.52,-146.2 258.42,-149.3 255.32,-149.3"/>
<text text-anchor="middle" x="234.52" y="-137.3" font-family="Helvetica,sans-Serif" font-size="9.00" fill="grey">fs</text>
</g>
<!-- node_modules/body&#45;parser -->
<g id="node2" class="node">
<title>node_modules/body&#45;parser</title>
<g id="a_node2"><a xlink:href="node_modules/body-parser" xlink:title="body&#45;parser">
<polygon fill="#c40b0a" fill-opacity="0.101961" stroke="black" points="266.52,-65.3 204.58,-65.3 202.51,-63.23 202.51,-46.7 264.46,-46.7 266.52,-48.77 266.52,-65.3"/>
<polyline fill="none" stroke="black" points="264.46,-63.23 202.51,-63.23 "/>
<polyline fill="none" stroke="black" points="264.46,-63.23 264.46,-46.7 "/>
<polyline fill="none" stroke="black" points="264.46,-63.23 266.52,-65.3 "/>
<text text-anchor="middle" x="234.52" y="-53.3" font-family="Helvetica,sans-Serif" font-size="9.00" fill="#c40b0a">body&#45;parser</text>
</a>
</g>
</g>
<!-- node_modules/date&#45;fns -->
<g id="node3" class="node">
<title>node_modules/date&#45;fns</title>
<g id="a_node3"><a xlink:href="node_modules/date-fns" xlink:title="date&#45;fns">
<polygon fill="#c40b0a" fill-opacity="0.101961" stroke="black" points="261.52,-96.3 209.58,-96.3 207.52,-94.23 207.52,-77.7 259.45,-77.7 261.52,-79.77 261.52,-96.3"/>
<polyline fill="none" stroke="black" points="259.45,-94.23 207.52,-94.23 "/>
<polyline fill="none" stroke="black" points="259.45,-94.23 259.45,-77.7 "/>
<polyline fill="none" stroke="black" points="259.45,-94.23 261.52,-96.3 "/>
<text text-anchor="middle" x="234.52" y="-84.3" font-family="Helvetica,sans-Serif" font-size="9.00" fill="#c40b0a">date&#45;fns</text>
</a>
</g>
</g>
<!-- node_modules/express -->
<g id="node4" class="node">
<title>node_modules/express</title>
<g id="a_node4"><a xlink:href="node_modules/express" xlink:title="express">
<polygon fill="#c40b0a" fill-opacity="0.101961" stroke="black" points="261.52,-34.3 209.58,-34.3 207.52,-32.23 207.52,-15.7 259.45,-15.7 261.52,-17.77 261.52,-34.3"/>
<polyline fill="none" stroke="black" points="259.45,-32.23 207.52,-32.23 "/>
<polyline fill="none" stroke="black" points="259.45,-32.23 259.45,-15.7 "/>
<polyline fill="none" stroke="black" points="259.45,-32.23 261.52,-34.3 "/>
<text text-anchor="middle" x="234.52" y="-22.3" font-family="Helvetica,sans-Serif" font-size="9.00" fill="#c40b0a">express</text>
</a>
</g>
</g>
<!-- using&#45;express/2&#45;express&#45;dynamic&#45;serving/examples/hello&#45;world/config/default.js -->
<g id="node5" class="node">
<title>using&#45;express/2&#45;express&#45;dynamic&#45;serving/examples/hello&#45;world/config/default.js</title>
<g id="a_node5"><a xlink:href="using-express/2-express-dynamic-serving/examples/hello-world/config/default.js" xlink:title="default.js">
<path fill="#ffffcc" stroke="black" d="M255.32,-307.3C255.32,-307.3 213.72,-307.3 213.72,-307.3 210.62,-307.3 207.52,-304.2 207.52,-301.1 207.52,-301.1 207.52,-294.9 207.52,-294.9 207.52,-291.8 210.62,-288.7 213.72,-288.7 213.72,-288.7 255.32,-288.7 255.32,-288.7 258.42,-288.7 261.52,-291.8 261.52,-294.9 261.52,-294.9 261.52,-301.1 261.52,-301.1 261.52,-304.2 258.42,-307.3 255.32,-307.3"/>
<text text-anchor="middle" x="234.52" y="-295.3" font-family="Helvetica,sans-Serif" font-size="9.00">default.js</text>
</a>
</g>
</g>
<!-- using&#45;express/2&#45;express&#45;dynamic&#45;serving/examples/hello&#45;world/config/development.js -->
<g id="node6" class="node">
<title>using&#45;express/2&#45;express&#45;dynamic&#45;serving/examples/hello&#45;world/config/development.js</title>
<g id="a_node6"><a xlink:href="using-express/2-express-dynamic-serving/examples/hello-world/config/development.js" xlink:title="development.js">
<path fill="#ccffcc" stroke="black" d="M180.07,-338.3C180.07,-338.3 116.44,-338.3 116.44,-338.3 113.34,-338.3 110.24,-335.2 110.24,-332.1 110.24,-332.1 110.24,-325.9 110.24,-325.9 110.24,-322.8 113.34,-319.7 116.44,-319.7 116.44,-319.7 180.07,-319.7 180.07,-319.7 183.17,-319.7 186.27,-322.8 186.27,-325.9 186.27,-325.9 186.27,-332.1 186.27,-332.1 186.27,-335.2 183.17,-338.3 180.07,-338.3"/>
<text text-anchor="middle" x="148.26" y="-326.3" font-family="Helvetica,sans-Serif" font-size="9.00">development.js</text>
</a>
</g>
</g>
<!-- using&#45;express/2&#45;express&#45;dynamic&#45;serving/examples/hello&#45;world/config/index.js -->
<g id="node7" class="node">
<title>using&#45;express/2&#45;express&#45;dynamic&#45;serving/examples/hello&#45;world/config/index.js</title>
<g id="a_node7"><a xlink:href="using-express/2-express-dynamic-serving/examples/hello-world/config/index.js" xlink:title="index.js">
<path fill="#ffffcc" stroke="black" d="M169.06,-307.3C169.06,-307.3 127.46,-307.3 127.46,-307.3 124.36,-307.3 121.26,-304.2 121.26,-301.1 121.26,-301.1 121.26,-294.9 121.26,-294.9 121.26,-291.8 124.36,-288.7 127.46,-288.7 127.46,-288.7 169.06,-288.7 169.06,-288.7 172.16,-288.7 175.26,-291.8 175.26,-294.9 175.26,-294.9 175.26,-301.1 175.26,-301.1 175.26,-304.2 172.16,-307.3 169.06,-307.3"/>
<text text-anchor="middle" x="148.26" y="-295.3" font-family="Helvetica,sans-Serif" font-size="9.00">index.js</text>
</a>
</g>
</g>
<!-- using&#45;express/2&#45;express&#45;dynamic&#45;serving/examples/hello&#45;world/config/index.js&#45;&gt;using&#45;express/2&#45;express&#45;dynamic&#45;serving/examples/hello&#45;world/config/default.js -->
<g id="edge1" class="edge">
<title>using&#45;express/2&#45;express&#45;dynamic&#45;serving/examples/hello&#45;world/config/index.js&#45;&gt;using&#45;express/2&#45;express&#45;dynamic&#45;serving/examples/hello&#45;world/config/default.js</title>
<path fill="none" stroke="#000000" stroke-width="2" stroke-opacity="0.200000" d="M175.46,-298C183.54,-298 192.54,-298 201,-298"/>
<polygon fill="#000000" fill-opacity="0.200000" stroke="#000000" stroke-width="2" stroke-opacity="0.200000" points="201.34,-300.1 207.34,-298 201.34,-295.9 201.34,-300.1"/>
</g>
<!-- using&#45;express/2&#45;express&#45;dynamic&#45;serving/examples/hello&#45;world/config/production.js -->
<g id="node8" class="node">
<title>using&#45;express/2&#45;express&#45;dynamic&#45;serving/examples/hello&#45;world/config/production.js</title>
<g id="a_node8"><a xlink:href="using-express/2-express-dynamic-serving/examples/hello-world/config/production.js" xlink:title="production.js">
<path fill="#ccffcc" stroke="black" d="M175.57,-276.3C175.57,-276.3 120.95,-276.3 120.95,-276.3 117.85,-276.3 114.75,-273.2 114.75,-270.1 114.75,-270.1 114.75,-263.9 114.75,-263.9 114.75,-260.8 117.85,-257.7 120.95,-257.7 120.95,-257.7 175.57,-257.7 175.57,-257.7 178.67,-257.7 181.77,-260.8 181.77,-263.9 181.77,-263.9 181.77,-270.1 181.77,-270.1 181.77,-273.2 178.67,-276.3 175.57,-276.3"/>
<text text-anchor="middle" x="148.26" y="-264.3" font-family="Helvetica,sans-Serif" font-size="9.00">production.js</text>
</a>
</g>
</g>
<!-- using&#45;express/2&#45;express&#45;dynamic&#45;serving/examples/hello&#45;world/index.js -->
<g id="node9" class="node">
<title>using&#45;express/2&#45;express&#45;dynamic&#45;serving/examples/hello&#45;world/index.js</title>
<g id="a_node9"><a xlink:href="using-express/2-express-dynamic-serving/examples/hello-world/index.js" xlink:title="index.js">
<path fill="#ffffcc" stroke="black" d="M87.8,-211.3C87.8,-211.3 46.2,-211.3 46.2,-211.3 43.1,-211.3 40,-208.2 40,-205.1 40,-205.1 40,-198.9 40,-198.9 40,-195.8 43.1,-192.7 46.2,-192.7 46.2,-192.7 87.8,-192.7 87.8,-192.7 90.9,-192.7 94,-195.8 94,-198.9 94,-198.9 94,-205.1 94,-205.1 94,-208.2 90.9,-211.3 87.8,-211.3"/>
<text text-anchor="middle" x="67" y="-199.3" font-family="Helvetica,sans-Serif" font-size="9.00">index.js</text>
</a>
</g>
</g>
<!-- using&#45;express/2&#45;express&#45;dynamic&#45;serving/examples/hello&#45;world/index.js&#45;&gt;node_modules/body&#45;parser -->
<g id="edge4" class="edge">
<title>using&#45;express/2&#45;express&#45;dynamic&#45;serving/examples/hello&#45;world/index.js&#45;&gt;node_modules/body&#45;parser</title>
<path fill="none" stroke="#000000" stroke-opacity="0.200000" d="M83.07,-192.61C108.14,-176.24 158.44,-140.06 186.51,-97 192.89,-87.23 186.6,-80.57 194.51,-72 195.56,-70.87 196.69,-69.82 197.89,-68.84"/>
<polygon fill="#000000" fill-opacity="0.200000" stroke="#000000" stroke-opacity="0.200000" points="199.1,-70.56 202.83,-65.41 196.71,-67.11 199.1,-70.56"/>
</g>
<!-- using&#45;express/2&#45;express&#45;dynamic&#45;serving/examples/hello&#45;world/index.js&#45;&gt;node_modules/express -->
<g id="edge5" class="edge">
<title>using&#45;express/2&#45;express&#45;dynamic&#45;serving/examples/hello&#45;world/index.js&#45;&gt;node_modules/express</title>
<path fill="none" stroke="#000000" stroke-opacity="0.200000" d="M68.9,-192.66C71.19,-173.14 78.84,-127.4 102,-98 127.53,-65.6 171.63,-45.39 201.66,-34.66"/>
<polygon fill="#000000" fill-opacity="0.200000" stroke="#000000" stroke-opacity="0.200000" points="202.49,-36.59 207.47,-32.64 201.11,-32.63 202.49,-36.59"/>
</g>
<!-- using&#45;express/2&#45;express&#45;dynamic&#45;serving/examples/hello&#45;world/index.js&#45;&gt;using&#45;express/2&#45;express&#45;dynamic&#45;serving/examples/hello&#45;world/config/index.js -->
<g id="edge2" class="edge">
<title>using&#45;express/2&#45;express&#45;dynamic&#45;serving/examples/hello&#45;world/index.js&#45;&gt;using&#45;express/2&#45;express&#45;dynamic&#45;serving/examples/hello&#45;world/config/index.js</title>
<path fill="none" stroke="#000000" stroke-width="2" stroke-opacity="0.200000" d="M69.5,-211.56C72.59,-228.17 81.22,-262.47 102,-282 105.75,-285.53 110.33,-288.28 115.12,-290.44"/>
<polygon fill="#000000" fill-opacity="0.200000" stroke="#000000" stroke-width="2" stroke-opacity="0.200000" points="114.45,-292.43 120.8,-292.7 116,-288.53 114.45,-292.43"/>
</g>
<!-- using&#45;express/2&#45;express&#45;dynamic&#45;serving/examples/hello&#45;world/middleware/logger.js -->
<g id="node10" class="node">
<title>using&#45;express/2&#45;express&#45;dynamic&#45;serving/examples/hello&#45;world/middleware/logger.js</title>
<g id="a_node10"><a xlink:href="using-express/2-express-dynamic-serving/examples/hello-world/middleware/logger.js" xlink:title="logger.js">
<path fill="#ffffcc" stroke="black" d="M169.06,-215.3C169.06,-215.3 127.46,-215.3 127.46,-215.3 124.36,-215.3 121.26,-212.2 121.26,-209.1 121.26,-209.1 121.26,-202.9 121.26,-202.9 121.26,-199.8 124.36,-196.7 127.46,-196.7 127.46,-196.7 169.06,-196.7 169.06,-196.7 172.16,-196.7 175.26,-199.8 175.26,-202.9 175.26,-202.9 175.26,-209.1 175.26,-209.1 175.26,-212.2 172.16,-215.3 169.06,-215.3"/>
<text text-anchor="middle" x="148.26" y="-203.3" font-family="Helvetica,sans-Serif" font-size="9.00">logger.js</text>
</a>
</g>
</g>
<!-- using&#45;express/2&#45;express&#45;dynamic&#45;serving/examples/hello&#45;world/index.js&#45;&gt;using&#45;express/2&#45;express&#45;dynamic&#45;serving/examples/hello&#45;world/middleware/logger.js -->
<g id="edge3" class="edge">
<title>using&#45;express/2&#45;express&#45;dynamic&#45;serving/examples/hello&#45;world/index.js&#45;&gt;using&#45;express/2&#45;express&#45;dynamic&#45;serving/examples/hello&#45;world/middleware/logger.js</title>
<path fill="none" stroke="#000000" stroke-width="2" stroke-opacity="0.200000" d="M94.39,-203.33C101.01,-203.67 108.19,-204.03 115.06,-204.37"/>
<polygon fill="#000000" fill-opacity="0.200000" stroke="#000000" stroke-width="2" stroke-opacity="0.200000" points="115.15,-206.48 121.25,-204.69 115.36,-202.29 115.15,-206.48"/>
</g>
<!-- using&#45;express/2&#45;express&#45;dynamic&#45;serving/examples/hello&#45;world/middleware/logger.js&#45;&gt;fs -->
<g id="edge7" class="edge">
<title>using&#45;express/2&#45;express&#45;dynamic&#45;serving/examples/hello&#45;world/middleware/logger.js&#45;&gt;fs</title>
<path fill="none" stroke="#000000" stroke-dasharray="5,2" stroke-opacity="0.200000" d="M161.33,-196.54C175.85,-185.17 200.3,-166.02 216.67,-153.2"/>
<polygon fill="#000000" fill-opacity="0.200000" stroke="#000000" stroke-opacity="0.200000" points="218.04,-154.79 221.47,-149.44 215.45,-151.49 218.04,-154.79"/>
</g>
<!-- using&#45;express/2&#45;express&#45;dynamic&#45;serving/examples/hello&#45;world/middleware/logger.js&#45;&gt;node_modules/date&#45;fns -->
<g id="edge6" class="edge">
<title>using&#45;express/2&#45;express&#45;dynamic&#45;serving/examples/hello&#45;world/middleware/logger.js&#45;&gt;node_modules/date&#45;fns</title>
<path fill="none" stroke="#000000" stroke-opacity="0.200000" d="M153.47,-196.48C160.66,-180.76 176.29,-148.78 194.51,-125 201.28,-116.18 210.06,-107.44 217.57,-100.57"/>
<polygon fill="#000000" fill-opacity="0.200000" stroke="#000000" stroke-opacity="0.200000" points="218.99,-102.12 222.06,-96.56 216.19,-98.99 218.99,-102.12"/>
</g>
</g>
</svg>
