<?xml version="1.0" encoding="UTF-8" standalone="no"?>
<!DOCTYPE svg PUBLIC "-//W3C//DTD SVG 1.1//EN"
 "http://www.w3.org/Graphics/SVG/1.1/DTD/svg11.dtd">
<!-- Generated by graphviz version 2.44.0 (20200408.0750)
 -->
<!-- Title: dependency&#45;cruiser output Pages: 1 -->
<svg width="220pt" height="147pt"
 viewBox="0.00 0.00 220.00 147.00" xmlns="http://www.w3.org/2000/svg" xmlns:xlink="http://www.w3.org/1999/xlink">
<g id="graph0" class="graph" transform="scale(1 1) rotate(0) translate(4 143)">
<title>dependency&#45;cruiser output</title>
<polygon fill="white" stroke="transparent" points="-4,4 -4,-143 216,-143 216,4 -4,4"/>
<g id="clust1" class="cluster">
<title>cluster_example&#45;apps</title>
<path fill="#ffffff" stroke="black" stroke-width="2" d="M12,-8C12,-8 127,-8 127,-8 133,-8 139,-14 139,-20 139,-20 139,-119 139,-119 139,-125 133,-131 127,-131 127,-131 12,-131 12,-131 6,-131 0,-125 0,-119 0,-119 0,-20 0,-20 0,-14 6,-8 12,-8"/>
<text text-anchor="middle" x="69.5" y="-118.9" font-family="Helvetica,sans-Serif" font-weight="bold" font-size="9.00">example&#45;apps</text>
</g>
<g id="clust2" class="cluster">
<title>cluster_example&#45;apps/stepped&#45;cli&#45;and&#45;file&#45;system</title>
<path fill="#ffffff" stroke="black" stroke-width="2" d="M20,-16C20,-16 119,-16 119,-16 125,-16 131,-22 131,-28 131,-28 131,-92 131,-92 131,-98 125,-104 119,-104 119,-104 20,-104 20,-104 14,-104 8,-98 8,-92 8,-92 8,-28 8,-28 8,-22 14,-16 20,-16"/>
<text text-anchor="middle" x="69.5" y="-91.9" font-family="Helvetica,sans-Serif" font-weight="bold" font-size="9.00">stepped&#45;cli&#45;and&#45;file&#45;system</text>
</g>
<g id="clust3" class="cluster">
<title>cluster_example&#45;apps/stepped&#45;cli&#45;and&#45;file&#45;system/0&#45;working&#45;with&#45;files</title>
<path fill="#ffffff" stroke="black" stroke-width="2" d="M35,-24C35,-24 103,-24 103,-24 109,-24 115,-30 115,-36 115,-36 115,-65 115,-65 115,-71 109,-77 103,-77 103,-77 35,-77 35,-77 29,-77 23,-71 23,-65 23,-65 23,-36 23,-36 23,-30 29,-24 35,-24"/>
<text text-anchor="middle" x="69" y="-64.9" font-family="Helvetica,sans-Serif" font-weight="bold" font-size="9.00">0&#45;working&#45;with&#45;files</text>
</g>
<!-- example&#45;apps/stepped&#45;cli&#45;and&#45;file&#45;system/0&#45;working&#45;with&#45;files/index.js -->
<g id="node1" class="node">
<title>example&#45;apps/stepped&#45;cli&#45;and&#45;file&#45;system/0&#45;working&#45;with&#45;files/index.js</title>
<g id="a_node1"><a xlink:href="example-apps/stepped-cli-and-file-system/0-working-with-files/index.js" xlink:title="index.js">
<path fill="#ffffcc" stroke="black" d="M89.8,-50.3C89.8,-50.3 48.2,-50.3 48.2,-50.3 45.1,-50.3 42,-47.2 42,-44.1 42,-44.1 42,-37.9 42,-37.9 42,-34.8 45.1,-31.7 48.2,-31.7 48.2,-31.7 89.8,-31.7 89.8,-31.7 92.9,-31.7 96,-34.8 96,-37.9 96,-37.9 96,-44.1 96,-44.1 96,-47.2 92.9,-50.3 89.8,-50.3"/>
<text text-anchor="middle" x="69" y="-38.3" font-family="Helvetica,sans-Serif" font-size="9.00">index.js</text>
</a>
</g>
</g>
<!-- fs -->
<g id="node2" class="node">
<title>fs</title>
<path fill="#ffffcc" stroke="grey" d="M205.8,-50.3C205.8,-50.3 164.2,-50.3 164.2,-50.3 161.1,-50.3 158,-47.2 158,-44.1 158,-44.1 158,-37.9 158,-37.9 158,-34.8 161.1,-31.7 164.2,-31.7 164.2,-31.7 205.8,-31.7 205.8,-31.7 208.9,-31.7 212,-34.8 212,-37.9 212,-37.9 212,-44.1 212,-44.1 212,-47.2 208.9,-50.3 205.8,-50.3"/>
<text text-anchor="middle" x="185" y="-38.3" font-family="Helvetica,sans-Serif" font-size="9.00" fill="grey">fs</text>
</g>
<!-- example&#45;apps/stepped&#45;cli&#45;and&#45;file&#45;system/0&#45;working&#45;with&#45;files/index.js&#45;&gt;fs -->
<g id="edge1" class="edge">
<title>example&#45;apps/stepped&#45;cli&#45;and&#45;file&#45;system/0&#45;working&#45;with&#45;files/index.js&#45;&gt;fs</title>
<path fill="none" stroke="#000000" stroke-dasharray="5,2" stroke-opacity="0.200000" d="M96.15,-41C112.66,-41 134.11,-41 151.69,-41"/>
<polygon fill="#000000" fill-opacity="0.200000" stroke="#000000" stroke-opacity="0.200000" points="151.97,-43.1 157.97,-41 151.97,-38.9 151.97,-43.1"/>
</g>
</g>
</svg>
