<?xml version="1.0" encoding="UTF-8" standalone="no"?>
<!DOCTYPE svg PUBLIC "-//W3C//DTD SVG 1.1//EN"
 "http://www.w3.org/Graphics/SVG/1.1/DTD/svg11.dtd">
<!-- Generated by graphviz version 2.44.0 (20200408.0750)
 -->
<!-- Title: dependency&#45;cruiser output Pages: 1 -->
<svg width="323pt" height="349pt"
 viewBox="0.00 0.00 322.75 349.40" xmlns="http://www.w3.org/2000/svg" xmlns:xlink="http://www.w3.org/1999/xlink">
<g id="graph0" class="graph" transform="scale(1 1) rotate(0) translate(4 345.4)">
<title>dependency&#45;cruiser output</title>
<polygon fill="white" stroke="transparent" points="-4,4 -4,-345.4 318.75,-345.4 318.75,4 -4,4"/>
<g id="clust1" class="cluster">
<title>cluster_example&#45;apps</title>
<path fill="#ffffff" stroke="black" stroke-width="2" d="M20,-149.4C20,-149.4 240.75,-149.4 240.75,-149.4 246.75,-149.4 252.75,-155.4 252.75,-161.4 252.75,-161.4 252.75,-321.4 252.75,-321.4 252.75,-327.4 246.75,-333.4 240.75,-333.4 240.75,-333.4 20,-333.4 20,-333.4 14,-333.4 8,-327.4 8,-321.4 8,-321.4 8,-161.4 8,-161.4 8,-155.4 14,-149.4 20,-149.4"/>
<text text-anchor="middle" x="130.37" y="-321.3" font-family="Helvetica,sans-Serif" font-weight="bold" font-size="9.00">example&#45;apps</text>
</g>
<g id="clust2" class="cluster">
<title>cluster_example&#45;apps/weather&#45;it&#45;async&#45;await</title>
<path fill="#ffffff" stroke="black" stroke-width="2" d="M28,-157.4C28,-157.4 232.75,-157.4 232.75,-157.4 238.75,-157.4 244.75,-163.4 244.75,-169.4 244.75,-169.4 244.75,-294.4 244.75,-294.4 244.75,-300.4 238.75,-306.4 232.75,-306.4 232.75,-306.4 28,-306.4 28,-306.4 22,-306.4 16,-300.4 16,-294.4 16,-294.4 16,-169.4 16,-169.4 16,-163.4 22,-157.4 28,-157.4"/>
<text text-anchor="middle" x="130.37" y="-294.3" font-family="Helvetica,sans-Serif" font-weight="bold" font-size="9.00">weather&#45;it&#45;async&#45;await</text>
</g>
<g id="clust3" class="cluster">
<title>cluster_example&#45;apps/weather&#45;it&#45;async&#45;await/config</title>
<path fill="#ffffff" stroke="black" stroke-width="2" d="M178.75,-165.4C178.75,-165.4 224.75,-165.4 224.75,-165.4 230.75,-165.4 236.75,-171.4 236.75,-177.4 236.75,-177.4 236.75,-206.4 236.75,-206.4 236.75,-212.4 230.75,-218.4 224.75,-218.4 224.75,-218.4 178.75,-218.4 178.75,-218.4 172.75,-218.4 166.75,-212.4 166.75,-206.4 166.75,-206.4 166.75,-177.4 166.75,-177.4 166.75,-171.4 172.75,-165.4 178.75,-165.4"/>
<text text-anchor="middle" x="201.75" y="-206.3" font-family="Helvetica,sans-Serif" font-weight="bold" font-size="9.00">config</text>
</g>
<g id="clust4" class="cluster">
<title>cluster_example&#45;apps/weather&#45;it&#45;async&#45;await/renderer</title>
<path fill="#ffffff" stroke="black" stroke-width="2" d="M98,-226.4C98,-226.4 144,-226.4 144,-226.4 150,-226.4 156,-232.4 156,-238.4 156,-238.4 156,-267.4 156,-267.4 156,-273.4 150,-279.4 144,-279.4 144,-279.4 98,-279.4 98,-279.4 92,-279.4 86,-273.4 86,-267.4 86,-267.4 86,-238.4 86,-238.4 86,-232.4 92,-226.4 98,-226.4"/>
<text text-anchor="middle" x="121" y="-267.3" font-family="Helvetica,sans-Serif" font-weight="bold" font-size="9.00">renderer</text>
</g>
<g id="clust5" class="cluster">
<title>cluster_example&#45;apps/weather&#45;it&#45;async&#45;await/weather</title>
<path fill="#ffffff" stroke="black" stroke-width="2" d="M98,-165.4C98,-165.4 144,-165.4 144,-165.4 150,-165.4 156,-171.4 156,-177.4 156,-177.4 156,-206.4 156,-206.4 156,-212.4 150,-218.4 144,-218.4 144,-218.4 98,-218.4 98,-218.4 92,-218.4 86,-212.4 86,-206.4 86,-206.4 86,-177.4 86,-177.4 86,-171.4 92,-165.4 98,-165.4"/>
<text text-anchor="middle" x="121" y="-206.3" font-family="Helvetica,sans-Serif" font-weight="bold" font-size="9.00">weather</text>
</g>
<g id="clust6" class="cluster">
<title>cluster_node_modules</title>
<path fill="#ffffff" stroke="black" stroke-width="2" d="M176.49,-57.4C176.49,-57.4 227.01,-57.4 227.01,-57.4 233.01,-57.4 239.01,-63.4 239.01,-69.4 239.01,-69.4 239.01,-129.4 239.01,-129.4 239.01,-135.4 233.01,-141.4 227.01,-141.4 227.01,-141.4 176.49,-141.4 176.49,-141.4 170.49,-141.4 164.49,-135.4 164.49,-129.4 164.49,-129.4 164.49,-69.4 164.49,-69.4 164.49,-63.4 170.49,-57.4 176.49,-57.4"/>
<text text-anchor="middle" x="201.75" y="-129.3" font-family="Helvetica,sans-Serif" font-weight="bold" font-size="9.00">node_modules</text>
</g>
<!-- dotenv -->
<g id="node1" class="node">
<title>dotenv</title>
<path fill="#ffffcc" stroke="red" d="M308.55,-191.7C308.55,-191.7 266.95,-191.7 266.95,-191.7 263.85,-191.7 260.75,-188.6 260.75,-185.5 260.75,-185.5 260.75,-179.3 260.75,-179.3 260.75,-176.2 263.85,-173.1 266.95,-173.1 266.95,-173.1 308.55,-173.1 308.55,-173.1 311.65,-173.1 314.75,-176.2 314.75,-179.3 314.75,-179.3 314.75,-185.5 314.75,-185.5 314.75,-188.6 311.65,-191.7 308.55,-191.7"/>
<text text-anchor="middle" x="287.75" y="-179.7" font-family="Helvetica,sans-Serif" font-size="9.00" fill="red">dotenv</text>
</g>
<!-- example&#45;apps/weather&#45;it&#45;async&#45;await/config/index.js -->
<g id="node2" class="node">
<title>example&#45;apps/weather&#45;it&#45;async&#45;await/config/index.js</title>
<g id="a_node2"><a xlink:href="example-apps/weather-it-async-await/config/index.js" xlink:title="index.js">
<path fill="#ffffcc" stroke="black" d="M222.55,-191.7C222.55,-191.7 180.95,-191.7 180.95,-191.7 177.85,-191.7 174.75,-188.6 174.75,-185.5 174.75,-185.5 174.75,-179.3 174.75,-179.3 174.75,-176.2 177.85,-173.1 180.95,-173.1 180.95,-173.1 222.55,-173.1 222.55,-173.1 225.65,-173.1 228.75,-176.2 228.75,-179.3 228.75,-179.3 228.75,-185.5 228.75,-185.5 228.75,-188.6 225.65,-191.7 222.55,-191.7"/>
<text text-anchor="middle" x="201.75" y="-179.7" font-family="Helvetica,sans-Serif" font-size="9.00">index.js</text>
</a>
</g>
</g>
<!-- example&#45;apps/weather&#45;it&#45;async&#45;await/config/index.js&#45;&gt;dotenv -->
<g id="edge1" class="edge">
<title>example&#45;apps/weather&#45;it&#45;async&#45;await/config/index.js&#45;&gt;dotenv</title>
<path fill="none" stroke="#000000" stroke-width="2" stroke-opacity="0.200000" d="M228.87,-182.4C236.92,-182.4 245.9,-182.4 254.33,-182.4"/>
<polygon fill="#000000" fill-opacity="0.200000" stroke="#000000" stroke-width="2" stroke-opacity="0.200000" points="254.65,-184.5 260.65,-182.4 254.65,-180.3 254.65,-184.5"/>
</g>
<!-- example&#45;apps/weather&#45;it&#45;async&#45;await/index.js -->
<g id="node3" class="node">
<title>example&#45;apps/weather&#45;it&#45;async&#45;await/index.js</title>
<g id="a_node3"><a xlink:href="example-apps/weather-it-async-await/index.js" xlink:title="index.js">
<path fill="#ffffcc" stroke="black" d="M71.8,-221.7C71.8,-221.7 30.2,-221.7 30.2,-221.7 27.1,-221.7 24,-218.6 24,-215.5 24,-215.5 24,-209.3 24,-209.3 24,-206.2 27.1,-203.1 30.2,-203.1 30.2,-203.1 71.8,-203.1 71.8,-203.1 74.9,-203.1 78,-206.2 78,-209.3 78,-209.3 78,-215.5 78,-215.5 78,-218.6 74.9,-221.7 71.8,-221.7"/>
<text text-anchor="middle" x="51" y="-209.7" font-family="Helvetica,sans-Serif" font-size="9.00">index.js</text>
</a>
</g>
</g>
<!-- example&#45;apps/weather&#45;it&#45;async&#45;await/renderer/index.js -->
<g id="node4" class="node">
<title>example&#45;apps/weather&#45;it&#45;async&#45;await/renderer/index.js</title>
<g id="a_node4"><a xlink:href="example-apps/weather-it-async-await/renderer/index.js" xlink:title="index.js">
<path fill="#ffffcc" stroke="black" d="M141.8,-252.7C141.8,-252.7 100.2,-252.7 100.2,-252.7 97.1,-252.7 94,-249.6 94,-246.5 94,-246.5 94,-240.3 94,-240.3 94,-237.2 97.1,-234.1 100.2,-234.1 100.2,-234.1 141.8,-234.1 141.8,-234.1 144.9,-234.1 148,-237.2 148,-240.3 148,-240.3 148,-246.5 148,-246.5 148,-249.6 144.9,-252.7 141.8,-252.7"/>
<text text-anchor="middle" x="121" y="-240.7" font-family="Helvetica,sans-Serif" font-size="9.00">index.js</text>
</a>
</g>
</g>
<!-- example&#45;apps/weather&#45;it&#45;async&#45;await/index.js&#45;&gt;example&#45;apps/weather&#45;it&#45;async&#45;await/renderer/index.js -->
<g id="edge2" class="edge">
<title>example&#45;apps/weather&#45;it&#45;async&#45;await/index.js&#45;&gt;example&#45;apps/weather&#45;it&#45;async&#45;await/renderer/index.js</title>
<path fill="none" stroke="#000000" stroke-width="2" stroke-opacity="0.200000" d="M72.77,-221.87C79.36,-224.87 86.74,-228.24 93.67,-231.4"/>
<polygon fill="#000000" fill-opacity="0.200000" stroke="#000000" stroke-width="2" stroke-opacity="0.200000" points="93.02,-233.41 99.36,-233.99 94.77,-229.59 93.02,-233.41"/>
</g>
<!-- example&#45;apps/weather&#45;it&#45;async&#45;await/weather/index.js -->
<g id="node5" class="node">
<title>example&#45;apps/weather&#45;it&#45;async&#45;await/weather/index.js</title>
<g id="a_node5"><a xlink:href="example-apps/weather-it-async-await/weather/index.js" xlink:title="index.js">
<path fill="#ffffcc" stroke="black" d="M141.8,-191.7C141.8,-191.7 100.2,-191.7 100.2,-191.7 97.1,-191.7 94,-188.6 94,-185.5 94,-185.5 94,-179.3 94,-179.3 94,-176.2 97.1,-173.1 100.2,-173.1 100.2,-173.1 141.8,-173.1 141.8,-173.1 144.9,-173.1 148,-176.2 148,-179.3 148,-179.3 148,-185.5 148,-185.5 148,-188.6 144.9,-191.7 141.8,-191.7"/>
<text text-anchor="middle" x="121" y="-179.7" font-family="Helvetica,sans-Serif" font-size="9.00">index.js</text>
</a>
</g>
</g>
<!-- example&#45;apps/weather&#45;it&#45;async&#45;await/index.js&#45;&gt;example&#45;apps/weather&#45;it&#45;async&#45;await/weather/index.js -->
<g id="edge3" class="edge">
<title>example&#45;apps/weather&#45;it&#45;async&#45;await/index.js&#45;&gt;example&#45;apps/weather&#45;it&#45;async&#45;await/weather/index.js</title>
<path fill="none" stroke="#000000" stroke-width="2" stroke-opacity="0.200000" d="M73.14,-203.07C79.35,-200.33 86.23,-197.3 92.76,-194.42"/>
<polygon fill="#000000" fill-opacity="0.200000" stroke="#000000" stroke-width="2" stroke-opacity="0.200000" points="93.99,-196.17 98.64,-191.83 92.3,-192.33 93.99,-196.17"/>
</g>
<!-- node_modules/boxen -->
<g id="node6" class="node">
<title>node_modules/boxen</title>
<g id="a_node6"><a xlink:href="node_modules/boxen" xlink:title="boxen">
<polygon fill="#c40b0a" fill-opacity="0.101961" stroke="black" points="228.75,-114.7 176.81,-114.7 174.75,-112.63 174.75,-96.1 226.68,-96.1 228.75,-98.17 228.75,-114.7"/>
<polyline fill="none" stroke="black" points="226.68,-112.63 174.75,-112.63 "/>
<polyline fill="none" stroke="black" points="226.68,-112.63 226.68,-96.1 "/>
<polyline fill="none" stroke="black" points="226.68,-112.63 228.75,-114.7 "/>
<text text-anchor="middle" x="201.75" y="-102.7" font-family="Helvetica,sans-Serif" font-size="9.00" fill="#c40b0a">boxen</text>
</a>
</g>
</g>
<!-- example&#45;apps/weather&#45;it&#45;async&#45;await/renderer/index.js&#45;&gt;node_modules/boxen -->
<g id="edge4" class="edge">
<title>example&#45;apps/weather&#45;it&#45;async&#45;await/renderer/index.js&#45;&gt;node_modules/boxen</title>
<path fill="none" stroke="#000000" stroke-opacity="0.200000" d="M142.78,-233.93C147.86,-230.66 152.76,-226.5 156,-221.4 170.18,-199.06 154.83,-187.22 164,-162.4 169.82,-146.64 180.56,-130.75 188.94,-119.76"/>
<polygon fill="#000000" fill-opacity="0.200000" stroke="#000000" stroke-opacity="0.200000" points="190.79,-120.8 192.83,-114.78 187.48,-118.22 190.79,-120.8"/>
</g>
<!-- example&#45;apps/weather&#45;it&#45;async&#45;await/weather/index.js&#45;&gt;example&#45;apps/weather&#45;it&#45;async&#45;await/config/index.js -->
<g id="edge5" class="edge">
<title>example&#45;apps/weather&#45;it&#45;async&#45;await/weather/index.js&#45;&gt;example&#45;apps/weather&#45;it&#45;async&#45;await/config/index.js</title>
<path fill="none" stroke="#000000" stroke-width="2" stroke-opacity="0.200000" d="M148.22,-182.4C154.73,-182.4 161.78,-182.4 168.54,-182.4"/>
<polygon fill="#000000" fill-opacity="0.200000" stroke="#000000" stroke-width="2" stroke-opacity="0.200000" points="168.64,-184.5 174.64,-182.4 168.64,-180.3 168.64,-184.5"/>
</g>
<!-- jimp -->
<g id="node7" class="node">
<title>jimp</title>
<path fill="#ffffcc" stroke="red" d="M222.55,-49.7C222.55,-49.7 180.95,-49.7 180.95,-49.7 177.85,-49.7 174.75,-46.6 174.75,-43.5 174.75,-43.5 174.75,-37.3 174.75,-37.3 174.75,-34.2 177.85,-31.1 180.95,-31.1 180.95,-31.1 222.55,-31.1 222.55,-31.1 225.65,-31.1 228.75,-34.2 228.75,-37.3 228.75,-37.3 228.75,-43.5 228.75,-43.5 228.75,-46.6 225.65,-49.7 222.55,-49.7"/>
<text text-anchor="middle" x="201.75" y="-37.7" font-family="Helvetica,sans-Serif" font-size="9.00" fill="red">jimp</text>
</g>
<!-- example&#45;apps/weather&#45;it&#45;async&#45;await/weather/index.js&#45;&gt;jimp -->
<g id="edge6" class="edge">
<title>example&#45;apps/weather&#45;it&#45;async&#45;await/weather/index.js&#45;&gt;jimp</title>
<path fill="none" stroke="#000000" stroke-width="2" stroke-opacity="0.200000" d="M122.42,-172.97C123.95,-149.7 131.06,-88.92 164,-54.4 165.55,-52.77 167.31,-51.33 169.2,-50.06"/>
<polygon fill="#000000" fill-opacity="0.200000" stroke="#000000" stroke-width="2" stroke-opacity="0.200000" points="170.29,-51.86 174.46,-47.06 168.2,-48.21 170.29,-51.86"/>
</g>
<!-- node_modules/node&#45;fetch -->
<g id="node8" class="node">
<title>node_modules/node&#45;fetch</title>
<g id="a_node8"><a xlink:href="node_modules/node-fetch" xlink:title="node&#45;fetch">
<polygon fill="#c40b0a" fill-opacity="0.101961" stroke="black" points="230.77,-83.7 174.8,-83.7 172.73,-81.63 172.73,-65.1 228.7,-65.1 230.77,-67.17 230.77,-83.7"/>
<polyline fill="none" stroke="black" points="228.7,-81.63 172.73,-81.63 "/>
<polyline fill="none" stroke="black" points="228.7,-81.63 228.7,-65.1 "/>
<polyline fill="none" stroke="black" points="228.7,-81.63 230.77,-83.7 "/>
<text text-anchor="middle" x="201.75" y="-71.7" font-family="Helvetica,sans-Serif" font-size="9.00" fill="#c40b0a">node&#45;fetch</text>
</a>
</g>
</g>
<!-- example&#45;apps/weather&#45;it&#45;async&#45;await/weather/index.js&#45;&gt;node_modules/node&#45;fetch -->
<g id="edge7" class="edge">
<title>example&#45;apps/weather&#45;it&#45;async&#45;await/weather/index.js&#45;&gt;node_modules/node&#45;fetch</title>
<path fill="none" stroke="#000000" stroke-opacity="0.200000" d="M123.92,-173.03C128.11,-154.8 139.7,-114.27 164,-90.4 165.13,-89.29 166.35,-88.25 167.63,-87.28"/>
<polygon fill="#000000" fill-opacity="0.200000" stroke="#000000" stroke-opacity="0.200000" points="168.98,-88.9 172.85,-83.86 166.68,-85.39 168.98,-88.9"/>
</g>
<!-- terminal&#45;image -->
<g id="node9" class="node">
<title>terminal&#45;image</title>
<path fill="#ffffcc" stroke="red" d="M233.54,-18.7C233.54,-18.7 169.95,-18.7 169.95,-18.7 166.85,-18.7 163.75,-15.6 163.75,-12.5 163.75,-12.5 163.75,-6.3 163.75,-6.3 163.75,-3.2 166.85,-0.1 169.95,-0.1 169.95,-0.1 233.54,-0.1 233.54,-0.1 236.64,-0.1 239.74,-3.2 239.74,-6.3 239.74,-6.3 239.74,-12.5 239.74,-12.5 239.74,-15.6 236.64,-18.7 233.54,-18.7"/>
<text text-anchor="middle" x="201.75" y="-6.7" font-family="Helvetica,sans-Serif" font-size="9.00" fill="red">terminal&#45;image</text>
</g>
<!-- example&#45;apps/weather&#45;it&#45;async&#45;await/weather/index.js&#45;&gt;terminal&#45;image -->
<g id="edge8" class="edge">
<title>example&#45;apps/weather&#45;it&#45;async&#45;await/weather/index.js&#45;&gt;terminal&#45;image</title>
<path fill="none" stroke="#000000" stroke-width="2" stroke-opacity="0.200000" d="M121.84,-172.99C121.88,-146.45 125.53,-70.09 164,-25.4 164.82,-24.45 165.7,-23.56 166.64,-22.71"/>
<polygon fill="#000000" fill-opacity="0.200000" stroke="#000000" stroke-width="2" stroke-opacity="0.200000" points="168.17,-24.19 171.71,-18.91 165.65,-20.83 168.17,-24.19"/>
</g>
</g>
</svg>
