<?xml version="1.0" encoding="UTF-8" standalone="no"?>
<!DOCTYPE svg PUBLIC "-//W3C//DTD SVG 1.1//EN"
 "http://www.w3.org/Graphics/SVG/1.1/DTD/svg11.dtd">
<!-- Generated by graphviz version 2.44.0 (20200408.0750)
 -->
<!-- Title: dependency&#45;cruiser output Pages: 1 -->
<svg width="302pt" height="446pt"
 viewBox="0.00 0.00 301.52 446.40" xmlns="http://www.w3.org/2000/svg" xmlns:xlink="http://www.w3.org/1999/xlink">
<g id="graph0" class="graph" transform="scale(1 1) rotate(0) translate(4 442.4)">
<title>dependency&#45;cruiser output</title>
<polygon fill="white" stroke="transparent" points="-4,4 -4,-442.4 297.52,-442.4 297.52,4 -4,4"/>
<g id="clust1" class="cluster">
<title>cluster_node_modules</title>
<path fill="#ffffff" stroke="black" stroke-width="2" d="M198.51,-8C198.51,-8 254.52,-8 254.52,-8 260.52,-8 266.52,-14 266.52,-20 266.52,-20 266.52,-111 266.52,-111 266.52,-117 260.52,-123 254.52,-123 254.52,-123 198.51,-123 198.51,-123 192.51,-123 186.51,-117 186.51,-111 186.51,-111 186.51,-20 186.51,-20 186.51,-14 192.51,-8 198.51,-8"/>
<text text-anchor="middle" x="226.52" y="-110.9" font-family="Helvetica,sans-Serif" font-weight="bold" font-size="9.00">node_modules</text>
</g>
<g id="clust2" class="cluster">
<title>cluster_using&#45;express</title>
<path fill="#ffffff" stroke="black" stroke-width="2" d="M20,-131C20,-131 273.52,-131 273.52,-131 279.52,-131 285.52,-137 285.52,-143 285.52,-143 285.52,-400 285.52,-400 285.52,-406 279.52,-412 273.52,-412 273.52,-412 20,-412 20,-412 14,-412 8,-406 8,-400 8,-400 8,-143 8,-143 8,-137 14,-131 20,-131"/>
<text text-anchor="middle" x="146.76" y="-399.9" font-family="Helvetica,sans-Serif" font-weight="bold" font-size="9.00">using&#45;express</text>
</g>
<g id="clust3" class="cluster">
<title>cluster_using&#45;express/6&#45;middleware&#45;and&#45;error&#45;handling</title>
<path fill="#ffffff" stroke="black" stroke-width="2" d="M28,-139C28,-139 265.52,-139 265.52,-139 271.52,-139 277.52,-145 277.52,-151 277.52,-151 277.52,-373 277.52,-373 277.52,-379 271.52,-385 265.52,-385 265.52,-385 28,-385 28,-385 22,-385 16,-379 16,-373 16,-373 16,-151 16,-151 16,-145 22,-139 28,-139"/>
<text text-anchor="middle" x="146.76" y="-372.9" font-family="Helvetica,sans-Serif" font-weight="bold" font-size="9.00">6&#45;middleware&#45;and&#45;error&#45;handling</text>
</g>
<g id="clust4" class="cluster">
<title>cluster_using&#45;express/6&#45;middleware&#45;and&#45;error&#45;handling/example</title>
<path fill="#ffffff" stroke="black" stroke-width="2" d="M36,-147C36,-147 257.52,-147 257.52,-147 263.52,-147 269.52,-153 269.52,-159 269.52,-159 269.52,-346 269.52,-346 269.52,-352 263.52,-358 257.52,-358 257.52,-358 36,-358 36,-358 30,-358 24,-352 24,-346 24,-346 24,-159 24,-159 24,-153 30,-147 36,-147"/>
<text text-anchor="middle" x="146.76" y="-345.9" font-family="Helvetica,sans-Serif" font-weight="bold" font-size="9.00">example</text>
</g>
<g id="clust5" class="cluster">
<title>cluster_using&#45;express/6&#45;middleware&#45;and&#45;error&#45;handling/example/config</title>
<path fill="#ffffff" stroke="black" stroke-width="2" d="M106,-155C106,-155 249.52,-155 249.52,-155 255.52,-155 261.52,-161 261.52,-167 261.52,-167 261.52,-258 261.52,-258 261.52,-264 255.52,-270 249.52,-270 249.52,-270 106,-270 106,-270 100,-270 94,-264 94,-258 94,-258 94,-167 94,-167 94,-161 100,-155 106,-155"/>
<text text-anchor="middle" x="177.76" y="-257.9" font-family="Helvetica,sans-Serif" font-weight="bold" font-size="9.00">config</text>
</g>
<g id="clust6" class="cluster">
<title>cluster_using&#45;express/6&#45;middleware&#45;and&#45;error&#45;handling/example/middleware</title>
<path fill="#ffffff" stroke="black" stroke-width="2" d="M117.26,-278C117.26,-278 163.26,-278 163.26,-278 169.26,-278 175.26,-284 175.26,-290 175.26,-290 175.26,-319 175.26,-319 175.26,-325 169.26,-331 163.26,-331 163.26,-331 117.26,-331 117.26,-331 111.26,-331 105.26,-325 105.26,-319 105.26,-319 105.26,-290 105.26,-290 105.26,-284 111.26,-278 117.26,-278"/>
<text text-anchor="middle" x="140.26" y="-318.9" font-family="Helvetica,sans-Serif" font-weight="bold" font-size="9.00">middleware</text>
</g>
<!-- fs -->
<g id="node1" class="node">
<title>fs</title>
<path fill="#ffffcc" stroke="grey" d="M247.32,-438.3C247.32,-438.3 205.72,-438.3 205.72,-438.3 202.62,-438.3 199.52,-435.2 199.52,-432.1 199.52,-432.1 199.52,-425.9 199.52,-425.9 199.52,-422.8 202.62,-419.7 205.72,-419.7 205.72,-419.7 247.32,-419.7 247.32,-419.7 250.42,-419.7 253.52,-422.8 253.52,-425.9 253.52,-425.9 253.52,-432.1 253.52,-432.1 253.52,-435.2 250.42,-438.3 247.32,-438.3"/>
<text text-anchor="middle" x="226.52" y="-426.3" font-family="Helvetica,sans-Serif" font-size="9.00" fill="grey">fs</text>
</g>
<!-- node_modules/body&#45;parser -->
<g id="node2" class="node">
<title>node_modules/body&#45;parser</title>
<g id="a_node2"><a xlink:href="node_modules/body-parser" xlink:title="body&#45;parser">
<polygon fill="#c40b0a" fill-opacity="0.101961" stroke="black" points="258.52,-65.3 196.58,-65.3 194.51,-63.23 194.51,-46.7 256.46,-46.7 258.52,-48.77 258.52,-65.3"/>
<polyline fill="none" stroke="black" points="256.46,-63.23 194.51,-63.23 "/>
<polyline fill="none" stroke="black" points="256.46,-63.23 256.46,-46.7 "/>
<polyline fill="none" stroke="black" points="256.46,-63.23 258.52,-65.3 "/>
<text text-anchor="middle" x="226.52" y="-53.3" font-family="Helvetica,sans-Serif" font-size="9.00" fill="#c40b0a">body&#45;parser</text>
</a>
</g>
</g>
<!-- node_modules/date&#45;fns -->
<g id="node3" class="node">
<title>node_modules/date&#45;fns</title>
<g id="a_node3"><a xlink:href="node_modules/date-fns" xlink:title="date&#45;fns">
<polygon fill="#c40b0a" fill-opacity="0.101961" stroke="black" points="253.52,-96.3 201.58,-96.3 199.52,-94.23 199.52,-77.7 251.45,-77.7 253.52,-79.77 253.52,-96.3"/>
<polyline fill="none" stroke="black" points="251.45,-94.23 199.52,-94.23 "/>
<polyline fill="none" stroke="black" points="251.45,-94.23 251.45,-77.7 "/>
<polyline fill="none" stroke="black" points="251.45,-94.23 253.52,-96.3 "/>
<text text-anchor="middle" x="226.52" y="-84.3" font-family="Helvetica,sans-Serif" font-size="9.00" fill="#c40b0a">date&#45;fns</text>
</a>
</g>
</g>
<!-- node_modules/express -->
<g id="node4" class="node">
<title>node_modules/express</title>
<g id="a_node4"><a xlink:href="node_modules/express" xlink:title="express">
<polygon fill="#c40b0a" fill-opacity="0.101961" stroke="black" points="253.52,-34.3 201.58,-34.3 199.52,-32.23 199.52,-15.7 251.45,-15.7 253.52,-17.77 253.52,-34.3"/>
<polyline fill="none" stroke="black" points="251.45,-32.23 199.52,-32.23 "/>
<polyline fill="none" stroke="black" points="251.45,-32.23 251.45,-15.7 "/>
<polyline fill="none" stroke="black" points="251.45,-32.23 253.52,-34.3 "/>
<text text-anchor="middle" x="226.52" y="-22.3" font-family="Helvetica,sans-Serif" font-size="9.00" fill="#c40b0a">express</text>
</a>
</g>
</g>
<!-- using&#45;express/6&#45;middleware&#45;and&#45;error&#45;handling/example/config/default.js -->
<g id="node5" class="node">
<title>using&#45;express/6&#45;middleware&#45;and&#45;error&#45;handling/example/config/default.js</title>
<g id="a_node5"><a xlink:href="using-express/6-middleware-and-error-handling/example/config/default.js" xlink:title="default.js">
<path fill="#ffffcc" stroke="black" d="M247.32,-212.3C247.32,-212.3 205.72,-212.3 205.72,-212.3 202.62,-212.3 199.52,-209.2 199.52,-206.1 199.52,-206.1 199.52,-199.9 199.52,-199.9 199.52,-196.8 202.62,-193.7 205.72,-193.7 205.72,-193.7 247.32,-193.7 247.32,-193.7 250.42,-193.7 253.52,-196.8 253.52,-199.9 253.52,-199.9 253.52,-206.1 253.52,-206.1 253.52,-209.2 250.42,-212.3 247.32,-212.3"/>
<text text-anchor="middle" x="226.52" y="-200.3" font-family="Helvetica,sans-Serif" font-size="9.00">default.js</text>
</a>
</g>
</g>
<!-- using&#45;express/6&#45;middleware&#45;and&#45;error&#45;handling/example/config/development.js -->
<g id="node6" class="node">
<title>using&#45;express/6&#45;middleware&#45;and&#45;error&#45;handling/example/config/development.js</title>
<g id="a_node6"><a xlink:href="using-express/6-middleware-and-error-handling/example/config/development.js" xlink:title="development.js">
<path fill="#ccffcc" stroke="black" d="M172.07,-243.3C172.07,-243.3 108.44,-243.3 108.44,-243.3 105.34,-243.3 102.24,-240.2 102.24,-237.1 102.24,-237.1 102.24,-230.9 102.24,-230.9 102.24,-227.8 105.34,-224.7 108.44,-224.7 108.44,-224.7 172.07,-224.7 172.07,-224.7 175.17,-224.7 178.27,-227.8 178.27,-230.9 178.27,-230.9 178.27,-237.1 178.27,-237.1 178.27,-240.2 175.17,-243.3 172.07,-243.3"/>
<text text-anchor="middle" x="140.26" y="-231.3" font-family="Helvetica,sans-Serif" font-size="9.00">development.js</text>
</a>
</g>
</g>
<!-- using&#45;express/6&#45;middleware&#45;and&#45;error&#45;handling/example/config/index.js -->
<g id="node7" class="node">
<title>using&#45;express/6&#45;middleware&#45;and&#45;error&#45;handling/example/config/index.js</title>
<g id="a_node7"><a xlink:href="using-express/6-middleware-and-error-handling/example/config/index.js" xlink:title="index.js">
<path fill="#ffffcc" stroke="black" d="M161.06,-212.3C161.06,-212.3 119.46,-212.3 119.46,-212.3 116.36,-212.3 113.26,-209.2 113.26,-206.1 113.26,-206.1 113.26,-199.9 113.26,-199.9 113.26,-196.8 116.36,-193.7 119.46,-193.7 119.46,-193.7 161.06,-193.7 161.06,-193.7 164.16,-193.7 167.26,-196.8 167.26,-199.9 167.26,-199.9 167.26,-206.1 167.26,-206.1 167.26,-209.2 164.16,-212.3 161.06,-212.3"/>
<text text-anchor="middle" x="140.26" y="-200.3" font-family="Helvetica,sans-Serif" font-size="9.00">index.js</text>
</a>
</g>
</g>
<!-- using&#45;express/6&#45;middleware&#45;and&#45;error&#45;handling/example/config/index.js&#45;&gt;using&#45;express/6&#45;middleware&#45;and&#45;error&#45;handling/example/config/default.js -->
<g id="edge1" class="edge">
<title>using&#45;express/6&#45;middleware&#45;and&#45;error&#45;handling/example/config/index.js&#45;&gt;using&#45;express/6&#45;middleware&#45;and&#45;error&#45;handling/example/config/default.js</title>
<path fill="none" stroke="#000000" stroke-width="2" stroke-opacity="0.200000" d="M167.46,-203C175.54,-203 184.54,-203 193,-203"/>
<polygon fill="#000000" fill-opacity="0.200000" stroke="#000000" stroke-width="2" stroke-opacity="0.200000" points="193.34,-205.1 199.34,-203 193.34,-200.9 193.34,-205.1"/>
</g>
<!-- using&#45;express/6&#45;middleware&#45;and&#45;error&#45;handling/example/config/production.js -->
<g id="node8" class="node">
<title>using&#45;express/6&#45;middleware&#45;and&#45;error&#45;handling/example/config/production.js</title>
<g id="a_node8"><a xlink:href="using-express/6-middleware-and-error-handling/example/config/production.js" xlink:title="production.js">
<path fill="#ccffcc" stroke="black" d="M167.57,-181.3C167.57,-181.3 112.95,-181.3 112.95,-181.3 109.85,-181.3 106.75,-178.2 106.75,-175.1 106.75,-175.1 106.75,-168.9 106.75,-168.9 106.75,-165.8 109.85,-162.7 112.95,-162.7 112.95,-162.7 167.57,-162.7 167.57,-162.7 170.67,-162.7 173.77,-165.8 173.77,-168.9 173.77,-168.9 173.77,-175.1 173.77,-175.1 173.77,-178.2 170.67,-181.3 167.57,-181.3"/>
<text text-anchor="middle" x="140.26" y="-169.3" font-family="Helvetica,sans-Serif" font-size="9.00">production.js</text>
</a>
</g>
</g>
<!-- using&#45;express/6&#45;middleware&#45;and&#45;error&#45;handling/example/index.js -->
<g id="node9" class="node">
<title>using&#45;express/6&#45;middleware&#45;and&#45;error&#45;handling/example/index.js</title>
<g id="a_node9"><a xlink:href="using-express/6-middleware-and-error-handling/example/index.js" xlink:title="index.js">
<path fill="#ffffcc" stroke="black" d="M79.8,-212.3C79.8,-212.3 38.2,-212.3 38.2,-212.3 35.1,-212.3 32,-209.2 32,-206.1 32,-206.1 32,-199.9 32,-199.9 32,-196.8 35.1,-193.7 38.2,-193.7 38.2,-193.7 79.8,-193.7 79.8,-193.7 82.9,-193.7 86,-196.8 86,-199.9 86,-199.9 86,-206.1 86,-206.1 86,-209.2 82.9,-212.3 79.8,-212.3"/>
<text text-anchor="middle" x="59" y="-200.3" font-family="Helvetica,sans-Serif" font-size="9.00">index.js</text>
</a>
</g>
</g>
<!-- using&#45;express/6&#45;middleware&#45;and&#45;error&#45;handling/example/index.js&#45;&gt;fs -->
<g id="edge6" class="edge">
<title>using&#45;express/6&#45;middleware&#45;and&#45;error&#45;handling/example/index.js&#45;&gt;fs</title>
<path fill="none" stroke="#000000" stroke-dasharray="5,2" stroke-opacity="0.200000" d="M60.31,-212.46C61.48,-235.32 67.08,-294.62 94,-334 120.78,-373.18 169.29,-401.95 199.32,-417.03"/>
<polygon fill="#000000" fill-opacity="0.200000" stroke="#000000" stroke-opacity="0.200000" points="198.39,-418.91 204.7,-419.68 200.25,-415.14 198.39,-418.91"/>
</g>
<!-- using&#45;express/6&#45;middleware&#45;and&#45;error&#45;handling/example/index.js&#45;&gt;node_modules/body&#45;parser -->
<g id="edge4" class="edge">
<title>using&#45;express/6&#45;middleware&#45;and&#45;error&#45;handling/example/index.js&#45;&gt;node_modules/body&#45;parser</title>
<path fill="none" stroke="#000000" stroke-opacity="0.200000" d="M65.3,-193.42C71.45,-182.73 82.26,-165.2 94,-152 126.78,-115.12 142.26,-113.47 178.51,-80 182.21,-76.59 182.33,-74.79 186.51,-72 188.64,-70.59 190.91,-69.26 193.24,-68.02"/>
<polygon fill="#000000" fill-opacity="0.200000" stroke="#000000" stroke-opacity="0.200000" points="194.32,-69.84 198.78,-65.31 192.47,-66.07 194.32,-69.84"/>
</g>
<!-- using&#45;express/6&#45;middleware&#45;and&#45;error&#45;handling/example/index.js&#45;&gt;node_modules/express -->
<g id="edge5" class="edge">
<title>using&#45;express/6&#45;middleware&#45;and&#45;error&#45;handling/example/index.js&#45;&gt;node_modules/express</title>
<path fill="none" stroke="#000000" stroke-opacity="0.200000" d="M60,-193.47C60.51,-171.08 64.81,-114.47 94,-81 119.58,-51.67 163.19,-37.26 193.12,-30.49"/>
<polygon fill="#000000" fill-opacity="0.200000" stroke="#000000" stroke-opacity="0.200000" points="193.87,-32.48 199.29,-29.16 192.99,-28.38 193.87,-32.48"/>
</g>
<!-- using&#45;express/6&#45;middleware&#45;and&#45;error&#45;handling/example/index.js&#45;&gt;using&#45;express/6&#45;middleware&#45;and&#45;error&#45;handling/example/config/index.js -->
<g id="edge2" class="edge">
<title>using&#45;express/6&#45;middleware&#45;and&#45;error&#45;handling/example/index.js&#45;&gt;using&#45;express/6&#45;middleware&#45;and&#45;error&#45;handling/example/config/index.js</title>
<path fill="none" stroke="#000000" stroke-width="2" stroke-opacity="0.200000" d="M86.39,-203C93.01,-203 100.19,-203 107.06,-203"/>
<polygon fill="#000000" fill-opacity="0.200000" stroke="#000000" stroke-width="2" stroke-opacity="0.200000" points="107.25,-205.1 113.25,-203 107.25,-200.9 107.25,-205.1"/>
</g>
<!-- using&#45;express/6&#45;middleware&#45;and&#45;error&#45;handling/example/middleware/logger.js -->
<g id="node10" class="node">
<title>using&#45;express/6&#45;middleware&#45;and&#45;error&#45;handling/example/middleware/logger.js</title>
<g id="a_node10"><a xlink:href="using-express/6-middleware-and-error-handling/example/middleware/logger.js" xlink:title="logger.js">
<path fill="#ffffcc" stroke="black" d="M161.06,-304.3C161.06,-304.3 119.46,-304.3 119.46,-304.3 116.36,-304.3 113.26,-301.2 113.26,-298.1 113.26,-298.1 113.26,-291.9 113.26,-291.9 113.26,-288.8 116.36,-285.7 119.46,-285.7 119.46,-285.7 161.06,-285.7 161.06,-285.7 164.16,-285.7 167.26,-288.8 167.26,-291.9 167.26,-291.9 167.26,-298.1 167.26,-298.1 167.26,-301.2 164.16,-304.3 161.06,-304.3"/>
<text text-anchor="middle" x="140.26" y="-292.3" font-family="Helvetica,sans-Serif" font-size="9.00">logger.js</text>
</a>
</g>
</g>
<!-- using&#45;express/6&#45;middleware&#45;and&#45;error&#45;handling/example/index.js&#45;&gt;using&#45;express/6&#45;middleware&#45;and&#45;error&#45;handling/example/middleware/logger.js -->
<g id="edge3" class="edge">
<title>using&#45;express/6&#45;middleware&#45;and&#45;error&#45;handling/example/index.js&#45;&gt;using&#45;express/6&#45;middleware&#45;and&#45;error&#45;handling/example/middleware/logger.js</title>
<path fill="none" stroke="#000000" stroke-width="2" stroke-opacity="0.200000" d="M62.38,-212.32C66.55,-226.95 76.42,-255.42 94,-273 97.9,-276.9 102.63,-280.22 107.55,-283"/>
<polygon fill="#000000" fill-opacity="0.200000" stroke="#000000" stroke-width="2" stroke-opacity="0.200000" points="106.63,-284.89 112.92,-285.81 108.57,-281.17 106.63,-284.89"/>
</g>
<!-- using&#45;express/6&#45;middleware&#45;and&#45;error&#45;handling/example/middleware/logger.js&#45;&gt;fs -->
<g id="edge8" class="edge">
<title>using&#45;express/6&#45;middleware&#45;and&#45;error&#45;handling/example/middleware/logger.js&#45;&gt;fs</title>
<path fill="none" stroke="#000000" stroke-dasharray="5,2" stroke-opacity="0.200000" d="M147.32,-304.64C161.83,-327.72 198.67,-386.31 216.1,-414.03"/>
<polygon fill="#000000" fill-opacity="0.200000" stroke="#000000" stroke-opacity="0.200000" points="214.54,-415.49 219.51,-419.45 218.1,-413.25 214.54,-415.49"/>
</g>
<!-- using&#45;express/6&#45;middleware&#45;and&#45;error&#45;handling/example/middleware/logger.js&#45;&gt;node_modules/date&#45;fns -->
<g id="edge7" class="edge">
<title>using&#45;express/6&#45;middleware&#45;and&#45;error&#45;handling/example/middleware/logger.js&#45;&gt;node_modules/date&#45;fns</title>
<path fill="none" stroke="#000000" stroke-opacity="0.200000" d="M165.02,-285.6C170.3,-282.39 175.29,-278.25 178.51,-273 192.64,-250.05 178.47,-177.72 186.51,-152 192.43,-133.1 204.87,-113.95 214.12,-101.39"/>
<polygon fill="#000000" fill-opacity="0.200000" stroke="#000000" stroke-opacity="0.200000" points="215.92,-102.48 217.86,-96.42 212.57,-99.95 215.92,-102.48"/>
</g>
</g>
</svg>
