<?xml version="1.0" encoding="UTF-8" standalone="no"?>
<!DOCTYPE svg PUBLIC "-//W3C//DTD SVG 1.1//EN"
 "http://www.w3.org/Graphics/SVG/1.1/DTD/svg11.dtd">
<!-- Generated by graphviz version 2.44.0 (20200408.0750)
 -->
<!-- Title: dependency&#45;cruiser output Pages: 1 -->
<svg width="299pt" height="423pt"
 viewBox="0.00 0.00 298.51 423.00" xmlns="http://www.w3.org/2000/svg" xmlns:xlink="http://www.w3.org/1999/xlink">
<g id="graph0" class="graph" transform="scale(1 1) rotate(0) translate(4 419)">
<title>dependency&#45;cruiser output</title>
<polygon fill="white" stroke="transparent" points="-4,4 -4,-419 294.51,-419 294.51,4 -4,4"/>
<g id="clust1" class="cluster">
<title>cluster_node_modules</title>
<path fill="#ffffff" stroke="black" stroke-width="2" d="M198.51,-8C198.51,-8 249.51,-8 249.51,-8 255.51,-8 261.51,-14 261.51,-20 261.51,-20 261.51,-80 261.51,-80 261.51,-86 255.51,-92 249.51,-92 249.51,-92 198.51,-92 198.51,-92 192.51,-92 186.51,-86 186.51,-80 186.51,-80 186.51,-20 186.51,-20 186.51,-14 192.51,-8 198.51,-8"/>
<text text-anchor="middle" x="224.01" y="-79.9" font-family="Helvetica,sans-Serif" font-weight="bold" font-size="9.00">node_modules</text>
</g>
<g id="clust2" class="cluster">
<title>cluster_using&#45;express</title>
<path fill="#ffffff" stroke="black" stroke-width="2" d="M20,-126C20,-126 270.51,-126 270.51,-126 276.51,-126 282.51,-132 282.51,-138 282.51,-138 282.51,-395 282.51,-395 282.51,-401 276.51,-407 270.51,-407 270.51,-407 20,-407 20,-407 14,-407 8,-401 8,-395 8,-395 8,-138 8,-138 8,-132 14,-126 20,-126"/>
<text text-anchor="middle" x="145.26" y="-394.9" font-family="Helvetica,sans-Serif" font-weight="bold" font-size="9.00">using&#45;express</text>
</g>
<g id="clust3" class="cluster">
<title>cluster_using&#45;express/1&#45;express&#45;static&#45;serving</title>
<path fill="#ffffff" stroke="black" stroke-width="2" d="M28,-134C28,-134 262.51,-134 262.51,-134 268.51,-134 274.51,-140 274.51,-146 274.51,-146 274.51,-368 274.51,-368 274.51,-374 268.51,-380 262.51,-380 262.51,-380 28,-380 28,-380 22,-380 16,-374 16,-368 16,-368 16,-146 16,-146 16,-140 22,-134 28,-134"/>
<text text-anchor="middle" x="145.26" y="-367.9" font-family="Helvetica,sans-Serif" font-weight="bold" font-size="9.00">1&#45;express&#45;static&#45;serving</text>
</g>
<g id="clust4" class="cluster">
<title>cluster_using&#45;express/1&#45;express&#45;static&#45;serving/example</title>
<path fill="#ffffff" stroke="black" stroke-width="2" d="M36,-142C36,-142 254.51,-142 254.51,-142 260.51,-142 266.51,-148 266.51,-154 266.51,-154 266.51,-341 266.51,-341 266.51,-347 260.51,-353 254.51,-353 254.51,-353 36,-353 36,-353 30,-353 24,-347 24,-341 24,-341 24,-154 24,-154 24,-148 30,-142 36,-142"/>
<text text-anchor="middle" x="145.26" y="-340.9" font-family="Helvetica,sans-Serif" font-weight="bold" font-size="9.00">example</text>
</g>
<g id="clust5" class="cluster">
<title>cluster_using&#45;express/1&#45;express&#45;static&#45;serving/example/config</title>
<path fill="#ffffff" stroke="black" stroke-width="2" d="M106,-211C106,-211 246.51,-211 246.51,-211 252.51,-211 258.51,-217 258.51,-223 258.51,-223 258.51,-314 258.51,-314 258.51,-320 252.51,-326 246.51,-326 246.51,-326 106,-326 106,-326 100,-326 94,-320 94,-314 94,-314 94,-223 94,-223 94,-217 100,-211 106,-211"/>
<text text-anchor="middle" x="176.26" y="-313.9" font-family="Helvetica,sans-Serif" font-weight="bold" font-size="9.00">config</text>
</g>
<g id="clust6" class="cluster">
<title>cluster_using&#45;express/1&#45;express&#45;static&#45;serving/example/middleware</title>
<path fill="#ffffff" stroke="black" stroke-width="2" d="M117.26,-150C117.26,-150 163.26,-150 163.26,-150 169.26,-150 175.26,-156 175.26,-162 175.26,-162 175.26,-191 175.26,-191 175.26,-197 169.26,-203 163.26,-203 163.26,-203 117.26,-203 117.26,-203 111.26,-203 105.26,-197 105.26,-191 105.26,-191 105.26,-162 105.26,-162 105.26,-156 111.26,-150 117.26,-150"/>
<text text-anchor="middle" x="140.26" y="-190.9" font-family="Helvetica,sans-Serif" font-weight="bold" font-size="9.00">middleware</text>
</g>
<!-- fs -->
<g id="node1" class="node">
<title>fs</title>
<path fill="#ffffcc" stroke="grey" d="M244.31,-118.3C244.31,-118.3 202.71,-118.3 202.71,-118.3 199.61,-118.3 196.51,-115.2 196.51,-112.1 196.51,-112.1 196.51,-105.9 196.51,-105.9 196.51,-102.8 199.61,-99.7 202.71,-99.7 202.71,-99.7 244.31,-99.7 244.31,-99.7 247.41,-99.7 250.51,-102.8 250.51,-105.9 250.51,-105.9 250.51,-112.1 250.51,-112.1 250.51,-115.2 247.41,-118.3 244.31,-118.3"/>
<text text-anchor="middle" x="223.51" y="-106.3" font-family="Helvetica,sans-Serif" font-size="9.00" fill="grey">fs</text>
</g>
<!-- node_modules/date&#45;fns -->
<g id="node2" class="node">
<title>node_modules/date&#45;fns</title>
<g id="a_node2"><a xlink:href="node_modules/date-fns" xlink:title="date&#45;fns">
<polygon fill="#c40b0a" fill-opacity="0.101961" stroke="black" points="250.51,-65.3 198.58,-65.3 196.51,-63.23 196.51,-46.7 248.45,-46.7 250.51,-48.77 250.51,-65.3"/>
<polyline fill="none" stroke="black" points="248.45,-63.23 196.51,-63.23 "/>
<polyline fill="none" stroke="black" points="248.45,-63.23 248.45,-46.7 "/>
<polyline fill="none" stroke="black" points="248.45,-63.23 250.51,-65.3 "/>
<text text-anchor="middle" x="223.51" y="-53.3" font-family="Helvetica,sans-Serif" font-size="9.00" fill="#c40b0a">date&#45;fns</text>
</a>
</g>
</g>
<!-- node_modules/express -->
<g id="node3" class="node">
<title>node_modules/express</title>
<g id="a_node3"><a xlink:href="node_modules/express" xlink:title="express">
<polygon fill="#c40b0a" fill-opacity="0.101961" stroke="black" points="250.51,-34.3 198.58,-34.3 196.51,-32.23 196.51,-15.7 248.45,-15.7 250.51,-17.77 250.51,-34.3"/>
<polyline fill="none" stroke="black" points="248.45,-32.23 196.51,-32.23 "/>
<polyline fill="none" stroke="black" points="248.45,-32.23 248.45,-15.7 "/>
<polyline fill="none" stroke="black" points="248.45,-32.23 250.51,-34.3 "/>
<text text-anchor="middle" x="223.51" y="-22.3" font-family="Helvetica,sans-Serif" font-size="9.00" fill="#c40b0a">express</text>
</a>
</g>
</g>
<!-- using&#45;express/1&#45;express&#45;static&#45;serving/example/config/default.js -->
<g id="node4" class="node">
<title>using&#45;express/1&#45;express&#45;static&#45;serving/example/config/default.js</title>
<g id="a_node4"><a xlink:href="using-express/1-express-static-serving/example/config/default.js" xlink:title="default.js">
<path fill="#ffffcc" stroke="black" d="M244.31,-268.3C244.31,-268.3 202.71,-268.3 202.71,-268.3 199.61,-268.3 196.51,-265.2 196.51,-262.1 196.51,-262.1 196.51,-255.9 196.51,-255.9 196.51,-252.8 199.61,-249.7 202.71,-249.7 202.71,-249.7 244.31,-249.7 244.31,-249.7 247.41,-249.7 250.51,-252.8 250.51,-255.9 250.51,-255.9 250.51,-262.1 250.51,-262.1 250.51,-265.2 247.41,-268.3 244.31,-268.3"/>
<text text-anchor="middle" x="223.51" y="-256.3" font-family="Helvetica,sans-Serif" font-size="9.00">default.js</text>
</a>
</g>
</g>
<!-- using&#45;express/1&#45;express&#45;static&#45;serving/example/config/development.js -->
<g id="node5" class="node">
<title>using&#45;express/1&#45;express&#45;static&#45;serving/example/config/development.js</title>
<g id="a_node5"><a xlink:href="using-express/1-express-static-serving/example/config/development.js" xlink:title="development.js">
<path fill="#ccffcc" stroke="black" d="M172.07,-299.3C172.07,-299.3 108.44,-299.3 108.44,-299.3 105.34,-299.3 102.24,-296.2 102.24,-293.1 102.24,-293.1 102.24,-286.9 102.24,-286.9 102.24,-283.8 105.34,-280.7 108.44,-280.7 108.44,-280.7 172.07,-280.7 172.07,-280.7 175.17,-280.7 178.27,-283.8 178.27,-286.9 178.27,-286.9 178.27,-293.1 178.27,-293.1 178.27,-296.2 175.17,-299.3 172.07,-299.3"/>
<text text-anchor="middle" x="140.26" y="-287.3" font-family="Helvetica,sans-Serif" font-size="9.00">development.js</text>
</a>
</g>
</g>
<!-- using&#45;express/1&#45;express&#45;static&#45;serving/example/config/index.js -->
<g id="node6" class="node">
<title>using&#45;express/1&#45;express&#45;static&#45;serving/example/config/index.js</title>
<g id="a_node6"><a xlink:href="using-express/1-express-static-serving/example/config/index.js" xlink:title="index.js">
<path fill="#ffffcc" stroke="black" d="M161.06,-268.3C161.06,-268.3 119.46,-268.3 119.46,-268.3 116.36,-268.3 113.26,-265.2 113.26,-262.1 113.26,-262.1 113.26,-255.9 113.26,-255.9 113.26,-252.8 116.36,-249.7 119.46,-249.7 119.46,-249.7 161.06,-249.7 161.06,-249.7 164.16,-249.7 167.26,-252.8 167.26,-255.9 167.26,-255.9 167.26,-262.1 167.26,-262.1 167.26,-265.2 164.16,-268.3 161.06,-268.3"/>
<text text-anchor="middle" x="140.26" y="-256.3" font-family="Helvetica,sans-Serif" font-size="9.00">index.js</text>
</a>
</g>
</g>
<!-- using&#45;express/1&#45;express&#45;static&#45;serving/example/config/index.js&#45;&gt;using&#45;express/1&#45;express&#45;static&#45;serving/example/config/default.js -->
<g id="edge1" class="edge">
<title>using&#45;express/1&#45;express&#45;static&#45;serving/example/config/index.js&#45;&gt;using&#45;express/1&#45;express&#45;static&#45;serving/example/config/default.js</title>
<path fill="none" stroke="#000000" stroke-width="2" stroke-opacity="0.200000" d="M167.41,-259C174.66,-259 182.62,-259 190.18,-259"/>
<polygon fill="#000000" fill-opacity="0.200000" stroke="#000000" stroke-width="2" stroke-opacity="0.200000" points="190.41,-261.1 196.41,-259 190.41,-256.9 190.41,-261.1"/>
</g>
<!-- using&#45;express/1&#45;express&#45;static&#45;serving/example/config/production.js -->
<g id="node7" class="node">
<title>using&#45;express/1&#45;express&#45;static&#45;serving/example/config/production.js</title>
<g id="a_node7"><a xlink:href="using-express/1-express-static-serving/example/config/production.js" xlink:title="production.js">
<path fill="#ccffcc" stroke="black" d="M167.57,-237.3C167.57,-237.3 112.95,-237.3 112.95,-237.3 109.85,-237.3 106.75,-234.2 106.75,-231.1 106.75,-231.1 106.75,-224.9 106.75,-224.9 106.75,-221.8 109.85,-218.7 112.95,-218.7 112.95,-218.7 167.57,-218.7 167.57,-218.7 170.67,-218.7 173.77,-221.8 173.77,-224.9 173.77,-224.9 173.77,-231.1 173.77,-231.1 173.77,-234.2 170.67,-237.3 167.57,-237.3"/>
<text text-anchor="middle" x="140.26" y="-225.3" font-family="Helvetica,sans-Serif" font-size="9.00">production.js</text>
</a>
</g>
</g>
<!-- using&#45;express/1&#45;express&#45;static&#45;serving/example/index.js -->
<g id="node8" class="node">
<title>using&#45;express/1&#45;express&#45;static&#45;serving/example/index.js</title>
<g id="a_node8"><a xlink:href="using-express/1-express-static-serving/example/index.js" xlink:title="index.js">
<path fill="#ffffcc" stroke="black" d="M79.8,-176.3C79.8,-176.3 38.2,-176.3 38.2,-176.3 35.1,-176.3 32,-173.2 32,-170.1 32,-170.1 32,-163.9 32,-163.9 32,-160.8 35.1,-157.7 38.2,-157.7 38.2,-157.7 79.8,-157.7 79.8,-157.7 82.9,-157.7 86,-160.8 86,-163.9 86,-163.9 86,-170.1 86,-170.1 86,-173.2 82.9,-176.3 79.8,-176.3"/>
<text text-anchor="middle" x="59" y="-164.3" font-family="Helvetica,sans-Serif" font-size="9.00">index.js</text>
</a>
</g>
</g>
<!-- using&#45;express/1&#45;express&#45;static&#45;serving/example/index.js&#45;&gt;node_modules/express -->
<g id="edge4" class="edge">
<title>using&#45;express/1&#45;express&#45;static&#45;serving/example/index.js&#45;&gt;node_modules/express</title>
<path fill="none" stroke="#000000" stroke-opacity="0.200000" d="M67.35,-157.61C85.47,-134.96 134.61,-76.57 186.51,-41 188.43,-39.69 190.48,-38.44 192.58,-37.26"/>
<polygon fill="#000000" fill-opacity="0.200000" stroke="#000000" stroke-opacity="0.200000" points="193.88,-38.95 198.23,-34.32 191.94,-35.23 193.88,-38.95"/>
</g>
<!-- using&#45;express/1&#45;express&#45;static&#45;serving/example/index.js&#45;&gt;using&#45;express/1&#45;express&#45;static&#45;serving/example/config/index.js -->
<g id="edge2" class="edge">
<title>using&#45;express/1&#45;express&#45;static&#45;serving/example/index.js&#45;&gt;using&#45;express/1&#45;express&#45;static&#45;serving/example/config/index.js</title>
<path fill="none" stroke="#000000" stroke-width="2" stroke-opacity="0.200000" d="M61.69,-176.34C65.05,-192.23 74.02,-224.58 94,-243 97.79,-246.49 102.38,-249.23 107.18,-251.38"/>
<polygon fill="#000000" fill-opacity="0.200000" stroke="#000000" stroke-width="2" stroke-opacity="0.200000" points="106.51,-253.37 112.86,-253.63 108.06,-249.47 106.51,-253.37"/>
</g>
<!-- using&#45;express/1&#45;express&#45;static&#45;serving/example/middleware/logger.js -->
<g id="node9" class="node">
<title>using&#45;express/1&#45;express&#45;static&#45;serving/example/middleware/logger.js</title>
<g id="a_node9"><a xlink:href="using-express/1-express-static-serving/example/middleware/logger.js" xlink:title="logger.js">
<path fill="#ffffcc" stroke="black" d="M161.06,-176.3C161.06,-176.3 119.46,-176.3 119.46,-176.3 116.36,-176.3 113.26,-173.2 113.26,-170.1 113.26,-170.1 113.26,-163.9 113.26,-163.9 113.26,-160.8 116.36,-157.7 119.46,-157.7 119.46,-157.7 161.06,-157.7 161.06,-157.7 164.16,-157.7 167.26,-160.8 167.26,-163.9 167.26,-163.9 167.26,-170.1 167.26,-170.1 167.26,-173.2 164.16,-176.3 161.06,-176.3"/>
<text text-anchor="middle" x="140.26" y="-164.3" font-family="Helvetica,sans-Serif" font-size="9.00">logger.js</text>
</a>
</g>
</g>
<!-- using&#45;express/1&#45;express&#45;static&#45;serving/example/index.js&#45;&gt;using&#45;express/1&#45;express&#45;static&#45;serving/example/middleware/logger.js -->
<g id="edge3" class="edge">
<title>using&#45;express/1&#45;express&#45;static&#45;serving/example/index.js&#45;&gt;using&#45;express/1&#45;express&#45;static&#45;serving/example/middleware/logger.js</title>
<path fill="none" stroke="#000000" stroke-width="2" stroke-opacity="0.200000" d="M86.39,-167C93.01,-167 100.19,-167 107.06,-167"/>
<polygon fill="#000000" fill-opacity="0.200000" stroke="#000000" stroke-width="2" stroke-opacity="0.200000" points="107.25,-169.1 113.25,-167 107.25,-164.9 107.25,-169.1"/>
</g>
<!-- using&#45;express/1&#45;express&#45;static&#45;serving/example/middleware/logger.js&#45;&gt;fs -->
<g id="edge6" class="edge">
<title>using&#45;express/1&#45;express&#45;static&#45;serving/example/middleware/logger.js&#45;&gt;fs</title>
<path fill="none" stroke="#000000" stroke-dasharray="5,2" stroke-opacity="0.200000" d="M154.31,-157.68C167.86,-148.01 189.14,-132.82 204.32,-121.98"/>
<polygon fill="#000000" fill-opacity="0.200000" stroke="#000000" stroke-opacity="0.200000" points="205.56,-123.68 209.22,-118.49 203.12,-120.26 205.56,-123.68"/>
</g>
<!-- using&#45;express/1&#45;express&#45;static&#45;serving/example/middleware/logger.js&#45;&gt;node_modules/date&#45;fns -->
<g id="edge5" class="edge">
<title>using&#45;express/1&#45;express&#45;static&#45;serving/example/middleware/logger.js&#45;&gt;node_modules/date&#45;fns</title>
<path fill="none" stroke="#000000" stroke-opacity="0.200000" d="M146.26,-157.62C154.06,-143.32 169.95,-115.49 186.51,-94 193.01,-85.58 201.08,-76.92 207.94,-70"/>
<polygon fill="#000000" fill-opacity="0.200000" stroke="#000000" stroke-opacity="0.200000" points="209.68,-71.22 212.46,-65.5 206.72,-68.24 209.68,-71.22"/>
</g>
</g>
</svg>
