<?xml version="1.0" encoding="UTF-8" standalone="no"?>
<!DOCTYPE svg PUBLIC "-//W3C//DTD SVG 1.1//EN"
 "http://www.w3.org/Graphics/SVG/1.1/DTD/svg11.dtd">
<!-- Generated by graphviz version 2.44.0 (20200408.0750)
 -->
<!-- Title: dependency&#45;cruiser output Pages: 1 -->
<svg width="158pt" height="219pt"
 viewBox="0.00 0.00 158.01 219.40" xmlns="http://www.w3.org/2000/svg" xmlns:xlink="http://www.w3.org/1999/xlink">
<g id="graph0" class="graph" transform="scale(1 1) rotate(0) translate(4 215.4)">
<title>dependency&#45;cruiser output</title>
<polygon fill="white" stroke="transparent" points="-4,4 -4,-215.4 154.01,-215.4 154.01,4 -4,4"/>
<g id="clust1" class="cluster">
<title>cluster_node_modules</title>
<path fill="#ffffff" stroke="black" stroke-width="2" d="M74,-57.4C74,-57.4 130.01,-57.4 130.01,-57.4 136.01,-57.4 142.01,-63.4 142.01,-69.4 142.01,-69.4 142.01,-191.4 142.01,-191.4 142.01,-197.4 136.01,-203.4 130.01,-203.4 130.01,-203.4 74,-203.4 74,-203.4 68,-203.4 62,-197.4 62,-191.4 62,-191.4 62,-69.4 62,-69.4 62,-63.4 68,-57.4 74,-57.4"/>
<text text-anchor="middle" x="102" y="-191.3" font-family="Helvetica,sans-Serif" font-weight="bold" font-size="9.00">node_modules</text>
</g>
<!-- client -->
<g id="node1" class="node">
<title>client</title>
<g id="a_node1"><a xlink:href="client" xlink:title="client">
<polygon fill="#ccffcc" stroke="black" points="54,-98.7 2.07,-98.7 0,-96.63 0,-80.1 51.93,-80.1 54,-82.17 54,-98.7"/>
<polyline fill="none" stroke="black" points="51.93,-96.63 0,-96.63 "/>
<polyline fill="none" stroke="black" points="51.93,-96.63 51.93,-80.1 "/>
<polyline fill="none" stroke="black" points="51.93,-96.63 54,-98.7 "/>
<text text-anchor="middle" x="27" y="-86.7" font-family="Helvetica,sans-Serif" font-size="9.00">client</text>
</a>
</g>
</g>
<!-- node_modules/express -->
<g id="node2" class="node">
<title>node_modules/express</title>
<g id="a_node2"><a xlink:href="node_modules/express" xlink:title="express">
<polygon fill="#c40b0a" fill-opacity="0.101961" stroke="black" points="129,-176.7 77.07,-176.7 75,-174.63 75,-158.1 126.94,-158.1 129,-160.17 129,-176.7"/>
<polyline fill="none" stroke="black" points="126.94,-174.63 75,-174.63 "/>
<polyline fill="none" stroke="black" points="126.94,-174.63 126.94,-158.1 "/>
<polyline fill="none" stroke="black" points="126.94,-174.63 129,-176.7 "/>
<text text-anchor="middle" x="102" y="-164.7" font-family="Helvetica,sans-Serif" font-size="9.00" fill="#c40b0a">express</text>
</a>
</g>
</g>
<!-- client&#45;&gt;node_modules/express -->
<g id="edge1" class="edge">
<title>client&#45;&gt;node_modules/express</title>
<path fill="none" stroke="#000000" stroke-opacity="0.200000" d="M31.01,-99.1C35.63,-112.55 45.71,-136.84 62,-151.4 64.2,-153.37 66.68,-155.11 69.29,-156.66"/>
<polygon fill="#000000" fill-opacity="0.200000" stroke="#000000" stroke-opacity="0.200000" points="68.51,-158.62 74.8,-159.55 70.46,-154.9 68.51,-158.62"/>
</g>
<!-- node_modules/body&#45;parser -->
<g id="node3" class="node">
<title>node_modules/body&#45;parser</title>
<g id="a_node3"><a xlink:href="node_modules/body-parser" xlink:title="body&#45;parser">
<polygon fill="#c40b0a" fill-opacity="0.101961" stroke="black" points="134.01,-145.7 72.06,-145.7 70,-143.63 70,-127.1 131.94,-127.1 134.01,-129.17 134.01,-145.7"/>
<polyline fill="none" stroke="black" points="131.94,-143.63 70,-143.63 "/>
<polyline fill="none" stroke="black" points="131.94,-143.63 131.94,-127.1 "/>
<polyline fill="none" stroke="black" points="131.94,-143.63 134.01,-145.7 "/>
<text text-anchor="middle" x="102" y="-133.7" font-family="Helvetica,sans-Serif" font-size="9.00" fill="#c40b0a">body&#45;parser</text>
</a>
</g>
</g>
<!-- client&#45;&gt;node_modules/body&#45;parser -->
<g id="edge2" class="edge">
<title>client&#45;&gt;node_modules/body&#45;parser</title>
<path fill="none" stroke="#000000" stroke-opacity="0.200000" d="M36.52,-98.76C43,-105.46 52.42,-114.33 62,-120.4 64.16,-121.77 66.45,-123.06 68.8,-124.27"/>
<polygon fill="#000000" fill-opacity="0.200000" stroke="#000000" stroke-opacity="0.200000" points="68.04,-126.23 74.36,-126.94 69.87,-122.45 68.04,-126.23"/>
</g>
<!-- node_modules/cors -->
<g id="node4" class="node">
<title>node_modules/cors</title>
<g id="a_node4"><a xlink:href="node_modules/cors" xlink:title="cors">
<polygon fill="#c40b0a" fill-opacity="0.101961" stroke="black" points="129,-114.7 77.07,-114.7 75,-112.63 75,-96.1 126.94,-96.1 129,-98.17 129,-114.7"/>
<polyline fill="none" stroke="black" points="126.94,-112.63 75,-112.63 "/>
<polyline fill="none" stroke="black" points="126.94,-112.63 126.94,-96.1 "/>
<polyline fill="none" stroke="black" points="126.94,-112.63 129,-114.7 "/>
<text text-anchor="middle" x="102" y="-102.7" font-family="Helvetica,sans-Serif" font-size="9.00" fill="#c40b0a">cors</text>
</a>
</g>
</g>
<!-- client&#45;&gt;node_modules/cors -->
<g id="edge3" class="edge">
<title>client&#45;&gt;node_modules/cors</title>
<path fill="none" stroke="#000000" stroke-opacity="0.200000" d="M54.36,-95.18C59.07,-96.21 64.02,-97.29 68.87,-98.36"/>
<polygon fill="#000000" fill-opacity="0.200000" stroke="#000000" stroke-opacity="0.200000" points="68.62,-100.45 74.93,-99.69 69.52,-96.35 68.62,-100.45"/>
</g>
<!-- fs -->
<g id="node5" class="node">
<title>fs</title>
<path fill="#ffffcc" stroke="grey" d="M122.8,-49.7C122.8,-49.7 81.2,-49.7 81.2,-49.7 78.1,-49.7 75,-46.6 75,-43.5 75,-43.5 75,-37.3 75,-37.3 75,-34.2 78.1,-31.1 81.2,-31.1 81.2,-31.1 122.8,-31.1 122.8,-31.1 125.9,-31.1 129,-34.2 129,-37.3 129,-37.3 129,-43.5 129,-43.5 129,-46.6 125.9,-49.7 122.8,-49.7"/>
<text text-anchor="middle" x="102" y="-37.7" font-family="Helvetica,sans-Serif" font-size="9.00" fill="grey">fs</text>
</g>
<!-- client&#45;&gt;fs -->
<g id="edge4" class="edge">
<title>client&#45;&gt;fs</title>
<path fill="none" stroke="#000000" stroke-dasharray="5,2" stroke-opacity="0.200000" d="M35.17,-79.91C41.48,-72.11 51.32,-61.28 62,-54.4 64.18,-53 66.51,-51.71 68.92,-50.54"/>
<polygon fill="#000000" fill-opacity="0.200000" stroke="#000000" stroke-opacity="0.200000" points="70,-52.36 74.63,-48 68.29,-48.52 70,-52.36"/>
</g>
<!-- node_modules/morgan -->
<g id="node6" class="node">
<title>node_modules/morgan</title>
<g id="a_node6"><a xlink:href="node_modules/morgan" xlink:title="morgan">
<polygon fill="#c40b0a" fill-opacity="0.101961" stroke="black" points="129,-83.7 77.07,-83.7 75,-81.63 75,-65.1 126.94,-65.1 129,-67.17 129,-83.7"/>
<polyline fill="none" stroke="black" points="126.94,-81.63 75,-81.63 "/>
<polyline fill="none" stroke="black" points="126.94,-81.63 126.94,-65.1 "/>
<polyline fill="none" stroke="black" points="126.94,-81.63 129,-83.7 "/>
<text text-anchor="middle" x="102" y="-71.7" font-family="Helvetica,sans-Serif" font-size="9.00" fill="#c40b0a">morgan</text>
</a>
</g>
</g>
<!-- client&#45;&gt;node_modules/morgan -->
<g id="edge5" class="edge">
<title>client&#45;&gt;node_modules/morgan</title>
<path fill="none" stroke="#000000" stroke-opacity="0.200000" d="M54.36,-83.98C59.07,-83.02 64.02,-82 68.87,-81"/>
<polygon fill="#000000" fill-opacity="0.200000" stroke="#000000" stroke-opacity="0.200000" points="69.48,-83.02 74.93,-79.76 68.63,-78.91 69.48,-83.02"/>
</g>
<!-- path -->
<g id="node7" class="node">
<title>path</title>
<path fill="#ffffcc" stroke="grey" d="M122.8,-18.7C122.8,-18.7 81.2,-18.7 81.2,-18.7 78.1,-18.7 75,-15.6 75,-12.5 75,-12.5 75,-6.3 75,-6.3 75,-3.2 78.1,-0.1 81.2,-0.1 81.2,-0.1 122.8,-0.1 122.8,-0.1 125.9,-0.1 129,-3.2 129,-6.3 129,-6.3 129,-12.5 129,-12.5 129,-15.6 125.9,-18.7 122.8,-18.7"/>
<text text-anchor="middle" x="102" y="-6.7" font-family="Helvetica,sans-Serif" font-size="9.00" fill="grey">path</text>
</g>
<!-- client&#45;&gt;path -->
<g id="edge6" class="edge">
<title>client&#45;&gt;path</title>
<path fill="none" stroke="#000000" stroke-dasharray="5,2" stroke-opacity="0.200000" d="M30.77,-79.85C35.22,-66.07 45.21,-40.6 62,-25.4 64.19,-23.42 66.66,-21.66 69.27,-20.11"/>
<polygon fill="#000000" fill-opacity="0.200000" stroke="#000000" stroke-opacity="0.200000" points="70.44,-21.87 74.76,-17.21 68.48,-18.15 70.44,-21.87"/>
</g>
</g>
</svg>
