<?xml version="1.0" encoding="UTF-8" standalone="no"?>
<!DOCTYPE svg PUBLIC "-//W3C//DTD SVG 1.1//EN"
 "http://www.w3.org/Graphics/SVG/1.1/DTD/svg11.dtd">
<!-- Generated by graphviz version 2.44.0 (20200408.0750)
 -->
<!-- Title: dependency&#45;cruiser output Pages: 1 -->
<svg width="193pt" height="147pt"
 viewBox="0.00 0.00 193.00 147.00" xmlns="http://www.w3.org/2000/svg" xmlns:xlink="http://www.w3.org/1999/xlink">
<g id="graph0" class="graph" transform="scale(1 1) rotate(0) translate(4 143)">
<title>dependency&#45;cruiser output</title>
<polygon fill="white" stroke="transparent" points="-4,4 -4,-143 189,-143 189,4 -4,4"/>
<g id="clust1" class="cluster">
<title>cluster_example&#45;apps</title>
<path fill="#ffffff" stroke="black" stroke-width="2" d="M20,-8C20,-8 165,-8 165,-8 171,-8 177,-14 177,-20 177,-20 177,-119 177,-119 177,-125 171,-131 165,-131 165,-131 20,-131 20,-131 14,-131 8,-125 8,-119 8,-119 8,-20 8,-20 8,-14 14,-8 20,-8"/>
<text text-anchor="middle" x="92.5" y="-118.9" font-family="Helvetica,sans-Serif" font-weight="bold" font-size="9.00">example&#45;apps</text>
</g>
<g id="clust2" class="cluster">
<title>cluster_example&#45;apps/stepped&#45;cli&#45;and&#45;file&#45;system</title>
<path fill="#ffffff" stroke="black" stroke-width="2" d="M28,-16C28,-16 157,-16 157,-16 163,-16 169,-22 169,-28 169,-28 169,-92 169,-92 169,-98 163,-104 157,-104 157,-104 28,-104 28,-104 22,-104 16,-98 16,-92 16,-92 16,-28 16,-28 16,-22 22,-16 28,-16"/>
<text text-anchor="middle" x="92.5" y="-91.9" font-family="Helvetica,sans-Serif" font-weight="bold" font-size="9.00">stepped&#45;cli&#45;and&#45;file&#45;system</text>
</g>
<g id="clust3" class="cluster">
<title>cluster_example&#45;apps/stepped&#45;cli&#45;and&#45;file&#45;system/3&#45;state&#45;in&#45;cli</title>
<path fill="#ffffff" stroke="black" stroke-width="2" d="M36,-24C36,-24 149,-24 149,-24 155,-24 161,-30 161,-36 161,-36 161,-65 161,-65 161,-71 155,-77 149,-77 149,-77 36,-77 36,-77 30,-77 24,-71 24,-65 24,-65 24,-36 24,-36 24,-30 30,-24 36,-24"/>
<text text-anchor="middle" x="92.5" y="-64.9" font-family="Helvetica,sans-Serif" font-weight="bold" font-size="9.00">3&#45;state&#45;in&#45;cli</text>
</g>
<!-- example&#45;apps/stepped&#45;cli&#45;and&#45;file&#45;system/3&#45;state&#45;in&#45;cli/index.js -->
<g id="node1" class="node">
<title>example&#45;apps/stepped&#45;cli&#45;and&#45;file&#45;system/3&#45;state&#45;in&#45;cli/index.js</title>
<g id="a_node1"><a xlink:href="example-apps/stepped-cli-and-file-system/3-state-in-cli/index.js" xlink:title="index.js">
<path fill="#ffffcc" stroke="black" d="M79.8,-50.3C79.8,-50.3 38.2,-50.3 38.2,-50.3 35.1,-50.3 32,-47.2 32,-44.1 32,-44.1 32,-37.9 32,-37.9 32,-34.8 35.1,-31.7 38.2,-31.7 38.2,-31.7 79.8,-31.7 79.8,-31.7 82.9,-31.7 86,-34.8 86,-37.9 86,-37.9 86,-44.1 86,-44.1 86,-47.2 82.9,-50.3 79.8,-50.3"/>
<text text-anchor="middle" x="59" y="-38.3" font-family="Helvetica,sans-Serif" font-size="9.00">index.js</text>
</a>
</g>
</g>
<!-- example&#45;apps/stepped&#45;cli&#45;and&#45;file&#45;system/3&#45;state&#45;in&#45;cli/state.js -->
<g id="node2" class="node">
<title>example&#45;apps/stepped&#45;cli&#45;and&#45;file&#45;system/3&#45;state&#45;in&#45;cli/state.js</title>
<g id="a_node2"><a xlink:href="example-apps/stepped-cli-and-file-system/3-state-in-cli/state.js" xlink:title="state.js">
<path fill="#ffffcc" stroke="black" d="M146.8,-50.3C146.8,-50.3 105.2,-50.3 105.2,-50.3 102.1,-50.3 99,-47.2 99,-44.1 99,-44.1 99,-37.9 99,-37.9 99,-34.8 102.1,-31.7 105.2,-31.7 105.2,-31.7 146.8,-31.7 146.8,-31.7 149.9,-31.7 153,-34.8 153,-37.9 153,-37.9 153,-44.1 153,-44.1 153,-47.2 149.9,-50.3 146.8,-50.3"/>
<text text-anchor="middle" x="126" y="-38.3" font-family="Helvetica,sans-Serif" font-size="9.00">state.js</text>
</a>
</g>
</g>
<!-- example&#45;apps/stepped&#45;cli&#45;and&#45;file&#45;system/3&#45;state&#45;in&#45;cli/index.js&#45;&gt;example&#45;apps/stepped&#45;cli&#45;and&#45;file&#45;system/3&#45;state&#45;in&#45;cli/state.js -->
<g id="edge1" class="edge">
<title>example&#45;apps/stepped&#45;cli&#45;and&#45;file&#45;system/3&#45;state&#45;in&#45;cli/index.js&#45;&gt;example&#45;apps/stepped&#45;cli&#45;and&#45;file&#45;system/3&#45;state&#45;in&#45;cli/state.js</title>
<path fill="none" stroke="#000000" stroke-width="2" stroke-opacity="0.200000" d="M86.06,-41C88.32,-41 90.61,-41 92.9,-41"/>
<polygon fill="#000000" fill-opacity="0.200000" stroke="#000000" stroke-width="2" stroke-opacity="0.200000" points="92.93,-43.1 98.93,-41 92.93,-38.9 92.93,-43.1"/>
</g>
</g>
</svg>
