<?xml version="1.0" encoding="UTF-8" standalone="no"?>
<!DOCTYPE svg PUBLIC "-//W3C//DTD SVG 1.1//EN"
 "http://www.w3.org/Graphics/SVG/1.1/DTD/svg11.dtd">
<!-- Generated by graphviz version 2.44.0 (20200408.0750)
 -->
<!-- Title: dependency&#45;cruiser output Pages: 1 -->
<svg width="395pt" height="494pt"
 viewBox="0.00 0.00 395.27 494.00" xmlns="http://www.w3.org/2000/svg" xmlns:xlink="http://www.w3.org/1999/xlink">
<g id="graph0" class="graph" transform="scale(1 1) rotate(0) translate(4 490)">
<title>dependency&#45;cruiser output</title>
<polygon fill="white" stroke="transparent" points="-4,4 -4,-490 391.27,-490 391.27,4 -4,4"/>
<g id="clust1" class="cluster">
<title>cluster_node_modules</title>
<path fill="#ffffff" stroke="black" stroke-width="2" d="M281.51,-8C281.51,-8 337.52,-8 337.52,-8 343.52,-8 349.52,-14 349.52,-20 349.52,-20 349.52,-142 349.52,-142 349.52,-148 343.52,-154 337.52,-154 337.52,-154 281.51,-154 281.51,-154 275.51,-154 269.51,-148 269.51,-142 269.51,-142 269.51,-20 269.51,-20 269.51,-14 275.51,-8 281.51,-8"/>
<text text-anchor="middle" x="309.52" y="-141.9" font-family="Helvetica,sans-Serif" font-weight="bold" font-size="9.00">node_modules</text>
</g>
<g id="clust2" class="cluster">
<title>cluster_using&#45;express</title>
<path fill="#ffffff" stroke="black" stroke-width="2" d="M20,-162C20,-162 367.27,-162 367.27,-162 373.27,-162 379.27,-168 379.27,-174 379.27,-174 379.27,-466 379.27,-466 379.27,-472 373.27,-478 367.27,-478 367.27,-478 20,-478 20,-478 14,-478 8,-472 8,-466 8,-466 8,-174 8,-174 8,-168 14,-162 20,-162"/>
<text text-anchor="middle" x="193.64" y="-465.9" font-family="Helvetica,sans-Serif" font-weight="bold" font-size="9.00">using&#45;express</text>
</g>
<g id="clust3" class="cluster">
<title>cluster_using&#45;express/4&#45;express&#45;router</title>
<path fill="#ffffff" stroke="black" stroke-width="2" d="M28,-170C28,-170 359.27,-170 359.27,-170 365.27,-170 371.27,-176 371.27,-182 371.27,-182 371.27,-439 371.27,-439 371.27,-445 365.27,-451 359.27,-451 359.27,-451 28,-451 28,-451 22,-451 16,-445 16,-439 16,-439 16,-182 16,-182 16,-176 22,-170 28,-170"/>
<text text-anchor="middle" x="193.64" y="-438.9" font-family="Helvetica,sans-Serif" font-weight="bold" font-size="9.00">4&#45;express&#45;router</text>
</g>
<g id="clust4" class="cluster">
<title>cluster_using&#45;express/4&#45;express&#45;router/examples</title>
<path fill="#ffffff" stroke="black" stroke-width="2" d="M36,-178C36,-178 351.27,-178 351.27,-178 357.27,-178 363.27,-184 363.27,-190 363.27,-190 363.27,-412 363.27,-412 363.27,-418 357.27,-424 351.27,-424 351.27,-424 36,-424 36,-424 30,-424 24,-418 24,-412 24,-412 24,-190 24,-190 24,-184 30,-178 36,-178"/>
<text text-anchor="middle" x="193.64" y="-411.9" font-family="Helvetica,sans-Serif" font-weight="bold" font-size="9.00">examples</text>
</g>
<g id="clust5" class="cluster">
<title>cluster_using&#45;express/4&#45;express&#45;router/examples/1&#45;hello&#45;world</title>
<path fill="#ffffff" stroke="black" stroke-width="2" d="M44,-186C44,-186 343.27,-186 343.27,-186 349.27,-186 355.27,-192 355.27,-198 355.27,-198 355.27,-385 355.27,-385 355.27,-391 349.27,-397 343.27,-397 343.27,-397 44,-397 44,-397 38,-397 32,-391 32,-385 32,-385 32,-198 32,-198 32,-192 38,-186 44,-186"/>
<text text-anchor="middle" x="193.64" y="-384.9" font-family="Helvetica,sans-Serif" font-weight="bold" font-size="9.00">1&#45;hello&#45;world</text>
</g>
<g id="clust6" class="cluster">
<title>cluster_using&#45;express/4&#45;express&#45;router/examples/1&#45;hello&#45;world/api</title>
<path fill="#ffffff" stroke="black" stroke-width="2" d="M125.26,-194C125.26,-194 335.27,-194 335.27,-194 341.27,-194 347.27,-200 347.27,-206 347.27,-206 347.27,-235 347.27,-235 347.27,-241 341.27,-247 335.27,-247 335.27,-247 125.26,-247 125.26,-247 119.26,-247 113.26,-241 113.26,-235 113.26,-235 113.26,-206 113.26,-206 113.26,-200 119.26,-194 125.26,-194"/>
<text text-anchor="middle" x="230.26" y="-234.9" font-family="Helvetica,sans-Serif" font-weight="bold" font-size="9.00">api</text>
</g>
<g id="clust7" class="cluster">
<title>cluster_using&#45;express/4&#45;express&#45;router/examples/1&#45;hello&#45;world/config</title>
<path fill="#ffffff" stroke="black" stroke-width="2" d="M114,-255C114,-255 249.51,-255 249.51,-255 255.51,-255 261.51,-261 261.51,-267 261.51,-267 261.51,-358 261.51,-358 261.51,-364 255.51,-370 249.51,-370 249.51,-370 114,-370 114,-370 108,-370 102,-364 102,-358 102,-358 102,-267 102,-267 102,-261 108,-255 114,-255"/>
<text text-anchor="middle" x="181.76" y="-357.9" font-family="Helvetica,sans-Serif" font-weight="bold" font-size="9.00">config</text>
</g>
<!-- fs -->
<g id="node1" class="node">
<title>fs</title>
<path fill="#ffffcc" stroke="grey" d="M169.06,-77.3C169.06,-77.3 127.46,-77.3 127.46,-77.3 124.36,-77.3 121.26,-74.2 121.26,-71.1 121.26,-71.1 121.26,-64.9 121.26,-64.9 121.26,-61.8 124.36,-58.7 127.46,-58.7 127.46,-58.7 169.06,-58.7 169.06,-58.7 172.16,-58.7 175.26,-61.8 175.26,-64.9 175.26,-64.9 175.26,-71.1 175.26,-71.1 175.26,-74.2 172.16,-77.3 169.06,-77.3"/>
<text text-anchor="middle" x="148.26" y="-65.3" font-family="Helvetica,sans-Serif" font-size="9.00" fill="grey">fs</text>
</g>
<!-- node_modules/body&#45;parser -->
<g id="node2" class="node">
<title>node_modules/body&#45;parser</title>
<g id="a_node2"><a xlink:href="node_modules/body-parser" xlink:title="body&#45;parser">
<polygon fill="#c40b0a" fill-opacity="0.101961" stroke="black" points="341.52,-34.3 279.58,-34.3 277.51,-32.23 277.51,-15.7 339.46,-15.7 341.52,-17.77 341.52,-34.3"/>
<polyline fill="none" stroke="black" points="339.46,-32.23 277.51,-32.23 "/>
<polyline fill="none" stroke="black" points="339.46,-32.23 339.46,-15.7 "/>
<polyline fill="none" stroke="black" points="339.46,-32.23 341.52,-34.3 "/>
<text text-anchor="middle" x="309.52" y="-22.3" font-family="Helvetica,sans-Serif" font-size="9.00" fill="#c40b0a">body&#45;parser</text>
</a>
</g>
</g>
<!-- node_modules/cors -->
<g id="node3" class="node">
<title>node_modules/cors</title>
<g id="a_node3"><a xlink:href="node_modules/cors" xlink:title="cors">
<polygon fill="#c40b0a" fill-opacity="0.101961" stroke="black" points="336.52,-96.3 284.58,-96.3 282.52,-94.23 282.52,-77.7 334.45,-77.7 336.52,-79.77 336.52,-96.3"/>
<polyline fill="none" stroke="black" points="334.45,-94.23 282.52,-94.23 "/>
<polyline fill="none" stroke="black" points="334.45,-94.23 334.45,-77.7 "/>
<polyline fill="none" stroke="black" points="334.45,-94.23 336.52,-96.3 "/>
<text text-anchor="middle" x="309.52" y="-84.3" font-family="Helvetica,sans-Serif" font-size="9.00" fill="#c40b0a">cors</text>
</a>
</g>
</g>
<!-- node_modules/express -->
<g id="node4" class="node">
<title>node_modules/express</title>
<g id="a_node4"><a xlink:href="node_modules/express" xlink:title="express">
<polygon fill="#c40b0a" fill-opacity="0.101961" stroke="black" points="336.52,-127.3 284.58,-127.3 282.52,-125.23 282.52,-108.7 334.45,-108.7 336.52,-110.77 336.52,-127.3"/>
<polyline fill="none" stroke="black" points="334.45,-125.23 282.52,-125.23 "/>
<polyline fill="none" stroke="black" points="334.45,-125.23 334.45,-108.7 "/>
<polyline fill="none" stroke="black" points="334.45,-125.23 336.52,-127.3 "/>
<text text-anchor="middle" x="309.52" y="-115.3" font-family="Helvetica,sans-Serif" font-size="9.00" fill="#c40b0a">express</text>
</a>
</g>
</g>
<!-- node_modules/morgan -->
<g id="node5" class="node">
<title>node_modules/morgan</title>
<g id="a_node5"><a xlink:href="node_modules/morgan" xlink:title="morgan">
<polygon fill="#c40b0a" fill-opacity="0.101961" stroke="black" points="336.52,-65.3 284.58,-65.3 282.52,-63.23 282.52,-46.7 334.45,-46.7 336.52,-48.77 336.52,-65.3"/>
<polyline fill="none" stroke="black" points="334.45,-63.23 282.52,-63.23 "/>
<polyline fill="none" stroke="black" points="334.45,-63.23 334.45,-46.7 "/>
<polyline fill="none" stroke="black" points="334.45,-63.23 336.52,-65.3 "/>
<text text-anchor="middle" x="309.52" y="-53.3" font-family="Helvetica,sans-Serif" font-size="9.00" fill="#c40b0a">morgan</text>
</a>
</g>
</g>
<!-- path -->
<g id="node6" class="node">
<title>path</title>
<path fill="#ffffcc" stroke="grey" d="M169.06,-108.3C169.06,-108.3 127.46,-108.3 127.46,-108.3 124.36,-108.3 121.26,-105.2 121.26,-102.1 121.26,-102.1 121.26,-95.9 121.26,-95.9 121.26,-92.8 124.36,-89.7 127.46,-89.7 127.46,-89.7 169.06,-89.7 169.06,-89.7 172.16,-89.7 175.26,-92.8 175.26,-95.9 175.26,-95.9 175.26,-102.1 175.26,-102.1 175.26,-105.2 172.16,-108.3 169.06,-108.3"/>
<text text-anchor="middle" x="148.26" y="-96.3" font-family="Helvetica,sans-Serif" font-size="9.00" fill="grey">path</text>
</g>
<!-- using&#45;express/4&#45;express&#45;router/examples/1&#45;hello&#45;world/api/handlers.js -->
<g id="node7" class="node">
<title>using&#45;express/4&#45;express&#45;router/examples/1&#45;hello&#45;world/api/handlers.js</title>
<g id="a_node7"><a xlink:href="using-express/4-express-router/examples/1-hello-world/api/handlers.js" xlink:title="handlers.js">
<path fill="#ffffcc" stroke="black" d="M332.83,-220.3C332.83,-220.3 286.21,-220.3 286.21,-220.3 283.11,-220.3 280.01,-217.2 280.01,-214.1 280.01,-214.1 280.01,-207.9 280.01,-207.9 280.01,-204.8 283.11,-201.7 286.21,-201.7 286.21,-201.7 332.83,-201.7 332.83,-201.7 335.93,-201.7 339.03,-204.8 339.03,-207.9 339.03,-207.9 339.03,-214.1 339.03,-214.1 339.03,-217.2 335.93,-220.3 332.83,-220.3"/>
<text text-anchor="middle" x="309.52" y="-208.3" font-family="Helvetica,sans-Serif" font-size="9.00">handlers.js</text>
</a>
</g>
</g>
<!-- using&#45;express/4&#45;express&#45;router/examples/1&#45;hello&#45;world/api/index.js -->
<g id="node8" class="node">
<title>using&#45;express/4&#45;express&#45;router/examples/1&#45;hello&#45;world/api/index.js</title>
<g id="a_node8"><a xlink:href="using-express/4-express-router/examples/1-hello-world/api/index.js" xlink:title="index.js">
<path fill="#ffffcc" stroke="black" d="M169.06,-220.3C169.06,-220.3 127.46,-220.3 127.46,-220.3 124.36,-220.3 121.26,-217.2 121.26,-214.1 121.26,-214.1 121.26,-207.9 121.26,-207.9 121.26,-204.8 124.36,-201.7 127.46,-201.7 127.46,-201.7 169.06,-201.7 169.06,-201.7 172.16,-201.7 175.26,-204.8 175.26,-207.9 175.26,-207.9 175.26,-214.1 175.26,-214.1 175.26,-217.2 172.16,-220.3 169.06,-220.3"/>
<text text-anchor="middle" x="148.26" y="-208.3" font-family="Helvetica,sans-Serif" font-size="9.00">index.js</text>
</a>
</g>
</g>
<!-- using&#45;express/4&#45;express&#45;router/examples/1&#45;hello&#45;world/api/routes.js -->
<g id="node9" class="node">
<title>using&#45;express/4&#45;express&#45;router/examples/1&#45;hello&#45;world/api/routes.js</title>
<g id="a_node9"><a xlink:href="using-express/4-express-router/examples/1-hello-world/api/routes.js" xlink:title="routes.js">
<path fill="#ffffcc" stroke="black" d="M247.31,-220.3C247.31,-220.3 205.71,-220.3 205.71,-220.3 202.61,-220.3 199.51,-217.2 199.51,-214.1 199.51,-214.1 199.51,-207.9 199.51,-207.9 199.51,-204.8 202.61,-201.7 205.71,-201.7 205.71,-201.7 247.31,-201.7 247.31,-201.7 250.41,-201.7 253.51,-204.8 253.51,-207.9 253.51,-207.9 253.51,-214.1 253.51,-214.1 253.51,-217.2 250.41,-220.3 247.31,-220.3"/>
<text text-anchor="middle" x="226.51" y="-208.3" font-family="Helvetica,sans-Serif" font-size="9.00">routes.js</text>
</a>
</g>
</g>
<!-- using&#45;express/4&#45;express&#45;router/examples/1&#45;hello&#45;world/api/index.js&#45;&gt;using&#45;express/4&#45;express&#45;router/examples/1&#45;hello&#45;world/api/routes.js -->
<g id="edge1" class="edge">
<title>using&#45;express/4&#45;express&#45;router/examples/1&#45;hello&#45;world/api/index.js&#45;&gt;using&#45;express/4&#45;express&#45;router/examples/1&#45;hello&#45;world/api/routes.js</title>
<path fill="none" stroke="#000000" stroke-width="2" stroke-opacity="0.200000" d="M175.5,-211C181.2,-211 187.28,-211 193.18,-211"/>
<polygon fill="#000000" fill-opacity="0.200000" stroke="#000000" stroke-width="2" stroke-opacity="0.200000" points="193.48,-213.1 199.48,-211 193.48,-208.9 193.48,-213.1"/>
</g>
<!-- using&#45;express/4&#45;express&#45;router/examples/1&#45;hello&#45;world/api/routes.js&#45;&gt;node_modules/express -->
<g id="edge3" class="edge">
<title>using&#45;express/4&#45;express&#45;router/examples/1&#45;hello&#45;world/api/routes.js&#45;&gt;node_modules/express</title>
<path fill="none" stroke="#000000" stroke-opacity="0.200000" d="M245.13,-201.52C250.74,-198.03 256.72,-193.75 261.51,-189 278.4,-172.29 292.6,-148.59 300.84,-133.25"/>
<polygon fill="#000000" fill-opacity="0.200000" stroke="#000000" stroke-opacity="0.200000" points="302.87,-133.91 303.8,-127.62 299.15,-131.96 302.87,-133.91"/>
</g>
<!-- using&#45;express/4&#45;express&#45;router/examples/1&#45;hello&#45;world/api/routes.js&#45;&gt;using&#45;express/4&#45;express&#45;router/examples/1&#45;hello&#45;world/api/handlers.js -->
<g id="edge2" class="edge">
<title>using&#45;express/4&#45;express&#45;router/examples/1&#45;hello&#45;world/api/routes.js&#45;&gt;using&#45;express/4&#45;express&#45;router/examples/1&#45;hello&#45;world/api/handlers.js</title>
<path fill="none" stroke="#000000" stroke-width="2" stroke-opacity="0.200000" d="M253.59,-211C260.03,-211 267.04,-211 273.82,-211"/>
<polygon fill="#000000" fill-opacity="0.200000" stroke="#000000" stroke-width="2" stroke-opacity="0.200000" points="273.97,-213.1 279.97,-211 273.97,-208.9 273.97,-213.1"/>
</g>
<!-- using&#45;express/4&#45;express&#45;router/examples/1&#45;hello&#45;world/config/default.js -->
<g id="node10" class="node">
<title>using&#45;express/4&#45;express&#45;router/examples/1&#45;hello&#45;world/config/default.js</title>
<g id="a_node10"><a xlink:href="using-express/4-express-router/examples/1-hello-world/config/default.js" xlink:title="default.js">
<path fill="#ffffcc" stroke="black" d="M247.31,-312.3C247.31,-312.3 205.71,-312.3 205.71,-312.3 202.61,-312.3 199.51,-309.2 199.51,-306.1 199.51,-306.1 199.51,-299.9 199.51,-299.9 199.51,-296.8 202.61,-293.7 205.71,-293.7 205.71,-293.7 247.31,-293.7 247.31,-293.7 250.41,-293.7 253.51,-296.8 253.51,-299.9 253.51,-299.9 253.51,-306.1 253.51,-306.1 253.51,-309.2 250.41,-312.3 247.31,-312.3"/>
<text text-anchor="middle" x="226.51" y="-300.3" font-family="Helvetica,sans-Serif" font-size="9.00">default.js</text>
</a>
</g>
</g>
<!-- using&#45;express/4&#45;express&#45;router/examples/1&#45;hello&#45;world/config/development.js -->
<g id="node11" class="node">
<title>using&#45;express/4&#45;express&#45;router/examples/1&#45;hello&#45;world/config/development.js</title>
<g id="a_node11"><a xlink:href="using-express/4-express-router/examples/1-hello-world/config/development.js" xlink:title="development.js">
<path fill="#ccffcc" stroke="black" d="M180.07,-343.3C180.07,-343.3 116.44,-343.3 116.44,-343.3 113.34,-343.3 110.24,-340.2 110.24,-337.1 110.24,-337.1 110.24,-330.9 110.24,-330.9 110.24,-327.8 113.34,-324.7 116.44,-324.7 116.44,-324.7 180.07,-324.7 180.07,-324.7 183.17,-324.7 186.27,-327.8 186.27,-330.9 186.27,-330.9 186.27,-337.1 186.27,-337.1 186.27,-340.2 183.17,-343.3 180.07,-343.3"/>
<text text-anchor="middle" x="148.26" y="-331.3" font-family="Helvetica,sans-Serif" font-size="9.00">development.js</text>
</a>
</g>
</g>
<!-- using&#45;express/4&#45;express&#45;router/examples/1&#45;hello&#45;world/config/index.js -->
<g id="node12" class="node">
<title>using&#45;express/4&#45;express&#45;router/examples/1&#45;hello&#45;world/config/index.js</title>
<g id="a_node12"><a xlink:href="using-express/4-express-router/examples/1-hello-world/config/index.js" xlink:title="index.js">
<path fill="#ffffcc" stroke="black" d="M169.06,-312.3C169.06,-312.3 127.46,-312.3 127.46,-312.3 124.36,-312.3 121.26,-309.2 121.26,-306.1 121.26,-306.1 121.26,-299.9 121.26,-299.9 121.26,-296.8 124.36,-293.7 127.46,-293.7 127.46,-293.7 169.06,-293.7 169.06,-293.7 172.16,-293.7 175.26,-296.8 175.26,-299.9 175.26,-299.9 175.26,-306.1 175.26,-306.1 175.26,-309.2 172.16,-312.3 169.06,-312.3"/>
<text text-anchor="middle" x="148.26" y="-300.3" font-family="Helvetica,sans-Serif" font-size="9.00">index.js</text>
</a>
</g>
</g>
<!-- using&#45;express/4&#45;express&#45;router/examples/1&#45;hello&#45;world/config/index.js&#45;&gt;using&#45;express/4&#45;express&#45;router/examples/1&#45;hello&#45;world/config/default.js -->
<g id="edge4" class="edge">
<title>using&#45;express/4&#45;express&#45;router/examples/1&#45;hello&#45;world/config/index.js&#45;&gt;using&#45;express/4&#45;express&#45;router/examples/1&#45;hello&#45;world/config/default.js</title>
<path fill="none" stroke="#000000" stroke-width="2" stroke-opacity="0.200000" d="M175.5,-303C181.2,-303 187.28,-303 193.18,-303"/>
<polygon fill="#000000" fill-opacity="0.200000" stroke="#000000" stroke-width="2" stroke-opacity="0.200000" points="193.48,-305.1 199.48,-303 193.48,-300.9 193.48,-305.1"/>
</g>
<!-- using&#45;express/4&#45;express&#45;router/examples/1&#45;hello&#45;world/config/production.js -->
<g id="node13" class="node">
<title>using&#45;express/4&#45;express&#45;router/examples/1&#45;hello&#45;world/config/production.js</title>
<g id="a_node13"><a xlink:href="using-express/4-express-router/examples/1-hello-world/config/production.js" xlink:title="production.js">
<path fill="#ccffcc" stroke="black" d="M175.57,-281.3C175.57,-281.3 120.95,-281.3 120.95,-281.3 117.85,-281.3 114.75,-278.2 114.75,-275.1 114.75,-275.1 114.75,-268.9 114.75,-268.9 114.75,-265.8 117.85,-262.7 120.95,-262.7 120.95,-262.7 175.57,-262.7 175.57,-262.7 178.67,-262.7 181.77,-265.8 181.77,-268.9 181.77,-268.9 181.77,-275.1 181.77,-275.1 181.77,-278.2 178.67,-281.3 175.57,-281.3"/>
<text text-anchor="middle" x="148.26" y="-269.3" font-family="Helvetica,sans-Serif" font-size="9.00">production.js</text>
</a>
</g>
</g>
<!-- using&#45;express/4&#45;express&#45;router/examples/1&#45;hello&#45;world/index.js -->
<g id="node14" class="node">
<title>using&#45;express/4&#45;express&#45;router/examples/1&#45;hello&#45;world/index.js</title>
<g id="a_node14"><a xlink:href="using-express/4-express-router/examples/1-hello-world/index.js" xlink:title="index.js">
<path fill="#ffffcc" stroke="black" d="M87.8,-212.3C87.8,-212.3 46.2,-212.3 46.2,-212.3 43.1,-212.3 40,-209.2 40,-206.1 40,-206.1 40,-199.9 40,-199.9 40,-196.8 43.1,-193.7 46.2,-193.7 46.2,-193.7 87.8,-193.7 87.8,-193.7 90.9,-193.7 94,-196.8 94,-199.9 94,-199.9 94,-206.1 94,-206.1 94,-209.2 90.9,-212.3 87.8,-212.3"/>
<text text-anchor="middle" x="67" y="-200.3" font-family="Helvetica,sans-Serif" font-size="9.00">index.js</text>
</a>
</g>
</g>
<!-- using&#45;express/4&#45;express&#45;router/examples/1&#45;hello&#45;world/index.js&#45;&gt;fs -->
<g id="edge10" class="edge">
<title>using&#45;express/4&#45;express&#45;router/examples/1&#45;hello&#45;world/index.js&#45;&gt;fs</title>
<path fill="none" stroke="#000000" stroke-dasharray="5,2" stroke-opacity="0.200000" d="M67.93,-193.57C68.29,-171.43 72.27,-115.62 102,-84 105.61,-80.16 110.2,-77.24 115.06,-75.02"/>
<polygon fill="#000000" fill-opacity="0.200000" stroke="#000000" stroke-opacity="0.200000" points="116.05,-76.89 120.86,-72.73 114.51,-72.98 116.05,-76.89"/>
</g>
<!-- using&#45;express/4&#45;express&#45;router/examples/1&#45;hello&#45;world/index.js&#45;&gt;node_modules/body&#45;parser -->
<g id="edge7" class="edge">
<title>using&#45;express/4&#45;express&#45;router/examples/1&#45;hello&#45;world/index.js&#45;&gt;node_modules/body&#45;parser</title>
<path fill="none" stroke="#000000" stroke-opacity="0.200000" d="M68.78,-193.35C71.42,-163.29 81.02,-72.2 102,-53 147.97,-10.91 225.59,-12.79 271.44,-18.52"/>
<polygon fill="#000000" fill-opacity="0.200000" stroke="#000000" stroke-opacity="0.200000" points="271.2,-20.6 277.42,-19.31 271.75,-16.44 271.2,-20.6"/>
</g>
<!-- using&#45;express/4&#45;express&#45;router/examples/1&#45;hello&#45;world/index.js&#45;&gt;node_modules/cors -->
<g id="edge8" class="edge">
<title>using&#45;express/4&#45;express&#45;router/examples/1&#45;hello&#45;world/index.js&#45;&gt;node_modules/cors</title>
<path fill="none" stroke="#000000" stroke-opacity="0.200000" d="M79.01,-193.69C85.38,-188.72 93.75,-182.85 102,-179 135.23,-163.52 235.94,-163.26 261.51,-137 272.35,-125.88 259.44,-114.81 269.51,-103 271.65,-100.49 274.24,-98.38 277.06,-96.58"/>
<polygon fill="#000000" fill-opacity="0.200000" stroke="#000000" stroke-opacity="0.200000" points="278.08,-98.42 282.34,-93.7 276.06,-94.74 278.08,-98.42"/>
</g>
<!-- using&#45;express/4&#45;express&#45;router/examples/1&#45;hello&#45;world/index.js&#45;&gt;node_modules/express -->
<g id="edge9" class="edge">
<title>using&#45;express/4&#45;express&#45;router/examples/1&#45;hello&#45;world/index.js&#45;&gt;node_modules/express</title>
<path fill="none" stroke="#000000" stroke-opacity="0.200000" d="M93.11,-193.62C96.08,-192.66 99.09,-191.76 102,-191 171.62,-172.74 197.3,-195.51 261.51,-163 275.89,-155.72 288.84,-142.58 297.49,-132.37"/>
<polygon fill="#000000" fill-opacity="0.200000" stroke="#000000" stroke-opacity="0.200000" points="299.2,-133.6 301.38,-127.63 295.95,-130.94 299.2,-133.6"/>
</g>
<!-- using&#45;express/4&#45;express&#45;router/examples/1&#45;hello&#45;world/index.js&#45;&gt;node_modules/morgan -->
<g id="edge11" class="edge">
<title>using&#45;express/4&#45;express&#45;router/examples/1&#45;hello&#45;world/index.js&#45;&gt;node_modules/morgan</title>
<path fill="none" stroke="#000000" stroke-opacity="0.200000" d="M73.53,-193.62C79.57,-183.98 90,-169.03 102,-159 106.02,-155.64 264.76,-74.21 269.51,-72 272.59,-70.58 275.82,-69.14 279.06,-67.75"/>
<polygon fill="#000000" fill-opacity="0.200000" stroke="#000000" stroke-opacity="0.200000" points="280.15,-69.57 284.86,-65.31 278.51,-65.71 280.15,-69.57"/>
</g>
<!-- using&#45;express/4&#45;express&#45;router/examples/1&#45;hello&#45;world/index.js&#45;&gt;path -->
<g id="edge12" class="edge">
<title>using&#45;express/4&#45;express&#45;router/examples/1&#45;hello&#45;world/index.js&#45;&gt;path</title>
<path fill="none" stroke="#000000" stroke-dasharray="5,2" stroke-opacity="0.200000" d="M69.23,-193.65C71.99,-176.28 80.23,-138.82 102,-117 105.78,-113.21 110.45,-110.2 115.35,-107.81"/>
<polygon fill="#000000" fill-opacity="0.200000" stroke="#000000" stroke-opacity="0.200000" points="116.5,-109.6 121.16,-105.28 114.82,-105.75 116.5,-109.6"/>
</g>
<!-- using&#45;express/4&#45;express&#45;router/examples/1&#45;hello&#45;world/index.js&#45;&gt;using&#45;express/4&#45;express&#45;router/examples/1&#45;hello&#45;world/api/index.js -->
<g id="edge5" class="edge">
<title>using&#45;express/4&#45;express&#45;router/examples/1&#45;hello&#45;world/index.js&#45;&gt;using&#45;express/4&#45;express&#45;router/examples/1&#45;hello&#45;world/api/index.js</title>
<path fill="none" stroke="#000000" stroke-width="2" stroke-opacity="0.200000" d="M94.39,-205.66C101.01,-206.33 108.19,-207.06 115.06,-207.75"/>
<polygon fill="#000000" fill-opacity="0.200000" stroke="#000000" stroke-width="2" stroke-opacity="0.200000" points="115.07,-209.86 121.25,-208.37 115.49,-205.68 115.07,-209.86"/>
</g>
<!-- using&#45;express/4&#45;express&#45;router/examples/1&#45;hello&#45;world/index.js&#45;&gt;using&#45;express/4&#45;express&#45;router/examples/1&#45;hello&#45;world/config/index.js -->
<g id="edge6" class="edge">
<title>using&#45;express/4&#45;express&#45;router/examples/1&#45;hello&#45;world/index.js&#45;&gt;using&#45;express/4&#45;express&#45;router/examples/1&#45;hello&#45;world/config/index.js</title>
<path fill="none" stroke="#000000" stroke-width="2" stroke-opacity="0.200000" d="M69.26,-212.48C72.04,-229.7 80.28,-266.23 102,-287 105.81,-290.64 110.5,-293.46 115.4,-295.64"/>
<polygon fill="#000000" fill-opacity="0.200000" stroke="#000000" stroke-width="2" stroke-opacity="0.200000" points="114.86,-297.69 121.21,-297.92 116.39,-293.78 114.86,-297.69"/>
</g>
</g>
</svg>
