<?xml version="1.0" encoding="UTF-8" standalone="no"?>
<!DOCTYPE svg PUBLIC "-//W3C//DTD SVG 1.1//EN"
 "http://www.w3.org/Graphics/SVG/1.1/DTD/svg11.dtd">
<!-- Generated by graphviz version 2.44.0 (20200408.0750)
 -->
<!-- Title: dependency&#45;cruiser output Pages: 1 -->
<svg width="472pt" height="490pt"
 viewBox="0.00 0.00 472.01 490.00" xmlns="http://www.w3.org/2000/svg" xmlns:xlink="http://www.w3.org/1999/xlink">
<g id="graph0" class="graph" transform="scale(1 1) rotate(0) translate(4 486)">
<title>dependency&#45;cruiser output</title>
<polygon fill="white" stroke="transparent" points="-4,4 -4,-486 468.01,-486 468.01,4 -4,4"/>
<g id="clust1" class="cluster">
<title>cluster_node_modules</title>
<path fill="#ffffff" stroke="black" stroke-width="2" d="M282.75,-8C282.75,-8 338.76,-8 338.76,-8 344.76,-8 350.76,-14 350.76,-20 350.76,-20 350.76,-142 350.76,-142 350.76,-148 344.76,-154 338.76,-154 338.76,-154 282.75,-154 282.75,-154 276.75,-154 270.75,-148 270.75,-142 270.75,-142 270.75,-20 270.75,-20 270.75,-14 276.75,-8 282.75,-8"/>
<text text-anchor="middle" x="310.76" y="-141.9" font-family="Helvetica,sans-Serif" font-weight="bold" font-size="9.00">node_modules</text>
</g>
<g id="clust2" class="cluster">
<title>cluster_using&#45;express</title>
<path fill="#ffffff" stroke="black" stroke-width="2" d="M20,-219C20,-219 444.01,-219 444.01,-219 450.01,-219 456.01,-225 456.01,-231 456.01,-231 456.01,-462 456.01,-462 456.01,-468 450.01,-474 444.01,-474 444.01,-474 20,-474 20,-474 14,-474 8,-468 8,-462 8,-462 8,-231 8,-231 8,-225 14,-219 20,-219"/>
<text text-anchor="middle" x="232.01" y="-461.9" font-family="Helvetica,sans-Serif" font-weight="bold" font-size="9.00">using&#45;express</text>
</g>
<g id="clust3" class="cluster">
<title>cluster_using&#45;express/4&#45;express&#45;router</title>
<path fill="#ffffff" stroke="black" stroke-width="2" d="M28,-227C28,-227 436.01,-227 436.01,-227 442.01,-227 448.01,-233 448.01,-239 448.01,-239 448.01,-435 448.01,-435 448.01,-441 442.01,-447 436.01,-447 436.01,-447 28,-447 28,-447 22,-447 16,-441 16,-435 16,-435 16,-239 16,-239 16,-233 22,-227 28,-227"/>
<text text-anchor="middle" x="232.01" y="-434.9" font-family="Helvetica,sans-Serif" font-weight="bold" font-size="9.00">4&#45;express&#45;router</text>
</g>
<g id="clust4" class="cluster">
<title>cluster_using&#45;express/4&#45;express&#45;router/exercises</title>
<path fill="#ffffff" stroke="black" stroke-width="2" d="M36,-235C36,-235 428.01,-235 428.01,-235 434.01,-235 440.01,-241 440.01,-247 440.01,-247 440.01,-408 440.01,-408 440.01,-414 434.01,-420 428.01,-420 428.01,-420 36,-420 36,-420 30,-420 24,-414 24,-408 24,-408 24,-247 24,-247 24,-241 30,-235 36,-235"/>
<text text-anchor="middle" x="232.01" y="-407.9" font-family="Helvetica,sans-Serif" font-weight="bold" font-size="9.00">exercises</text>
</g>
<g id="clust5" class="cluster">
<title>cluster_using&#45;express/4&#45;express&#45;router/exercises/2&#45;refactor&#45;fs&#45;api</title>
<path fill="#ffffff" stroke="black" stroke-width="2" d="M44,-243C44,-243 420.01,-243 420.01,-243 426.01,-243 432.01,-249 432.01,-255 432.01,-255 432.01,-381 432.01,-381 432.01,-387 426.01,-393 420.01,-393 420.01,-393 44,-393 44,-393 38,-393 32,-387 32,-381 32,-381 32,-255 32,-255 32,-249 38,-243 44,-243"/>
<text text-anchor="middle" x="232.01" y="-380.9" font-family="Helvetica,sans-Serif" font-weight="bold" font-size="9.00">2&#45;refactor&#45;fs&#45;api</text>
</g>
<g id="clust6" class="cluster">
<title>cluster_using&#45;express/4&#45;express&#45;router/exercises/2&#45;refactor&#45;fs&#45;api/api</title>
<path fill="#ffffff" stroke="black" stroke-width="2" d="M52,-277C52,-277 244.5,-277 244.5,-277 250.5,-277 256.5,-283 256.5,-289 256.5,-289 256.5,-318 256.5,-318 256.5,-324 250.5,-330 244.5,-330 244.5,-330 52,-330 52,-330 46,-330 40,-324 40,-318 40,-318 40,-289 40,-289 40,-283 46,-277 52,-277"/>
<text text-anchor="middle" x="148.25" y="-317.9" font-family="Helvetica,sans-Serif" font-weight="bold" font-size="9.00">api</text>
</g>
<g id="clust7" class="cluster">
<title>cluster_using&#45;express/4&#45;express&#45;router/exercises/2&#45;refactor&#45;fs&#45;api/config</title>
<path fill="#ffffff" stroke="black" stroke-width="2" d="M276.5,-251C276.5,-251 412.01,-251 412.01,-251 418.01,-251 424.01,-257 424.01,-263 424.01,-263 424.01,-354 424.01,-354 424.01,-360 418.01,-366 412.01,-366 412.01,-366 276.5,-366 276.5,-366 270.5,-366 264.5,-360 264.5,-354 264.5,-354 264.5,-263 264.5,-263 264.5,-257 270.5,-251 276.5,-251"/>
<text text-anchor="middle" x="344.26" y="-353.9" font-family="Helvetica,sans-Serif" font-weight="bold" font-size="9.00">config</text>
</g>
<!-- client -->
<g id="node1" class="node">
<title>client</title>
<g id="a_node1"><a xlink:href="client" xlink:title="client">
<polygon fill="#ccffcc" stroke="black" points="102,-211.3 50.07,-211.3 48,-209.23 48,-192.7 99.93,-192.7 102,-194.77 102,-211.3"/>
<polyline fill="none" stroke="black" points="99.93,-209.23 48,-209.23 "/>
<polyline fill="none" stroke="black" points="99.93,-209.23 99.93,-192.7 "/>
<polyline fill="none" stroke="black" points="99.93,-209.23 102,-211.3 "/>
<text text-anchor="middle" x="75" y="-199.3" font-family="Helvetica,sans-Serif" font-size="9.00">client</text>
</a>
</g>
</g>
<!-- fs -->
<g id="node2" class="node">
<title>fs</title>
<path fill="#ffffcc" stroke="grey" d="M331.55,-211.3C331.55,-211.3 289.96,-211.3 289.96,-211.3 286.86,-211.3 283.76,-208.2 283.76,-205.1 283.76,-205.1 283.76,-198.9 283.76,-198.9 283.76,-195.8 286.86,-192.7 289.96,-192.7 289.96,-192.7 331.55,-192.7 331.55,-192.7 334.65,-192.7 337.76,-195.8 337.76,-198.9 337.76,-198.9 337.76,-205.1 337.76,-205.1 337.76,-208.2 334.65,-211.3 331.55,-211.3"/>
<text text-anchor="middle" x="310.76" y="-199.3" font-family="Helvetica,sans-Serif" font-size="9.00" fill="grey">fs</text>
</g>
<!-- node_modules/body&#45;parser -->
<g id="node3" class="node">
<title>node_modules/body&#45;parser</title>
<g id="a_node3"><a xlink:href="node_modules/body-parser" xlink:title="body&#45;parser">
<polygon fill="#c40b0a" fill-opacity="0.101961" stroke="black" points="342.76,-96.3 280.82,-96.3 278.75,-94.23 278.75,-77.7 340.7,-77.7 342.76,-79.77 342.76,-96.3"/>
<polyline fill="none" stroke="black" points="340.7,-94.23 278.75,-94.23 "/>
<polyline fill="none" stroke="black" points="340.7,-94.23 340.7,-77.7 "/>
<polyline fill="none" stroke="black" points="340.7,-94.23 342.76,-96.3 "/>
<text text-anchor="middle" x="310.76" y="-84.3" font-family="Helvetica,sans-Serif" font-size="9.00" fill="#c40b0a">body&#45;parser</text>
</a>
</g>
</g>
<!-- node_modules/cors -->
<g id="node4" class="node">
<title>node_modules/cors</title>
<g id="a_node4"><a xlink:href="node_modules/cors" xlink:title="cors">
<polygon fill="#c40b0a" fill-opacity="0.101961" stroke="black" points="337.76,-65.3 285.82,-65.3 283.76,-63.23 283.76,-46.7 335.69,-46.7 337.76,-48.77 337.76,-65.3"/>
<polyline fill="none" stroke="black" points="335.69,-63.23 283.76,-63.23 "/>
<polyline fill="none" stroke="black" points="335.69,-63.23 335.69,-46.7 "/>
<polyline fill="none" stroke="black" points="335.69,-63.23 337.76,-65.3 "/>
<text text-anchor="middle" x="310.76" y="-53.3" font-family="Helvetica,sans-Serif" font-size="9.00" fill="#c40b0a">cors</text>
</a>
</g>
</g>
<!-- node_modules/express -->
<g id="node5" class="node">
<title>node_modules/express</title>
<g id="a_node5"><a xlink:href="node_modules/express" xlink:title="express">
<polygon fill="#c40b0a" fill-opacity="0.101961" stroke="black" points="337.76,-34.3 285.82,-34.3 283.76,-32.23 283.76,-15.7 335.69,-15.7 337.76,-17.77 337.76,-34.3"/>
<polyline fill="none" stroke="black" points="335.69,-32.23 283.76,-32.23 "/>
<polyline fill="none" stroke="black" points="335.69,-32.23 335.69,-15.7 "/>
<polyline fill="none" stroke="black" points="335.69,-32.23 337.76,-34.3 "/>
<text text-anchor="middle" x="310.76" y="-22.3" font-family="Helvetica,sans-Serif" font-size="9.00" fill="#c40b0a">express</text>
</a>
</g>
</g>
<!-- node_modules/morgan -->
<g id="node6" class="node">
<title>node_modules/morgan</title>
<g id="a_node6"><a xlink:href="node_modules/morgan" xlink:title="morgan">
<polygon fill="#c40b0a" fill-opacity="0.101961" stroke="black" points="337.76,-127.3 285.82,-127.3 283.76,-125.23 283.76,-108.7 335.69,-108.7 337.76,-110.77 337.76,-127.3"/>
<polyline fill="none" stroke="black" points="335.69,-125.23 283.76,-125.23 "/>
<polyline fill="none" stroke="black" points="335.69,-125.23 335.69,-108.7 "/>
<polyline fill="none" stroke="black" points="335.69,-125.23 337.76,-127.3 "/>
<text text-anchor="middle" x="310.76" y="-115.3" font-family="Helvetica,sans-Serif" font-size="9.00" fill="#c40b0a">morgan</text>
</a>
</g>
</g>
<!-- path -->
<g id="node7" class="node">
<title>path</title>
<path fill="#ffffcc" stroke="grey" d="M331.55,-180.3C331.55,-180.3 289.96,-180.3 289.96,-180.3 286.86,-180.3 283.76,-177.2 283.76,-174.1 283.76,-174.1 283.76,-167.9 283.76,-167.9 283.76,-164.8 286.86,-161.7 289.96,-161.7 289.96,-161.7 331.55,-161.7 331.55,-161.7 334.65,-161.7 337.76,-164.8 337.76,-167.9 337.76,-167.9 337.76,-174.1 337.76,-174.1 337.76,-177.2 334.65,-180.3 331.55,-180.3"/>
<text text-anchor="middle" x="310.76" y="-168.3" font-family="Helvetica,sans-Serif" font-size="9.00" fill="grey">path</text>
</g>
<!-- using&#45;express/4&#45;express&#45;router/exercises/2&#45;refactor&#45;fs&#45;api/api/controllers.js -->
<g id="node8" class="node">
<title>using&#45;express/4&#45;express&#45;router/exercises/2&#45;refactor&#45;fs&#45;api/api/controllers.js</title>
<g id="a_node8"><a xlink:href="using-express/4-express-router/exercises/2-refactor-fs-api/api/controllers.js" xlink:title="controllers.js">
<path fill="#ffffcc" stroke="black" d="M242.55,-303.3C242.55,-303.3 187.95,-303.3 187.95,-303.3 184.85,-303.3 181.75,-300.2 181.75,-297.1 181.75,-297.1 181.75,-290.9 181.75,-290.9 181.75,-287.8 184.85,-284.7 187.95,-284.7 187.95,-284.7 242.55,-284.7 242.55,-284.7 245.65,-284.7 248.75,-287.8 248.75,-290.9 248.75,-290.9 248.75,-297.1 248.75,-297.1 248.75,-300.2 245.65,-303.3 242.55,-303.3"/>
<text text-anchor="middle" x="215.25" y="-291.3" font-family="Helvetica,sans-Serif" font-size="9.00">controllers.js</text>
</a>
</g>
</g>
<!-- using&#45;express/4&#45;express&#45;router/exercises/2&#45;refactor&#45;fs&#45;api/api/controllers.js&#45;&gt;fs -->
<g id="edge2" class="edge">
<title>using&#45;express/4&#45;express&#45;router/exercises/2&#45;refactor&#45;fs&#45;api/api/controllers.js&#45;&gt;fs</title>
<path fill="none" stroke="#000000" stroke-dasharray="5,2" stroke-opacity="0.200000" d="M248.82,-286.89C251.67,-285.31 254.3,-283.37 256.5,-281 266.76,-269.94 257.16,-261.19 264.5,-248 271.45,-235.49 282.74,-224.02 292.29,-215.65"/>
<polygon fill="#000000" fill-opacity="0.200000" stroke="#000000" stroke-opacity="0.200000" points="293.89,-217.06 297.1,-211.57 291.17,-213.85 293.89,-217.06"/>
</g>
<!-- using&#45;express/4&#45;express&#45;router/exercises/2&#45;refactor&#45;fs&#45;api/api/controllers.js&#45;&gt;path -->
<g id="edge3" class="edge">
<title>using&#45;express/4&#45;express&#45;router/exercises/2&#45;refactor&#45;fs&#45;api/api/controllers.js&#45;&gt;path</title>
<path fill="none" stroke="#000000" stroke-dasharray="5,2" stroke-opacity="0.200000" d="M248.82,-287.45C251.75,-285.76 254.4,-283.64 256.5,-281 269.54,-264.59 251.68,-203.59 264.5,-187 267.94,-182.54 272.72,-179.33 277.89,-177"/>
<polygon fill="#000000" fill-opacity="0.200000" stroke="#000000" stroke-opacity="0.200000" points="278.75,-178.92 283.6,-174.82 277.25,-175 278.75,-178.92"/>
</g>
<!-- using&#45;express/4&#45;express&#45;router/exercises/2&#45;refactor&#45;fs&#45;api/config/index.js -->
<g id="node9" class="node">
<title>using&#45;express/4&#45;express&#45;router/exercises/2&#45;refactor&#45;fs&#45;api/config/index.js</title>
<g id="a_node9"><a xlink:href="using-express/4-express-router/exercises/2-refactor-fs-api/config/index.js" xlink:title="index.js">
<path fill="#ffffcc" stroke="black" d="M331.55,-339.3C331.55,-339.3 289.96,-339.3 289.96,-339.3 286.86,-339.3 283.76,-336.2 283.76,-333.1 283.76,-333.1 283.76,-326.9 283.76,-326.9 283.76,-323.8 286.86,-320.7 289.96,-320.7 289.96,-320.7 331.55,-320.7 331.55,-320.7 334.65,-320.7 337.76,-323.8 337.76,-326.9 337.76,-326.9 337.76,-333.1 337.76,-333.1 337.76,-336.2 334.65,-339.3 331.55,-339.3"/>
<text text-anchor="middle" x="310.76" y="-327.3" font-family="Helvetica,sans-Serif" font-size="9.00">index.js</text>
</a>
</g>
</g>
<!-- using&#45;express/4&#45;express&#45;router/exercises/2&#45;refactor&#45;fs&#45;api/api/controllers.js&#45;&gt;using&#45;express/4&#45;express&#45;router/exercises/2&#45;refactor&#45;fs&#45;api/config/index.js -->
<g id="edge1" class="edge">
<title>using&#45;express/4&#45;express&#45;router/exercises/2&#45;refactor&#45;fs&#45;api/api/controllers.js&#45;&gt;using&#45;express/4&#45;express&#45;router/exercises/2&#45;refactor&#45;fs&#45;api/config/index.js</title>
<path fill="none" stroke="#000000" stroke-width="2" stroke-opacity="0.200000" d="M238.25,-303.41C246.45,-306.84 255.86,-310.69 264.5,-314 268.67,-315.6 273.08,-317.23 277.45,-318.81"/>
<polygon fill="#000000" fill-opacity="0.200000" stroke="#000000" stroke-width="2" stroke-opacity="0.200000" points="276.99,-320.88 283.34,-320.93 278.41,-316.93 276.99,-320.88"/>
</g>
<!-- using&#45;express/4&#45;express&#45;router/exercises/2&#45;refactor&#45;fs&#45;api/config/default.js -->
<g id="node12" class="node">
<title>using&#45;express/4&#45;express&#45;router/exercises/2&#45;refactor&#45;fs&#45;api/config/default.js</title>
<g id="a_node12"><a xlink:href="using-express/4-express-router/exercises/2-refactor-fs-api/config/default.js" xlink:title="default.js">
<path fill="#ffffcc" stroke="black" d="M409.81,-339.3C409.81,-339.3 368.21,-339.3 368.21,-339.3 365.11,-339.3 362.01,-336.2 362.01,-333.1 362.01,-333.1 362.01,-326.9 362.01,-326.9 362.01,-323.8 365.11,-320.7 368.21,-320.7 368.21,-320.7 409.81,-320.7 409.81,-320.7 412.91,-320.7 416.01,-323.8 416.01,-326.9 416.01,-326.9 416.01,-333.1 416.01,-333.1 416.01,-336.2 412.91,-339.3 409.81,-339.3"/>
<text text-anchor="middle" x="389.01" y="-327.3" font-family="Helvetica,sans-Serif" font-size="9.00">default.js</text>
</a>
</g>
</g>
<!-- using&#45;express/4&#45;express&#45;router/exercises/2&#45;refactor&#45;fs&#45;api/config/index.js&#45;&gt;using&#45;express/4&#45;express&#45;router/exercises/2&#45;refactor&#45;fs&#45;api/config/default.js -->
<g id="edge7" class="edge">
<title>using&#45;express/4&#45;express&#45;router/exercises/2&#45;refactor&#45;fs&#45;api/config/index.js&#45;&gt;using&#45;express/4&#45;express&#45;router/exercises/2&#45;refactor&#45;fs&#45;api/config/default.js</title>
<path fill="none" stroke="#000000" stroke-width="2" stroke-opacity="0.200000" d="M338,-330C343.69,-330 349.78,-330 355.68,-330"/>
<polygon fill="#000000" fill-opacity="0.200000" stroke="#000000" stroke-width="2" stroke-opacity="0.200000" points="355.98,-332.1 361.98,-330 355.98,-327.9 355.98,-332.1"/>
</g>
<!-- using&#45;express/4&#45;express&#45;router/exercises/2&#45;refactor&#45;fs&#45;api/api/index.js -->
<g id="node10" class="node">
<title>using&#45;express/4&#45;express&#45;router/exercises/2&#45;refactor&#45;fs&#45;api/api/index.js</title>
<g id="a_node10"><a xlink:href="using-express/4-express-router/exercises/2-refactor-fs-api/api/index.js" xlink:title="index.js">
<path fill="#ffffcc" stroke="black" d="M95.8,-303.3C95.8,-303.3 54.2,-303.3 54.2,-303.3 51.1,-303.3 48,-300.2 48,-297.1 48,-297.1 48,-290.9 48,-290.9 48,-287.8 51.1,-284.7 54.2,-284.7 54.2,-284.7 95.8,-284.7 95.8,-284.7 98.9,-284.7 102,-287.8 102,-290.9 102,-290.9 102,-297.1 102,-297.1 102,-300.2 98.9,-303.3 95.8,-303.3"/>
<text text-anchor="middle" x="75" y="-291.3" font-family="Helvetica,sans-Serif" font-size="9.00">index.js</text>
</a>
</g>
</g>
<!-- using&#45;express/4&#45;express&#45;router/exercises/2&#45;refactor&#45;fs&#45;api/api/routes.js -->
<g id="node11" class="node">
<title>using&#45;express/4&#45;express&#45;router/exercises/2&#45;refactor&#45;fs&#45;api/api/routes.js</title>
<g id="a_node11"><a xlink:href="using-express/4-express-router/exercises/2-refactor-fs-api/api/routes.js" xlink:title="routes.js">
<path fill="#ffffcc" stroke="black" d="M162.8,-303.3C162.8,-303.3 121.2,-303.3 121.2,-303.3 118.1,-303.3 115,-300.2 115,-297.1 115,-297.1 115,-290.9 115,-290.9 115,-287.8 118.1,-284.7 121.2,-284.7 121.2,-284.7 162.8,-284.7 162.8,-284.7 165.9,-284.7 169,-287.8 169,-290.9 169,-290.9 169,-297.1 169,-297.1 169,-300.2 165.9,-303.3 162.8,-303.3"/>
<text text-anchor="middle" x="142" y="-291.3" font-family="Helvetica,sans-Serif" font-size="9.00">routes.js</text>
</a>
</g>
</g>
<!-- using&#45;express/4&#45;express&#45;router/exercises/2&#45;refactor&#45;fs&#45;api/api/index.js&#45;&gt;using&#45;express/4&#45;express&#45;router/exercises/2&#45;refactor&#45;fs&#45;api/api/routes.js -->
<g id="edge4" class="edge">
<title>using&#45;express/4&#45;express&#45;router/exercises/2&#45;refactor&#45;fs&#45;api/api/index.js&#45;&gt;using&#45;express/4&#45;express&#45;router/exercises/2&#45;refactor&#45;fs&#45;api/api/routes.js</title>
<path fill="none" stroke="#000000" stroke-width="2" stroke-opacity="0.200000" d="M102.06,-294C104.32,-294 106.61,-294 108.9,-294"/>
<polygon fill="#000000" fill-opacity="0.200000" stroke="#000000" stroke-width="2" stroke-opacity="0.200000" points="108.93,-296.1 114.93,-294 108.93,-291.9 108.93,-296.1"/>
</g>
<!-- using&#45;express/4&#45;express&#45;router/exercises/2&#45;refactor&#45;fs&#45;api/api/routes.js&#45;&gt;node_modules/express -->
<g id="edge6" class="edge">
<title>using&#45;express/4&#45;express&#45;router/exercises/2&#45;refactor&#45;fs&#45;api/api/routes.js&#45;&gt;node_modules/express</title>
<path fill="none" stroke="#000000" stroke-opacity="0.200000" d="M144.8,-284.65C152.33,-247.99 184.72,-112.6 264.5,-41 268.33,-37.56 272.95,-34.85 277.76,-32.71"/>
<polygon fill="#000000" fill-opacity="0.200000" stroke="#000000" stroke-opacity="0.200000" points="278.64,-34.62 283.45,-30.46 277.09,-30.72 278.64,-34.62"/>
</g>
<!-- using&#45;express/4&#45;express&#45;router/exercises/2&#45;refactor&#45;fs&#45;api/api/routes.js&#45;&gt;using&#45;express/4&#45;express&#45;router/exercises/2&#45;refactor&#45;fs&#45;api/api/controllers.js -->
<g id="edge5" class="edge">
<title>using&#45;express/4&#45;express&#45;router/exercises/2&#45;refactor&#45;fs&#45;api/api/routes.js&#45;&gt;using&#45;express/4&#45;express&#45;router/exercises/2&#45;refactor&#45;fs&#45;api/api/controllers.js</title>
<path fill="none" stroke="#000000" stroke-width="2" stroke-opacity="0.200000" d="M169.13,-294C171.19,-294 173.3,-294 175.43,-294"/>
<polygon fill="#000000" fill-opacity="0.200000" stroke="#000000" stroke-width="2" stroke-opacity="0.200000" points="175.82,-296.1 181.82,-294 175.82,-291.9 175.82,-296.1"/>
</g>
<!-- using&#45;express/4&#45;express&#45;router/exercises/2&#45;refactor&#45;fs&#45;api/config/development.js -->
<g id="node13" class="node">
<title>using&#45;express/4&#45;express&#45;router/exercises/2&#45;refactor&#45;fs&#45;api/config/development.js</title>
<g id="a_node13"><a xlink:href="using-express/4-express-router/exercises/2-refactor-fs-api/config/development.js" xlink:title="development.js">
<path fill="#ccffcc" stroke="black" d="M342.57,-308.3C342.57,-308.3 278.94,-308.3 278.94,-308.3 275.84,-308.3 272.74,-305.2 272.74,-302.1 272.74,-302.1 272.74,-295.9 272.74,-295.9 272.74,-292.8 275.84,-289.7 278.94,-289.7 278.94,-289.7 342.57,-289.7 342.57,-289.7 345.67,-289.7 348.77,-292.8 348.77,-295.9 348.77,-295.9 348.77,-302.1 348.77,-302.1 348.77,-305.2 345.67,-308.3 342.57,-308.3"/>
<text text-anchor="middle" x="310.76" y="-296.3" font-family="Helvetica,sans-Serif" font-size="9.00">development.js</text>
</a>
</g>
</g>
<!-- using&#45;express/4&#45;express&#45;router/exercises/2&#45;refactor&#45;fs&#45;api/config/production.js -->
<g id="node14" class="node">
<title>using&#45;express/4&#45;express&#45;router/exercises/2&#45;refactor&#45;fs&#45;api/config/production.js</title>
<g id="a_node14"><a xlink:href="using-express/4-express-router/exercises/2-refactor-fs-api/config/production.js" xlink:title="production.js">
<path fill="#ccffcc" stroke="black" d="M338.07,-277.3C338.07,-277.3 283.44,-277.3 283.44,-277.3 280.34,-277.3 277.24,-274.2 277.24,-271.1 277.24,-271.1 277.24,-264.9 277.24,-264.9 277.24,-261.8 280.34,-258.7 283.44,-258.7 283.44,-258.7 338.07,-258.7 338.07,-258.7 341.17,-258.7 344.27,-261.8 344.27,-264.9 344.27,-264.9 344.27,-271.1 344.27,-271.1 344.27,-274.2 341.17,-277.3 338.07,-277.3"/>
<text text-anchor="middle" x="310.76" y="-265.3" font-family="Helvetica,sans-Serif" font-size="9.00">production.js</text>
</a>
</g>
</g>
<!-- using&#45;express/4&#45;express&#45;router/exercises/2&#45;refactor&#45;fs&#45;api/index.js -->
<g id="node15" class="node">
<title>using&#45;express/4&#45;express&#45;router/exercises/2&#45;refactor&#45;fs&#45;api/index.js</title>
<g id="a_node15"><a xlink:href="using-express/4-express-router/exercises/2-refactor-fs-api/index.js" xlink:title="index.js">
<path fill="#ffffcc" stroke="black" d="M236.05,-269.3C236.05,-269.3 194.45,-269.3 194.45,-269.3 191.35,-269.3 188.25,-266.2 188.25,-263.1 188.25,-263.1 188.25,-256.9 188.25,-256.9 188.25,-253.8 191.35,-250.7 194.45,-250.7 194.45,-250.7 236.05,-250.7 236.05,-250.7 239.15,-250.7 242.25,-253.8 242.25,-256.9 242.25,-256.9 242.25,-263.1 242.25,-263.1 242.25,-266.2 239.15,-269.3 236.05,-269.3"/>
<text text-anchor="middle" x="215.25" y="-257.3" font-family="Helvetica,sans-Serif" font-size="9.00">index.js</text>
</a>
</g>
</g>
<!-- using&#45;express/4&#45;express&#45;router/exercises/2&#45;refactor&#45;fs&#45;api/index.js&#45;&gt;fs -->
<g id="edge12" class="edge">
<title>using&#45;express/4&#45;express&#45;router/exercises/2&#45;refactor&#45;fs&#45;api/index.js&#45;&gt;fs</title>
<path fill="none" stroke="#000000" stroke-dasharray="5,2" stroke-opacity="0.200000" d="M231.27,-250.68C246.99,-240.93 271.77,-225.56 289.28,-214.7"/>
<polygon fill="#000000" fill-opacity="0.200000" stroke="#000000" stroke-opacity="0.200000" points="290.47,-216.44 294.46,-211.49 288.25,-212.87 290.47,-216.44"/>
</g>
<!-- using&#45;express/4&#45;express&#45;router/exercises/2&#45;refactor&#45;fs&#45;api/index.js&#45;&gt;node_modules/body&#45;parser -->
<g id="edge9" class="edge">
<title>using&#45;express/4&#45;express&#45;router/exercises/2&#45;refactor&#45;fs&#45;api/index.js&#45;&gt;node_modules/body&#45;parser</title>
<path fill="none" stroke="#000000" stroke-opacity="0.200000" d="M219.69,-250.6C227.05,-230.26 244.65,-180.54 256.5,-138 260.78,-122.63 253.88,-114.91 264.5,-103 266.85,-100.36 269.68,-98.15 272.74,-96.31"/>
<polygon fill="#000000" fill-opacity="0.200000" stroke="#000000" stroke-opacity="0.200000" points="274.1,-97.97 278.48,-93.37 272.18,-94.23 274.1,-97.97"/>
</g>
<!-- using&#45;express/4&#45;express&#45;router/exercises/2&#45;refactor&#45;fs&#45;api/index.js&#45;&gt;node_modules/cors -->
<g id="edge10" class="edge">
<title>using&#45;express/4&#45;express&#45;router/exercises/2&#45;refactor&#45;fs&#45;api/index.js&#45;&gt;node_modules/cors</title>
<path fill="none" stroke="#000000" stroke-opacity="0.200000" d="M220.03,-250.69C228.06,-230.51 246.88,-181.1 256.5,-138 259.72,-123.58 255.26,-83.53 264.5,-72 268.02,-67.61 272.84,-64.42 278.02,-62.1"/>
<polygon fill="#000000" fill-opacity="0.200000" stroke="#000000" stroke-opacity="0.200000" points="278.88,-64.02 283.74,-59.92 277.38,-60.1 278.88,-64.02"/>
</g>
<!-- using&#45;express/4&#45;express&#45;router/exercises/2&#45;refactor&#45;fs&#45;api/index.js&#45;&gt;node_modules/express -->
<g id="edge11" class="edge">
<title>using&#45;express/4&#45;express&#45;router/exercises/2&#45;refactor&#45;fs&#45;api/index.js&#45;&gt;node_modules/express</title>
<path fill="none" stroke="#000000" stroke-opacity="0.200000" d="M220.28,-250.41C228.63,-230.09 247.75,-181.06 256.5,-138 260.81,-116.8 251.29,-58.13 264.5,-41 267.94,-36.54 272.71,-33.32 277.88,-31"/>
<polygon fill="#000000" fill-opacity="0.200000" stroke="#000000" stroke-opacity="0.200000" points="278.74,-32.91 283.59,-28.81 277.24,-28.99 278.74,-32.91"/>
</g>
<!-- using&#45;express/4&#45;express&#45;router/exercises/2&#45;refactor&#45;fs&#45;api/index.js&#45;&gt;node_modules/morgan -->
<g id="edge13" class="edge">
<title>using&#45;express/4&#45;express&#45;router/exercises/2&#45;refactor&#45;fs&#45;api/index.js&#45;&gt;node_modules/morgan</title>
<path fill="none" stroke="#000000" stroke-opacity="0.200000" d="M219.05,-250.64C225.1,-231.48 240.78,-186.98 264.5,-156 271.73,-146.56 281.69,-137.87 290.43,-131.2"/>
<polygon fill="#000000" fill-opacity="0.200000" stroke="#000000" stroke-opacity="0.200000" points="292.11,-132.57 295.68,-127.31 289.61,-129.19 292.11,-132.57"/>
</g>
<!-- using&#45;express/4&#45;express&#45;router/exercises/2&#45;refactor&#45;fs&#45;api/index.js&#45;&gt;path -->
<g id="edge14" class="edge">
<title>using&#45;express/4&#45;express&#45;router/exercises/2&#45;refactor&#45;fs&#45;api/index.js&#45;&gt;path</title>
<path fill="none" stroke="#000000" stroke-dasharray="5,2" stroke-opacity="0.200000" d="M220.1,-250.51C226.85,-235.05 242.23,-204.4 264.5,-187 268.38,-183.97 272.87,-181.49 277.5,-179.46"/>
<polygon fill="#000000" fill-opacity="0.200000" stroke="#000000" stroke-opacity="0.200000" points="278.58,-181.29 283.39,-177.13 277.04,-177.38 278.58,-181.29"/>
</g>
<!-- using&#45;express/4&#45;express&#45;router/exercises/2&#45;refactor&#45;fs&#45;api/index.js&#45;&gt;using&#45;express/4&#45;express&#45;router/exercises/2&#45;refactor&#45;fs&#45;api/config/index.js -->
<g id="edge8" class="edge">
<title>using&#45;express/4&#45;express&#45;router/exercises/2&#45;refactor&#45;fs&#45;api/index.js&#45;&gt;using&#45;express/4&#45;express&#45;router/exercises/2&#45;refactor&#45;fs&#45;api/config/index.js</title>
<path fill="none" stroke="#000000" stroke-width="2" stroke-opacity="0.200000" d="M242.48,-264.74C247.76,-266.8 252.8,-269.76 256.5,-274 268.41,-287.67 252.62,-300.3 264.5,-314 268.11,-318.16 272.87,-321.24 277.95,-323.52"/>
<polygon fill="#000000" fill-opacity="0.200000" stroke="#000000" stroke-width="2" stroke-opacity="0.200000" points="277.19,-325.48 283.54,-325.69 278.71,-321.56 277.19,-325.48"/>
</g>
</g>
</svg>
