<?xml version="1.0" encoding="UTF-8" standalone="no"?>
<!DOCTYPE svg PUBLIC "-//W3C//DTD SVG 1.1//EN"
 "http://www.w3.org/Graphics/SVG/1.1/DTD/svg11.dtd">
<!-- Generated by graphviz version 2.44.0 (20200408.0750)
 -->
<!-- Title: dependency&#45;cruiser output Pages: 1 -->
<svg width="465pt" height="490pt"
 viewBox="0.00 0.00 465.02 490.00" xmlns="http://www.w3.org/2000/svg" xmlns:xlink="http://www.w3.org/1999/xlink">
<g id="graph0" class="graph" transform="scale(1 1) rotate(0) translate(4 486)">
<title>dependency&#45;cruiser output</title>
<polygon fill="white" stroke="transparent" points="-4,4 -4,-486 461.02,-486 461.02,4 -4,4"/>
<g id="clust1" class="cluster">
<title>cluster_node_modules</title>
<path fill="#ffffff" stroke="black" stroke-width="2" d="M275.76,-8C275.76,-8 331.77,-8 331.77,-8 337.77,-8 343.77,-14 343.77,-20 343.77,-20 343.77,-142 343.77,-142 343.77,-148 337.77,-154 331.77,-154 331.77,-154 275.76,-154 275.76,-154 269.76,-154 263.76,-148 263.76,-142 263.76,-142 263.76,-20 263.76,-20 263.76,-14 269.76,-8 275.76,-8"/>
<text text-anchor="middle" x="303.76" y="-141.9" font-family="Helvetica,sans-Serif" font-weight="bold" font-size="9.00">node_modules</text>
</g>
<g id="clust2" class="cluster">
<title>cluster_using&#45;express</title>
<path fill="#ffffff" stroke="black" stroke-width="2" d="M20,-219C20,-219 437.02,-219 437.02,-219 443.02,-219 449.02,-225 449.02,-231 449.02,-231 449.02,-462 449.02,-462 449.02,-468 443.02,-474 437.02,-474 437.02,-474 20,-474 20,-474 14,-474 8,-468 8,-462 8,-462 8,-231 8,-231 8,-225 14,-219 20,-219"/>
<text text-anchor="middle" x="228.51" y="-461.9" font-family="Helvetica,sans-Serif" font-weight="bold" font-size="9.00">using&#45;express</text>
</g>
<g id="clust3" class="cluster">
<title>cluster_using&#45;express/4&#45;express&#45;router</title>
<path fill="#ffffff" stroke="black" stroke-width="2" d="M28,-227C28,-227 429.02,-227 429.02,-227 435.02,-227 441.02,-233 441.02,-239 441.02,-239 441.02,-435 441.02,-435 441.02,-441 435.02,-447 429.02,-447 429.02,-447 28,-447 28,-447 22,-447 16,-441 16,-435 16,-435 16,-239 16,-239 16,-233 22,-227 28,-227"/>
<text text-anchor="middle" x="228.51" y="-434.9" font-family="Helvetica,sans-Serif" font-weight="bold" font-size="9.00">4&#45;express&#45;router</text>
</g>
<g id="clust4" class="cluster">
<title>cluster_using&#45;express/4&#45;express&#45;router/exercises</title>
<path fill="#ffffff" stroke="black" stroke-width="2" d="M36,-235C36,-235 421.02,-235 421.02,-235 427.02,-235 433.02,-241 433.02,-247 433.02,-247 433.02,-408 433.02,-408 433.02,-414 427.02,-420 421.02,-420 421.02,-420 36,-420 36,-420 30,-420 24,-414 24,-408 24,-408 24,-247 24,-247 24,-241 30,-235 36,-235"/>
<text text-anchor="middle" x="228.51" y="-407.9" font-family="Helvetica,sans-Serif" font-weight="bold" font-size="9.00">exercises</text>
</g>
<g id="clust5" class="cluster">
<title>cluster_using&#45;express/4&#45;express&#45;router/exercises/2&#45;refactor&#45;fs&#45;api</title>
<path fill="#ffffff" stroke="black" stroke-width="2" d="M44,-243C44,-243 413.02,-243 413.02,-243 419.02,-243 425.02,-249 425.02,-255 425.02,-255 425.02,-381 425.02,-381 425.02,-387 419.02,-393 413.02,-393 413.02,-393 44,-393 44,-393 38,-393 32,-387 32,-381 32,-381 32,-255 32,-255 32,-249 38,-243 44,-243"/>
<text text-anchor="middle" x="228.51" y="-380.9" font-family="Helvetica,sans-Serif" font-weight="bold" font-size="9.00">2&#45;refactor&#45;fs&#45;api</text>
</g>
<g id="clust6" class="cluster">
<title>cluster_using&#45;express/4&#45;express&#45;router/exercises/2&#45;refactor&#45;fs&#45;api/api</title>
<path fill="#ffffff" stroke="black" stroke-width="2" d="M52,-277C52,-277 237.51,-277 237.51,-277 243.51,-277 249.51,-283 249.51,-289 249.51,-289 249.51,-318 249.51,-318 249.51,-324 243.51,-330 237.51,-330 237.51,-330 52,-330 52,-330 46,-330 40,-324 40,-318 40,-318 40,-289 40,-289 40,-283 46,-277 52,-277"/>
<text text-anchor="middle" x="144.75" y="-317.9" font-family="Helvetica,sans-Serif" font-weight="bold" font-size="9.00">api</text>
</g>
<g id="clust7" class="cluster">
<title>cluster_using&#45;express/4&#45;express&#45;router/exercises/2&#45;refactor&#45;fs&#45;api/config</title>
<path fill="#ffffff" stroke="black" stroke-width="2" d="M269.51,-251C269.51,-251 405.02,-251 405.02,-251 411.02,-251 417.02,-257 417.02,-263 417.02,-263 417.02,-354 417.02,-354 417.02,-360 411.02,-366 405.02,-366 405.02,-366 269.51,-366 269.51,-366 263.51,-366 257.51,-360 257.51,-354 257.51,-354 257.51,-263 257.51,-263 257.51,-257 263.51,-251 269.51,-251"/>
<text text-anchor="middle" x="337.26" y="-353.9" font-family="Helvetica,sans-Serif" font-weight="bold" font-size="9.00">config</text>
</g>
<!-- client -->
<g id="node1" class="node">
<title>client</title>
<g id="a_node1"><a xlink:href="client" xlink:title="client">
<polygon fill="#ccffcc" stroke="black" points="102,-211.3 50.07,-211.3 48,-209.23 48,-192.7 99.93,-192.7 102,-194.77 102,-211.3"/>
<polyline fill="none" stroke="black" points="99.93,-209.23 48,-209.23 "/>
<polyline fill="none" stroke="black" points="99.93,-209.23 99.93,-192.7 "/>
<polyline fill="none" stroke="black" points="99.93,-209.23 102,-211.3 "/>
<text text-anchor="middle" x="75" y="-199.3" font-family="Helvetica,sans-Serif" font-size="9.00">client</text>
</a>
</g>
</g>
<!-- fs -->
<g id="node2" class="node">
<title>fs</title>
<path fill="#ffffcc" stroke="grey" d="M324.56,-211.3C324.56,-211.3 282.96,-211.3 282.96,-211.3 279.86,-211.3 276.76,-208.2 276.76,-205.1 276.76,-205.1 276.76,-198.9 276.76,-198.9 276.76,-195.8 279.86,-192.7 282.96,-192.7 282.96,-192.7 324.56,-192.7 324.56,-192.7 327.66,-192.7 330.76,-195.8 330.76,-198.9 330.76,-198.9 330.76,-205.1 330.76,-205.1 330.76,-208.2 327.66,-211.3 324.56,-211.3"/>
<text text-anchor="middle" x="303.76" y="-199.3" font-family="Helvetica,sans-Serif" font-size="9.00" fill="grey">fs</text>
</g>
<!-- node_modules/body&#45;parser -->
<g id="node3" class="node">
<title>node_modules/body&#45;parser</title>
<g id="a_node3"><a xlink:href="node_modules/body-parser" xlink:title="body&#45;parser">
<polygon fill="#c40b0a" fill-opacity="0.101961" stroke="black" points="335.77,-96.3 273.82,-96.3 271.76,-94.23 271.76,-77.7 333.7,-77.7 335.77,-79.77 335.77,-96.3"/>
<polyline fill="none" stroke="black" points="333.7,-94.23 271.76,-94.23 "/>
<polyline fill="none" stroke="black" points="333.7,-94.23 333.7,-77.7 "/>
<polyline fill="none" stroke="black" points="333.7,-94.23 335.77,-96.3 "/>
<text text-anchor="middle" x="303.76" y="-84.3" font-family="Helvetica,sans-Serif" font-size="9.00" fill="#c40b0a">body&#45;parser</text>
</a>
</g>
</g>
<!-- node_modules/cors -->
<g id="node4" class="node">
<title>node_modules/cors</title>
<g id="a_node4"><a xlink:href="node_modules/cors" xlink:title="cors">
<polygon fill="#c40b0a" fill-opacity="0.101961" stroke="black" points="330.76,-65.3 278.83,-65.3 276.76,-63.23 276.76,-46.7 328.7,-46.7 330.76,-48.77 330.76,-65.3"/>
<polyline fill="none" stroke="black" points="328.7,-63.23 276.76,-63.23 "/>
<polyline fill="none" stroke="black" points="328.7,-63.23 328.7,-46.7 "/>
<polyline fill="none" stroke="black" points="328.7,-63.23 330.76,-65.3 "/>
<text text-anchor="middle" x="303.76" y="-53.3" font-family="Helvetica,sans-Serif" font-size="9.00" fill="#c40b0a">cors</text>
</a>
</g>
</g>
<!-- node_modules/express -->
<g id="node5" class="node">
<title>node_modules/express</title>
<g id="a_node5"><a xlink:href="node_modules/express" xlink:title="express">
<polygon fill="#c40b0a" fill-opacity="0.101961" stroke="black" points="330.76,-34.3 278.83,-34.3 276.76,-32.23 276.76,-15.7 328.7,-15.7 330.76,-17.77 330.76,-34.3"/>
<polyline fill="none" stroke="black" points="328.7,-32.23 276.76,-32.23 "/>
<polyline fill="none" stroke="black" points="328.7,-32.23 328.7,-15.7 "/>
<polyline fill="none" stroke="black" points="328.7,-32.23 330.76,-34.3 "/>
<text text-anchor="middle" x="303.76" y="-22.3" font-family="Helvetica,sans-Serif" font-size="9.00" fill="#c40b0a">express</text>
</a>
</g>
</g>
<!-- node_modules/morgan -->
<g id="node6" class="node">
<title>node_modules/morgan</title>
<g id="a_node6"><a xlink:href="node_modules/morgan" xlink:title="morgan">
<polygon fill="#c40b0a" fill-opacity="0.101961" stroke="black" points="330.76,-127.3 278.83,-127.3 276.76,-125.23 276.76,-108.7 328.7,-108.7 330.76,-110.77 330.76,-127.3"/>
<polyline fill="none" stroke="black" points="328.7,-125.23 276.76,-125.23 "/>
<polyline fill="none" stroke="black" points="328.7,-125.23 328.7,-108.7 "/>
<polyline fill="none" stroke="black" points="328.7,-125.23 330.76,-127.3 "/>
<text text-anchor="middle" x="303.76" y="-115.3" font-family="Helvetica,sans-Serif" font-size="9.00" fill="#c40b0a">morgan</text>
</a>
</g>
</g>
<!-- path -->
<g id="node7" class="node">
<title>path</title>
<path fill="#ffffcc" stroke="grey" d="M324.56,-180.3C324.56,-180.3 282.96,-180.3 282.96,-180.3 279.86,-180.3 276.76,-177.2 276.76,-174.1 276.76,-174.1 276.76,-167.9 276.76,-167.9 276.76,-164.8 279.86,-161.7 282.96,-161.7 282.96,-161.7 324.56,-161.7 324.56,-161.7 327.66,-161.7 330.76,-164.8 330.76,-167.9 330.76,-167.9 330.76,-174.1 330.76,-174.1 330.76,-177.2 327.66,-180.3 324.56,-180.3"/>
<text text-anchor="middle" x="303.76" y="-168.3" font-family="Helvetica,sans-Serif" font-size="9.00" fill="grey">path</text>
</g>
<!-- using&#45;express/4&#45;express&#45;router/exercises/2&#45;refactor&#45;fs&#45;api/api/handlers.js -->
<g id="node8" class="node">
<title>using&#45;express/4&#45;express&#45;router/exercises/2&#45;refactor&#45;fs&#45;api/api/handlers.js</title>
<g id="a_node8"><a xlink:href="using-express/4-express-router/exercises/2-refactor-fs-api/api/handlers.js" xlink:title="handlers.js">
<path fill="#ffffcc" stroke="black" d="M235.06,-303.3C235.06,-303.3 188.45,-303.3 188.45,-303.3 185.34,-303.3 182.24,-300.2 182.24,-297.1 182.24,-297.1 182.24,-290.9 182.24,-290.9 182.24,-287.8 185.34,-284.7 188.45,-284.7 188.45,-284.7 235.06,-284.7 235.06,-284.7 238.16,-284.7 241.26,-287.8 241.26,-290.9 241.26,-290.9 241.26,-297.1 241.26,-297.1 241.26,-300.2 238.16,-303.3 235.06,-303.3"/>
<text text-anchor="middle" x="211.75" y="-291.3" font-family="Helvetica,sans-Serif" font-size="9.00">handlers.js</text>
</a>
</g>
</g>
<!-- using&#45;express/4&#45;express&#45;router/exercises/2&#45;refactor&#45;fs&#45;api/api/handlers.js&#45;&gt;fs -->
<g id="edge2" class="edge">
<title>using&#45;express/4&#45;express&#45;router/exercises/2&#45;refactor&#45;fs&#45;api/api/handlers.js&#45;&gt;fs</title>
<path fill="none" stroke="#000000" stroke-dasharray="5,2" stroke-opacity="0.200000" d="M241.44,-287.17C244.46,-285.54 247.24,-283.51 249.51,-281 259.62,-269.8 250.17,-261.19 257.51,-248 264.46,-235.49 275.74,-224.02 285.3,-215.65"/>
<polygon fill="#000000" fill-opacity="0.200000" stroke="#000000" stroke-opacity="0.200000" points="286.89,-217.06 290.11,-211.57 284.18,-213.85 286.89,-217.06"/>
</g>
<!-- using&#45;express/4&#45;express&#45;router/exercises/2&#45;refactor&#45;fs&#45;api/api/handlers.js&#45;&gt;path -->
<g id="edge3" class="edge">
<title>using&#45;express/4&#45;express&#45;router/exercises/2&#45;refactor&#45;fs&#45;api/api/handlers.js&#45;&gt;path</title>
<path fill="none" stroke="#000000" stroke-dasharray="5,2" stroke-opacity="0.200000" d="M241.47,-287.7C244.56,-285.97 247.36,-283.78 249.51,-281 262.33,-264.41 244.69,-203.59 257.51,-187 260.95,-182.54 265.73,-179.33 270.9,-177"/>
<polygon fill="#000000" fill-opacity="0.200000" stroke="#000000" stroke-opacity="0.200000" points="271.76,-178.92 276.61,-174.82 270.26,-175 271.76,-178.92"/>
</g>
<!-- using&#45;express/4&#45;express&#45;router/exercises/2&#45;refactor&#45;fs&#45;api/config/index.js -->
<g id="node9" class="node">
<title>using&#45;express/4&#45;express&#45;router/exercises/2&#45;refactor&#45;fs&#45;api/config/index.js</title>
<g id="a_node9"><a xlink:href="using-express/4-express-router/exercises/2-refactor-fs-api/config/index.js" xlink:title="index.js">
<path fill="#ffffcc" stroke="black" d="M324.56,-339.3C324.56,-339.3 282.96,-339.3 282.96,-339.3 279.86,-339.3 276.76,-336.2 276.76,-333.1 276.76,-333.1 276.76,-326.9 276.76,-326.9 276.76,-323.8 279.86,-320.7 282.96,-320.7 282.96,-320.7 324.56,-320.7 324.56,-320.7 327.66,-320.7 330.76,-323.8 330.76,-326.9 330.76,-326.9 330.76,-333.1 330.76,-333.1 330.76,-336.2 327.66,-339.3 324.56,-339.3"/>
<text text-anchor="middle" x="303.76" y="-327.3" font-family="Helvetica,sans-Serif" font-size="9.00">index.js</text>
</a>
</g>
</g>
<!-- using&#45;express/4&#45;express&#45;router/exercises/2&#45;refactor&#45;fs&#45;api/api/handlers.js&#45;&gt;using&#45;express/4&#45;express&#45;router/exercises/2&#45;refactor&#45;fs&#45;api/config/index.js -->
<g id="edge1" class="edge">
<title>using&#45;express/4&#45;express&#45;router/exercises/2&#45;refactor&#45;fs&#45;api/api/handlers.js&#45;&gt;using&#45;express/4&#45;express&#45;router/exercises/2&#45;refactor&#45;fs&#45;api/config/index.js</title>
<path fill="none" stroke="#000000" stroke-width="2" stroke-opacity="0.200000" d="M232.66,-303.31C240.36,-306.8 249.29,-310.72 257.51,-314 261.66,-315.66 266.05,-317.32 270.41,-318.92"/>
<polygon fill="#000000" fill-opacity="0.200000" stroke="#000000" stroke-width="2" stroke-opacity="0.200000" points="269.95,-320.99 276.31,-321.05 271.38,-317.04 269.95,-320.99"/>
</g>
<!-- using&#45;express/4&#45;express&#45;router/exercises/2&#45;refactor&#45;fs&#45;api/config/default.js -->
<g id="node12" class="node">
<title>using&#45;express/4&#45;express&#45;router/exercises/2&#45;refactor&#45;fs&#45;api/config/default.js</title>
<g id="a_node12"><a xlink:href="using-express/4-express-router/exercises/2-refactor-fs-api/config/default.js" xlink:title="default.js">
<path fill="#ffffcc" stroke="black" d="M402.82,-339.3C402.82,-339.3 361.22,-339.3 361.22,-339.3 358.12,-339.3 355.02,-336.2 355.02,-333.1 355.02,-333.1 355.02,-326.9 355.02,-326.9 355.02,-323.8 358.12,-320.7 361.22,-320.7 361.22,-320.7 402.82,-320.7 402.82,-320.7 405.92,-320.7 409.02,-323.8 409.02,-326.9 409.02,-326.9 409.02,-333.1 409.02,-333.1 409.02,-336.2 405.92,-339.3 402.82,-339.3"/>
<text text-anchor="middle" x="382.02" y="-327.3" font-family="Helvetica,sans-Serif" font-size="9.00">default.js</text>
</a>
</g>
</g>
<!-- using&#45;express/4&#45;express&#45;router/exercises/2&#45;refactor&#45;fs&#45;api/config/index.js&#45;&gt;using&#45;express/4&#45;express&#45;router/exercises/2&#45;refactor&#45;fs&#45;api/config/default.js -->
<g id="edge7" class="edge">
<title>using&#45;express/4&#45;express&#45;router/exercises/2&#45;refactor&#45;fs&#45;api/config/index.js&#45;&gt;using&#45;express/4&#45;express&#45;router/exercises/2&#45;refactor&#45;fs&#45;api/config/default.js</title>
<path fill="none" stroke="#000000" stroke-width="2" stroke-opacity="0.200000" d="M331.01,-330C336.7,-330 342.79,-330 348.69,-330"/>
<polygon fill="#000000" fill-opacity="0.200000" stroke="#000000" stroke-width="2" stroke-opacity="0.200000" points="348.99,-332.1 354.99,-330 348.99,-327.9 348.99,-332.1"/>
</g>
<!-- using&#45;express/4&#45;express&#45;router/exercises/2&#45;refactor&#45;fs&#45;api/api/index.js -->
<g id="node10" class="node">
<title>using&#45;express/4&#45;express&#45;router/exercises/2&#45;refactor&#45;fs&#45;api/api/index.js</title>
<g id="a_node10"><a xlink:href="using-express/4-express-router/exercises/2-refactor-fs-api/api/index.js" xlink:title="index.js">
<path fill="#ffffcc" stroke="black" d="M95.8,-303.3C95.8,-303.3 54.2,-303.3 54.2,-303.3 51.1,-303.3 48,-300.2 48,-297.1 48,-297.1 48,-290.9 48,-290.9 48,-287.8 51.1,-284.7 54.2,-284.7 54.2,-284.7 95.8,-284.7 95.8,-284.7 98.9,-284.7 102,-287.8 102,-290.9 102,-290.9 102,-297.1 102,-297.1 102,-300.2 98.9,-303.3 95.8,-303.3"/>
<text text-anchor="middle" x="75" y="-291.3" font-family="Helvetica,sans-Serif" font-size="9.00">index.js</text>
</a>
</g>
</g>
<!-- using&#45;express/4&#45;express&#45;router/exercises/2&#45;refactor&#45;fs&#45;api/api/routes.js -->
<g id="node11" class="node">
<title>using&#45;express/4&#45;express&#45;router/exercises/2&#45;refactor&#45;fs&#45;api/api/routes.js</title>
<g id="a_node11"><a xlink:href="using-express/4-express-router/exercises/2-refactor-fs-api/api/routes.js" xlink:title="routes.js">
<path fill="#ffffcc" stroke="black" d="M162.8,-303.3C162.8,-303.3 121.2,-303.3 121.2,-303.3 118.1,-303.3 115,-300.2 115,-297.1 115,-297.1 115,-290.9 115,-290.9 115,-287.8 118.1,-284.7 121.2,-284.7 121.2,-284.7 162.8,-284.7 162.8,-284.7 165.9,-284.7 169,-287.8 169,-290.9 169,-290.9 169,-297.1 169,-297.1 169,-300.2 165.9,-303.3 162.8,-303.3"/>
<text text-anchor="middle" x="142" y="-291.3" font-family="Helvetica,sans-Serif" font-size="9.00">routes.js</text>
</a>
</g>
</g>
<!-- using&#45;express/4&#45;express&#45;router/exercises/2&#45;refactor&#45;fs&#45;api/api/index.js&#45;&gt;using&#45;express/4&#45;express&#45;router/exercises/2&#45;refactor&#45;fs&#45;api/api/routes.js -->
<g id="edge4" class="edge">
<title>using&#45;express/4&#45;express&#45;router/exercises/2&#45;refactor&#45;fs&#45;api/api/index.js&#45;&gt;using&#45;express/4&#45;express&#45;router/exercises/2&#45;refactor&#45;fs&#45;api/api/routes.js</title>
<path fill="none" stroke="#000000" stroke-width="2" stroke-opacity="0.200000" d="M102.06,-294C104.32,-294 106.61,-294 108.9,-294"/>
<polygon fill="#000000" fill-opacity="0.200000" stroke="#000000" stroke-width="2" stroke-opacity="0.200000" points="108.93,-296.1 114.93,-294 108.93,-291.9 108.93,-296.1"/>
</g>
<!-- using&#45;express/4&#45;express&#45;router/exercises/2&#45;refactor&#45;fs&#45;api/api/routes.js&#45;&gt;node_modules/express -->
<g id="edge6" class="edge">
<title>using&#45;express/4&#45;express&#45;router/exercises/2&#45;refactor&#45;fs&#45;api/api/routes.js&#45;&gt;node_modules/express</title>
<path fill="none" stroke="#000000" stroke-opacity="0.200000" d="M144.52,-284.65C150.97,-248.02 179.38,-112.74 257.51,-41 261.3,-37.52 265.9,-34.78 270.7,-32.64"/>
<polygon fill="#000000" fill-opacity="0.200000" stroke="#000000" stroke-opacity="0.200000" points="271.58,-34.55 276.38,-30.38 270.03,-30.64 271.58,-34.55"/>
</g>
<!-- using&#45;express/4&#45;express&#45;router/exercises/2&#45;refactor&#45;fs&#45;api/api/routes.js&#45;&gt;using&#45;express/4&#45;express&#45;router/exercises/2&#45;refactor&#45;fs&#45;api/api/handlers.js -->
<g id="edge5" class="edge">
<title>using&#45;express/4&#45;express&#45;router/exercises/2&#45;refactor&#45;fs&#45;api/api/routes.js&#45;&gt;using&#45;express/4&#45;express&#45;router/exercises/2&#45;refactor&#45;fs&#45;api/api/handlers.js</title>
<path fill="none" stroke="#000000" stroke-width="2" stroke-opacity="0.200000" d="M169,-294C171.3,-294 173.65,-294 176.01,-294"/>
<polygon fill="#000000" fill-opacity="0.200000" stroke="#000000" stroke-width="2" stroke-opacity="0.200000" points="176.23,-296.1 182.23,-294 176.23,-291.9 176.23,-296.1"/>
</g>
<!-- using&#45;express/4&#45;express&#45;router/exercises/2&#45;refactor&#45;fs&#45;api/config/development.js -->
<g id="node13" class="node">
<title>using&#45;express/4&#45;express&#45;router/exercises/2&#45;refactor&#45;fs&#45;api/config/development.js</title>
<g id="a_node13"><a xlink:href="using-express/4-express-router/exercises/2-refactor-fs-api/config/development.js" xlink:title="development.js">
<path fill="#ccffcc" stroke="black" d="M335.58,-308.3C335.58,-308.3 271.95,-308.3 271.95,-308.3 268.85,-308.3 265.75,-305.2 265.75,-302.1 265.75,-302.1 265.75,-295.9 265.75,-295.9 265.75,-292.8 268.85,-289.7 271.95,-289.7 271.95,-289.7 335.58,-289.7 335.58,-289.7 338.68,-289.7 341.78,-292.8 341.78,-295.9 341.78,-295.9 341.78,-302.1 341.78,-302.1 341.78,-305.2 338.68,-308.3 335.58,-308.3"/>
<text text-anchor="middle" x="303.76" y="-296.3" font-family="Helvetica,sans-Serif" font-size="9.00">development.js</text>
</a>
</g>
</g>
<!-- using&#45;express/4&#45;express&#45;router/exercises/2&#45;refactor&#45;fs&#45;api/config/production.js -->
<g id="node14" class="node">
<title>using&#45;express/4&#45;express&#45;router/exercises/2&#45;refactor&#45;fs&#45;api/config/production.js</title>
<g id="a_node14"><a xlink:href="using-express/4-express-router/exercises/2-refactor-fs-api/config/production.js" xlink:title="production.js">
<path fill="#ccffcc" stroke="black" d="M331.07,-277.3C331.07,-277.3 276.45,-277.3 276.45,-277.3 273.35,-277.3 270.25,-274.2 270.25,-271.1 270.25,-271.1 270.25,-264.9 270.25,-264.9 270.25,-261.8 273.35,-258.7 276.45,-258.7 276.45,-258.7 331.07,-258.7 331.07,-258.7 334.17,-258.7 337.28,-261.8 337.28,-264.9 337.28,-264.9 337.28,-271.1 337.28,-271.1 337.28,-274.2 334.17,-277.3 331.07,-277.3"/>
<text text-anchor="middle" x="303.76" y="-265.3" font-family="Helvetica,sans-Serif" font-size="9.00">production.js</text>
</a>
</g>
</g>
<!-- using&#45;express/4&#45;express&#45;router/exercises/2&#45;refactor&#45;fs&#45;api/index.js -->
<g id="node15" class="node">
<title>using&#45;express/4&#45;express&#45;router/exercises/2&#45;refactor&#45;fs&#45;api/index.js</title>
<g id="a_node15"><a xlink:href="using-express/4-express-router/exercises/2-refactor-fs-api/index.js" xlink:title="index.js">
<path fill="#ffffcc" stroke="black" d="M232.55,-269.3C232.55,-269.3 190.95,-269.3 190.95,-269.3 187.85,-269.3 184.75,-266.2 184.75,-263.1 184.75,-263.1 184.75,-256.9 184.75,-256.9 184.75,-253.8 187.85,-250.7 190.95,-250.7 190.95,-250.7 232.55,-250.7 232.55,-250.7 235.65,-250.7 238.75,-253.8 238.75,-256.9 238.75,-256.9 238.75,-263.1 238.75,-263.1 238.75,-266.2 235.65,-269.3 232.55,-269.3"/>
<text text-anchor="middle" x="211.75" y="-257.3" font-family="Helvetica,sans-Serif" font-size="9.00">index.js</text>
</a>
</g>
</g>
<!-- using&#45;express/4&#45;express&#45;router/exercises/2&#45;refactor&#45;fs&#45;api/index.js&#45;&gt;fs -->
<g id="edge12" class="edge">
<title>using&#45;express/4&#45;express&#45;router/exercises/2&#45;refactor&#45;fs&#45;api/index.js&#45;&gt;fs</title>
<path fill="none" stroke="#000000" stroke-dasharray="5,2" stroke-opacity="0.200000" d="M227.22,-250.68C242.22,-241.01 265.79,-225.82 282.61,-214.98"/>
<polygon fill="#000000" fill-opacity="0.200000" stroke="#000000" stroke-opacity="0.200000" points="284.13,-216.5 288.04,-211.49 281.86,-212.97 284.13,-216.5"/>
</g>
<!-- using&#45;express/4&#45;express&#45;router/exercises/2&#45;refactor&#45;fs&#45;api/index.js&#45;&gt;node_modules/body&#45;parser -->
<g id="edge9" class="edge">
<title>using&#45;express/4&#45;express&#45;router/exercises/2&#45;refactor&#45;fs&#45;api/index.js&#45;&gt;node_modules/body&#45;parser</title>
<path fill="none" stroke="#000000" stroke-opacity="0.200000" d="M215.83,-250.57C222.44,-230.17 238.3,-180.34 249.51,-138 253.59,-122.57 246.89,-114.91 257.51,-103 259.86,-100.36 262.68,-98.15 265.75,-96.31"/>
<polygon fill="#000000" fill-opacity="0.200000" stroke="#000000" stroke-opacity="0.200000" points="267.11,-97.97 271.49,-93.37 265.19,-94.23 267.11,-97.97"/>
</g>
<!-- using&#45;express/4&#45;express&#45;router/exercises/2&#45;refactor&#45;fs&#45;api/index.js&#45;&gt;node_modules/cors -->
<g id="edge10" class="edge">
<title>using&#45;express/4&#45;express&#45;router/exercises/2&#45;refactor&#45;fs&#45;api/index.js&#45;&gt;node_modules/cors</title>
<path fill="none" stroke="#000000" stroke-opacity="0.200000" d="M216.17,-250.65C223.45,-230.41 240.52,-180.87 249.51,-138 252.54,-123.54 248.27,-83.53 257.51,-72 261.03,-67.61 265.84,-64.42 271.02,-62.1"/>
<polygon fill="#000000" fill-opacity="0.200000" stroke="#000000" stroke-opacity="0.200000" points="271.89,-64.02 276.75,-59.92 270.39,-60.1 271.89,-64.02"/>
</g>
<!-- using&#45;express/4&#45;express&#45;router/exercises/2&#45;refactor&#45;fs&#45;api/index.js&#45;&gt;node_modules/express -->
<g id="edge11" class="edge">
<title>using&#45;express/4&#45;express&#45;router/exercises/2&#45;refactor&#45;fs&#45;api/index.js&#45;&gt;node_modules/express</title>
<path fill="none" stroke="#000000" stroke-opacity="0.200000" d="M216.3,-250.68C223.82,-230.48 241.34,-181.03 249.51,-138 253.54,-116.75 244.3,-58.13 257.51,-41 260.94,-36.54 265.72,-33.32 270.89,-31"/>
<polygon fill="#000000" fill-opacity="0.200000" stroke="#000000" stroke-opacity="0.200000" points="271.75,-32.91 276.6,-28.81 270.25,-28.99 271.75,-32.91"/>
</g>
<!-- using&#45;express/4&#45;express&#45;router/exercises/2&#45;refactor&#45;fs&#45;api/index.js&#45;&gt;node_modules/morgan -->
<g id="edge13" class="edge">
<title>using&#45;express/4&#45;express&#45;router/exercises/2&#45;refactor&#45;fs&#45;api/index.js&#45;&gt;node_modules/morgan</title>
<path fill="none" stroke="#000000" stroke-opacity="0.200000" d="M215.19,-250.63C220.5,-231.46 234.52,-186.92 257.51,-156 264.5,-146.59 274.27,-138.01 282.94,-131.39"/>
<polygon fill="#000000" fill-opacity="0.200000" stroke="#000000" stroke-opacity="0.200000" points="284.59,-132.79 288.17,-127.54 282.09,-129.41 284.59,-132.79"/>
</g>
<!-- using&#45;express/4&#45;express&#45;router/exercises/2&#45;refactor&#45;fs&#45;api/index.js&#45;&gt;path -->
<g id="edge14" class="edge">
<title>using&#45;express/4&#45;express&#45;router/exercises/2&#45;refactor&#45;fs&#45;api/index.js&#45;&gt;path</title>
<path fill="none" stroke="#000000" stroke-dasharray="5,2" stroke-opacity="0.200000" d="M216.14,-250.51C222.13,-235.05 236.01,-204.39 257.51,-187 261.33,-183.9 265.8,-181.38 270.42,-179.34"/>
<polygon fill="#000000" fill-opacity="0.200000" stroke="#000000" stroke-opacity="0.200000" points="271.5,-181.17 276.3,-177 269.95,-177.27 271.5,-181.17"/>
</g>
<!-- using&#45;express/4&#45;express&#45;router/exercises/2&#45;refactor&#45;fs&#45;api/index.js&#45;&gt;using&#45;express/4&#45;express&#45;router/exercises/2&#45;refactor&#45;fs&#45;api/config/index.js -->
<g id="edge8" class="edge">
<title>using&#45;express/4&#45;express&#45;router/exercises/2&#45;refactor&#45;fs&#45;api/index.js&#45;&gt;using&#45;express/4&#45;express&#45;router/exercises/2&#45;refactor&#45;fs&#45;api/config/index.js</title>
<path fill="none" stroke="#000000" stroke-width="2" stroke-opacity="0.200000" d="M239,-266.18C242.98,-268.12 246.68,-270.66 249.51,-274 261.22,-287.84 245.63,-300.3 257.51,-314 261.11,-318.16 265.88,-321.24 270.96,-323.52"/>
<polygon fill="#000000" fill-opacity="0.200000" stroke="#000000" stroke-width="2" stroke-opacity="0.200000" points="270.2,-325.48 276.55,-325.69 271.72,-321.56 270.2,-325.48"/>
</g>
</g>
</svg>
