<?xml version="1.0" encoding="UTF-8" standalone="no"?>
<!DOCTYPE svg PUBLIC "-//W3C//DTD SVG 1.1//EN"
 "http://www.w3.org/Graphics/SVG/1.1/DTD/svg11.dtd">
<!-- Generated by graphviz version 2.44.0 (20200408.0750)
 -->
<!-- Title: dependency&#45;cruiser output Pages: 1 -->
<svg width="433pt" height="501pt"
 viewBox="0.00 0.00 433.27 500.67" xmlns="http://www.w3.org/2000/svg" xmlns:xlink="http://www.w3.org/1999/xlink">
<g id="graph0" class="graph" transform="scale(1 1) rotate(0) translate(4 496.67)">
<title>dependency&#45;cruiser output</title>
<polygon fill="white" stroke="transparent" points="-4,4 -4,-496.67 429.27,-496.67 429.27,4 -4,4"/>
<g id="clust1" class="cluster">
<title>cluster_node_modules</title>
<path fill="#ffffff" stroke="black" stroke-width="2" d="M273.51,-49.67C273.51,-49.67 329.52,-49.67 329.52,-49.67 335.52,-49.67 341.52,-55.67 341.52,-61.67 341.52,-61.67 341.52,-183.67 341.52,-183.67 341.52,-189.67 335.52,-195.67 329.52,-195.67 329.52,-195.67 273.51,-195.67 273.51,-195.67 267.51,-195.67 261.51,-189.67 261.51,-183.67 261.51,-183.67 261.51,-61.67 261.51,-61.67 261.51,-55.67 267.51,-49.67 273.51,-49.67"/>
<text text-anchor="middle" x="301.52" y="-183.57" font-family="Helvetica,sans-Serif" font-weight="bold" font-size="9.00">node_modules</text>
</g>
<g id="clust2" class="cluster">
<title>cluster_reverse&#45;engineer</title>
<path fill="#ffffff" stroke="black" stroke-width="2" d="M20,-203.67C20,-203.67 351.27,-203.67 351.27,-203.67 357.27,-203.67 363.27,-209.67 363.27,-215.67 363.27,-215.67 363.27,-472.67 363.27,-472.67 363.27,-478.67 357.27,-484.67 351.27,-484.67 351.27,-484.67 20,-484.67 20,-484.67 14,-484.67 8,-478.67 8,-472.67 8,-472.67 8,-215.67 8,-215.67 8,-209.67 14,-203.67 20,-203.67"/>
<text text-anchor="middle" x="185.64" y="-472.57" font-family="Helvetica,sans-Serif" font-weight="bold" font-size="9.00">reverse&#45;engineer</text>
</g>
<g id="clust3" class="cluster">
<title>cluster_reverse&#45;engineer/textidor&#45;series</title>
<path fill="#ffffff" stroke="black" stroke-width="2" d="M28,-211.67C28,-211.67 343.27,-211.67 343.27,-211.67 349.27,-211.67 355.27,-217.67 355.27,-223.67 355.27,-223.67 355.27,-445.67 355.27,-445.67 355.27,-451.67 349.27,-457.67 343.27,-457.67 343.27,-457.67 28,-457.67 28,-457.67 22,-457.67 16,-451.67 16,-445.67 16,-445.67 16,-223.67 16,-223.67 16,-217.67 22,-211.67 28,-211.67"/>
<text text-anchor="middle" x="185.64" y="-445.57" font-family="Helvetica,sans-Serif" font-weight="bold" font-size="9.00">textidor&#45;series</text>
</g>
<g id="clust4" class="cluster">
<title>cluster_reverse&#45;engineer/textidor&#45;series/3&#45;textidor&#45;validated</title>
<path fill="#ffffff" stroke="black" stroke-width="2" d="M36,-219.67C36,-219.67 335.27,-219.67 335.27,-219.67 341.27,-219.67 347.27,-225.67 347.27,-231.67 347.27,-231.67 347.27,-418.67 347.27,-418.67 347.27,-424.67 341.27,-430.67 335.27,-430.67 335.27,-430.67 36,-430.67 36,-430.67 30,-430.67 24,-424.67 24,-418.67 24,-418.67 24,-231.67 24,-231.67 24,-225.67 30,-219.67 36,-219.67"/>
<text text-anchor="middle" x="185.64" y="-418.57" font-family="Helvetica,sans-Serif" font-weight="bold" font-size="9.00">3&#45;textidor&#45;validated</text>
</g>
<g id="clust5" class="cluster">
<title>cluster_reverse&#45;engineer/textidor&#45;series/3&#45;textidor&#45;validated/api</title>
<path fill="#ffffff" stroke="black" stroke-width="2" d="M117.26,-227.67C117.26,-227.67 327.27,-227.67 327.27,-227.67 333.27,-227.67 339.27,-233.67 339.27,-239.67 339.27,-239.67 339.27,-268.67 339.27,-268.67 339.27,-274.67 333.27,-280.67 327.27,-280.67 327.27,-280.67 117.26,-280.67 117.26,-280.67 111.26,-280.67 105.26,-274.67 105.26,-268.67 105.26,-268.67 105.26,-239.67 105.26,-239.67 105.26,-233.67 111.26,-227.67 117.26,-227.67"/>
<text text-anchor="middle" x="222.26" y="-268.57" font-family="Helvetica,sans-Serif" font-weight="bold" font-size="9.00">api</text>
</g>
<g id="clust6" class="cluster">
<title>cluster_reverse&#45;engineer/textidor&#45;series/3&#45;textidor&#45;validated/config</title>
<path fill="#ffffff" stroke="black" stroke-width="2" d="M106,-288.67C106,-288.67 241.51,-288.67 241.51,-288.67 247.51,-288.67 253.51,-294.67 253.51,-300.67 253.51,-300.67 253.51,-391.67 253.51,-391.67 253.51,-397.67 247.51,-403.67 241.51,-403.67 241.51,-403.67 106,-403.67 106,-403.67 100,-403.67 94,-397.67 94,-391.67 94,-391.67 94,-300.67 94,-300.67 94,-294.67 100,-288.67 106,-288.67"/>
<text text-anchor="middle" x="173.76" y="-391.57" font-family="Helvetica,sans-Serif" font-weight="bold" font-size="9.00">config</text>
</g>
<!-- fs -->
<g id="node1" class="node">
<title>fs</title>
<path fill="#ffffcc" stroke="grey" d="M419.07,-355.97C419.07,-355.97 377.47,-355.97 377.47,-355.97 374.37,-355.97 371.27,-352.87 371.27,-349.77 371.27,-349.77 371.27,-343.56 371.27,-343.56 371.27,-340.46 374.37,-337.36 377.47,-337.36 377.47,-337.36 419.07,-337.36 419.07,-337.36 422.17,-337.36 425.27,-340.46 425.27,-343.56 425.27,-343.56 425.27,-349.77 425.27,-349.77 425.27,-352.87 422.17,-355.97 419.07,-355.97"/>
<text text-anchor="middle" x="398.27" y="-343.97" font-family="Helvetica,sans-Serif" font-size="9.00" fill="grey">fs</text>
</g>
<!-- node_modules/body&#45;parser -->
<g id="node2" class="node">
<title>node_modules/body&#45;parser</title>
<g id="a_node2"><a xlink:href="node_modules/body-parser" xlink:title="body&#45;parser">
<polygon fill="#c40b0a" fill-opacity="0.101961" stroke="black" points="333.52,-75.97 271.58,-75.97 269.51,-73.9 269.51,-57.36 331.46,-57.36 333.52,-59.43 333.52,-75.97"/>
<polyline fill="none" stroke="black" points="331.46,-73.9 269.51,-73.9 "/>
<polyline fill="none" stroke="black" points="331.46,-73.9 331.46,-57.36 "/>
<polyline fill="none" stroke="black" points="331.46,-73.9 333.52,-75.97 "/>
<text text-anchor="middle" x="301.52" y="-63.97" font-family="Helvetica,sans-Serif" font-size="9.00" fill="#c40b0a">body&#45;parser</text>
</a>
</g>
</g>
<!-- node_modules/cors -->
<g id="node3" class="node">
<title>node_modules/cors</title>
<g id="a_node3"><a xlink:href="node_modules/cors" xlink:title="cors">
<polygon fill="#c40b0a" fill-opacity="0.101961" stroke="black" points="328.52,-137.97 276.58,-137.97 274.52,-135.9 274.52,-119.36 326.45,-119.36 328.52,-121.43 328.52,-137.97"/>
<polyline fill="none" stroke="black" points="326.45,-135.9 274.52,-135.9 "/>
<polyline fill="none" stroke="black" points="326.45,-135.9 326.45,-119.36 "/>
<polyline fill="none" stroke="black" points="326.45,-135.9 328.52,-137.97 "/>
<text text-anchor="middle" x="301.52" y="-125.97" font-family="Helvetica,sans-Serif" font-size="9.00" fill="#c40b0a">cors</text>
</a>
</g>
</g>
<!-- node_modules/express -->
<g id="node4" class="node">
<title>node_modules/express</title>
<g id="a_node4"><a xlink:href="node_modules/express" xlink:title="express">
<polygon fill="#c40b0a" fill-opacity="0.101961" stroke="black" points="328.52,-168.97 276.58,-168.97 274.52,-166.9 274.52,-150.36 326.45,-150.36 328.52,-152.43 328.52,-168.97"/>
<polyline fill="none" stroke="black" points="326.45,-166.9 274.52,-166.9 "/>
<polyline fill="none" stroke="black" points="326.45,-166.9 326.45,-150.36 "/>
<polyline fill="none" stroke="black" points="326.45,-166.9 328.52,-168.97 "/>
<text text-anchor="middle" x="301.52" y="-156.97" font-family="Helvetica,sans-Serif" font-size="9.00" fill="#c40b0a">express</text>
</a>
</g>
</g>
<!-- node_modules/morgan -->
<g id="node5" class="node">
<title>node_modules/morgan</title>
<g id="a_node5"><a xlink:href="node_modules/morgan" xlink:title="morgan">
<polygon fill="#c40b0a" fill-opacity="0.101961" stroke="black" points="328.52,-106.97 276.58,-106.97 274.52,-104.9 274.52,-88.36 326.45,-88.36 328.52,-90.43 328.52,-106.97"/>
<polyline fill="none" stroke="black" points="326.45,-104.9 274.52,-104.9 "/>
<polyline fill="none" stroke="black" points="326.45,-104.9 326.45,-88.36 "/>
<polyline fill="none" stroke="black" points="326.45,-104.9 328.52,-106.97 "/>
<text text-anchor="middle" x="301.52" y="-94.97" font-family="Helvetica,sans-Serif" font-size="9.00" fill="#c40b0a">morgan</text>
</a>
</g>
</g>
<!-- path -->
<g id="node6" class="node">
<title>path</title>
<path fill="#ffffcc" stroke="grey" d="M419.07,-133.97C419.07,-133.97 377.47,-133.97 377.47,-133.97 374.37,-133.97 371.27,-130.87 371.27,-127.77 371.27,-127.77 371.27,-121.56 371.27,-121.56 371.27,-118.46 374.37,-115.36 377.47,-115.36 377.47,-115.36 419.07,-115.36 419.07,-115.36 422.17,-115.36 425.27,-118.46 425.27,-121.56 425.27,-121.56 425.27,-127.77 425.27,-127.77 425.27,-130.87 422.17,-133.97 419.07,-133.97"/>
<text text-anchor="middle" x="398.27" y="-121.97" font-family="Helvetica,sans-Serif" font-size="9.00" fill="grey">path</text>
</g>
<!-- reverse&#45;engineer/textidor&#45;series/3&#45;textidor&#45;validated/api/handlers.js -->
<g id="node7" class="node">
<title>reverse&#45;engineer/textidor&#45;series/3&#45;textidor&#45;validated/api/handlers.js</title>
<g id="a_node7"><a xlink:href="reverse-engineer/textidor-series/3-textidor-validated/api/handlers.js" xlink:title="handlers.js">
<path fill="#ffffcc" stroke="black" d="M324.83,-253.97C324.83,-253.97 278.21,-253.97 278.21,-253.97 275.11,-253.97 272.01,-250.87 272.01,-247.77 272.01,-247.77 272.01,-241.56 272.01,-241.56 272.01,-238.46 275.11,-235.36 278.21,-235.36 278.21,-235.36 324.83,-235.36 324.83,-235.36 327.93,-235.36 331.03,-238.46 331.03,-241.56 331.03,-241.56 331.03,-247.77 331.03,-247.77 331.03,-250.87 327.93,-253.97 324.83,-253.97"/>
<text text-anchor="middle" x="301.52" y="-241.97" font-family="Helvetica,sans-Serif" font-size="9.00">handlers.js</text>
</a>
</g>
</g>
<!-- reverse&#45;engineer/textidor&#45;series/3&#45;textidor&#45;validated/api/handlers.js&#45;&gt;fs -->
<g id="edge1" class="edge">
<title>reverse&#45;engineer/textidor&#45;series/3&#45;textidor&#45;validated/api/handlers.js&#45;&gt;fs</title>
<path fill="none" stroke="#000000" stroke-dasharray="5,2" stroke-opacity="0.200000" d="M331.09,-245.08C342.23,-246.59 354.42,-250.09 363.27,-257.67 385.26,-276.5 393.08,-311.19 395.82,-331.25"/>
<polygon fill="#000000" fill-opacity="0.200000" stroke="#000000" stroke-opacity="0.200000" points="393.73,-331.5 396.54,-337.21 397.9,-331 393.73,-331.5"/>
</g>
<!-- reverse&#45;engineer/textidor&#45;series/3&#45;textidor&#45;validated/api/handlers.js&#45;&gt;path -->
<g id="edge2" class="edge">
<title>reverse&#45;engineer/textidor&#45;series/3&#45;textidor&#45;validated/api/handlers.js&#45;&gt;path</title>
<path fill="none" stroke="#000000" stroke-dasharray="5,2" stroke-opacity="0.200000" d="M319.02,-235.33C332.37,-227.1 350.93,-214.03 363.27,-198.67 377.65,-180.76 387.47,-155.78 392.73,-139.92"/>
<polygon fill="#000000" fill-opacity="0.200000" stroke="#000000" stroke-opacity="0.200000" points="394.76,-140.47 394.58,-134.12 390.76,-139.2 394.76,-140.47"/>
</g>
<!-- util -->
<g id="node8" class="node">
<title>util</title>
<path fill="#ffffcc" stroke="grey" d="M419.07,-253.97C419.07,-253.97 377.47,-253.97 377.47,-253.97 374.37,-253.97 371.27,-250.87 371.27,-247.77 371.27,-247.77 371.27,-241.56 371.27,-241.56 371.27,-238.46 374.37,-235.36 377.47,-235.36 377.47,-235.36 419.07,-235.36 419.07,-235.36 422.17,-235.36 425.27,-238.46 425.27,-241.56 425.27,-241.56 425.27,-247.77 425.27,-247.77 425.27,-250.87 422.17,-253.97 419.07,-253.97"/>
<text text-anchor="middle" x="398.27" y="-241.97" font-family="Helvetica,sans-Serif" font-size="9.00" fill="grey">util</text>
</g>
<!-- reverse&#45;engineer/textidor&#45;series/3&#45;textidor&#45;validated/api/handlers.js&#45;&gt;util -->
<g id="edge3" class="edge">
<title>reverse&#45;engineer/textidor&#45;series/3&#45;textidor&#45;validated/api/handlers.js&#45;&gt;util</title>
<path fill="none" stroke="#000000" stroke-dasharray="5,2" stroke-opacity="0.200000" d="M331.2,-244.67C341.86,-244.67 354.02,-244.67 364.97,-244.67"/>
<polygon fill="#000000" fill-opacity="0.200000" stroke="#000000" stroke-opacity="0.200000" points="365.26,-246.77 371.26,-244.67 365.26,-242.57 365.26,-246.77"/>
</g>
<!-- reverse&#45;engineer/textidor&#45;series/3&#45;textidor&#45;validated/api/index.js -->
<g id="node9" class="node">
<title>reverse&#45;engineer/textidor&#45;series/3&#45;textidor&#45;validated/api/index.js</title>
<g id="a_node9"><a xlink:href="reverse-engineer/textidor-series/3-textidor-validated/api/index.js" xlink:title="index.js">
<path fill="#ffffcc" stroke="black" d="M161.06,-253.97C161.06,-253.97 119.46,-253.97 119.46,-253.97 116.36,-253.97 113.26,-250.87 113.26,-247.77 113.26,-247.77 113.26,-241.56 113.26,-241.56 113.26,-238.46 116.36,-235.36 119.46,-235.36 119.46,-235.36 161.06,-235.36 161.06,-235.36 164.16,-235.36 167.26,-238.46 167.26,-241.56 167.26,-241.56 167.26,-247.77 167.26,-247.77 167.26,-250.87 164.16,-253.97 161.06,-253.97"/>
<text text-anchor="middle" x="140.26" y="-241.97" font-family="Helvetica,sans-Serif" font-size="9.00">index.js</text>
</a>
</g>
</g>
<!-- reverse&#45;engineer/textidor&#45;series/3&#45;textidor&#45;validated/api/routes.js -->
<g id="node10" class="node">
<title>reverse&#45;engineer/textidor&#45;series/3&#45;textidor&#45;validated/api/routes.js</title>
<g id="a_node10"><a xlink:href="reverse-engineer/textidor-series/3-textidor-validated/api/routes.js" xlink:title="routes.js">
<path fill="#ffffcc" stroke="black" d="M239.31,-253.97C239.31,-253.97 197.71,-253.97 197.71,-253.97 194.61,-253.97 191.51,-250.87 191.51,-247.77 191.51,-247.77 191.51,-241.56 191.51,-241.56 191.51,-238.46 194.61,-235.36 197.71,-235.36 197.71,-235.36 239.31,-235.36 239.31,-235.36 242.41,-235.36 245.51,-238.46 245.51,-241.56 245.51,-241.56 245.51,-247.77 245.51,-247.77 245.51,-250.87 242.41,-253.97 239.31,-253.97"/>
<text text-anchor="middle" x="218.51" y="-241.97" font-family="Helvetica,sans-Serif" font-size="9.00">routes.js</text>
</a>
</g>
</g>
<!-- reverse&#45;engineer/textidor&#45;series/3&#45;textidor&#45;validated/api/index.js&#45;&gt;reverse&#45;engineer/textidor&#45;series/3&#45;textidor&#45;validated/api/routes.js -->
<g id="edge4" class="edge">
<title>reverse&#45;engineer/textidor&#45;series/3&#45;textidor&#45;validated/api/index.js&#45;&gt;reverse&#45;engineer/textidor&#45;series/3&#45;textidor&#45;validated/api/routes.js</title>
<path fill="none" stroke="#000000" stroke-width="2" stroke-opacity="0.200000" d="M167.5,-244.67C173.2,-244.67 179.28,-244.67 185.18,-244.67"/>
<polygon fill="#000000" fill-opacity="0.200000" stroke="#000000" stroke-width="2" stroke-opacity="0.200000" points="185.48,-246.77 191.48,-244.67 185.48,-242.57 185.48,-246.77"/>
</g>
<!-- reverse&#45;engineer/textidor&#45;series/3&#45;textidor&#45;validated/api/routes.js&#45;&gt;node_modules/express -->
<g id="edge6" class="edge">
<title>reverse&#45;engineer/textidor&#45;series/3&#45;textidor&#45;validated/api/routes.js&#45;&gt;node_modules/express</title>
<path fill="none" stroke="#000000" stroke-opacity="0.200000" d="M228.49,-235.24C242.72,-220.31 270.55,-191.11 287.14,-173.7"/>
<polygon fill="#000000" fill-opacity="0.200000" stroke="#000000" stroke-opacity="0.200000" points="288.88,-174.92 291.5,-169.13 285.84,-172.02 288.88,-174.92"/>
</g>
<!-- reverse&#45;engineer/textidor&#45;series/3&#45;textidor&#45;validated/api/routes.js&#45;&gt;reverse&#45;engineer/textidor&#45;series/3&#45;textidor&#45;validated/api/handlers.js -->
<g id="edge5" class="edge">
<title>reverse&#45;engineer/textidor&#45;series/3&#45;textidor&#45;validated/api/routes.js&#45;&gt;reverse&#45;engineer/textidor&#45;series/3&#45;textidor&#45;validated/api/handlers.js</title>
<path fill="none" stroke="#000000" stroke-width="2" stroke-opacity="0.200000" d="M245.59,-244.67C252.03,-244.67 259.04,-244.67 265.82,-244.67"/>
<polygon fill="#000000" fill-opacity="0.200000" stroke="#000000" stroke-width="2" stroke-opacity="0.200000" points="265.97,-246.77 271.97,-244.67 265.97,-242.57 265.97,-246.77"/>
</g>
<!-- reverse&#45;engineer/textidor&#45;series/3&#45;textidor&#45;validated/config/default.js -->
<g id="node11" class="node">
<title>reverse&#45;engineer/textidor&#45;series/3&#45;textidor&#45;validated/config/default.js</title>
<g id="a_node11"><a xlink:href="reverse-engineer/textidor-series/3-textidor-validated/config/default.js" xlink:title="default.js">
<path fill="#ffffcc" stroke="black" d="M239.31,-345.97C239.31,-345.97 197.71,-345.97 197.71,-345.97 194.61,-345.97 191.51,-342.87 191.51,-339.77 191.51,-339.77 191.51,-333.56 191.51,-333.56 191.51,-330.46 194.61,-327.36 197.71,-327.36 197.71,-327.36 239.31,-327.36 239.31,-327.36 242.41,-327.36 245.51,-330.46 245.51,-333.56 245.51,-333.56 245.51,-339.77 245.51,-339.77 245.51,-342.87 242.41,-345.97 239.31,-345.97"/>
<text text-anchor="middle" x="218.51" y="-333.97" font-family="Helvetica,sans-Serif" font-size="9.00">default.js</text>
</a>
</g>
</g>
<!-- reverse&#45;engineer/textidor&#45;series/3&#45;textidor&#45;validated/config/development.js -->
<g id="node12" class="node">
<title>reverse&#45;engineer/textidor&#45;series/3&#45;textidor&#45;validated/config/development.js</title>
<g id="a_node12"><a xlink:href="reverse-engineer/textidor-series/3-textidor-validated/config/development.js" xlink:title="development.js">
<path fill="#ccffcc" stroke="black" d="M172.07,-376.97C172.07,-376.97 108.44,-376.97 108.44,-376.97 105.34,-376.97 102.24,-373.87 102.24,-370.77 102.24,-370.77 102.24,-364.56 102.24,-364.56 102.24,-361.46 105.34,-358.36 108.44,-358.36 108.44,-358.36 172.07,-358.36 172.07,-358.36 175.17,-358.36 178.27,-361.46 178.27,-364.56 178.27,-364.56 178.27,-370.77 178.27,-370.77 178.27,-373.87 175.17,-376.97 172.07,-376.97"/>
<text text-anchor="middle" x="140.26" y="-364.97" font-family="Helvetica,sans-Serif" font-size="9.00">development.js</text>
</a>
</g>
</g>
<!-- reverse&#45;engineer/textidor&#45;series/3&#45;textidor&#45;validated/config/index.js -->
<g id="node13" class="node">
<title>reverse&#45;engineer/textidor&#45;series/3&#45;textidor&#45;validated/config/index.js</title>
<g id="a_node13"><a xlink:href="reverse-engineer/textidor-series/3-textidor-validated/config/index.js" xlink:title="index.js">
<path fill="#ffffcc" stroke="black" d="M161.06,-345.97C161.06,-345.97 119.46,-345.97 119.46,-345.97 116.36,-345.97 113.26,-342.87 113.26,-339.77 113.26,-339.77 113.26,-333.56 113.26,-333.56 113.26,-330.46 116.36,-327.36 119.46,-327.36 119.46,-327.36 161.06,-327.36 161.06,-327.36 164.16,-327.36 167.26,-330.46 167.26,-333.56 167.26,-333.56 167.26,-339.77 167.26,-339.77 167.26,-342.87 164.16,-345.97 161.06,-345.97"/>
<text text-anchor="middle" x="140.26" y="-333.97" font-family="Helvetica,sans-Serif" font-size="9.00">index.js</text>
</a>
</g>
</g>
<!-- reverse&#45;engineer/textidor&#45;series/3&#45;textidor&#45;validated/config/index.js&#45;&gt;reverse&#45;engineer/textidor&#45;series/3&#45;textidor&#45;validated/config/default.js -->
<g id="edge7" class="edge">
<title>reverse&#45;engineer/textidor&#45;series/3&#45;textidor&#45;validated/config/index.js&#45;&gt;reverse&#45;engineer/textidor&#45;series/3&#45;textidor&#45;validated/config/default.js</title>
<path fill="none" stroke="#000000" stroke-width="2" stroke-opacity="0.200000" d="M167.5,-336.67C173.2,-336.67 179.28,-336.67 185.18,-336.67"/>
<polygon fill="#000000" fill-opacity="0.200000" stroke="#000000" stroke-width="2" stroke-opacity="0.200000" points="185.48,-338.77 191.48,-336.67 185.48,-334.57 185.48,-338.77"/>
</g>
<!-- reverse&#45;engineer/textidor&#45;series/3&#45;textidor&#45;validated/config/production.js -->
<g id="node14" class="node">
<title>reverse&#45;engineer/textidor&#45;series/3&#45;textidor&#45;validated/config/production.js</title>
<g id="a_node14"><a xlink:href="reverse-engineer/textidor-series/3-textidor-validated/config/production.js" xlink:title="production.js">
<path fill="#ccffcc" stroke="black" d="M167.57,-314.97C167.57,-314.97 112.95,-314.97 112.95,-314.97 109.85,-314.97 106.75,-311.87 106.75,-308.77 106.75,-308.77 106.75,-302.56 106.75,-302.56 106.75,-299.46 109.85,-296.36 112.95,-296.36 112.95,-296.36 167.57,-296.36 167.57,-296.36 170.67,-296.36 173.77,-299.46 173.77,-302.56 173.77,-302.56 173.77,-308.77 173.77,-308.77 173.77,-311.87 170.67,-314.97 167.57,-314.97"/>
<text text-anchor="middle" x="140.26" y="-302.97" font-family="Helvetica,sans-Serif" font-size="9.00">production.js</text>
</a>
</g>
</g>
<!-- reverse&#45;engineer/textidor&#45;series/3&#45;textidor&#45;validated/index.js -->
<g id="node15" class="node">
<title>reverse&#45;engineer/textidor&#45;series/3&#45;textidor&#45;validated/index.js</title>
<g id="a_node15"><a xlink:href="reverse-engineer/textidor-series/3-textidor-validated/index.js" xlink:title="index.js">
<path fill="#ffffcc" stroke="black" d="M79.8,-245.97C79.8,-245.97 38.2,-245.97 38.2,-245.97 35.1,-245.97 32,-242.87 32,-239.77 32,-239.77 32,-233.56 32,-233.56 32,-230.46 35.1,-227.36 38.2,-227.36 38.2,-227.36 79.8,-227.36 79.8,-227.36 82.9,-227.36 86,-230.46 86,-233.56 86,-233.56 86,-239.77 86,-239.77 86,-242.87 82.9,-245.97 79.8,-245.97"/>
<text text-anchor="middle" x="59" y="-233.97" font-family="Helvetica,sans-Serif" font-size="9.00">index.js</text>
</a>
</g>
</g>
<!-- reverse&#45;engineer/textidor&#45;series/3&#45;textidor&#45;validated/index.js&#45;&gt;fs -->
<g id="edge13" class="edge">
<title>reverse&#45;engineer/textidor&#45;series/3&#45;textidor&#45;validated/index.js&#45;&gt;fs</title>
<path fill="none" stroke="#000000" stroke-dasharray="5,2" stroke-opacity="0.200000" d="M60.39,-246.31C61.94,-279.2 68.86,-386.06 94,-406.67 180.5,-477.58 327.15,-393.27 378.69,-359.47"/>
<polygon fill="#000000" fill-opacity="0.200000" stroke="#000000" stroke-opacity="0.200000" points="380.1,-361.05 383.94,-355.99 377.78,-357.55 380.1,-361.05"/>
</g>
<!-- reverse&#45;engineer/textidor&#45;series/3&#45;textidor&#45;validated/index.js&#45;&gt;node_modules/body&#45;parser -->
<g id="edge10" class="edge">
<title>reverse&#45;engineer/textidor&#45;series/3&#45;textidor&#45;validated/index.js&#45;&gt;node_modules/body&#45;parser</title>
<path fill="none" stroke="#000000" stroke-opacity="0.200000" d="M59.36,-227.14C58.3,-203.06 59.11,-139.37 94,-106.67 139.8,-63.72 217.22,-60.42 263.14,-62.88"/>
<polygon fill="#000000" fill-opacity="0.200000" stroke="#000000" stroke-opacity="0.200000" points="263.28,-64.99 269.4,-63.26 263.54,-60.8 263.28,-64.99"/>
</g>
<!-- reverse&#45;engineer/textidor&#45;series/3&#45;textidor&#45;validated/index.js&#45;&gt;node_modules/cors -->
<g id="edge11" class="edge">
<title>reverse&#45;engineer/textidor&#45;series/3&#45;textidor&#45;validated/index.js&#45;&gt;node_modules/cors</title>
<path fill="none" stroke="#000000" stroke-opacity="0.200000" d="M65.31,-227.31C71.17,-217.78 81.45,-203.24 94,-194.67 148.49,-157.4 225.24,-140.22 268.18,-133.09"/>
<polygon fill="#000000" fill-opacity="0.200000" stroke="#000000" stroke-opacity="0.200000" points="268.68,-135.14 274.27,-132.11 268.01,-130.99 268.68,-135.14"/>
</g>
<!-- reverse&#45;engineer/textidor&#45;series/3&#45;textidor&#45;validated/index.js&#45;&gt;node_modules/express -->
<g id="edge12" class="edge">
<title>reverse&#45;engineer/textidor&#45;series/3&#45;textidor&#45;validated/index.js&#45;&gt;node_modules/express</title>
<path fill="none" stroke="#000000" stroke-opacity="0.200000" d="M86.33,-227.27C88.92,-226.38 91.51,-225.5 94,-224.67 155.51,-204.14 227.9,-181.76 268.58,-169.35"/>
<polygon fill="#000000" fill-opacity="0.200000" stroke="#000000" stroke-opacity="0.200000" points="269.22,-171.35 274.34,-167.59 267.99,-167.33 269.22,-171.35"/>
</g>
<!-- reverse&#45;engineer/textidor&#45;series/3&#45;textidor&#45;validated/index.js&#45;&gt;node_modules/morgan -->
<g id="edge14" class="edge">
<title>reverse&#45;engineer/textidor&#45;series/3&#45;textidor&#45;validated/index.js&#45;&gt;node_modules/morgan</title>
<path fill="none" stroke="#000000" stroke-opacity="0.200000" d="M61.02,-227.17C63.43,-209.57 71.12,-171.86 94,-151.67 143.36,-108.11 223.66,-99 268.19,-97.5"/>
<polygon fill="#000000" fill-opacity="0.200000" stroke="#000000" stroke-opacity="0.200000" points="268.29,-99.6 274.23,-97.34 268.18,-95.4 268.29,-99.6"/>
</g>
<!-- reverse&#45;engineer/textidor&#45;series/3&#45;textidor&#45;validated/index.js&#45;&gt;path -->
<g id="edge15" class="edge">
<title>reverse&#45;engineer/textidor&#45;series/3&#45;textidor&#45;validated/index.js&#45;&gt;path</title>
<path fill="none" stroke="#000000" stroke-dasharray="5,2" stroke-opacity="0.200000" d="M60.45,-227.01C62.22,-194.05 69.75,-86.86 94,-64.67 182.47,16.33 262.93,19.05 363.27,-46.67 384.29,-60.43 392.39,-90.34 395.46,-108.87"/>
<polygon fill="#000000" fill-opacity="0.200000" stroke="#000000" stroke-opacity="0.200000" points="393.43,-109.49 396.37,-115.12 397.58,-108.88 393.43,-109.49"/>
</g>
<!-- reverse&#45;engineer/textidor&#45;series/3&#45;textidor&#45;validated/index.js&#45;&gt;reverse&#45;engineer/textidor&#45;series/3&#45;textidor&#45;validated/api/index.js -->
<g id="edge8" class="edge">
<title>reverse&#45;engineer/textidor&#45;series/3&#45;textidor&#45;validated/index.js&#45;&gt;reverse&#45;engineer/textidor&#45;series/3&#45;textidor&#45;validated/api/index.js</title>
<path fill="none" stroke="#000000" stroke-width="2" stroke-opacity="0.200000" d="M86.39,-239.33C93.01,-240 100.19,-240.72 107.06,-241.41"/>
<polygon fill="#000000" fill-opacity="0.200000" stroke="#000000" stroke-width="2" stroke-opacity="0.200000" points="107.07,-243.53 113.25,-242.04 107.49,-239.35 107.07,-243.53"/>
</g>
<!-- reverse&#45;engineer/textidor&#45;series/3&#45;textidor&#45;validated/index.js&#45;&gt;reverse&#45;engineer/textidor&#45;series/3&#45;textidor&#45;validated/config/index.js -->
<g id="edge9" class="edge">
<title>reverse&#45;engineer/textidor&#45;series/3&#45;textidor&#45;validated/index.js&#45;&gt;reverse&#45;engineer/textidor&#45;series/3&#45;textidor&#45;validated/config/index.js</title>
<path fill="none" stroke="#000000" stroke-width="2" stroke-opacity="0.200000" d="M61.26,-246.14C64.04,-263.36 72.28,-299.9 94,-320.67 97.81,-324.31 102.5,-327.13 107.4,-329.31"/>
<polygon fill="#000000" fill-opacity="0.200000" stroke="#000000" stroke-width="2" stroke-opacity="0.200000" points="106.86,-331.35 113.21,-331.59 108.39,-327.44 106.86,-331.35"/>
</g>
</g>
</svg>
