<?xml version="1.0" encoding="UTF-8" standalone="no"?>
<!DOCTYPE svg PUBLIC "-//W3C//DTD SVG 1.1//EN"
 "http://www.w3.org/Graphics/SVG/1.1/DTD/svg11.dtd">
<!-- Generated by graphviz version 2.44.0 (20200408.0750)
 -->
<!-- Title: dependency&#45;cruiser output Pages: 1 -->
<svg width="193pt" height="147pt"
 viewBox="0.00 0.00 193.00 147.00" xmlns="http://www.w3.org/2000/svg" xmlns:xlink="http://www.w3.org/1999/xlink">
<g id="graph0" class="graph" transform="scale(1 1) rotate(0) translate(4 143)">
<title>dependency&#45;cruiser output</title>
<polygon fill="white" stroke="transparent" points="-4,4 -4,-143 189,-143 189,4 -4,4"/>
<g id="clust1" class="cluster">
<title>cluster_example&#45;apps</title>
<path fill="#ffffff" stroke="black" stroke-width="2" d="M12,-8C12,-8 173,-8 173,-8 179,-8 185,-14 185,-20 185,-20 185,-119 185,-119 185,-125 179,-131 173,-131 173,-131 12,-131 12,-131 6,-131 0,-125 0,-119 0,-119 0,-20 0,-20 0,-14 6,-8 12,-8"/>
<text text-anchor="middle" x="92.5" y="-118.9" font-family="Helvetica,sans-Serif" font-weight="bold" font-size="9.00">example&#45;apps</text>
</g>
<g id="clust2" class="cluster">
<title>cluster_example&#45;apps/stepped&#45;cli&#45;and&#45;file&#45;system</title>
<path fill="#ffffff" stroke="black" stroke-width="2" d="M20,-16C20,-16 165,-16 165,-16 171,-16 177,-22 177,-28 177,-28 177,-92 177,-92 177,-98 171,-104 165,-104 165,-104 20,-104 20,-104 14,-104 8,-98 8,-92 8,-92 8,-28 8,-28 8,-22 14,-16 20,-16"/>
<text text-anchor="middle" x="92.5" y="-91.9" font-family="Helvetica,sans-Serif" font-weight="bold" font-size="9.00">stepped&#45;cli&#45;and&#45;file&#45;system</text>
</g>
<g id="clust3" class="cluster">
<title>cluster_example&#45;apps/stepped&#45;cli&#45;and&#45;file&#45;system/1&#45;taking&#45;command&#45;line&#45;arguments</title>
<path fill="#ffffff" stroke="black" stroke-width="2" d="M28,-24C28,-24 157,-24 157,-24 163,-24 169,-30 169,-36 169,-36 169,-65 169,-65 169,-71 163,-77 157,-77 157,-77 28,-77 28,-77 22,-77 16,-71 16,-65 16,-65 16,-36 16,-36 16,-30 22,-24 28,-24"/>
<text text-anchor="middle" x="92.5" y="-64.9" font-family="Helvetica,sans-Serif" font-weight="bold" font-size="9.00">1&#45;taking&#45;command&#45;line&#45;arguments</text>
</g>
<!-- example&#45;apps/stepped&#45;cli&#45;and&#45;file&#45;system/1&#45;taking&#45;command&#45;line&#45;arguments/index.js -->
<g id="node1" class="node">
<title>example&#45;apps/stepped&#45;cli&#45;and&#45;file&#45;system/1&#45;taking&#45;command&#45;line&#45;arguments/index.js</title>
<g id="a_node1"><a xlink:href="example-apps/stepped-cli-and-file-system/1-taking-command-line-arguments/index.js" xlink:title="index.js">
<path fill="#ccffcc" stroke="black" d="M112.8,-50.3C112.8,-50.3 71.2,-50.3 71.2,-50.3 68.1,-50.3 65,-47.2 65,-44.1 65,-44.1 65,-37.9 65,-37.9 65,-34.8 68.1,-31.7 71.2,-31.7 71.2,-31.7 112.8,-31.7 112.8,-31.7 115.9,-31.7 119,-34.8 119,-37.9 119,-37.9 119,-44.1 119,-44.1 119,-47.2 115.9,-50.3 112.8,-50.3"/>
<text text-anchor="middle" x="92" y="-38.3" font-family="Helvetica,sans-Serif" font-size="9.00">index.js</text>
</a>
</g>
</g>
</g>
</svg>
