<?xml version="1.0" encoding="UTF-8" standalone="no"?>
<!DOCTYPE svg PUBLIC "-//W3C//DTD SVG 1.1//EN"
 "http://www.w3.org/Graphics/SVG/1.1/DTD/svg11.dtd">
<!-- Generated by graphviz version 2.44.0 (20200408.0750)
 -->
<!-- Title: dependency&#45;cruiser output Pages: 1 -->
<svg width="221pt" height="182pt"
 viewBox="0.00 0.00 221.00 182.00" xmlns="http://www.w3.org/2000/svg" xmlns:xlink="http://www.w3.org/1999/xlink">
<g id="graph0" class="graph" transform="scale(1 1) rotate(0) translate(4 178)">
<title>dependency&#45;cruiser output</title>
<polygon fill="white" stroke="transparent" points="-4,4 -4,-178 217,-178 217,4 -4,4"/>
<g id="clust1" class="cluster">
<title>cluster_example&#45;apps</title>
<path fill="#ffffff" stroke="black" stroke-width="2" d="M12,-8C12,-8 139,-8 139,-8 145,-8 151,-14 151,-20 151,-20 151,-154 151,-154 151,-160 145,-166 139,-166 139,-166 12,-166 12,-166 6,-166 0,-160 0,-154 0,-154 0,-20 0,-20 0,-14 6,-8 12,-8"/>
<text text-anchor="middle" x="75.5" y="-153.9" font-family="Helvetica,sans-Serif" font-weight="bold" font-size="9.00">example&#45;apps</text>
</g>
<g id="clust2" class="cluster">
<title>cluster_example&#45;apps/stepped&#45;vanilla&#45;node&#45;server</title>
<path fill="#ffffff" stroke="black" stroke-width="2" d="M20,-16C20,-16 131,-16 131,-16 137,-16 143,-22 143,-28 143,-28 143,-127 143,-127 143,-133 137,-139 131,-139 131,-139 20,-139 20,-139 14,-139 8,-133 8,-127 8,-127 8,-28 8,-28 8,-22 14,-16 20,-16"/>
<text text-anchor="middle" x="75.5" y="-126.9" font-family="Helvetica,sans-Serif" font-weight="bold" font-size="9.00">stepped&#45;vanilla&#45;node&#45;server</text>
</g>
<g id="clust3" class="cluster">
<title>cluster_example&#45;apps/stepped&#45;vanilla&#45;node&#45;server/6.multiple&#45;routes&#45;with&#45;404</title>
<path fill="#ffffff" stroke="black" stroke-width="2" d="M28,-24C28,-24 123,-24 123,-24 129,-24 135,-30 135,-36 135,-36 135,-100 135,-100 135,-106 129,-112 123,-112 123,-112 28,-112 28,-112 22,-112 16,-106 16,-100 16,-100 16,-36 16,-36 16,-30 22,-24 28,-24"/>
<text text-anchor="middle" x="75.5" y="-99.9" font-family="Helvetica,sans-Serif" font-weight="bold" font-size="9.00">6.multiple&#45;routes&#45;with&#45;404</text>
</g>
<g id="clust4" class="cluster">
<title>cluster_example&#45;apps/stepped&#45;vanilla&#45;node&#45;server/6.multiple&#45;routes&#45;with&#45;404/src</title>
<path fill="#ffffff" stroke="black" stroke-width="2" d="M52,-32C52,-32 98,-32 98,-32 104,-32 110,-38 110,-44 110,-44 110,-73 110,-73 110,-79 104,-85 98,-85 98,-85 52,-85 52,-85 46,-85 40,-79 40,-73 40,-73 40,-44 40,-44 40,-38 46,-32 52,-32"/>
<text text-anchor="middle" x="75" y="-72.9" font-family="Helvetica,sans-Serif" font-weight="bold" font-size="9.00">src</text>
</g>
<!-- example&#45;apps/stepped&#45;vanilla&#45;node&#45;server/6.multiple&#45;routes&#45;with&#45;404/src/index.js -->
<g id="node1" class="node">
<title>example&#45;apps/stepped&#45;vanilla&#45;node&#45;server/6.multiple&#45;routes&#45;with&#45;404/src/index.js</title>
<g id="a_node1"><a xlink:href="example-apps/stepped-vanilla-node-server/6.multiple-routes-with-404/src/index.js" xlink:title="index.js">
<path fill="#ffffcc" stroke="black" d="M95.8,-58.3C95.8,-58.3 54.2,-58.3 54.2,-58.3 51.1,-58.3 48,-55.2 48,-52.1 48,-52.1 48,-45.9 48,-45.9 48,-42.8 51.1,-39.7 54.2,-39.7 54.2,-39.7 95.8,-39.7 95.8,-39.7 98.9,-39.7 102,-42.8 102,-45.9 102,-45.9 102,-52.1 102,-52.1 102,-55.2 98.9,-58.3 95.8,-58.3"/>
<text text-anchor="middle" x="75" y="-46.3" font-family="Helvetica,sans-Serif" font-size="9.00">index.js</text>
</a>
</g>
</g>
<!-- http -->
<g id="node2" class="node">
<title>http</title>
<path fill="#ffffcc" stroke="grey" d="M206.8,-58.3C206.8,-58.3 165.2,-58.3 165.2,-58.3 162.1,-58.3 159,-55.2 159,-52.1 159,-52.1 159,-45.9 159,-45.9 159,-42.8 162.1,-39.7 165.2,-39.7 165.2,-39.7 206.8,-39.7 206.8,-39.7 209.9,-39.7 213,-42.8 213,-45.9 213,-45.9 213,-52.1 213,-52.1 213,-55.2 209.9,-58.3 206.8,-58.3"/>
<text text-anchor="middle" x="186" y="-46.3" font-family="Helvetica,sans-Serif" font-size="9.00" fill="grey">http</text>
</g>
<!-- example&#45;apps/stepped&#45;vanilla&#45;node&#45;server/6.multiple&#45;routes&#45;with&#45;404/src/index.js&#45;&gt;http -->
<g id="edge1" class="edge">
<title>example&#45;apps/stepped&#45;vanilla&#45;node&#45;server/6.multiple&#45;routes&#45;with&#45;404/src/index.js&#45;&gt;http</title>
<path fill="none" stroke="#000000" stroke-dasharray="5,2" stroke-opacity="0.200000" d="M102.11,-49C117.23,-49 136.4,-49 152.5,-49"/>
<polygon fill="#000000" fill-opacity="0.200000" stroke="#000000" stroke-opacity="0.200000" points="152.73,-51.1 158.73,-49 152.73,-46.9 152.73,-51.1"/>
</g>
</g>
</svg>
