<?xml version="1.0" encoding="UTF-8" standalone="no"?>
<!DOCTYPE svg PUBLIC "-//W3C//DTD SVG 1.1//EN"
 "http://www.w3.org/Graphics/SVG/1.1/DTD/svg11.dtd">
<!-- Generated by graphviz version 2.44.0 (20200408.0750)
 -->
<!-- Title: dependency&#45;cruiser output Pages: 1 -->
<svg width="315pt" height="512pt"
 viewBox="0.00 0.00 315.02 512.00" xmlns="http://www.w3.org/2000/svg" xmlns:xlink="http://www.w3.org/1999/xlink">
<g id="graph0" class="graph" transform="scale(1 1) rotate(0) translate(4 508)">
<title>dependency&#45;cruiser output</title>
<polygon fill="white" stroke="transparent" points="-4,4 -4,-508 311.02,-508 311.02,4 -4,4"/>
<g id="clust1" class="cluster">
<title>cluster_node_modules</title>
<path fill="#ffffff" stroke="black" stroke-width="2" d="M133.76,-8C133.76,-8 189.77,-8 189.77,-8 195.77,-8 201.77,-14 201.77,-20 201.77,-20 201.77,-142 201.77,-142 201.77,-148 195.77,-154 189.77,-154 189.77,-154 133.76,-154 133.76,-154 127.76,-154 121.76,-148 121.76,-142 121.76,-142 121.76,-20 121.76,-20 121.76,-14 127.76,-8 133.76,-8"/>
<text text-anchor="middle" x="161.76" y="-141.9" font-family="Helvetica,sans-Serif" font-weight="bold" font-size="9.00">node_modules</text>
</g>
<g id="clust2" class="cluster">
<title>cluster_reverse&#45;engineer</title>
<path fill="#ffffff" stroke="black" stroke-width="2" d="M20,-219C20,-219 287.02,-219 287.02,-219 293.02,-219 299.02,-225 299.02,-231 299.02,-231 299.02,-484 299.02,-484 299.02,-490 293.02,-496 287.02,-496 287.02,-496 20,-496 20,-496 14,-496 8,-490 8,-484 8,-484 8,-231 8,-231 8,-225 14,-219 20,-219"/>
<text text-anchor="middle" x="153.51" y="-483.9" font-family="Helvetica,sans-Serif" font-weight="bold" font-size="9.00">reverse&#45;engineer</text>
</g>
<g id="clust3" class="cluster">
<title>cluster_reverse&#45;engineer/textidor&#45;series</title>
<path fill="#ffffff" stroke="black" stroke-width="2" d="M28,-227C28,-227 279.02,-227 279.02,-227 285.02,-227 291.02,-233 291.02,-239 291.02,-239 291.02,-457 291.02,-457 291.02,-463 285.02,-469 279.02,-469 279.02,-469 28,-469 28,-469 22,-469 16,-463 16,-457 16,-457 16,-239 16,-239 16,-233 22,-227 28,-227"/>
<text text-anchor="middle" x="153.51" y="-456.9" font-family="Helvetica,sans-Serif" font-weight="bold" font-size="9.00">textidor&#45;series</text>
</g>
<g id="clust4" class="cluster">
<title>cluster_reverse&#45;engineer/textidor&#45;series/2&#45;textidor&#45;separated</title>
<path fill="#ffffff" stroke="black" stroke-width="2" d="M36,-235C36,-235 271.02,-235 271.02,-235 277.02,-235 283.02,-241 283.02,-247 283.02,-247 283.02,-430 283.02,-430 283.02,-436 277.02,-442 271.02,-442 271.02,-442 36,-442 36,-442 30,-442 24,-436 24,-430 24,-430 24,-247 24,-247 24,-241 30,-235 36,-235"/>
<text text-anchor="middle" x="153.51" y="-429.9" font-family="Helvetica,sans-Serif" font-weight="bold" font-size="9.00">2&#45;textidor&#45;separated</text>
</g>
<g id="clust5" class="cluster">
<title>cluster_reverse&#45;engineer/textidor&#45;series/2&#45;textidor&#45;separated/api</title>
<path fill="#ffffff" stroke="black" stroke-width="2" d="M44,-300C44,-300 95.51,-300 95.51,-300 101.51,-300 107.51,-306 107.51,-312 107.51,-312 107.51,-403 107.51,-403 107.51,-409 101.51,-415 95.51,-415 95.51,-415 44,-415 44,-415 38,-415 32,-409 32,-403 32,-403 32,-312 32,-312 32,-306 38,-300 44,-300"/>
<text text-anchor="middle" x="69.75" y="-402.9" font-family="Helvetica,sans-Serif" font-weight="bold" font-size="9.00">api</text>
</g>
<g id="clust6" class="cluster">
<title>cluster_reverse&#45;engineer/textidor&#45;series/2&#45;textidor&#45;separated/config</title>
<path fill="#ffffff" stroke="black" stroke-width="2" d="M127.51,-271C127.51,-271 263.02,-271 263.02,-271 269.02,-271 275.02,-277 275.02,-283 275.02,-283 275.02,-374 275.02,-374 275.02,-380 269.02,-386 263.02,-386 263.02,-386 127.51,-386 127.51,-386 121.51,-386 115.51,-380 115.51,-374 115.51,-374 115.51,-283 115.51,-283 115.51,-277 121.51,-271 127.51,-271"/>
<text text-anchor="middle" x="195.26" y="-373.9" font-family="Helvetica,sans-Serif" font-weight="bold" font-size="9.00">config</text>
</g>
<!-- client -->
<g id="node1" class="node">
<title>client</title>
<g id="a_node1"><a xlink:href="client" xlink:title="client">
<polygon fill="#ccffcc" stroke="black" points="96.75,-211.3 44.82,-211.3 42.75,-209.23 42.75,-192.7 94.69,-192.7 96.75,-194.77 96.75,-211.3"/>
<polyline fill="none" stroke="black" points="94.69,-209.23 42.75,-209.23 "/>
<polyline fill="none" stroke="black" points="94.69,-209.23 94.69,-192.7 "/>
<polyline fill="none" stroke="black" points="94.69,-209.23 96.75,-211.3 "/>
<text text-anchor="middle" x="69.75" y="-199.3" font-family="Helvetica,sans-Serif" font-size="9.00">client</text>
</a>
</g>
</g>
<!-- fs -->
<g id="node2" class="node">
<title>fs</title>
<path fill="#ffffcc" stroke="grey" d="M182.56,-180.3C182.56,-180.3 140.96,-180.3 140.96,-180.3 137.86,-180.3 134.76,-177.2 134.76,-174.1 134.76,-174.1 134.76,-167.9 134.76,-167.9 134.76,-164.8 137.86,-161.7 140.96,-161.7 140.96,-161.7 182.56,-161.7 182.56,-161.7 185.66,-161.7 188.76,-164.8 188.76,-167.9 188.76,-167.9 188.76,-174.1 188.76,-174.1 188.76,-177.2 185.66,-180.3 182.56,-180.3"/>
<text text-anchor="middle" x="161.76" y="-168.3" font-family="Helvetica,sans-Serif" font-size="9.00" fill="grey">fs</text>
</g>
<!-- node_modules/body&#45;parser -->
<g id="node3" class="node">
<title>node_modules/body&#45;parser</title>
<g id="a_node3"><a xlink:href="node_modules/body-parser" xlink:title="body&#45;parser">
<polygon fill="#c40b0a" fill-opacity="0.101961" stroke="black" points="193.77,-96.3 131.82,-96.3 129.76,-94.23 129.76,-77.7 191.7,-77.7 193.77,-79.77 193.77,-96.3"/>
<polyline fill="none" stroke="black" points="191.7,-94.23 129.76,-94.23 "/>
<polyline fill="none" stroke="black" points="191.7,-94.23 191.7,-77.7 "/>
<polyline fill="none" stroke="black" points="191.7,-94.23 193.77,-96.3 "/>
<text text-anchor="middle" x="161.76" y="-84.3" font-family="Helvetica,sans-Serif" font-size="9.00" fill="#c40b0a">body&#45;parser</text>
</a>
</g>
</g>
<!-- node_modules/cors -->
<g id="node4" class="node">
<title>node_modules/cors</title>
<g id="a_node4"><a xlink:href="node_modules/cors" xlink:title="cors">
<polygon fill="#c40b0a" fill-opacity="0.101961" stroke="black" points="188.76,-65.3 136.83,-65.3 134.76,-63.23 134.76,-46.7 186.7,-46.7 188.76,-48.77 188.76,-65.3"/>
<polyline fill="none" stroke="black" points="186.7,-63.23 134.76,-63.23 "/>
<polyline fill="none" stroke="black" points="186.7,-63.23 186.7,-46.7 "/>
<polyline fill="none" stroke="black" points="186.7,-63.23 188.76,-65.3 "/>
<text text-anchor="middle" x="161.76" y="-53.3" font-family="Helvetica,sans-Serif" font-size="9.00" fill="#c40b0a">cors</text>
</a>
</g>
</g>
<!-- node_modules/express -->
<g id="node5" class="node">
<title>node_modules/express</title>
<g id="a_node5"><a xlink:href="node_modules/express" xlink:title="express">
<polygon fill="#c40b0a" fill-opacity="0.101961" stroke="black" points="188.76,-127.3 136.83,-127.3 134.76,-125.23 134.76,-108.7 186.7,-108.7 188.76,-110.77 188.76,-127.3"/>
<polyline fill="none" stroke="black" points="186.7,-125.23 134.76,-125.23 "/>
<polyline fill="none" stroke="black" points="186.7,-125.23 186.7,-108.7 "/>
<polyline fill="none" stroke="black" points="186.7,-125.23 188.76,-127.3 "/>
<text text-anchor="middle" x="161.76" y="-115.3" font-family="Helvetica,sans-Serif" font-size="9.00" fill="#c40b0a">express</text>
</a>
</g>
</g>
<!-- node_modules/morgan -->
<g id="node6" class="node">
<title>node_modules/morgan</title>
<g id="a_node6"><a xlink:href="node_modules/morgan" xlink:title="morgan">
<polygon fill="#c40b0a" fill-opacity="0.101961" stroke="black" points="188.76,-34.3 136.83,-34.3 134.76,-32.23 134.76,-15.7 186.7,-15.7 188.76,-17.77 188.76,-34.3"/>
<polyline fill="none" stroke="black" points="186.7,-32.23 134.76,-32.23 "/>
<polyline fill="none" stroke="black" points="186.7,-32.23 186.7,-15.7 "/>
<polyline fill="none" stroke="black" points="186.7,-32.23 188.76,-34.3 "/>
<text text-anchor="middle" x="161.76" y="-22.3" font-family="Helvetica,sans-Serif" font-size="9.00" fill="#c40b0a">morgan</text>
</a>
</g>
</g>
<!-- path -->
<g id="node7" class="node">
<title>path</title>
<path fill="#ffffcc" stroke="grey" d="M182.56,-211.3C182.56,-211.3 140.96,-211.3 140.96,-211.3 137.86,-211.3 134.76,-208.2 134.76,-205.1 134.76,-205.1 134.76,-198.9 134.76,-198.9 134.76,-195.8 137.86,-192.7 140.96,-192.7 140.96,-192.7 182.56,-192.7 182.56,-192.7 185.66,-192.7 188.76,-195.8 188.76,-198.9 188.76,-198.9 188.76,-205.1 188.76,-205.1 188.76,-208.2 185.66,-211.3 182.56,-211.3"/>
<text text-anchor="middle" x="161.76" y="-199.3" font-family="Helvetica,sans-Serif" font-size="9.00" fill="grey">path</text>
</g>
<!-- reverse&#45;engineer/textidor&#45;series/2&#45;textidor&#45;separated/api/handlers.js -->
<g id="node8" class="node">
<title>reverse&#45;engineer/textidor&#45;series/2&#45;textidor&#45;separated/api/handlers.js</title>
<g id="a_node8"><a xlink:href="reverse-engineer/textidor-series/2-textidor-separated/api/handlers.js" xlink:title="handlers.js">
<path fill="#ffffcc" stroke="black" d="M93.06,-388.3C93.06,-388.3 46.45,-388.3 46.45,-388.3 43.34,-388.3 40.24,-385.2 40.24,-382.1 40.24,-382.1 40.24,-375.9 40.24,-375.9 40.24,-372.8 43.34,-369.7 46.45,-369.7 46.45,-369.7 93.06,-369.7 93.06,-369.7 96.16,-369.7 99.26,-372.8 99.26,-375.9 99.26,-375.9 99.26,-382.1 99.26,-382.1 99.26,-385.2 96.16,-388.3 93.06,-388.3"/>
<text text-anchor="middle" x="69.75" y="-376.3" font-family="Helvetica,sans-Serif" font-size="9.00">handlers.js</text>
</a>
</g>
</g>
<!-- reverse&#45;engineer/textidor&#45;series/2&#45;textidor&#45;separated/api/handlers.js&#45;&gt;fs -->
<g id="edge2" class="edge">
<title>reverse&#45;engineer/textidor&#45;series/2&#45;textidor&#45;separated/api/handlers.js&#45;&gt;fs</title>
<path fill="none" stroke="#000000" stroke-dasharray="5,2" stroke-opacity="0.200000" d="M99.31,-370.62C102.51,-368.6 105.38,-366.1 107.51,-363 129.7,-330.75 92.18,-218.45 115.51,-187 118.86,-182.48 123.6,-179.23 128.75,-176.89"/>
<polygon fill="#000000" fill-opacity="0.200000" stroke="#000000" stroke-opacity="0.200000" points="129.61,-178.81 134.46,-174.7 128.11,-174.89 129.61,-178.81"/>
</g>
<!-- reverse&#45;engineer/textidor&#45;series/2&#45;textidor&#45;separated/api/handlers.js&#45;&gt;path -->
<g id="edge3" class="edge">
<title>reverse&#45;engineer/textidor&#45;series/2&#45;textidor&#45;separated/api/handlers.js&#45;&gt;path</title>
<path fill="none" stroke="#000000" stroke-dasharray="5,2" stroke-opacity="0.200000" d="M99.56,-370.31C102.63,-368.35 105.4,-365.94 107.51,-363 119.85,-345.78 108.39,-287.96 115.51,-268 122.59,-248.13 137.19,-228.61 147.9,-216.02"/>
<polygon fill="#000000" fill-opacity="0.200000" stroke="#000000" stroke-opacity="0.200000" points="149.58,-217.29 151.94,-211.38 146.41,-214.53 149.58,-217.29"/>
</g>
<!-- reverse&#45;engineer/textidor&#45;series/2&#45;textidor&#45;separated/config/index.js -->
<g id="node9" class="node">
<title>reverse&#45;engineer/textidor&#45;series/2&#45;textidor&#45;separated/config/index.js</title>
<g id="a_node9"><a xlink:href="reverse-engineer/textidor-series/2-textidor-separated/config/index.js" xlink:title="index.js">
<path fill="#ffffcc" stroke="black" d="M182.56,-359.3C182.56,-359.3 140.96,-359.3 140.96,-359.3 137.86,-359.3 134.76,-356.2 134.76,-353.1 134.76,-353.1 134.76,-346.9 134.76,-346.9 134.76,-343.8 137.86,-340.7 140.96,-340.7 140.96,-340.7 182.56,-340.7 182.56,-340.7 185.66,-340.7 188.76,-343.8 188.76,-346.9 188.76,-346.9 188.76,-353.1 188.76,-353.1 188.76,-356.2 185.66,-359.3 182.56,-359.3"/>
<text text-anchor="middle" x="161.76" y="-347.3" font-family="Helvetica,sans-Serif" font-size="9.00">index.js</text>
</a>
</g>
</g>
<!-- reverse&#45;engineer/textidor&#45;series/2&#45;textidor&#45;separated/api/handlers.js&#45;&gt;reverse&#45;engineer/textidor&#45;series/2&#45;textidor&#45;separated/config/index.js -->
<g id="edge1" class="edge">
<title>reverse&#45;engineer/textidor&#45;series/2&#45;textidor&#45;separated/api/handlers.js&#45;&gt;reverse&#45;engineer/textidor&#45;series/2&#45;textidor&#45;separated/config/index.js</title>
<path fill="none" stroke="#000000" stroke-width="2" stroke-opacity="0.200000" d="M99.73,-369.66C109.01,-366.68 119.33,-363.35 128.81,-360.3"/>
<polygon fill="#000000" fill-opacity="0.200000" stroke="#000000" stroke-width="2" stroke-opacity="0.200000" points="129.52,-362.27 134.58,-358.43 128.23,-358.28 129.52,-362.27"/>
</g>
<!-- reverse&#45;engineer/textidor&#45;series/2&#45;textidor&#45;separated/config/default.js -->
<g id="node12" class="node">
<title>reverse&#45;engineer/textidor&#45;series/2&#45;textidor&#45;separated/config/default.js</title>
<g id="a_node12"><a xlink:href="reverse-engineer/textidor-series/2-textidor-separated/config/default.js" xlink:title="default.js">
<path fill="#ffffcc" stroke="black" d="M260.82,-359.3C260.82,-359.3 219.22,-359.3 219.22,-359.3 216.12,-359.3 213.02,-356.2 213.02,-353.1 213.02,-353.1 213.02,-346.9 213.02,-346.9 213.02,-343.8 216.12,-340.7 219.22,-340.7 219.22,-340.7 260.82,-340.7 260.82,-340.7 263.92,-340.7 267.02,-343.8 267.02,-346.9 267.02,-346.9 267.02,-353.1 267.02,-353.1 267.02,-356.2 263.92,-359.3 260.82,-359.3"/>
<text text-anchor="middle" x="240.02" y="-347.3" font-family="Helvetica,sans-Serif" font-size="9.00">default.js</text>
</a>
</g>
</g>
<!-- reverse&#45;engineer/textidor&#45;series/2&#45;textidor&#45;separated/config/index.js&#45;&gt;reverse&#45;engineer/textidor&#45;series/2&#45;textidor&#45;separated/config/default.js -->
<g id="edge5" class="edge">
<title>reverse&#45;engineer/textidor&#45;series/2&#45;textidor&#45;separated/config/index.js&#45;&gt;reverse&#45;engineer/textidor&#45;series/2&#45;textidor&#45;separated/config/default.js</title>
<path fill="none" stroke="#000000" stroke-width="2" stroke-opacity="0.200000" d="M189.01,-350C194.7,-350 200.79,-350 206.69,-350"/>
<polygon fill="#000000" fill-opacity="0.200000" stroke="#000000" stroke-width="2" stroke-opacity="0.200000" points="206.99,-352.1 212.99,-350 206.99,-347.9 206.99,-352.1"/>
</g>
<!-- reverse&#45;engineer/textidor&#45;series/2&#45;textidor&#45;separated/api/index.js -->
<g id="node10" class="node">
<title>reverse&#45;engineer/textidor&#45;series/2&#45;textidor&#45;separated/api/index.js</title>
<g id="a_node10"><a xlink:href="reverse-engineer/textidor-series/2-textidor-separated/api/index.js" xlink:title="index.js">
<path fill="#ccffcc" stroke="black" d="M90.55,-357.3C90.55,-357.3 48.95,-357.3 48.95,-357.3 45.85,-357.3 42.75,-354.2 42.75,-351.1 42.75,-351.1 42.75,-344.9 42.75,-344.9 42.75,-341.8 45.85,-338.7 48.95,-338.7 48.95,-338.7 90.55,-338.7 90.55,-338.7 93.65,-338.7 96.75,-341.8 96.75,-344.9 96.75,-344.9 96.75,-351.1 96.75,-351.1 96.75,-354.2 93.65,-357.3 90.55,-357.3"/>
<text text-anchor="middle" x="69.75" y="-345.3" font-family="Helvetica,sans-Serif" font-size="9.00">index.js</text>
</a>
</g>
</g>
<!-- reverse&#45;engineer/textidor&#45;series/2&#45;textidor&#45;separated/api/routes.js -->
<g id="node11" class="node">
<title>reverse&#45;engineer/textidor&#45;series/2&#45;textidor&#45;separated/api/routes.js</title>
<g id="a_node11"><a xlink:href="reverse-engineer/textidor-series/2-textidor-separated/api/routes.js" xlink:title="routes.js">
<path fill="#ffffcc" stroke="black" d="M90.55,-326.3C90.55,-326.3 48.95,-326.3 48.95,-326.3 45.85,-326.3 42.75,-323.2 42.75,-320.1 42.75,-320.1 42.75,-313.9 42.75,-313.9 42.75,-310.8 45.85,-307.7 48.95,-307.7 48.95,-307.7 90.55,-307.7 90.55,-307.7 93.65,-307.7 96.75,-310.8 96.75,-313.9 96.75,-313.9 96.75,-320.1 96.75,-320.1 96.75,-323.2 93.65,-326.3 90.55,-326.3"/>
<text text-anchor="middle" x="69.75" y="-314.3" font-family="Helvetica,sans-Serif" font-size="9.00">routes.js</text>
</a>
</g>
</g>
<!-- reverse&#45;engineer/textidor&#45;series/2&#45;textidor&#45;separated/api/routes.js&#45;&gt;node_modules/express -->
<g id="edge4" class="edge">
<title>reverse&#45;engineer/textidor&#45;series/2&#45;textidor&#45;separated/api/routes.js&#45;&gt;node_modules/express</title>
<path fill="none" stroke="#000000" stroke-opacity="0.200000" d="M97.02,-312.06C101.09,-310.17 104.83,-307.58 107.51,-304 127.24,-277.63 100.79,-185.47 115.51,-156 120.52,-145.97 129.5,-137.57 138.15,-131.25"/>
<polygon fill="#000000" fill-opacity="0.200000" stroke="#000000" stroke-opacity="0.200000" points="139.71,-132.72 143.45,-127.58 137.32,-129.27 139.71,-132.72"/>
</g>
<!-- reverse&#45;engineer/textidor&#45;series/2&#45;textidor&#45;separated/config/development.js -->
<g id="node13" class="node">
<title>reverse&#45;engineer/textidor&#45;series/2&#45;textidor&#45;separated/config/development.js</title>
<g id="a_node13"><a xlink:href="reverse-engineer/textidor-series/2-textidor-separated/config/development.js" xlink:title="development.js">
<path fill="#ccffcc" stroke="black" d="M193.58,-328.3C193.58,-328.3 129.95,-328.3 129.95,-328.3 126.85,-328.3 123.75,-325.2 123.75,-322.1 123.75,-322.1 123.75,-315.9 123.75,-315.9 123.75,-312.8 126.85,-309.7 129.95,-309.7 129.95,-309.7 193.58,-309.7 193.58,-309.7 196.68,-309.7 199.78,-312.8 199.78,-315.9 199.78,-315.9 199.78,-322.1 199.78,-322.1 199.78,-325.2 196.68,-328.3 193.58,-328.3"/>
<text text-anchor="middle" x="161.76" y="-316.3" font-family="Helvetica,sans-Serif" font-size="9.00">development.js</text>
</a>
</g>
</g>
<!-- reverse&#45;engineer/textidor&#45;series/2&#45;textidor&#45;separated/config/production.js -->
<g id="node14" class="node">
<title>reverse&#45;engineer/textidor&#45;series/2&#45;textidor&#45;separated/config/production.js</title>
<g id="a_node14"><a xlink:href="reverse-engineer/textidor-series/2-textidor-separated/config/production.js" xlink:title="production.js">
<path fill="#ccffcc" stroke="black" d="M189.07,-297.3C189.07,-297.3 134.45,-297.3 134.45,-297.3 131.35,-297.3 128.25,-294.2 128.25,-291.1 128.25,-291.1 128.25,-284.9 128.25,-284.9 128.25,-281.8 131.35,-278.7 134.45,-278.7 134.45,-278.7 189.07,-278.7 189.07,-278.7 192.17,-278.7 195.28,-281.8 195.28,-284.9 195.28,-284.9 195.28,-291.1 195.28,-291.1 195.28,-294.2 192.17,-297.3 189.07,-297.3"/>
<text text-anchor="middle" x="161.76" y="-285.3" font-family="Helvetica,sans-Serif" font-size="9.00">production.js</text>
</a>
</g>
</g>
<!-- reverse&#45;engineer/textidor&#45;series/2&#45;textidor&#45;separated/demo.min.js -->
<g id="node15" class="node">
<title>reverse&#45;engineer/textidor&#45;series/2&#45;textidor&#45;separated/demo.min.js</title>
<g id="a_node15"><a xlink:href="reverse-engineer/textidor-series/2-textidor-separated/demo.min.js" xlink:title="demo.min.js">
<path fill="#ffffcc" stroke="black" d="M95.56,-261.3C95.56,-261.3 43.95,-261.3 43.95,-261.3 40.85,-261.3 37.75,-258.2 37.75,-255.1 37.75,-255.1 37.75,-248.9 37.75,-248.9 37.75,-245.8 40.85,-242.7 43.95,-242.7 43.95,-242.7 95.56,-242.7 95.56,-242.7 98.66,-242.7 101.76,-245.8 101.76,-248.9 101.76,-248.9 101.76,-255.1 101.76,-255.1 101.76,-258.2 98.66,-261.3 95.56,-261.3"/>
<text text-anchor="middle" x="69.75" y="-249.3" font-family="Helvetica,sans-Serif" font-size="9.00">demo.min.js</text>
</a>
</g>
</g>
<!-- reverse&#45;engineer/textidor&#45;series/2&#45;textidor&#45;separated/demo.min.js&#45;&gt;fs -->
<g id="edge6" class="edge">
<title>reverse&#45;engineer/textidor&#45;series/2&#45;textidor&#45;separated/demo.min.js&#45;&gt;fs</title>
<path fill="none" stroke="#000000" stroke-dasharray="5,2" stroke-opacity="0.200000" d="M83.74,-242.65C91.7,-236.27 101.49,-227.16 107.51,-217 114.54,-205.13 106.14,-197.14 115.51,-187 119.08,-183.13 123.66,-180.19 128.51,-177.97"/>
<polygon fill="#000000" fill-opacity="0.200000" stroke="#000000" stroke-opacity="0.200000" points="129.5,-179.83 134.3,-175.67 127.95,-175.93 129.5,-179.83"/>
</g>
<!-- reverse&#45;engineer/textidor&#45;series/2&#45;textidor&#45;separated/demo.min.js&#45;&gt;node_modules/morgan -->
<g id="edge7" class="edge">
<title>reverse&#45;engineer/textidor&#45;series/2&#45;textidor&#45;separated/demo.min.js&#45;&gt;node_modules/morgan</title>
<path fill="none" stroke="#000000" stroke-opacity="0.200000" d="M85.25,-242.49C93.35,-236.29 102.76,-227.42 107.51,-217 115.63,-199.19 103.84,-56.72 115.51,-41 118.86,-36.48 123.6,-33.23 128.75,-30.89"/>
<polygon fill="#000000" fill-opacity="0.200000" stroke="#000000" stroke-opacity="0.200000" points="129.61,-32.81 134.46,-28.7 128.11,-28.89 129.61,-32.81"/>
</g>
<!-- reverse&#45;engineer/textidor&#45;series/2&#45;textidor&#45;separated/index.js -->
<g id="node16" class="node">
<title>reverse&#45;engineer/textidor&#45;series/2&#45;textidor&#45;separated/index.js</title>
<g id="a_node16"><a xlink:href="reverse-engineer/textidor-series/2-textidor-separated/index.js" xlink:title="index.js">
<path fill="#ffffcc" stroke="black" d="M90.55,-292.3C90.55,-292.3 48.95,-292.3 48.95,-292.3 45.85,-292.3 42.75,-289.2 42.75,-286.1 42.75,-286.1 42.75,-279.9 42.75,-279.9 42.75,-276.8 45.85,-273.7 48.95,-273.7 48.95,-273.7 90.55,-273.7 90.55,-273.7 93.65,-273.7 96.75,-276.8 96.75,-279.9 96.75,-279.9 96.75,-286.1 96.75,-286.1 96.75,-289.2 93.65,-292.3 90.55,-292.3"/>
<text text-anchor="middle" x="69.75" y="-280.3" font-family="Helvetica,sans-Serif" font-size="9.00">index.js</text>
</a>
</g>
</g>
<!-- reverse&#45;engineer/textidor&#45;series/2&#45;textidor&#45;separated/index.js&#45;&gt;fs -->
<g id="edge12" class="edge">
<title>reverse&#45;engineer/textidor&#45;series/2&#45;textidor&#45;separated/index.js&#45;&gt;fs</title>
<path fill="none" stroke="#000000" stroke-dasharray="5,2" stroke-opacity="0.200000" d="M96.97,-275.78C101.05,-273.57 104.8,-270.71 107.51,-267 128.56,-238.13 93.45,-215.11 115.51,-187 118.98,-182.57 123.78,-179.36 128.95,-177.04"/>
<polygon fill="#000000" fill-opacity="0.200000" stroke="#000000" stroke-opacity="0.200000" points="129.81,-178.96 134.67,-174.86 128.31,-175.04 129.81,-178.96"/>
</g>
<!-- reverse&#45;engineer/textidor&#45;series/2&#45;textidor&#45;separated/index.js&#45;&gt;node_modules/body&#45;parser -->
<g id="edge9" class="edge">
<title>reverse&#45;engineer/textidor&#45;series/2&#45;textidor&#45;separated/index.js&#45;&gt;node_modules/body&#45;parser</title>
<path fill="none" stroke="#000000" stroke-opacity="0.200000" d="M96.75,-276.09C100.96,-273.85 104.82,-270.89 107.51,-267 128.24,-236.98 93.72,-132.27 115.51,-103 117.79,-99.93 120.72,-97.44 123.97,-95.44"/>
<polygon fill="#000000" fill-opacity="0.200000" stroke="#000000" stroke-opacity="0.200000" points="124.97,-97.29 129.32,-92.65 123.03,-93.56 124.97,-97.29"/>
</g>
<!-- reverse&#45;engineer/textidor&#45;series/2&#45;textidor&#45;separated/index.js&#45;&gt;node_modules/cors -->
<g id="edge10" class="edge">
<title>reverse&#45;engineer/textidor&#45;series/2&#45;textidor&#45;separated/index.js&#45;&gt;node_modules/cors</title>
<path fill="none" stroke="#000000" stroke-opacity="0.200000" d="M96.78,-276.1C100.99,-273.86 104.83,-270.9 107.51,-267 119.76,-249.11 102.63,-89.45 115.51,-72 118.85,-67.47 123.58,-64.22 128.74,-61.88"/>
<polygon fill="#000000" fill-opacity="0.200000" stroke="#000000" stroke-opacity="0.200000" points="129.6,-63.8 134.45,-59.69 128.09,-59.88 129.6,-63.8"/>
</g>
<!-- reverse&#45;engineer/textidor&#45;series/2&#45;textidor&#45;separated/index.js&#45;&gt;node_modules/express -->
<g id="edge11" class="edge">
<title>reverse&#45;engineer/textidor&#45;series/2&#45;textidor&#45;separated/index.js&#45;&gt;node_modules/express</title>
<path fill="none" stroke="#000000" stroke-opacity="0.200000" d="M97.05,-275.84C101.12,-273.63 104.85,-270.75 107.51,-267 121.8,-246.82 104.26,-178.02 115.51,-156 120.68,-145.86 129.88,-137.37 138.63,-131.01"/>
<polygon fill="#000000" fill-opacity="0.200000" stroke="#000000" stroke-opacity="0.200000" points="140.23,-132.45 143.99,-127.32 137.85,-128.99 140.23,-132.45"/>
</g>
<!-- reverse&#45;engineer/textidor&#45;series/2&#45;textidor&#45;separated/index.js&#45;&gt;node_modules/morgan -->
<g id="edge13" class="edge">
<title>reverse&#45;engineer/textidor&#45;series/2&#45;textidor&#45;separated/index.js&#45;&gt;node_modules/morgan</title>
<path fill="none" stroke="#000000" stroke-opacity="0.200000" d="M96.8,-276.12C101,-273.87 104.84,-270.91 107.51,-267 121.65,-246.23 100.64,-61.26 115.51,-41 118.84,-36.46 123.56,-33.2 128.72,-30.87"/>
<polygon fill="#000000" fill-opacity="0.200000" stroke="#000000" stroke-opacity="0.200000" points="129.58,-32.79 134.43,-28.68 128.07,-28.86 129.58,-32.79"/>
</g>
<!-- reverse&#45;engineer/textidor&#45;series/2&#45;textidor&#45;separated/index.js&#45;&gt;path -->
<g id="edge14" class="edge">
<title>reverse&#45;engineer/textidor&#45;series/2&#45;textidor&#45;separated/index.js&#45;&gt;path</title>
<path fill="none" stroke="#000000" stroke-dasharray="5,2" stroke-opacity="0.200000" d="M96.54,-273.65C100.39,-271.74 104.18,-269.52 107.51,-267 126,-253.02 142.05,-231.35 151.57,-216.92"/>
<polygon fill="#000000" fill-opacity="0.200000" stroke="#000000" stroke-opacity="0.200000" points="153.52,-217.78 155.01,-211.6 149.99,-215.5 153.52,-217.78"/>
</g>
<!-- reverse&#45;engineer/textidor&#45;series/2&#45;textidor&#45;separated/index.js&#45;&gt;reverse&#45;engineer/textidor&#45;series/2&#45;textidor&#45;separated/config/index.js -->
<g id="edge8" class="edge">
<title>reverse&#45;engineer/textidor&#45;series/2&#45;textidor&#45;separated/index.js&#45;&gt;reverse&#45;engineer/textidor&#45;series/2&#45;textidor&#45;separated/config/index.js</title>
<path fill="none" stroke="#000000" stroke-width="2" stroke-opacity="0.200000" d="M96.96,-289.22C100.94,-291.15 104.66,-293.69 107.51,-297 118.47,-309.76 104.39,-321.37 115.51,-334 119.15,-338.13 123.92,-341.2 129.01,-343.47"/>
<polygon fill="#000000" fill-opacity="0.200000" stroke="#000000" stroke-width="2" stroke-opacity="0.200000" points="128.25,-345.43 134.61,-345.64 129.77,-341.52 128.25,-345.43"/>
</g>
</g>
</svg>
