<?xml version="1.0" encoding="UTF-8" standalone="no"?>
<!DOCTYPE svg PUBLIC "-//W3C//DTD SVG 1.1//EN"
 "http://www.w3.org/Graphics/SVG/1.1/DTD/svg11.dtd">
<!-- Generated by graphviz version 2.44.0 (20200408.0750)
 -->
<!-- Title: dependency&#45;cruiser output Pages: 1 -->
<svg width="221pt" height="147pt"
 viewBox="0.00 0.00 221.00 147.00" xmlns="http://www.w3.org/2000/svg" xmlns:xlink="http://www.w3.org/1999/xlink">
<g id="graph0" class="graph" transform="scale(1 1) rotate(0) translate(4 143)">
<title>dependency&#45;cruiser output</title>
<polygon fill="white" stroke="transparent" points="-4,4 -4,-143 217,-143 217,4 -4,4"/>
<g id="clust1" class="cluster">
<title>cluster_example&#45;apps</title>
<path fill="#ffffff" stroke="black" stroke-width="2" d="M12,-8C12,-8 139,-8 139,-8 145,-8 151,-14 151,-20 151,-20 151,-119 151,-119 151,-125 145,-131 139,-131 139,-131 12,-131 12,-131 6,-131 0,-125 0,-119 0,-119 0,-20 0,-20 0,-14 6,-8 12,-8"/>
<text text-anchor="middle" x="75.5" y="-118.9" font-family="Helvetica,sans-Serif" font-weight="bold" font-size="9.00">example&#45;apps</text>
</g>
<g id="clust2" class="cluster">
<title>cluster_example&#45;apps/stepped&#45;vanilla&#45;node&#45;server</title>
<path fill="#ffffff" stroke="black" stroke-width="2" d="M20,-16C20,-16 131,-16 131,-16 137,-16 143,-22 143,-28 143,-28 143,-92 143,-92 143,-98 137,-104 131,-104 131,-104 20,-104 20,-104 14,-104 8,-98 8,-92 8,-92 8,-28 8,-28 8,-22 14,-16 20,-16"/>
<text text-anchor="middle" x="75.5" y="-91.9" font-family="Helvetica,sans-Serif" font-weight="bold" font-size="9.00">stepped&#45;vanilla&#45;node&#45;server</text>
</g>
<g id="clust3" class="cluster">
<title>cluster_example&#45;apps/stepped&#45;vanilla&#45;node&#45;server/7.sending&#45;json&#45;responses</title>
<path fill="#ffffff" stroke="black" stroke-width="2" d="M28,-24C28,-24 123,-24 123,-24 129,-24 135,-30 135,-36 135,-36 135,-65 135,-65 135,-71 129,-77 123,-77 123,-77 28,-77 28,-77 22,-77 16,-71 16,-65 16,-65 16,-36 16,-36 16,-30 22,-24 28,-24"/>
<text text-anchor="middle" x="75.5" y="-64.9" font-family="Helvetica,sans-Serif" font-weight="bold" font-size="9.00">7.sending&#45;json&#45;responses</text>
</g>
<!-- example&#45;apps/stepped&#45;vanilla&#45;node&#45;server/7.sending&#45;json&#45;responses/index.js -->
<g id="node1" class="node">
<title>example&#45;apps/stepped&#45;vanilla&#45;node&#45;server/7.sending&#45;json&#45;responses/index.js</title>
<g id="a_node1"><a xlink:href="example-apps/stepped-vanilla-node-server/7.sending-json-responses/index.js" xlink:title="index.js">
<path fill="#ffffcc" stroke="black" d="M95.8,-50.3C95.8,-50.3 54.2,-50.3 54.2,-50.3 51.1,-50.3 48,-47.2 48,-44.1 48,-44.1 48,-37.9 48,-37.9 48,-34.8 51.1,-31.7 54.2,-31.7 54.2,-31.7 95.8,-31.7 95.8,-31.7 98.9,-31.7 102,-34.8 102,-37.9 102,-37.9 102,-44.1 102,-44.1 102,-47.2 98.9,-50.3 95.8,-50.3"/>
<text text-anchor="middle" x="75" y="-38.3" font-family="Helvetica,sans-Serif" font-size="9.00">index.js</text>
</a>
</g>
</g>
<!-- http -->
<g id="node2" class="node">
<title>http</title>
<path fill="#ffffcc" stroke="grey" d="M206.8,-50.3C206.8,-50.3 165.2,-50.3 165.2,-50.3 162.1,-50.3 159,-47.2 159,-44.1 159,-44.1 159,-37.9 159,-37.9 159,-34.8 162.1,-31.7 165.2,-31.7 165.2,-31.7 206.8,-31.7 206.8,-31.7 209.9,-31.7 213,-34.8 213,-37.9 213,-37.9 213,-44.1 213,-44.1 213,-47.2 209.9,-50.3 206.8,-50.3"/>
<text text-anchor="middle" x="186" y="-38.3" font-family="Helvetica,sans-Serif" font-size="9.00" fill="grey">http</text>
</g>
<!-- example&#45;apps/stepped&#45;vanilla&#45;node&#45;server/7.sending&#45;json&#45;responses/index.js&#45;&gt;http -->
<g id="edge1" class="edge">
<title>example&#45;apps/stepped&#45;vanilla&#45;node&#45;server/7.sending&#45;json&#45;responses/index.js&#45;&gt;http</title>
<path fill="none" stroke="#000000" stroke-dasharray="5,2" stroke-opacity="0.200000" d="M102.11,-41C117.23,-41 136.4,-41 152.5,-41"/>
<polygon fill="#000000" fill-opacity="0.200000" stroke="#000000" stroke-opacity="0.200000" points="152.73,-43.1 158.73,-41 152.73,-38.9 152.73,-43.1"/>
</g>
</g>
</svg>
