<?xml version="1.0" encoding="UTF-8" standalone="no"?>
<!DOCTYPE svg PUBLIC "-//W3C//DTD SVG 1.1//EN"
 "http://www.w3.org/Graphics/SVG/1.1/DTD/svg11.dtd">
<!-- Generated by graphviz version 2.44.0 (20200408.0750)
 -->
<!-- Title: dependency&#45;cruiser output Pages: 1 -->
<svg width="234pt" height="147pt"
 viewBox="0.00 0.00 234.00 147.00" xmlns="http://www.w3.org/2000/svg" xmlns:xlink="http://www.w3.org/1999/xlink">
<g id="graph0" class="graph" transform="scale(1 1) rotate(0) translate(4 143)">
<title>dependency&#45;cruiser output</title>
<polygon fill="white" stroke="transparent" points="-4,4 -4,-143 230,-143 230,4 -4,4"/>
<g id="clust1" class="cluster">
<title>cluster_commonjs&#45;modules</title>
<path fill="#ffffff" stroke="black" stroke-width="2" d="M12,-8C12,-8 126,-8 126,-8 132,-8 138,-14 138,-20 138,-20 138,-119 138,-119 138,-125 132,-131 126,-131 126,-131 12,-131 12,-131 6,-131 0,-125 0,-119 0,-119 0,-20 0,-20 0,-14 6,-8 12,-8"/>
<text text-anchor="middle" x="69" y="-118.9" font-family="Helvetica,sans-Serif" font-weight="bold" font-size="9.00">commonjs&#45;modules</text>
</g>
<g id="clust2" class="cluster">
<title>cluster_commonjs&#45;modules/examples</title>
<path fill="#ffffff" stroke="black" stroke-width="2" d="M20,-16C20,-16 118,-16 118,-16 124,-16 130,-22 130,-28 130,-28 130,-92 130,-92 130,-98 124,-104 118,-104 118,-104 20,-104 20,-104 14,-104 8,-98 8,-92 8,-92 8,-28 8,-28 8,-22 14,-16 20,-16"/>
<text text-anchor="middle" x="69" y="-91.9" font-family="Helvetica,sans-Serif" font-weight="bold" font-size="9.00">examples</text>
</g>
<g id="clust3" class="cluster">
<title>cluster_commonjs&#45;modules/examples/06&#45;third&#45;party&#45;modules</title>
<path fill="#ffffff" stroke="black" stroke-width="2" d="M28,-24C28,-24 110,-24 110,-24 116,-24 122,-30 122,-36 122,-36 122,-65 122,-65 122,-71 116,-77 110,-77 110,-77 28,-77 28,-77 22,-77 16,-71 16,-65 16,-65 16,-36 16,-36 16,-30 22,-24 28,-24"/>
<text text-anchor="middle" x="69" y="-64.9" font-family="Helvetica,sans-Serif" font-weight="bold" font-size="9.00">06&#45;third&#45;party&#45;modules</text>
</g>
<g id="clust4" class="cluster">
<title>cluster_node_modules</title>
<path fill="#ffffff" stroke="black" stroke-width="2" d="M158,-24C158,-24 209,-24 209,-24 215,-24 221,-30 221,-36 221,-36 221,-65 221,-65 221,-71 215,-77 209,-77 209,-77 158,-77 158,-77 152,-77 146,-71 146,-65 146,-65 146,-36 146,-36 146,-30 152,-24 158,-24"/>
<text text-anchor="middle" x="183.5" y="-64.9" font-family="Helvetica,sans-Serif" font-weight="bold" font-size="9.00">node_modules</text>
</g>
<!-- commonjs&#45;modules/examples/06&#45;third&#45;party&#45;modules/index.js -->
<g id="node1" class="node">
<title>commonjs&#45;modules/examples/06&#45;third&#45;party&#45;modules/index.js</title>
<g id="a_node1"><a xlink:href="commonjs-modules/examples/06-third-party-modules/index.js" xlink:title="index.js">
<path fill="#ffffcc" stroke="black" d="M89.8,-50.3C89.8,-50.3 48.2,-50.3 48.2,-50.3 45.1,-50.3 42,-47.2 42,-44.1 42,-44.1 42,-37.9 42,-37.9 42,-34.8 45.1,-31.7 48.2,-31.7 48.2,-31.7 89.8,-31.7 89.8,-31.7 92.9,-31.7 96,-34.8 96,-37.9 96,-37.9 96,-44.1 96,-44.1 96,-47.2 92.9,-50.3 89.8,-50.3"/>
<text text-anchor="middle" x="69" y="-38.3" font-family="Helvetica,sans-Serif" font-size="9.00">index.js</text>
</a>
</g>
</g>
<!-- node_modules/chalk -->
<g id="node2" class="node">
<title>node_modules/chalk</title>
<g id="a_node2"><a xlink:href="node_modules/chalk" xlink:title="chalk">
<polygon fill="#c40b0a" fill-opacity="0.101961" stroke="black" points="210,-50.3 158.07,-50.3 156,-48.23 156,-31.7 207.93,-31.7 210,-33.77 210,-50.3"/>
<polyline fill="none" stroke="black" points="207.93,-48.23 156,-48.23 "/>
<polyline fill="none" stroke="black" points="207.93,-48.23 207.93,-31.7 "/>
<polyline fill="none" stroke="black" points="207.93,-48.23 210,-50.3 "/>
<text text-anchor="middle" x="183" y="-38.3" font-family="Helvetica,sans-Serif" font-size="9.00" fill="#c40b0a">chalk</text>
</a>
</g>
</g>
<!-- commonjs&#45;modules/examples/06&#45;third&#45;party&#45;modules/index.js&#45;&gt;node_modules/chalk -->
<g id="edge1" class="edge">
<title>commonjs&#45;modules/examples/06&#45;third&#45;party&#45;modules/index.js&#45;&gt;node_modules/chalk</title>
<path fill="none" stroke="#000000" stroke-opacity="0.200000" d="M96.26,-41C112.27,-41 132.84,-41 149.83,-41"/>
<polygon fill="#000000" fill-opacity="0.200000" stroke="#000000" stroke-opacity="0.200000" points="149.91,-43.1 155.91,-41 149.91,-38.9 149.91,-43.1"/>
</g>
</g>
</svg>
