<?xml version="1.0" encoding="UTF-8" standalone="no"?>
<!DOCTYPE svg PUBLIC "-//W3C//DTD SVG 1.1//EN"
 "http://www.w3.org/Graphics/SVG/1.1/DTD/svg11.dtd">
<!-- Generated by graphviz version 2.44.0 (20200408.0750)
 -->
<!-- Title: dependency&#45;cruiser output Pages: 1 -->
<svg width="302pt" height="472pt"
 viewBox="0.00 0.00 301.52 472.40" xmlns="http://www.w3.org/2000/svg" xmlns:xlink="http://www.w3.org/1999/xlink">
<g id="graph0" class="graph" transform="scale(1 1) rotate(0) translate(4 468.4)">
<title>dependency&#45;cruiser output</title>
<polygon fill="white" stroke="transparent" points="-4,4 -4,-468.4 297.52,-468.4 297.52,4 -4,4"/>
<g id="clust1" class="cluster">
<title>cluster_node_modules</title>
<path fill="#ffffff" stroke="black" stroke-width="2" d="M198.51,-8C198.51,-8 254.52,-8 254.52,-8 260.52,-8 266.52,-14 266.52,-20 266.52,-20 266.52,-111 266.52,-111 266.52,-117 260.52,-123 254.52,-123 254.52,-123 198.51,-123 198.51,-123 192.51,-123 186.51,-117 186.51,-111 186.51,-111 186.51,-20 186.51,-20 186.51,-14 192.51,-8 198.51,-8"/>
<text text-anchor="middle" x="226.52" y="-110.9" font-family="Helvetica,sans-Serif" font-weight="bold" font-size="9.00">node_modules</text>
</g>
<g id="clust2" class="cluster">
<title>cluster_using&#45;express</title>
<path fill="#ffffff" stroke="black" stroke-width="2" d="M20,-157C20,-157 273.52,-157 273.52,-157 279.52,-157 285.52,-163 285.52,-169 285.52,-169 285.52,-426 285.52,-426 285.52,-432 279.52,-438 273.52,-438 273.52,-438 20,-438 20,-438 14,-438 8,-432 8,-426 8,-426 8,-169 8,-169 8,-163 14,-157 20,-157"/>
<text text-anchor="middle" x="146.76" y="-425.9" font-family="Helvetica,sans-Serif" font-weight="bold" font-size="9.00">using&#45;express</text>
</g>
<g id="clust3" class="cluster">
<title>cluster_using&#45;express/3&#45;params&#45;queries&#45;body</title>
<path fill="#ffffff" stroke="black" stroke-width="2" d="M28,-165C28,-165 265.52,-165 265.52,-165 271.52,-165 277.52,-171 277.52,-177 277.52,-177 277.52,-399 277.52,-399 277.52,-405 271.52,-411 265.52,-411 265.52,-411 28,-411 28,-411 22,-411 16,-405 16,-399 16,-399 16,-177 16,-177 16,-171 22,-165 28,-165"/>
<text text-anchor="middle" x="146.76" y="-398.9" font-family="Helvetica,sans-Serif" font-weight="bold" font-size="9.00">3&#45;params&#45;queries&#45;body</text>
</g>
<g id="clust4" class="cluster">
<title>cluster_using&#45;express/3&#45;params&#45;queries&#45;body/example</title>
<path fill="#ffffff" stroke="black" stroke-width="2" d="M36,-173C36,-173 257.52,-173 257.52,-173 263.52,-173 269.52,-179 269.52,-185 269.52,-185 269.52,-372 269.52,-372 269.52,-378 263.52,-384 257.52,-384 257.52,-384 36,-384 36,-384 30,-384 24,-378 24,-372 24,-372 24,-185 24,-185 24,-179 30,-173 36,-173"/>
<text text-anchor="middle" x="146.76" y="-371.9" font-family="Helvetica,sans-Serif" font-weight="bold" font-size="9.00">example</text>
</g>
<g id="clust5" class="cluster">
<title>cluster_using&#45;express/3&#45;params&#45;queries&#45;body/example/config</title>
<path fill="#ffffff" stroke="black" stroke-width="2" d="M106,-242C106,-242 249.52,-242 249.52,-242 255.52,-242 261.52,-248 261.52,-254 261.52,-254 261.52,-345 261.52,-345 261.52,-351 255.52,-357 249.52,-357 249.52,-357 106,-357 106,-357 100,-357 94,-351 94,-345 94,-345 94,-254 94,-254 94,-248 100,-242 106,-242"/>
<text text-anchor="middle" x="177.76" y="-344.9" font-family="Helvetica,sans-Serif" font-weight="bold" font-size="9.00">config</text>
</g>
<g id="clust6" class="cluster">
<title>cluster_using&#45;express/3&#45;params&#45;queries&#45;body/example/middleware</title>
<path fill="#ffffff" stroke="black" stroke-width="2" d="M117.26,-181C117.26,-181 163.26,-181 163.26,-181 169.26,-181 175.26,-187 175.26,-193 175.26,-193 175.26,-222 175.26,-222 175.26,-228 169.26,-234 163.26,-234 163.26,-234 117.26,-234 117.26,-234 111.26,-234 105.26,-228 105.26,-222 105.26,-222 105.26,-193 105.26,-193 105.26,-187 111.26,-181 117.26,-181"/>
<text text-anchor="middle" x="140.26" y="-221.9" font-family="Helvetica,sans-Serif" font-weight="bold" font-size="9.00">middleware</text>
</g>
<!-- fs -->
<g id="node1" class="node">
<title>fs</title>
<path fill="#ffffcc" stroke="grey" d="M247.32,-149.3C247.32,-149.3 205.72,-149.3 205.72,-149.3 202.62,-149.3 199.52,-146.2 199.52,-143.1 199.52,-143.1 199.52,-136.9 199.52,-136.9 199.52,-133.8 202.62,-130.7 205.72,-130.7 205.72,-130.7 247.32,-130.7 247.32,-130.7 250.42,-130.7 253.52,-133.8 253.52,-136.9 253.52,-136.9 253.52,-143.1 253.52,-143.1 253.52,-146.2 250.42,-149.3 247.32,-149.3"/>
<text text-anchor="middle" x="226.52" y="-137.3" font-family="Helvetica,sans-Serif" font-size="9.00" fill="grey">fs</text>
</g>
<!-- node_modules/body&#45;parser -->
<g id="node2" class="node">
<title>node_modules/body&#45;parser</title>
<g id="a_node2"><a xlink:href="node_modules/body-parser" xlink:title="body&#45;parser">
<polygon fill="#c40b0a" fill-opacity="0.101961" stroke="black" points="258.52,-65.3 196.58,-65.3 194.51,-63.23 194.51,-46.7 256.46,-46.7 258.52,-48.77 258.52,-65.3"/>
<polyline fill="none" stroke="black" points="256.46,-63.23 194.51,-63.23 "/>
<polyline fill="none" stroke="black" points="256.46,-63.23 256.46,-46.7 "/>
<polyline fill="none" stroke="black" points="256.46,-63.23 258.52,-65.3 "/>
<text text-anchor="middle" x="226.52" y="-53.3" font-family="Helvetica,sans-Serif" font-size="9.00" fill="#c40b0a">body&#45;parser</text>
</a>
</g>
</g>
<!-- node_modules/date&#45;fns -->
<g id="node3" class="node">
<title>node_modules/date&#45;fns</title>
<g id="a_node3"><a xlink:href="node_modules/date-fns" xlink:title="date&#45;fns">
<polygon fill="#c40b0a" fill-opacity="0.101961" stroke="black" points="253.52,-96.3 201.58,-96.3 199.52,-94.23 199.52,-77.7 251.45,-77.7 253.52,-79.77 253.52,-96.3"/>
<polyline fill="none" stroke="black" points="251.45,-94.23 199.52,-94.23 "/>
<polyline fill="none" stroke="black" points="251.45,-94.23 251.45,-77.7 "/>
<polyline fill="none" stroke="black" points="251.45,-94.23 253.52,-96.3 "/>
<text text-anchor="middle" x="226.52" y="-84.3" font-family="Helvetica,sans-Serif" font-size="9.00" fill="#c40b0a">date&#45;fns</text>
</a>
</g>
</g>
<!-- node_modules/express -->
<g id="node4" class="node">
<title>node_modules/express</title>
<g id="a_node4"><a xlink:href="node_modules/express" xlink:title="express">
<polygon fill="#c40b0a" fill-opacity="0.101961" stroke="black" points="253.52,-34.3 201.58,-34.3 199.52,-32.23 199.52,-15.7 251.45,-15.7 253.52,-17.77 253.52,-34.3"/>
<polyline fill="none" stroke="black" points="251.45,-32.23 199.52,-32.23 "/>
<polyline fill="none" stroke="black" points="251.45,-32.23 251.45,-15.7 "/>
<polyline fill="none" stroke="black" points="251.45,-32.23 253.52,-34.3 "/>
<text text-anchor="middle" x="226.52" y="-22.3" font-family="Helvetica,sans-Serif" font-size="9.00" fill="#c40b0a">express</text>
</a>
</g>
</g>
<!-- path -->
<g id="node5" class="node">
<title>path</title>
<path fill="#ffffcc" stroke="grey" d="M161.06,-121.3C161.06,-121.3 119.46,-121.3 119.46,-121.3 116.36,-121.3 113.26,-118.2 113.26,-115.1 113.26,-115.1 113.26,-108.9 113.26,-108.9 113.26,-105.8 116.36,-102.7 119.46,-102.7 119.46,-102.7 161.06,-102.7 161.06,-102.7 164.16,-102.7 167.26,-105.8 167.26,-108.9 167.26,-108.9 167.26,-115.1 167.26,-115.1 167.26,-118.2 164.16,-121.3 161.06,-121.3"/>
<text text-anchor="middle" x="140.26" y="-109.3" font-family="Helvetica,sans-Serif" font-size="9.00" fill="grey">path</text>
</g>
<!-- public -->
<g id="node6" class="node">
<title>public</title>
<g id="a_node6"><a xlink:href="public" xlink:title="public">
<polygon fill="#ccffcc" stroke="black" points="86,-464.3 34.07,-464.3 32,-462.23 32,-445.7 83.93,-445.7 86,-447.77 86,-464.3"/>
<polyline fill="none" stroke="black" points="83.93,-462.23 32,-462.23 "/>
<polyline fill="none" stroke="black" points="83.93,-462.23 83.93,-445.7 "/>
<polyline fill="none" stroke="black" points="83.93,-462.23 86,-464.3 "/>
<text text-anchor="middle" x="59" y="-452.3" font-family="Helvetica,sans-Serif" font-size="9.00">public</text>
</a>
</g>
</g>
<!-- using&#45;express/3&#45;params&#45;queries&#45;body/example/config/default.js -->
<g id="node7" class="node">
<title>using&#45;express/3&#45;params&#45;queries&#45;body/example/config/default.js</title>
<g id="a_node7"><a xlink:href="using-express/3-params-queries-body/example/config/default.js" xlink:title="default.js">
<path fill="#ffffcc" stroke="black" d="M247.32,-299.3C247.32,-299.3 205.72,-299.3 205.72,-299.3 202.62,-299.3 199.52,-296.2 199.52,-293.1 199.52,-293.1 199.52,-286.9 199.52,-286.9 199.52,-283.8 202.62,-280.7 205.72,-280.7 205.72,-280.7 247.32,-280.7 247.32,-280.7 250.42,-280.7 253.52,-283.8 253.52,-286.9 253.52,-286.9 253.52,-293.1 253.52,-293.1 253.52,-296.2 250.42,-299.3 247.32,-299.3"/>
<text text-anchor="middle" x="226.52" y="-287.3" font-family="Helvetica,sans-Serif" font-size="9.00">default.js</text>
</a>
</g>
</g>
<!-- using&#45;express/3&#45;params&#45;queries&#45;body/example/config/development.js -->
<g id="node8" class="node">
<title>using&#45;express/3&#45;params&#45;queries&#45;body/example/config/development.js</title>
<g id="a_node8"><a xlink:href="using-express/3-params-queries-body/example/config/development.js" xlink:title="development.js">
<path fill="#ccffcc" stroke="black" d="M172.07,-330.3C172.07,-330.3 108.44,-330.3 108.44,-330.3 105.34,-330.3 102.24,-327.2 102.24,-324.1 102.24,-324.1 102.24,-317.9 102.24,-317.9 102.24,-314.8 105.34,-311.7 108.44,-311.7 108.44,-311.7 172.07,-311.7 172.07,-311.7 175.17,-311.7 178.27,-314.8 178.27,-317.9 178.27,-317.9 178.27,-324.1 178.27,-324.1 178.27,-327.2 175.17,-330.3 172.07,-330.3"/>
<text text-anchor="middle" x="140.26" y="-318.3" font-family="Helvetica,sans-Serif" font-size="9.00">development.js</text>
</a>
</g>
</g>
<!-- using&#45;express/3&#45;params&#45;queries&#45;body/example/config/index.js -->
<g id="node9" class="node">
<title>using&#45;express/3&#45;params&#45;queries&#45;body/example/config/index.js</title>
<g id="a_node9"><a xlink:href="using-express/3-params-queries-body/example/config/index.js" xlink:title="index.js">
<path fill="#ffffcc" stroke="black" d="M161.06,-299.3C161.06,-299.3 119.46,-299.3 119.46,-299.3 116.36,-299.3 113.26,-296.2 113.26,-293.1 113.26,-293.1 113.26,-286.9 113.26,-286.9 113.26,-283.8 116.36,-280.7 119.46,-280.7 119.46,-280.7 161.06,-280.7 161.06,-280.7 164.16,-280.7 167.26,-283.8 167.26,-286.9 167.26,-286.9 167.26,-293.1 167.26,-293.1 167.26,-296.2 164.16,-299.3 161.06,-299.3"/>
<text text-anchor="middle" x="140.26" y="-287.3" font-family="Helvetica,sans-Serif" font-size="9.00">index.js</text>
</a>
</g>
</g>
<!-- using&#45;express/3&#45;params&#45;queries&#45;body/example/config/index.js&#45;&gt;using&#45;express/3&#45;params&#45;queries&#45;body/example/config/default.js -->
<g id="edge1" class="edge">
<title>using&#45;express/3&#45;params&#45;queries&#45;body/example/config/index.js&#45;&gt;using&#45;express/3&#45;params&#45;queries&#45;body/example/config/default.js</title>
<path fill="none" stroke="#000000" stroke-width="2" stroke-opacity="0.200000" d="M167.46,-290C175.54,-290 184.54,-290 193,-290"/>
<polygon fill="#000000" fill-opacity="0.200000" stroke="#000000" stroke-width="2" stroke-opacity="0.200000" points="193.34,-292.1 199.34,-290 193.34,-287.9 193.34,-292.1"/>
</g>
<!-- using&#45;express/3&#45;params&#45;queries&#45;body/example/config/production.js -->
<g id="node10" class="node">
<title>using&#45;express/3&#45;params&#45;queries&#45;body/example/config/production.js</title>
<g id="a_node10"><a xlink:href="using-express/3-params-queries-body/example/config/production.js" xlink:title="production.js">
<path fill="#ccffcc" stroke="black" d="M167.57,-268.3C167.57,-268.3 112.95,-268.3 112.95,-268.3 109.85,-268.3 106.75,-265.2 106.75,-262.1 106.75,-262.1 106.75,-255.9 106.75,-255.9 106.75,-252.8 109.85,-249.7 112.95,-249.7 112.95,-249.7 167.57,-249.7 167.57,-249.7 170.67,-249.7 173.77,-252.8 173.77,-255.9 173.77,-255.9 173.77,-262.1 173.77,-262.1 173.77,-265.2 170.67,-268.3 167.57,-268.3"/>
<text text-anchor="middle" x="140.26" y="-256.3" font-family="Helvetica,sans-Serif" font-size="9.00">production.js</text>
</a>
</g>
</g>
<!-- using&#45;express/3&#45;params&#45;queries&#45;body/example/index.js -->
<g id="node11" class="node">
<title>using&#45;express/3&#45;params&#45;queries&#45;body/example/index.js</title>
<g id="a_node11"><a xlink:href="using-express/3-params-queries-body/example/index.js" xlink:title="index.js">
<path fill="#ffffcc" stroke="black" d="M79.8,-199.3C79.8,-199.3 38.2,-199.3 38.2,-199.3 35.1,-199.3 32,-196.2 32,-193.1 32,-193.1 32,-186.9 32,-186.9 32,-183.8 35.1,-180.7 38.2,-180.7 38.2,-180.7 79.8,-180.7 79.8,-180.7 82.9,-180.7 86,-183.8 86,-186.9 86,-186.9 86,-193.1 86,-193.1 86,-196.2 82.9,-199.3 79.8,-199.3"/>
<text text-anchor="middle" x="59" y="-187.3" font-family="Helvetica,sans-Serif" font-size="9.00">index.js</text>
</a>
</g>
</g>
<!-- using&#45;express/3&#45;params&#45;queries&#45;body/example/index.js&#45;&gt;node_modules/body&#45;parser -->
<g id="edge4" class="edge">
<title>using&#45;express/3&#45;params&#45;queries&#45;body/example/index.js&#45;&gt;node_modules/body&#45;parser</title>
<path fill="none" stroke="#000000" stroke-opacity="0.200000" d="M86.34,-180.65C88.93,-179.75 91.51,-178.85 94,-178 131.44,-165.19 153.74,-180.85 178.51,-150 200.33,-122.83 165.65,-99.91 186.51,-72 187.3,-70.94 188.17,-69.96 189.11,-69.04"/>
<polygon fill="#000000" fill-opacity="0.200000" stroke="#000000" stroke-opacity="0.200000" points="190.88,-70.32 194.28,-64.95 188.27,-67.03 190.88,-70.32"/>
</g>
<!-- using&#45;express/3&#45;params&#45;queries&#45;body/example/index.js&#45;&gt;node_modules/express -->
<g id="edge5" class="edge">
<title>using&#45;express/3&#45;params&#45;queries&#45;body/example/index.js&#45;&gt;node_modules/express</title>
<path fill="none" stroke="#000000" stroke-opacity="0.200000" d="M65.86,-180.57C71.87,-171.68 82.01,-158.6 94,-151 126.97,-130.09 153.56,-157.03 178.51,-127 190.78,-112.24 175.1,-56.43 186.51,-41 188.53,-38.28 191.09,-36.02 193.93,-34.14"/>
<polygon fill="#000000" fill-opacity="0.200000" stroke="#000000" stroke-opacity="0.200000" points="195.07,-35.91 199.29,-31.16 193.03,-32.24 195.07,-35.91"/>
</g>
<!-- using&#45;express/3&#45;params&#45;queries&#45;body/example/index.js&#45;&gt;path -->
<g id="edge6" class="edge">
<title>using&#45;express/3&#45;params&#45;queries&#45;body/example/index.js&#45;&gt;path</title>
<path fill="none" stroke="#000000" stroke-dasharray="5,2" stroke-opacity="0.200000" d="M63.07,-180.58C67.77,-167.54 77.93,-144 94,-130 97.94,-126.57 102.62,-123.74 107.44,-121.43"/>
<polygon fill="#000000" fill-opacity="0.200000" stroke="#000000" stroke-opacity="0.200000" points="108.48,-123.27 113.14,-118.95 106.8,-119.42 108.48,-123.27"/>
</g>
<!-- using&#45;express/3&#45;params&#45;queries&#45;body/example/index.js&#45;&gt;using&#45;express/3&#45;params&#45;queries&#45;body/example/config/index.js -->
<g id="edge2" class="edge">
<title>using&#45;express/3&#45;params&#45;queries&#45;body/example/index.js&#45;&gt;using&#45;express/3&#45;params&#45;queries&#45;body/example/config/index.js</title>
<path fill="none" stroke="#000000" stroke-width="2" stroke-opacity="0.200000" d="M61.26,-199.48C64.04,-216.7 72.28,-253.23 94,-274 97.81,-277.64 102.5,-280.46 107.4,-282.64"/>
<polygon fill="#000000" fill-opacity="0.200000" stroke="#000000" stroke-width="2" stroke-opacity="0.200000" points="106.86,-284.69 113.21,-284.92 108.39,-280.78 106.86,-284.69"/>
</g>
<!-- using&#45;express/3&#45;params&#45;queries&#45;body/example/middleware/logger.js -->
<g id="node12" class="node">
<title>using&#45;express/3&#45;params&#45;queries&#45;body/example/middleware/logger.js</title>
<g id="a_node12"><a xlink:href="using-express/3-params-queries-body/example/middleware/logger.js" xlink:title="logger.js">
<path fill="#ffffcc" stroke="black" d="M161.06,-207.3C161.06,-207.3 119.46,-207.3 119.46,-207.3 116.36,-207.3 113.26,-204.2 113.26,-201.1 113.26,-201.1 113.26,-194.9 113.26,-194.9 113.26,-191.8 116.36,-188.7 119.46,-188.7 119.46,-188.7 161.06,-188.7 161.06,-188.7 164.16,-188.7 167.26,-191.8 167.26,-194.9 167.26,-194.9 167.26,-201.1 167.26,-201.1 167.26,-204.2 164.16,-207.3 161.06,-207.3"/>
<text text-anchor="middle" x="140.26" y="-195.3" font-family="Helvetica,sans-Serif" font-size="9.00">logger.js</text>
</a>
</g>
</g>
<!-- using&#45;express/3&#45;params&#45;queries&#45;body/example/index.js&#45;&gt;using&#45;express/3&#45;params&#45;queries&#45;body/example/middleware/logger.js -->
<g id="edge3" class="edge">
<title>using&#45;express/3&#45;params&#45;queries&#45;body/example/index.js&#45;&gt;using&#45;express/3&#45;params&#45;queries&#45;body/example/middleware/logger.js</title>
<path fill="none" stroke="#000000" stroke-width="2" stroke-opacity="0.200000" d="M86.39,-192.66C93.01,-193.33 100.19,-194.06 107.06,-194.75"/>
<polygon fill="#000000" fill-opacity="0.200000" stroke="#000000" stroke-width="2" stroke-opacity="0.200000" points="107.07,-196.86 113.25,-195.37 107.49,-192.68 107.07,-196.86"/>
</g>
<!-- using&#45;express/3&#45;params&#45;queries&#45;body/example/middleware/logger.js&#45;&gt;fs -->
<g id="edge8" class="edge">
<title>using&#45;express/3&#45;params&#45;queries&#45;body/example/middleware/logger.js&#45;&gt;fs</title>
<path fill="none" stroke="#000000" stroke-dasharray="5,2" stroke-opacity="0.200000" d="M158.21,-188.56C164.67,-184.82 172.04,-180.37 178.51,-176 188.82,-169.05 199.87,-160.63 208.67,-153.69"/>
<polygon fill="#000000" fill-opacity="0.200000" stroke="#000000" stroke-opacity="0.200000" points="210.45,-154.96 213.83,-149.58 207.83,-151.67 210.45,-154.96"/>
</g>
<!-- using&#45;express/3&#45;params&#45;queries&#45;body/example/middleware/logger.js&#45;&gt;node_modules/date&#45;fns -->
<g id="edge7" class="edge">
<title>using&#45;express/3&#45;params&#45;queries&#45;body/example/middleware/logger.js&#45;&gt;node_modules/date&#45;fns</title>
<path fill="none" stroke="#000000" stroke-opacity="0.200000" d="M164.31,-188.62C169.74,-185.38 174.97,-181.22 178.51,-176 191.4,-157.02 175.98,-145.38 186.51,-125 191.47,-115.4 199.78,-106.8 207.45,-100.22"/>
<polygon fill="#000000" fill-opacity="0.200000" stroke="#000000" stroke-opacity="0.200000" points="208.81,-101.82 212.11,-96.39 206.14,-98.58 208.81,-101.82"/>
</g>
</g>
</svg>
