<?xml version="1.0" encoding="UTF-8" standalone="no"?>
<!DOCTYPE svg PUBLIC "-//W3C//DTD SVG 1.1//EN"
 "http://www.w3.org/Graphics/SVG/1.1/DTD/svg11.dtd">
<!-- Generated by graphviz version 2.44.0 (20200408.0750)
 -->
<!-- Title: dependency&#45;cruiser output Pages: 1 -->
<svg width="217pt" height="147pt"
 viewBox="0.00 0.00 217.00 147.00" xmlns="http://www.w3.org/2000/svg" xmlns:xlink="http://www.w3.org/1999/xlink">
<g id="graph0" class="graph" transform="scale(1 1) rotate(0) translate(4 143)">
<title>dependency&#45;cruiser output</title>
<polygon fill="white" stroke="transparent" points="-4,4 -4,-143 213,-143 213,4 -4,4"/>
<g id="clust1" class="cluster">
<title>cluster_example&#45;apps</title>
<path fill="#ffffff" stroke="black" stroke-width="2" d="M12,-8C12,-8 127,-8 127,-8 133,-8 139,-14 139,-20 139,-20 139,-119 139,-119 139,-125 133,-131 127,-131 127,-131 12,-131 12,-131 6,-131 0,-125 0,-119 0,-119 0,-20 0,-20 0,-14 6,-8 12,-8"/>
<text text-anchor="middle" x="69.5" y="-118.9" font-family="Helvetica,sans-Serif" font-weight="bold" font-size="9.00">example&#45;apps</text>
</g>
<g id="clust2" class="cluster">
<title>cluster_example&#45;apps/stepped&#45;cli&#45;and&#45;file&#45;system</title>
<path fill="#ffffff" stroke="black" stroke-width="2" d="M20,-16C20,-16 119,-16 119,-16 125,-16 131,-22 131,-28 131,-28 131,-92 131,-92 131,-98 125,-104 119,-104 119,-104 20,-104 20,-104 14,-104 8,-98 8,-92 8,-92 8,-28 8,-28 8,-22 14,-16 20,-16"/>
<text text-anchor="middle" x="69.5" y="-91.9" font-family="Helvetica,sans-Serif" font-weight="bold" font-size="9.00">stepped&#45;cli&#45;and&#45;file&#45;system</text>
</g>
<g id="clust3" class="cluster">
<title>cluster_example&#45;apps/stepped&#45;cli&#45;and&#45;file&#45;system/4&#45;persisting&#45;state</title>
<path fill="#ffffff" stroke="black" stroke-width="2" d="M39,-24C39,-24 100,-24 100,-24 106,-24 112,-30 112,-36 112,-36 112,-65 112,-65 112,-71 106,-77 100,-77 100,-77 39,-77 39,-77 33,-77 27,-71 27,-65 27,-65 27,-36 27,-36 27,-30 33,-24 39,-24"/>
<text text-anchor="middle" x="69.5" y="-64.9" font-family="Helvetica,sans-Serif" font-weight="bold" font-size="9.00">4&#45;persisting&#45;state</text>
</g>
<!-- example&#45;apps/stepped&#45;cli&#45;and&#45;file&#45;system/4&#45;persisting&#45;state/index.js -->
<g id="node1" class="node">
<title>example&#45;apps/stepped&#45;cli&#45;and&#45;file&#45;system/4&#45;persisting&#45;state/index.js</title>
<g id="a_node1"><a xlink:href="example-apps/stepped-cli-and-file-system/4-persisting-state/index.js" xlink:title="index.js">
<path fill="#ffffcc" stroke="black" d="M89.8,-50.3C89.8,-50.3 48.2,-50.3 48.2,-50.3 45.1,-50.3 42,-47.2 42,-44.1 42,-44.1 42,-37.9 42,-37.9 42,-34.8 45.1,-31.7 48.2,-31.7 48.2,-31.7 89.8,-31.7 89.8,-31.7 92.9,-31.7 96,-34.8 96,-37.9 96,-37.9 96,-44.1 96,-44.1 96,-47.2 92.9,-50.3 89.8,-50.3"/>
<text text-anchor="middle" x="69" y="-38.3" font-family="Helvetica,sans-Serif" font-size="9.00">index.js</text>
</a>
</g>
</g>
<!-- fs -->
<g id="node2" class="node">
<title>fs</title>
<path fill="#ffffcc" stroke="grey" d="M202.8,-50.3C202.8,-50.3 161.2,-50.3 161.2,-50.3 158.1,-50.3 155,-47.2 155,-44.1 155,-44.1 155,-37.9 155,-37.9 155,-34.8 158.1,-31.7 161.2,-31.7 161.2,-31.7 202.8,-31.7 202.8,-31.7 205.9,-31.7 209,-34.8 209,-37.9 209,-37.9 209,-44.1 209,-44.1 209,-47.2 205.9,-50.3 202.8,-50.3"/>
<text text-anchor="middle" x="182" y="-38.3" font-family="Helvetica,sans-Serif" font-size="9.00" fill="grey">fs</text>
</g>
<!-- example&#45;apps/stepped&#45;cli&#45;and&#45;file&#45;system/4&#45;persisting&#45;state/index.js&#45;&gt;fs -->
<g id="edge1" class="edge">
<title>example&#45;apps/stepped&#45;cli&#45;and&#45;file&#45;system/4&#45;persisting&#45;state/index.js&#45;&gt;fs</title>
<path fill="none" stroke="#000000" stroke-dasharray="5,2" stroke-opacity="0.200000" d="M96.02,-41C111.78,-41 131.99,-41 148.75,-41"/>
<polygon fill="#000000" fill-opacity="0.200000" stroke="#000000" stroke-opacity="0.200000" points="148.75,-43.1 154.75,-41 148.75,-38.9 148.75,-43.1"/>
</g>
</g>
</svg>
