<?xml version="1.0" encoding="UTF-8" standalone="no"?>
<!DOCTYPE svg PUBLIC "-//W3C//DTD SVG 1.1//EN"
 "http://www.w3.org/Graphics/SVG/1.1/DTD/svg11.dtd">
<!-- Generated by graphviz version 2.44.0 (20200408.0750)
 -->
<!-- Title: dependency&#45;cruiser output Pages: 1 -->
<svg width="238pt" height="269pt"
 viewBox="0.00 0.00 238.02 268.80" xmlns="http://www.w3.org/2000/svg" xmlns:xlink="http://www.w3.org/1999/xlink">
<g id="graph0" class="graph" transform="scale(1 1) rotate(0) translate(4 264.8)">
<title>dependency&#45;cruiser output</title>
<polygon fill="white" stroke="transparent" points="-4,4 -4,-264.8 234.02,-264.8 234.02,4 -4,4"/>
<g id="clust1" class="cluster">
<title>cluster_node_modules</title>
<path fill="#ffffff" stroke="black" stroke-width="2" d="M147,-26.4C147,-26.4 210.02,-26.4 210.02,-26.4 216.02,-26.4 222.02,-32.4 222.02,-38.4 222.02,-38.4 222.02,-191.4 222.02,-191.4 222.02,-197.4 216.02,-203.4 210.02,-203.4 210.02,-203.4 147,-203.4 147,-203.4 141,-203.4 135,-197.4 135,-191.4 135,-191.4 135,-38.4 135,-38.4 135,-32.4 141,-26.4 147,-26.4"/>
<text text-anchor="middle" x="178.51" y="-191.3" font-family="Helvetica,sans-Serif" font-weight="bold" font-size="9.00">node_modules</text>
</g>
<g id="clust2" class="cluster">
<title>cluster_using&#45;express</title>
<path fill="#ffffff" stroke="black" stroke-width="2" d="M12,-76.4C12,-76.4 115,-76.4 115,-76.4 121,-76.4 127,-82.4 127,-88.4 127,-88.4 127,-187.4 127,-187.4 127,-193.4 121,-199.4 115,-199.4 115,-199.4 12,-199.4 12,-199.4 6,-199.4 0,-193.4 0,-187.4 0,-187.4 0,-88.4 0,-88.4 0,-82.4 6,-76.4 12,-76.4"/>
<text text-anchor="middle" x="63.5" y="-187.3" font-family="Helvetica,sans-Serif" font-weight="bold" font-size="9.00">using&#45;express</text>
</g>
<g id="clust3" class="cluster">
<title>cluster_using&#45;express/7&#45;authenticated</title>
<path fill="#ffffff" stroke="black" stroke-width="2" d="M20,-84.4C20,-84.4 107,-84.4 107,-84.4 113,-84.4 119,-90.4 119,-96.4 119,-96.4 119,-160.4 119,-160.4 119,-166.4 113,-172.4 107,-172.4 107,-172.4 20,-172.4 20,-172.4 14,-172.4 8,-166.4 8,-160.4 8,-160.4 8,-96.4 8,-96.4 8,-90.4 14,-84.4 20,-84.4"/>
<text text-anchor="middle" x="63.5" y="-160.3" font-family="Helvetica,sans-Serif" font-weight="bold" font-size="9.00">7&#45;authenticated</text>
</g>
<g id="clust4" class="cluster">
<title>cluster_using&#45;express/7&#45;authenticated/bearer&#45;auth&#45;with&#45;jwt</title>
<path fill="#ffffff" stroke="black" stroke-width="2" d="M28,-92.4C28,-92.4 99,-92.4 99,-92.4 105,-92.4 111,-98.4 111,-104.4 111,-104.4 111,-133.4 111,-133.4 111,-139.4 105,-145.4 99,-145.4 99,-145.4 28,-145.4 28,-145.4 22,-145.4 16,-139.4 16,-133.4 16,-133.4 16,-104.4 16,-104.4 16,-98.4 22,-92.4 28,-92.4"/>
<text text-anchor="middle" x="63.5" y="-133.3" font-family="Helvetica,sans-Serif" font-weight="bold" font-size="9.00">bearer&#45;auth&#45;with&#45;jwt</text>
</g>
<!-- crypto -->
<g id="node1" class="node">
<title>crypto</title>
<path fill="#ffffcc" stroke="grey" d="M199.31,-260.7C199.31,-260.7 157.71,-260.7 157.71,-260.7 154.61,-260.7 151.51,-257.6 151.51,-254.5 151.51,-254.5 151.51,-248.3 151.51,-248.3 151.51,-245.2 154.61,-242.1 157.71,-242.1 157.71,-242.1 199.31,-242.1 199.31,-242.1 202.41,-242.1 205.51,-245.2 205.51,-248.3 205.51,-248.3 205.51,-254.5 205.51,-254.5 205.51,-257.6 202.41,-260.7 199.31,-260.7"/>
<text text-anchor="middle" x="178.51" y="-248.7" font-family="Helvetica,sans-Serif" font-size="9.00" fill="grey">crypto</text>
</g>
<!-- fs -->
<g id="node2" class="node">
<title>fs</title>
<path fill="#ffffcc" stroke="grey" d="M199.31,-229.7C199.31,-229.7 157.71,-229.7 157.71,-229.7 154.61,-229.7 151.51,-226.6 151.51,-223.5 151.51,-223.5 151.51,-217.3 151.51,-217.3 151.51,-214.2 154.61,-211.1 157.71,-211.1 157.71,-211.1 199.31,-211.1 199.31,-211.1 202.41,-211.1 205.51,-214.2 205.51,-217.3 205.51,-217.3 205.51,-223.5 205.51,-223.5 205.51,-226.6 202.41,-229.7 199.31,-229.7"/>
<text text-anchor="middle" x="178.51" y="-217.7" font-family="Helvetica,sans-Serif" font-size="9.00" fill="grey">fs</text>
</g>
<!-- node_modules/body&#45;parser -->
<g id="node3" class="node">
<title>node_modules/body&#45;parser</title>
<g id="a_node3"><a xlink:href="node_modules/body-parser" xlink:title="body&#45;parser">
<polygon fill="#c40b0a" fill-opacity="0.101961" stroke="black" points="210.52,-176.7 148.57,-176.7 146.5,-174.63 146.5,-158.1 208.45,-158.1 210.52,-160.17 210.52,-176.7"/>
<polyline fill="none" stroke="black" points="208.45,-174.63 146.5,-174.63 "/>
<polyline fill="none" stroke="black" points="208.45,-174.63 208.45,-158.1 "/>
<polyline fill="none" stroke="black" points="208.45,-174.63 210.52,-176.7 "/>
<text text-anchor="middle" x="178.51" y="-164.7" font-family="Helvetica,sans-Serif" font-size="9.00" fill="#c40b0a">body&#45;parser</text>
</a>
</g>
</g>
<!-- node_modules/express -->
<g id="node4" class="node">
<title>node_modules/express</title>
<g id="a_node4"><a xlink:href="node_modules/express" xlink:title="express">
<polygon fill="#c40b0a" fill-opacity="0.101961" stroke="black" points="205.51,-145.7 153.58,-145.7 151.51,-143.63 151.51,-127.1 203.44,-127.1 205.51,-129.17 205.51,-145.7"/>
<polyline fill="none" stroke="black" points="203.44,-143.63 151.51,-143.63 "/>
<polyline fill="none" stroke="black" points="203.44,-143.63 203.44,-127.1 "/>
<polyline fill="none" stroke="black" points="203.44,-143.63 205.51,-145.7 "/>
<text text-anchor="middle" x="178.51" y="-133.7" font-family="Helvetica,sans-Serif" font-size="9.00" fill="#c40b0a">express</text>
</a>
</g>
</g>
<!-- node_modules/jsonwebtoken -->
<g id="node5" class="node">
<title>node_modules/jsonwebtoken</title>
<g id="a_node5"><a xlink:href="node_modules/jsonwebtoken" xlink:title="jsonwebtoken">
<polygon fill="#c40b0a" fill-opacity="0.101961" stroke="black" points="214.03,-114.7 145.06,-114.7 142.99,-112.63 142.99,-96.1 211.96,-96.1 214.03,-98.17 214.03,-114.7"/>
<polyline fill="none" stroke="black" points="211.96,-112.63 142.99,-112.63 "/>
<polyline fill="none" stroke="black" points="211.96,-112.63 211.96,-96.1 "/>
<polyline fill="none" stroke="black" points="211.96,-112.63 214.03,-114.7 "/>
<text text-anchor="middle" x="178.51" y="-102.7" font-family="Helvetica,sans-Serif" font-size="9.00" fill="#c40b0a">jsonwebtoken</text>
</a>
</g>
</g>
<!-- node_modules/moment -->
<g id="node6" class="node">
<title>node_modules/moment</title>
<g id="a_node6"><a xlink:href="node_modules/moment" xlink:title="moment">
<polygon fill="#c40b0a" fill-opacity="0.101961" stroke="black" points="205.51,-83.7 153.58,-83.7 151.51,-81.63 151.51,-65.1 203.44,-65.1 205.51,-67.17 205.51,-83.7"/>
<polyline fill="none" stroke="black" points="203.44,-81.63 151.51,-81.63 "/>
<polyline fill="none" stroke="black" points="203.44,-81.63 203.44,-65.1 "/>
<polyline fill="none" stroke="black" points="203.44,-81.63 205.51,-83.7 "/>
<text text-anchor="middle" x="178.51" y="-71.7" font-family="Helvetica,sans-Serif" font-size="9.00" fill="#c40b0a">moment</text>
</a>
</g>
</g>
<!-- node_modules/morgan -->
<g id="node7" class="node">
<title>node_modules/morgan</title>
<g id="a_node7"><a xlink:href="node_modules/morgan" xlink:title="morgan">
<polygon fill="#c40b0a" fill-opacity="0.101961" stroke="black" points="205.51,-52.7 153.58,-52.7 151.51,-50.63 151.51,-34.1 203.44,-34.1 205.51,-36.17 205.51,-52.7"/>
<polyline fill="none" stroke="black" points="203.44,-50.63 151.51,-50.63 "/>
<polyline fill="none" stroke="black" points="203.44,-50.63 203.44,-34.1 "/>
<polyline fill="none" stroke="black" points="203.44,-50.63 205.51,-52.7 "/>
<text text-anchor="middle" x="178.51" y="-40.7" font-family="Helvetica,sans-Serif" font-size="9.00" fill="#c40b0a">morgan</text>
</a>
</g>
</g>
<!-- using&#45;express/7&#45;authenticated/bearer&#45;auth&#45;with&#45;jwt/index.js -->
<g id="node8" class="node">
<title>using&#45;express/7&#45;authenticated/bearer&#45;auth&#45;with&#45;jwt/index.js</title>
<g id="a_node8"><a xlink:href="using-express/7-authenticated/bearer-auth-with-jwt/index.js" xlink:title="index.js">
<path fill="#ffffcc" stroke="black" d="M83.8,-118.7C83.8,-118.7 42.2,-118.7 42.2,-118.7 39.1,-118.7 36,-115.6 36,-112.5 36,-112.5 36,-106.3 36,-106.3 36,-103.2 39.1,-100.1 42.2,-100.1 42.2,-100.1 83.8,-100.1 83.8,-100.1 86.9,-100.1 90,-103.2 90,-106.3 90,-106.3 90,-112.5 90,-112.5 90,-115.6 86.9,-118.7 83.8,-118.7"/>
<text text-anchor="middle" x="63" y="-106.7" font-family="Helvetica,sans-Serif" font-size="9.00">index.js</text>
</a>
</g>
</g>
<!-- using&#45;express/7&#45;authenticated/bearer&#45;auth&#45;with&#45;jwt/index.js&#45;&gt;crypto -->
<g id="edge2" class="edge">
<title>using&#45;express/7&#45;authenticated/bearer&#45;auth&#45;with&#45;jwt/index.js&#45;&gt;crypto</title>
<path fill="none" stroke="#000000" stroke-dasharray="5,2" stroke-opacity="0.200000" d="M66.79,-118.76C74.12,-141.84 96.12,-202.06 135,-235.4 138.14,-238.09 141.77,-240.35 145.57,-242.24"/>
<polygon fill="#000000" fill-opacity="0.200000" stroke="#000000" stroke-opacity="0.200000" points="144.87,-244.23 151.21,-244.76 146.58,-240.39 144.87,-244.23"/>
</g>
<!-- using&#45;express/7&#45;authenticated/bearer&#45;auth&#45;with&#45;jwt/index.js&#45;&gt;fs -->
<g id="edge4" class="edge">
<title>using&#45;express/7&#45;authenticated/bearer&#45;auth&#45;with&#45;jwt/index.js&#45;&gt;fs</title>
<path fill="none" stroke="#000000" stroke-dasharray="5,2" stroke-opacity="0.200000" d="M68.42,-118.92C77.87,-138.27 101.91,-182.35 135,-206.4 138.13,-208.68 141.66,-210.6 145.31,-212.22"/>
<polygon fill="#000000" fill-opacity="0.200000" stroke="#000000" stroke-opacity="0.200000" points="144.75,-214.26 151.1,-214.52 146.3,-210.35 144.75,-214.26"/>
</g>
<!-- using&#45;express/7&#45;authenticated/bearer&#45;auth&#45;with&#45;jwt/index.js&#45;&gt;node_modules/body&#45;parser -->
<g id="edge1" class="edge">
<title>using&#45;express/7&#45;authenticated/bearer&#45;auth&#45;with&#45;jwt/index.js&#45;&gt;node_modules/body&#45;parser</title>
<path fill="none" stroke="#000000" stroke-opacity="0.200000" d="M78.28,-118.85C92.33,-127.91 114.6,-141.62 135,-151.4 138.02,-152.85 141.21,-154.26 144.43,-155.6"/>
<polygon fill="#000000" fill-opacity="0.200000" stroke="#000000" stroke-opacity="0.200000" points="143.88,-157.64 150.23,-157.94 145.45,-153.75 143.88,-157.64"/>
</g>
<!-- using&#45;express/7&#45;authenticated/bearer&#45;auth&#45;with&#45;jwt/index.js&#45;&gt;node_modules/express -->
<g id="edge3" class="edge">
<title>using&#45;express/7&#45;authenticated/bearer&#45;auth&#45;with&#45;jwt/index.js&#45;&gt;node_modules/express</title>
<path fill="none" stroke="#000000" stroke-opacity="0.200000" d="M90.04,-115.59C106.36,-119.48 127.54,-124.51 144.96,-128.66"/>
<polygon fill="#000000" fill-opacity="0.200000" stroke="#000000" stroke-opacity="0.200000" points="144.87,-130.8 151.2,-130.14 145.84,-126.71 144.87,-130.8"/>
</g>
<!-- using&#45;express/7&#45;authenticated/bearer&#45;auth&#45;with&#45;jwt/index.js&#45;&gt;node_modules/jsonwebtoken -->
<g id="edge5" class="edge">
<title>using&#45;express/7&#45;authenticated/bearer&#45;auth&#45;with&#45;jwt/index.js&#45;&gt;node_modules/jsonwebtoken</title>
<path fill="none" stroke="#000000" stroke-opacity="0.200000" d="M90.04,-108.48C103.91,-107.99 121.28,-107.38 136.87,-106.83"/>
<polygon fill="#000000" fill-opacity="0.200000" stroke="#000000" stroke-opacity="0.200000" points="137.06,-108.93 142.98,-106.62 136.91,-104.73 137.06,-108.93"/>
</g>
<!-- using&#45;express/7&#45;authenticated/bearer&#45;auth&#45;with&#45;jwt/index.js&#45;&gt;node_modules/moment -->
<g id="edge6" class="edge">
<title>using&#45;express/7&#45;authenticated/bearer&#45;auth&#45;with&#45;jwt/index.js&#45;&gt;node_modules/moment</title>
<path fill="none" stroke="#000000" stroke-opacity="0.200000" d="M90.04,-101.37C106.51,-96.29 127.91,-89.69 145.42,-84.29"/>
<polygon fill="#000000" fill-opacity="0.200000" stroke="#000000" stroke-opacity="0.200000" points="146.08,-86.29 151.2,-82.51 144.84,-82.27 146.08,-86.29"/>
</g>
<!-- using&#45;express/7&#45;authenticated/bearer&#45;auth&#45;with&#45;jwt/index.js&#45;&gt;node_modules/morgan -->
<g id="edge7" class="edge">
<title>using&#45;express/7&#45;authenticated/bearer&#45;auth&#45;with&#45;jwt/index.js&#45;&gt;node_modules/morgan</title>
<path fill="none" stroke="#000000" stroke-opacity="0.200000" d="M75.47,-99.94C89.03,-89.08 112.61,-71.25 135,-59.4 138.38,-57.61 142.01,-55.92 145.68,-54.36"/>
<polygon fill="#000000" fill-opacity="0.200000" stroke="#000000" stroke-opacity="0.200000" points="146.66,-56.23 151.42,-52.02 145.07,-52.34 146.66,-56.23"/>
</g>
<!-- util -->
<g id="node9" class="node">
<title>util</title>
<path fill="#ffffcc" stroke="grey" d="M199.31,-18.7C199.31,-18.7 157.71,-18.7 157.71,-18.7 154.61,-18.7 151.51,-15.6 151.51,-12.5 151.51,-12.5 151.51,-6.3 151.51,-6.3 151.51,-3.2 154.61,-0.1 157.71,-0.1 157.71,-0.1 199.31,-0.1 199.31,-0.1 202.41,-0.1 205.51,-3.2 205.51,-6.3 205.51,-6.3 205.51,-12.5 205.51,-12.5 205.51,-15.6 202.41,-18.7 199.31,-18.7"/>
<text text-anchor="middle" x="178.51" y="-6.7" font-family="Helvetica,sans-Serif" font-size="9.00" fill="grey">util</text>
</g>
<!-- using&#45;express/7&#45;authenticated/bearer&#45;auth&#45;with&#45;jwt/index.js&#45;&gt;util -->
<g id="edge8" class="edge">
<title>using&#45;express/7&#45;authenticated/bearer&#45;auth&#45;with&#45;jwt/index.js&#45;&gt;util</title>
<path fill="none" stroke="#000000" stroke-dasharray="5,2" stroke-opacity="0.200000" d="M69.34,-99.89C79.72,-82.26 104.31,-44.37 135,-23.4 138.2,-21.21 141.77,-19.35 145.43,-17.76"/>
<polygon fill="#000000" fill-opacity="0.200000" stroke="#000000" stroke-opacity="0.200000" points="146.42,-19.63 151.25,-15.49 144.89,-15.72 146.42,-19.63"/>
</g>
</g>
</svg>
