<?xml version="1.0" encoding="UTF-8" standalone="no"?>
<!DOCTYPE svg PUBLIC "-//W3C//DTD SVG 1.1//EN"
 "http://www.w3.org/Graphics/SVG/1.1/DTD/svg11.dtd">
<!-- Generated by graphviz version 2.44.0 (20200408.0750)
 -->
<!-- Title: dependency&#45;cruiser output Pages: 1 -->
<svg width="226pt" height="182pt"
 viewBox="0.00 0.00 226.00 182.00" xmlns="http://www.w3.org/2000/svg" xmlns:xlink="http://www.w3.org/1999/xlink">
<g id="graph0" class="graph" transform="scale(1 1) rotate(0) translate(4 178)">
<title>dependency&#45;cruiser output</title>
<polygon fill="white" stroke="transparent" points="-4,4 -4,-178 222,-178 222,4 -4,4"/>
<g id="clust1" class="cluster">
<title>cluster_example&#45;apps</title>
<path fill="#ffffff" stroke="black" stroke-width="2" d="M12,-8C12,-8 144,-8 144,-8 150,-8 156,-14 156,-20 156,-20 156,-154 156,-154 156,-160 150,-166 144,-166 144,-166 12,-166 12,-166 6,-166 0,-160 0,-154 0,-154 0,-20 0,-20 0,-14 6,-8 12,-8"/>
<text text-anchor="middle" x="78" y="-153.9" font-family="Helvetica,sans-Serif" font-weight="bold" font-size="9.00">example&#45;apps</text>
</g>
<g id="clust2" class="cluster">
<title>cluster_example&#45;apps/stepped&#45;vanilla&#45;node&#45;server</title>
<path fill="#ffffff" stroke="black" stroke-width="2" d="M20,-16C20,-16 136,-16 136,-16 142,-16 148,-22 148,-28 148,-28 148,-127 148,-127 148,-133 142,-139 136,-139 136,-139 20,-139 20,-139 14,-139 8,-133 8,-127 8,-127 8,-28 8,-28 8,-22 14,-16 20,-16"/>
<text text-anchor="middle" x="78" y="-126.9" font-family="Helvetica,sans-Serif" font-weight="bold" font-size="9.00">stepped&#45;vanilla&#45;node&#45;server</text>
</g>
<g id="clust3" class="cluster">
<title>cluster_example&#45;apps/stepped&#45;vanilla&#45;node&#45;server/3.simple&#45;server&#45;with&#45;url&#45;log</title>
<path fill="#ffffff" stroke="black" stroke-width="2" d="M28,-24C28,-24 128,-24 128,-24 134,-24 140,-30 140,-36 140,-36 140,-100 140,-100 140,-106 134,-112 128,-112 128,-112 28,-112 28,-112 22,-112 16,-106 16,-100 16,-100 16,-36 16,-36 16,-30 22,-24 28,-24"/>
<text text-anchor="middle" x="78" y="-99.9" font-family="Helvetica,sans-Serif" font-weight="bold" font-size="9.00">3.simple&#45;server&#45;with&#45;url&#45;log</text>
</g>
<g id="clust4" class="cluster">
<title>cluster_example&#45;apps/stepped&#45;vanilla&#45;node&#45;server/3.simple&#45;server&#45;with&#45;url&#45;log/src</title>
<path fill="#ffffff" stroke="black" stroke-width="2" d="M55,-32C55,-32 101,-32 101,-32 107,-32 113,-38 113,-44 113,-44 113,-73 113,-73 113,-79 107,-85 101,-85 101,-85 55,-85 55,-85 49,-85 43,-79 43,-73 43,-73 43,-44 43,-44 43,-38 49,-32 55,-32"/>
<text text-anchor="middle" x="78" y="-72.9" font-family="Helvetica,sans-Serif" font-weight="bold" font-size="9.00">src</text>
</g>
<!-- example&#45;apps/stepped&#45;vanilla&#45;node&#45;server/3.simple&#45;server&#45;with&#45;url&#45;log/src/index.js -->
<g id="node1" class="node">
<title>example&#45;apps/stepped&#45;vanilla&#45;node&#45;server/3.simple&#45;server&#45;with&#45;url&#45;log/src/index.js</title>
<g id="a_node1"><a xlink:href="example-apps/stepped-vanilla-node-server/3.simple-server-with-url-log/src/index.js" xlink:title="index.js">
<path fill="#ffffcc" stroke="black" d="M98.8,-58.3C98.8,-58.3 57.2,-58.3 57.2,-58.3 54.1,-58.3 51,-55.2 51,-52.1 51,-52.1 51,-45.9 51,-45.9 51,-42.8 54.1,-39.7 57.2,-39.7 57.2,-39.7 98.8,-39.7 98.8,-39.7 101.9,-39.7 105,-42.8 105,-45.9 105,-45.9 105,-52.1 105,-52.1 105,-55.2 101.9,-58.3 98.8,-58.3"/>
<text text-anchor="middle" x="78" y="-46.3" font-family="Helvetica,sans-Serif" font-size="9.00">index.js</text>
</a>
</g>
</g>
<!-- http -->
<g id="node2" class="node">
<title>http</title>
<path fill="#ffffcc" stroke="grey" d="M211.8,-58.3C211.8,-58.3 170.2,-58.3 170.2,-58.3 167.1,-58.3 164,-55.2 164,-52.1 164,-52.1 164,-45.9 164,-45.9 164,-42.8 167.1,-39.7 170.2,-39.7 170.2,-39.7 211.8,-39.7 211.8,-39.7 214.9,-39.7 218,-42.8 218,-45.9 218,-45.9 218,-52.1 218,-52.1 218,-55.2 214.9,-58.3 211.8,-58.3"/>
<text text-anchor="middle" x="191" y="-46.3" font-family="Helvetica,sans-Serif" font-size="9.00" fill="grey">http</text>
</g>
<!-- example&#45;apps/stepped&#45;vanilla&#45;node&#45;server/3.simple&#45;server&#45;with&#45;url&#45;log/src/index.js&#45;&gt;http -->
<g id="edge1" class="edge">
<title>example&#45;apps/stepped&#45;vanilla&#45;node&#45;server/3.simple&#45;server&#45;with&#45;url&#45;log/src/index.js&#45;&gt;http</title>
<path fill="none" stroke="#000000" stroke-dasharray="5,2" stroke-opacity="0.200000" d="M105.02,-49C120.78,-49 140.99,-49 157.75,-49"/>
<polygon fill="#000000" fill-opacity="0.200000" stroke="#000000" stroke-opacity="0.200000" points="157.75,-51.1 163.75,-49 157.75,-46.9 157.75,-51.1"/>
</g>
</g>
</svg>
