<?xml version="1.0" encoding="UTF-8" standalone="no"?>
<!DOCTYPE svg PUBLIC "-//W3C//DTD SVG 1.1//EN"
 "http://www.w3.org/Graphics/SVG/1.1/DTD/svg11.dtd">
<!-- Generated by graphviz version 2.44.0 (20200408.0750)
 -->
<!-- Title: dependency&#45;cruiser output Pages: 1 -->
<svg width="271pt" height="270pt"
 viewBox="0.00 0.00 271.02 270.00" xmlns="http://www.w3.org/2000/svg" xmlns:xlink="http://www.w3.org/1999/xlink">
<g id="graph0" class="graph" transform="scale(1 1) rotate(0) translate(4 266)">
<title>dependency&#45;cruiser output</title>
<polygon fill="white" stroke="transparent" points="-4,4 -4,-266 267.02,-266 267.02,4 -4,4"/>
<g id="clust1" class="cluster">
<title>cluster_example&#45;apps</title>
<path fill="#ffffff" stroke="black" stroke-width="2" d="M20,-100C20,-100 189.02,-100 189.02,-100 195.02,-100 201.02,-106 201.02,-112 201.02,-112 201.02,-242 201.02,-242 201.02,-248 195.02,-254 189.02,-254 189.02,-254 20,-254 20,-254 14,-254 8,-248 8,-242 8,-242 8,-112 8,-112 8,-106 14,-100 20,-100"/>
<text text-anchor="middle" x="104.51" y="-241.9" font-family="Helvetica,sans-Serif" font-weight="bold" font-size="9.00">example&#45;apps</text>
</g>
<g id="clust2" class="cluster">
<title>cluster_example&#45;apps/server&#45;with&#45;promises&#45;and&#45;async&#45;await</title>
<path fill="#ffffff" stroke="black" stroke-width="2" d="M28,-108C28,-108 181.02,-108 181.02,-108 187.02,-108 193.02,-114 193.02,-120 193.02,-120 193.02,-215 193.02,-215 193.02,-221 187.02,-227 181.02,-227 181.02,-227 28,-227 28,-227 22,-227 16,-221 16,-215 16,-215 16,-120 16,-120 16,-114 22,-108 28,-108"/>
<text text-anchor="middle" x="104.51" y="-214.9" font-family="Helvetica,sans-Serif" font-weight="bold" font-size="9.00">server&#45;with&#45;promises&#45;and&#45;async&#45;await</text>
</g>
<g id="clust3" class="cluster">
<title>cluster_example&#45;apps/server&#45;with&#45;promises&#45;and&#45;async&#45;await/src</title>
<path fill="#ffffff" stroke="black" stroke-width="2" d="M36,-116C36,-116 173.02,-116 173.02,-116 179.02,-116 185.02,-122 185.02,-128 185.02,-128 185.02,-188 185.02,-188 185.02,-194 179.02,-200 173.02,-200 173.02,-200 36,-200 36,-200 30,-200 24,-194 24,-188 24,-188 24,-128 24,-128 24,-122 30,-116 36,-116"/>
<text text-anchor="middle" x="104.51" y="-187.9" font-family="Helvetica,sans-Serif" font-weight="bold" font-size="9.00">src</text>
</g>
<g id="clust4" class="cluster">
<title>cluster_node_modules</title>
<path fill="#ffffff" stroke="black" stroke-width="2" d="M110.26,-8C110.26,-8 165.76,-8 165.76,-8 171.76,-8 177.76,-14 177.76,-20 177.76,-20 177.76,-80 177.76,-80 177.76,-86 171.76,-92 165.76,-92 165.76,-92 110.26,-92 110.26,-92 104.26,-92 98.26,-86 98.26,-80 98.26,-80 98.26,-20 98.26,-20 98.26,-14 104.26,-8 110.26,-8"/>
<text text-anchor="middle" x="138.01" y="-79.9" font-family="Helvetica,sans-Serif" font-weight="bold" font-size="9.00">node_modules</text>
</g>
<!-- example&#45;apps/server&#45;with&#45;promises&#45;and&#45;async&#45;await/src/fileManager.js -->
<g id="node1" class="node">
<title>example&#45;apps/server&#45;with&#45;promises&#45;and&#45;async&#45;await/src/fileManager.js</title>
<g id="a_node1"><a xlink:href="example-apps/server-with-promises-and-async-await/src/fileManager.js" xlink:title="fileManager.js">
<path fill="#ffffcc" stroke="black" d="M167.81,-142.3C167.81,-142.3 108.2,-142.3 108.2,-142.3 105.1,-142.3 102,-139.2 102,-136.1 102,-136.1 102,-129.9 102,-129.9 102,-126.8 105.1,-123.7 108.2,-123.7 108.2,-123.7 167.81,-123.7 167.81,-123.7 170.91,-123.7 174.01,-126.8 174.01,-129.9 174.01,-129.9 174.01,-136.1 174.01,-136.1 174.01,-139.2 170.91,-142.3 167.81,-142.3"/>
<text text-anchor="middle" x="138.01" y="-130.3" font-family="Helvetica,sans-Serif" font-size="9.00">fileManager.js</text>
</a>
</g>
</g>
<!-- fs -->
<g id="node2" class="node">
<title>fs</title>
<path fill="#ffffcc" stroke="grey" d="M256.82,-142.3C256.82,-142.3 215.22,-142.3 215.22,-142.3 212.12,-142.3 209.02,-139.2 209.02,-136.1 209.02,-136.1 209.02,-129.9 209.02,-129.9 209.02,-126.8 212.12,-123.7 215.22,-123.7 215.22,-123.7 256.82,-123.7 256.82,-123.7 259.92,-123.7 263.02,-126.8 263.02,-129.9 263.02,-129.9 263.02,-136.1 263.02,-136.1 263.02,-139.2 259.92,-142.3 256.82,-142.3"/>
<text text-anchor="middle" x="236.02" y="-130.3" font-family="Helvetica,sans-Serif" font-size="9.00" fill="grey">fs</text>
</g>
<!-- example&#45;apps/server&#45;with&#45;promises&#45;and&#45;async&#45;await/src/fileManager.js&#45;&gt;fs -->
<g id="edge1" class="edge">
<title>example&#45;apps/server&#45;with&#45;promises&#45;and&#45;async&#45;await/src/fileManager.js&#45;&gt;fs</title>
<path fill="none" stroke="#000000" stroke-dasharray="5,2" stroke-opacity="0.200000" d="M174.21,-133C183.52,-133 193.52,-133 202.66,-133"/>
<polygon fill="#000000" fill-opacity="0.200000" stroke="#000000" stroke-opacity="0.200000" points="202.84,-135.1 208.84,-133 202.84,-130.9 202.84,-135.1"/>
</g>
<!-- example&#45;apps/server&#45;with&#45;promises&#45;and&#45;async&#45;await/src/index.js -->
<g id="node3" class="node">
<title>example&#45;apps/server&#45;with&#45;promises&#45;and&#45;async&#45;await/src/index.js</title>
<g id="a_node3"><a xlink:href="example-apps/server-with-promises-and-async-await/src/index.js" xlink:title="index.js">
<path fill="#ffffcc" stroke="black" d="M79.8,-142.3C79.8,-142.3 38.2,-142.3 38.2,-142.3 35.1,-142.3 32,-139.2 32,-136.1 32,-136.1 32,-129.9 32,-129.9 32,-126.8 35.1,-123.7 38.2,-123.7 38.2,-123.7 79.8,-123.7 79.8,-123.7 82.9,-123.7 86,-126.8 86,-129.9 86,-129.9 86,-136.1 86,-136.1 86,-139.2 82.9,-142.3 79.8,-142.3"/>
<text text-anchor="middle" x="59" y="-130.3" font-family="Helvetica,sans-Serif" font-size="9.00">index.js</text>
</a>
</g>
</g>
<!-- example&#45;apps/server&#45;with&#45;promises&#45;and&#45;async&#45;await/src/index.js&#45;&gt;example&#45;apps/server&#45;with&#45;promises&#45;and&#45;async&#45;await/src/fileManager.js -->
<g id="edge2" class="edge">
<title>example&#45;apps/server&#45;with&#45;promises&#45;and&#45;async&#45;await/src/index.js&#45;&gt;example&#45;apps/server&#45;with&#45;promises&#45;and&#45;async&#45;await/src/fileManager.js</title>
<path fill="none" stroke="#000000" stroke-width="2" stroke-opacity="0.200000" d="M86.07,-133C89.08,-133 92.2,-133 95.34,-133"/>
<polygon fill="#000000" fill-opacity="0.200000" stroke="#000000" stroke-width="2" stroke-opacity="0.200000" points="95.81,-135.1 101.81,-133 95.81,-130.9 95.81,-135.1"/>
</g>
<!-- example&#45;apps/server&#45;with&#45;promises&#45;and&#45;async&#45;await/src/todoManager.js -->
<g id="node4" class="node">
<title>example&#45;apps/server&#45;with&#45;promises&#45;and&#45;async&#45;await/src/todoManager.js</title>
<g id="a_node4"><a xlink:href="example-apps/server-with-promises-and-async-await/src/todoManager.js" xlink:title="todoManager.js">
<path fill="#ffffcc" stroke="black" d="M170.82,-173.3C170.82,-173.3 105.19,-173.3 105.19,-173.3 102.09,-173.3 98.99,-170.2 98.99,-167.1 98.99,-167.1 98.99,-160.9 98.99,-160.9 98.99,-157.8 102.09,-154.7 105.19,-154.7 105.19,-154.7 170.82,-154.7 170.82,-154.7 173.92,-154.7 177.02,-157.8 177.02,-160.9 177.02,-160.9 177.02,-167.1 177.02,-167.1 177.02,-170.2 173.92,-173.3 170.82,-173.3"/>
<text text-anchor="middle" x="138.01" y="-161.3" font-family="Helvetica,sans-Serif" font-size="9.00">todoManager.js</text>
</a>
</g>
</g>
<!-- example&#45;apps/server&#45;with&#45;promises&#45;and&#45;async&#45;await/src/index.js&#45;&gt;example&#45;apps/server&#45;with&#45;promises&#45;and&#45;async&#45;await/src/todoManager.js -->
<g id="edge3" class="edge">
<title>example&#45;apps/server&#45;with&#45;promises&#45;and&#45;async&#45;await/src/index.js&#45;&gt;example&#45;apps/server&#45;with&#45;promises&#45;and&#45;async&#45;await/src/todoManager.js</title>
<path fill="none" stroke="#000000" stroke-width="2" stroke-opacity="0.200000" d="M83.52,-142.47C91.21,-145.56 99.83,-149.04 107.88,-152.27"/>
<polygon fill="#000000" fill-opacity="0.200000" stroke="#000000" stroke-width="2" stroke-opacity="0.200000" points="107.54,-154.4 113.89,-154.7 109.11,-150.51 107.54,-154.4"/>
</g>
<!-- node_modules/commander -->
<g id="node5" class="node">
<title>node_modules/commander</title>
<g id="a_node5"><a xlink:href="node_modules/commander" xlink:title="commander">
<polygon fill="#c40b0a" fill-opacity="0.101961" stroke="black" points="169.51,-65.3 108.57,-65.3 106.5,-63.23 106.5,-46.7 167.45,-46.7 169.51,-48.77 169.51,-65.3"/>
<polyline fill="none" stroke="black" points="167.45,-63.23 106.5,-63.23 "/>
<polyline fill="none" stroke="black" points="167.45,-63.23 167.45,-46.7 "/>
<polyline fill="none" stroke="black" points="167.45,-63.23 169.51,-65.3 "/>
<text text-anchor="middle" x="138.01" y="-53.3" font-family="Helvetica,sans-Serif" font-size="9.00" fill="#c40b0a">commander</text>
</a>
</g>
</g>
<!-- example&#45;apps/server&#45;with&#45;promises&#45;and&#45;async&#45;await/src/index.js&#45;&gt;node_modules/commander -->
<g id="edge4" class="edge">
<title>example&#45;apps/server&#45;with&#45;promises&#45;and&#45;async&#45;await/src/index.js&#45;&gt;node_modules/commander</title>
<path fill="none" stroke="#000000" stroke-opacity="0.200000" d="M69.44,-123.56C82.84,-110.17 107.45,-85.56 122.98,-70.03"/>
<polygon fill="#000000" fill-opacity="0.200000" stroke="#000000" stroke-opacity="0.200000" points="124.73,-71.25 127.49,-65.52 121.76,-68.28 124.73,-71.25"/>
</g>
<!-- node_modules/sprintf&#45;js -->
<g id="node6" class="node">
<title>node_modules/sprintf&#45;js</title>
<g id="a_node6"><a xlink:href="node_modules/sprintf-js" xlink:title="sprintf&#45;js">
<polygon fill="#c40b0a" fill-opacity="0.101961" stroke="black" points="165.01,-34.3 113.08,-34.3 111.01,-32.23 111.01,-15.7 162.94,-15.7 165.01,-17.77 165.01,-34.3"/>
<polyline fill="none" stroke="black" points="162.94,-32.23 111.01,-32.23 "/>
<polyline fill="none" stroke="black" points="162.94,-32.23 162.94,-15.7 "/>
<polyline fill="none" stroke="black" points="162.94,-32.23 165.01,-34.3 "/>
<text text-anchor="middle" x="138.01" y="-22.3" font-family="Helvetica,sans-Serif" font-size="9.00" fill="#c40b0a">sprintf&#45;js</text>
</a>
</g>
</g>
<!-- example&#45;apps/server&#45;with&#45;promises&#45;and&#45;async&#45;await/src/index.js&#45;&gt;node_modules/sprintf&#45;js -->
<g id="edge5" class="edge">
<title>example&#45;apps/server&#45;with&#45;promises&#45;and&#45;async&#45;await/src/index.js&#45;&gt;node_modules/sprintf&#45;js</title>
<path fill="none" stroke="#000000" stroke-opacity="0.200000" d="M61.46,-123.6C64.78,-105.31 74.5,-64.7 98.26,-41 100.34,-38.92 102.73,-37.11 105.27,-35.51"/>
<polygon fill="#000000" fill-opacity="0.200000" stroke="#000000" stroke-opacity="0.200000" points="106.42,-37.28 110.68,-32.56 104.4,-33.6 106.42,-37.28"/>
</g>
</g>
</svg>
