<?xml version="1.0" encoding="UTF-8" standalone="no"?>
<!DOCTYPE svg PUBLIC "-//W3C//DTD SVG 1.1//EN"
 "http://www.w3.org/Graphics/SVG/1.1/DTD/svg11.dtd">
<!-- Generated by graphviz version 2.44.0 (20200408.0750)
 -->
<!-- Title: dependency&#45;cruiser output Pages: 1 -->
<svg width="414pt" height="511pt"
 viewBox="0.00 0.00 414.04 511.00" xmlns="http://www.w3.org/2000/svg" xmlns:xlink="http://www.w3.org/1999/xlink">
<g id="graph0" class="graph" transform="scale(1 1) rotate(0) translate(4 507)">
<title>dependency&#45;cruiser output</title>
<polygon fill="white" stroke="transparent" points="-4,4 -4,-507 410.04,-507 410.04,4 -4,4"/>
<g id="clust1" class="cluster">
<title>cluster_example&#45;apps</title>
<path fill="#ffffff" stroke="black" stroke-width="2" d="M20,-95C20,-95 386.04,-95 386.04,-95 392.04,-95 398.04,-101 398.04,-107 398.04,-107 398.04,-483 398.04,-483 398.04,-489 392.04,-495 386.04,-495 386.04,-495 20,-495 20,-495 14,-495 8,-489 8,-483 8,-483 8,-107 8,-107 8,-101 14,-95 20,-95"/>
<text text-anchor="middle" x="203.02" y="-482.9" font-family="Helvetica,sans-Serif" font-weight="bold" font-size="9.00">example&#45;apps</text>
</g>
<g id="clust2" class="cluster">
<title>cluster_example&#45;apps/a&#45;todo&#45;api</title>
<path fill="#ffffff" stroke="black" stroke-width="2" d="M28,-103C28,-103 378.04,-103 378.04,-103 384.04,-103 390.04,-109 390.04,-115 390.04,-115 390.04,-456 390.04,-456 390.04,-462 384.04,-468 378.04,-468 378.04,-468 28,-468 28,-468 22,-468 16,-462 16,-456 16,-456 16,-115 16,-115 16,-109 22,-103 28,-103"/>
<text text-anchor="middle" x="203.02" y="-455.9" font-family="Helvetica,sans-Serif" font-weight="bold" font-size="9.00">a&#45;todo&#45;api</text>
</g>
<g id="clust3" class="cluster">
<title>cluster_example&#45;apps/a&#45;todo&#45;api/src</title>
<path fill="#ffffff" stroke="black" stroke-width="2" d="M36,-111C36,-111 370.04,-111 370.04,-111 376.04,-111 382.04,-117 382.04,-123 382.04,-123 382.04,-429 382.04,-429 382.04,-435 376.04,-441 370.04,-441 370.04,-441 36,-441 36,-441 30,-441 24,-435 24,-429 24,-429 24,-123 24,-123 24,-117 30,-111 36,-111"/>
<text text-anchor="middle" x="203.02" y="-428.9" font-family="Helvetica,sans-Serif" font-weight="bold" font-size="9.00">src</text>
</g>
<g id="clust4" class="cluster">
<title>cluster_example&#45;apps/a&#45;todo&#45;api/src/actions</title>
<path fill="#ffffff" stroke="black" stroke-width="2" d="M117.26,-145C117.26,-145 362.04,-145 362.04,-145 368.04,-145 374.04,-151 374.04,-157 374.04,-157 374.04,-279 374.04,-279 374.04,-285 368.04,-291 362.04,-291 362.04,-291 117.26,-291 117.26,-291 111.26,-291 105.26,-285 105.26,-279 105.26,-279 105.26,-157 105.26,-157 105.26,-151 111.26,-145 117.26,-145"/>
<text text-anchor="middle" x="239.65" y="-278.9" font-family="Helvetica,sans-Serif" font-weight="bold" font-size="9.00">actions</text>
</g>
<g id="clust5" class="cluster">
<title>cluster_example&#45;apps/a&#45;todo&#45;api/src/config</title>
<path fill="#ffffff" stroke="black" stroke-width="2" d="M106,-299C106,-299 251.03,-299 251.03,-299 257.03,-299 263.03,-305 263.03,-311 263.03,-311 263.03,-402 263.03,-402 263.03,-408 257.03,-414 251.03,-414 251.03,-414 106,-414 106,-414 100,-414 94,-408 94,-402 94,-402 94,-311 94,-311 94,-305 100,-299 106,-299"/>
<text text-anchor="middle" x="178.51" y="-401.9" font-family="Helvetica,sans-Serif" font-weight="bold" font-size="9.00">config</text>
</g>
<g id="clust6" class="cluster">
<title>cluster_node_modules</title>
<path fill="#ffffff" stroke="black" stroke-width="2" d="M115.26,-34C115.26,-34 166.26,-34 166.26,-34 172.26,-34 178.26,-40 178.26,-46 178.26,-46 178.26,-75 178.26,-75 178.26,-81 172.26,-87 166.26,-87 166.26,-87 115.26,-87 115.26,-87 109.26,-87 103.26,-81 103.26,-75 103.26,-75 103.26,-46 103.26,-46 103.26,-40 109.26,-34 115.26,-34"/>
<text text-anchor="middle" x="140.76" y="-74.9" font-family="Helvetica,sans-Serif" font-weight="bold" font-size="9.00">node_modules</text>
</g>
<g id="clust7" class="cluster">
<title>cluster_uuid</title>
<path fill="#ffffff" stroke="black" stroke-width="2" d="M205.03,-8C205.03,-8 251.03,-8 251.03,-8 257.03,-8 263.03,-14 263.03,-20 263.03,-20 263.03,-49 263.03,-49 263.03,-55 257.03,-61 251.03,-61 251.03,-61 205.03,-61 205.03,-61 199.03,-61 193.03,-55 193.03,-49 193.03,-49 193.03,-20 193.03,-20 193.03,-14 199.03,-8 205.03,-8"/>
<text text-anchor="middle" x="228.03" y="-48.9" font-family="Helvetica,sans-Serif" font-weight="bold" font-size="9.00">uuid</text>
</g>
<!-- example&#45;apps/a&#45;todo&#45;api/src/actions/createTodo.js -->
<g id="node1" class="node">
<title>example&#45;apps/a&#45;todo&#45;api/src/actions/createTodo.js</title>
<g id="a_node1"><a xlink:href="example-apps/a-todo-api/src/actions/createTodo.js" xlink:title="createTodo.js">
<path fill="#ffffcc" stroke="black" d="M256.84,-171.3C256.84,-171.3 199.21,-171.3 199.21,-171.3 196.11,-171.3 193.01,-168.2 193.01,-165.1 193.01,-165.1 193.01,-158.9 193.01,-158.9 193.01,-155.8 196.11,-152.7 199.21,-152.7 199.21,-152.7 256.84,-152.7 256.84,-152.7 259.94,-152.7 263.04,-155.8 263.04,-158.9 263.04,-158.9 263.04,-165.1 263.04,-165.1 263.04,-168.2 259.94,-171.3 256.84,-171.3"/>
<text text-anchor="middle" x="228.03" y="-159.3" font-family="Helvetica,sans-Serif" font-size="9.00">createTodo.js</text>
</a>
</g>
</g>
<!-- example&#45;apps/a&#45;todo&#45;api/src/actions/deserializeTodo.js -->
<g id="node2" class="node">
<title>example&#45;apps/a&#45;todo&#45;api/src/actions/deserializeTodo.js</title>
<g id="a_node2"><a xlink:href="example-apps/a-todo-api/src/actions/deserializeTodo.js" xlink:title="deserializeTodo.js">
<path fill="#ffffcc" stroke="black" d="M359.6,-217.3C359.6,-217.3 283.98,-217.3 283.98,-217.3 280.88,-217.3 277.78,-214.2 277.78,-211.1 277.78,-211.1 277.78,-204.9 277.78,-204.9 277.78,-201.8 280.88,-198.7 283.98,-198.7 283.98,-198.7 359.6,-198.7 359.6,-198.7 362.7,-198.7 365.8,-201.8 365.8,-204.9 365.8,-204.9 365.8,-211.1 365.8,-211.1 365.8,-214.2 362.7,-217.3 359.6,-217.3"/>
<text text-anchor="middle" x="321.79" y="-205.3" font-family="Helvetica,sans-Serif" font-size="9.00">deserializeTodo.js</text>
</a>
</g>
</g>
<!-- example&#45;apps/a&#45;todo&#45;api/src/actions/createTodo.js&#45;&gt;example&#45;apps/a&#45;todo&#45;api/src/actions/deserializeTodo.js -->
<g id="edge1" class="edge">
<title>example&#45;apps/a&#45;todo&#45;api/src/actions/createTodo.js&#45;&gt;example&#45;apps/a&#45;todo&#45;api/src/actions/deserializeTodo.js</title>
<path fill="none" stroke="#000000" stroke-width="2" stroke-opacity="0.200000" d="M250.54,-171.42C255.18,-173.53 260.05,-175.79 264.54,-178 275.77,-183.52 288.05,-190.01 298.27,-195.55"/>
<polygon fill="#000000" fill-opacity="0.200000" stroke="#000000" stroke-width="2" stroke-opacity="0.200000" points="297.44,-197.49 303.71,-198.51 299.44,-193.8 297.44,-197.49"/>
</g>
<!-- example&#45;apps/a&#45;todo&#45;api/src/actions/deleteTodo.js -->
<g id="node3" class="node">
<title>example&#45;apps/a&#45;todo&#45;api/src/actions/deleteTodo.js</title>
<g id="a_node3"><a xlink:href="example-apps/a-todo-api/src/actions/deleteTodo.js" xlink:title="deleteTodo.js">
<path fill="#ffffcc" stroke="black" d="M256.84,-202.3C256.84,-202.3 199.21,-202.3 199.21,-202.3 196.11,-202.3 193.01,-199.2 193.01,-196.1 193.01,-196.1 193.01,-189.9 193.01,-189.9 193.01,-186.8 196.11,-183.7 199.21,-183.7 199.21,-183.7 256.84,-183.7 256.84,-183.7 259.94,-183.7 263.04,-186.8 263.04,-189.9 263.04,-189.9 263.04,-196.1 263.04,-196.1 263.04,-199.2 259.94,-202.3 256.84,-202.3"/>
<text text-anchor="middle" x="228.03" y="-190.3" font-family="Helvetica,sans-Serif" font-size="9.00">deleteTodo.js</text>
</a>
</g>
</g>
<!-- example&#45;apps/a&#45;todo&#45;api/src/actions/index.js -->
<g id="node4" class="node">
<title>example&#45;apps/a&#45;todo&#45;api/src/actions/index.js</title>
<g id="a_node4"><a xlink:href="example-apps/a-todo-api/src/actions/index.js" xlink:title="index.js">
<path fill="#ffffcc" stroke="black" d="M161.06,-202.3C161.06,-202.3 119.46,-202.3 119.46,-202.3 116.36,-202.3 113.26,-199.2 113.26,-196.1 113.26,-196.1 113.26,-189.9 113.26,-189.9 113.26,-186.8 116.36,-183.7 119.46,-183.7 119.46,-183.7 161.06,-183.7 161.06,-183.7 164.16,-183.7 167.26,-186.8 167.26,-189.9 167.26,-189.9 167.26,-196.1 167.26,-196.1 167.26,-199.2 164.16,-202.3 161.06,-202.3"/>
<text text-anchor="middle" x="140.26" y="-190.3" font-family="Helvetica,sans-Serif" font-size="9.00">index.js</text>
</a>
</g>
</g>
<!-- example&#45;apps/a&#45;todo&#45;api/src/actions/index.js&#45;&gt;example&#45;apps/a&#45;todo&#45;api/src/actions/createTodo.js -->
<g id="edge2" class="edge">
<title>example&#45;apps/a&#45;todo&#45;api/src/actions/index.js&#45;&gt;example&#45;apps/a&#45;todo&#45;api/src/actions/createTodo.js</title>
<path fill="none" stroke="#000000" stroke-width="2" stroke-opacity="0.200000" d="M167.34,-183.97C171.09,-182.65 174.9,-181.3 178.51,-180 184.22,-177.95 190.29,-175.72 196.13,-173.57"/>
<polygon fill="#000000" fill-opacity="0.200000" stroke="#000000" stroke-width="2" stroke-opacity="0.200000" points="196.98,-175.49 201.88,-171.44 195.53,-171.55 196.98,-175.49"/>
</g>
<!-- example&#45;apps/a&#45;todo&#45;api/src/actions/index.js&#45;&gt;example&#45;apps/a&#45;todo&#45;api/src/actions/deleteTodo.js -->
<g id="edge3" class="edge">
<title>example&#45;apps/a&#45;todo&#45;api/src/actions/index.js&#45;&gt;example&#45;apps/a&#45;todo&#45;api/src/actions/deleteTodo.js</title>
<path fill="none" stroke="#000000" stroke-width="2" stroke-opacity="0.200000" d="M167.46,-193C173.44,-193 179.94,-193 186.37,-193"/>
<polygon fill="#000000" fill-opacity="0.200000" stroke="#000000" stroke-width="2" stroke-opacity="0.200000" points="186.76,-195.1 192.76,-193 186.76,-190.9 186.76,-195.1"/>
</g>
<!-- example&#45;apps/a&#45;todo&#45;api/src/actions/readTodos.js -->
<g id="node5" class="node">
<title>example&#45;apps/a&#45;todo&#45;api/src/actions/readTodos.js</title>
<g id="a_node5"><a xlink:href="example-apps/a-todo-api/src/actions/readTodos.js" xlink:title="readTodos.js">
<path fill="#ffffcc" stroke="black" d="M255.84,-233.3C255.84,-233.3 200.22,-233.3 200.22,-233.3 197.11,-233.3 194.01,-230.2 194.01,-227.1 194.01,-227.1 194.01,-220.9 194.01,-220.9 194.01,-217.8 197.11,-214.7 200.22,-214.7 200.22,-214.7 255.84,-214.7 255.84,-214.7 258.94,-214.7 262.04,-217.8 262.04,-220.9 262.04,-220.9 262.04,-227.1 262.04,-227.1 262.04,-230.2 258.94,-233.3 255.84,-233.3"/>
<text text-anchor="middle" x="228.03" y="-221.3" font-family="Helvetica,sans-Serif" font-size="9.00">readTodos.js</text>
</a>
</g>
</g>
<!-- example&#45;apps/a&#45;todo&#45;api/src/actions/index.js&#45;&gt;example&#45;apps/a&#45;todo&#45;api/src/actions/readTodos.js -->
<g id="edge4" class="edge">
<title>example&#45;apps/a&#45;todo&#45;api/src/actions/index.js&#45;&gt;example&#45;apps/a&#45;todo&#45;api/src/actions/readTodos.js</title>
<path fill="none" stroke="#000000" stroke-width="2" stroke-opacity="0.200000" d="M167.46,-202.47C176.35,-205.68 186.38,-209.31 195.63,-212.65"/>
<polygon fill="#000000" fill-opacity="0.200000" stroke="#000000" stroke-width="2" stroke-opacity="0.200000" points="194.92,-214.63 201.28,-214.7 196.35,-210.68 194.92,-214.63"/>
</g>
<!-- example&#45;apps/a&#45;todo&#45;api/src/actions/updateTodo.js -->
<g id="node6" class="node">
<title>example&#45;apps/a&#45;todo&#45;api/src/actions/updateTodo.js</title>
<g id="a_node6"><a xlink:href="example-apps/a-todo-api/src/actions/updateTodo.js" xlink:title="updateTodo.js">
<path fill="#ffffcc" stroke="black" d="M258.35,-264.3C258.35,-264.3 197.7,-264.3 197.7,-264.3 194.6,-264.3 191.5,-261.2 191.5,-258.1 191.5,-258.1 191.5,-251.9 191.5,-251.9 191.5,-248.8 194.6,-245.7 197.7,-245.7 197.7,-245.7 258.35,-245.7 258.35,-245.7 261.45,-245.7 264.55,-248.8 264.55,-251.9 264.55,-251.9 264.55,-258.1 264.55,-258.1 264.55,-261.2 261.45,-264.3 258.35,-264.3"/>
<text text-anchor="middle" x="228.03" y="-252.3" font-family="Helvetica,sans-Serif" font-size="9.00">updateTodo.js</text>
</a>
</g>
</g>
<!-- example&#45;apps/a&#45;todo&#45;api/src/actions/index.js&#45;&gt;example&#45;apps/a&#45;todo&#45;api/src/actions/updateTodo.js -->
<g id="edge5" class="edge">
<title>example&#45;apps/a&#45;todo&#45;api/src/actions/index.js&#45;&gt;example&#45;apps/a&#45;todo&#45;api/src/actions/updateTodo.js</title>
<path fill="none" stroke="#000000" stroke-width="2" stroke-opacity="0.200000" d="M149.79,-202.42C159.24,-212.45 175.31,-228.33 191.51,-239 193.61,-240.38 195.85,-241.7 198.14,-242.94"/>
<polygon fill="#000000" fill-opacity="0.200000" stroke="#000000" stroke-width="2" stroke-opacity="0.200000" points="197.24,-244.84 203.54,-245.7 199.15,-241.1 197.24,-244.84"/>
</g>
<!-- example&#45;apps/a&#45;todo&#45;api/src/actions/updateTodo.js&#45;&gt;example&#45;apps/a&#45;todo&#45;api/src/actions/deserializeTodo.js -->
<g id="edge6" class="edge">
<title>example&#45;apps/a&#45;todo&#45;api/src/actions/updateTodo.js&#45;&gt;example&#45;apps/a&#45;todo&#45;api/src/actions/deserializeTodo.js</title>
<path fill="none" stroke="#000000" stroke-width="2" stroke-opacity="0.200000" d="M250.56,-245.63C255.2,-243.52 260.06,-241.24 264.54,-239 276.15,-233.2 288.84,-226.26 299.22,-220.42"/>
<polygon fill="#000000" fill-opacity="0.200000" stroke="#000000" stroke-width="2" stroke-opacity="0.200000" points="300.54,-222.08 304.73,-217.3 298.47,-218.43 300.54,-222.08"/>
</g>
<!-- example&#45;apps/a&#45;todo&#45;api/src/config/default.js -->
<g id="node7" class="node">
<title>example&#45;apps/a&#45;todo&#45;api/src/config/default.js</title>
<g id="a_node7"><a xlink:href="example-apps/a-todo-api/src/config/default.js" xlink:title="default.js">
<path fill="#ffffcc" stroke="black" d="M248.82,-356.3C248.82,-356.3 207.23,-356.3 207.23,-356.3 204.13,-356.3 201.03,-353.2 201.03,-350.1 201.03,-350.1 201.03,-343.9 201.03,-343.9 201.03,-340.8 204.13,-337.7 207.23,-337.7 207.23,-337.7 248.82,-337.7 248.82,-337.7 251.92,-337.7 255.03,-340.8 255.03,-343.9 255.03,-343.9 255.03,-350.1 255.03,-350.1 255.03,-353.2 251.92,-356.3 248.82,-356.3"/>
<text text-anchor="middle" x="228.03" y="-344.3" font-family="Helvetica,sans-Serif" font-size="9.00">default.js</text>
</a>
</g>
</g>
<!-- example&#45;apps/a&#45;todo&#45;api/src/config/development.js -->
<g id="node8" class="node">
<title>example&#45;apps/a&#45;todo&#45;api/src/config/development.js</title>
<g id="a_node8"><a xlink:href="example-apps/a-todo-api/src/config/development.js" xlink:title="development.js">
<path fill="#ccffcc" stroke="black" d="M172.07,-387.3C172.07,-387.3 108.44,-387.3 108.44,-387.3 105.34,-387.3 102.24,-384.2 102.24,-381.1 102.24,-381.1 102.24,-374.9 102.24,-374.9 102.24,-371.8 105.34,-368.7 108.44,-368.7 108.44,-368.7 172.07,-368.7 172.07,-368.7 175.17,-368.7 178.27,-371.8 178.27,-374.9 178.27,-374.9 178.27,-381.1 178.27,-381.1 178.27,-384.2 175.17,-387.3 172.07,-387.3"/>
<text text-anchor="middle" x="140.26" y="-375.3" font-family="Helvetica,sans-Serif" font-size="9.00">development.js</text>
</a>
</g>
</g>
<!-- example&#45;apps/a&#45;todo&#45;api/src/config/index.js -->
<g id="node9" class="node">
<title>example&#45;apps/a&#45;todo&#45;api/src/config/index.js</title>
<g id="a_node9"><a xlink:href="example-apps/a-todo-api/src/config/index.js" xlink:title="index.js">
<path fill="#ffffcc" stroke="black" d="M161.06,-356.3C161.06,-356.3 119.46,-356.3 119.46,-356.3 116.36,-356.3 113.26,-353.2 113.26,-350.1 113.26,-350.1 113.26,-343.9 113.26,-343.9 113.26,-340.8 116.36,-337.7 119.46,-337.7 119.46,-337.7 161.06,-337.7 161.06,-337.7 164.16,-337.7 167.26,-340.8 167.26,-343.9 167.26,-343.9 167.26,-350.1 167.26,-350.1 167.26,-353.2 164.16,-356.3 161.06,-356.3"/>
<text text-anchor="middle" x="140.26" y="-344.3" font-family="Helvetica,sans-Serif" font-size="9.00">index.js</text>
</a>
</g>
</g>
<!-- example&#45;apps/a&#45;todo&#45;api/src/config/index.js&#45;&gt;example&#45;apps/a&#45;todo&#45;api/src/config/default.js -->
<g id="edge7" class="edge">
<title>example&#45;apps/a&#45;todo&#45;api/src/config/index.js&#45;&gt;example&#45;apps/a&#45;todo&#45;api/src/config/default.js</title>
<path fill="none" stroke="#000000" stroke-width="2" stroke-opacity="0.200000" d="M167.46,-347C176.1,-347 185.82,-347 194.86,-347"/>
<polygon fill="#000000" fill-opacity="0.200000" stroke="#000000" stroke-width="2" stroke-opacity="0.200000" points="194.99,-349.1 200.99,-347 194.99,-344.9 194.99,-349.1"/>
</g>
<!-- example&#45;apps/a&#45;todo&#45;api/src/config/production.js -->
<g id="node10" class="node">
<title>example&#45;apps/a&#45;todo&#45;api/src/config/production.js</title>
<g id="a_node10"><a xlink:href="example-apps/a-todo-api/src/config/production.js" xlink:title="production.js">
<path fill="#ccffcc" stroke="black" d="M167.57,-325.3C167.57,-325.3 112.95,-325.3 112.95,-325.3 109.85,-325.3 106.75,-322.2 106.75,-319.1 106.75,-319.1 106.75,-312.9 106.75,-312.9 106.75,-309.8 109.85,-306.7 112.95,-306.7 112.95,-306.7 167.57,-306.7 167.57,-306.7 170.67,-306.7 173.77,-309.8 173.77,-312.9 173.77,-312.9 173.77,-319.1 173.77,-319.1 173.77,-322.2 170.67,-325.3 167.57,-325.3"/>
<text text-anchor="middle" x="140.26" y="-313.3" font-family="Helvetica,sans-Serif" font-size="9.00">production.js</text>
</a>
</g>
</g>
<!-- example&#45;apps/a&#45;todo&#45;api/src/index.js -->
<g id="node11" class="node">
<title>example&#45;apps/a&#45;todo&#45;api/src/index.js</title>
<g id="a_node11"><a xlink:href="example-apps/a-todo-api/src/index.js" xlink:title="index.js">
<path fill="#ffffcc" stroke="black" d="M79.8,-169.3C79.8,-169.3 38.2,-169.3 38.2,-169.3 35.1,-169.3 32,-166.2 32,-163.1 32,-163.1 32,-156.9 32,-156.9 32,-153.8 35.1,-150.7 38.2,-150.7 38.2,-150.7 79.8,-150.7 79.8,-150.7 82.9,-150.7 86,-153.8 86,-156.9 86,-156.9 86,-163.1 86,-163.1 86,-166.2 82.9,-169.3 79.8,-169.3"/>
<text text-anchor="middle" x="59" y="-157.3" font-family="Helvetica,sans-Serif" font-size="9.00">index.js</text>
</a>
</g>
</g>
<!-- example&#45;apps/a&#45;todo&#45;api/src/index.js&#45;&gt;example&#45;apps/a&#45;todo&#45;api/src/actions/index.js -->
<g id="edge8" class="edge">
<title>example&#45;apps/a&#45;todo&#45;api/src/index.js&#45;&gt;example&#45;apps/a&#45;todo&#45;api/src/actions/index.js</title>
<path fill="none" stroke="#000000" stroke-width="2" stroke-opacity="0.200000" d="M74.14,-169.4C80.09,-173.07 87.2,-177.08 94,-180 98.13,-181.77 102.58,-183.39 107.01,-184.82"/>
<polygon fill="#000000" fill-opacity="0.200000" stroke="#000000" stroke-width="2" stroke-opacity="0.200000" points="106.66,-186.92 113.02,-186.68 107.9,-182.9 106.66,-186.92"/>
</g>
<!-- example&#45;apps/a&#45;todo&#45;api/src/index.js&#45;&gt;example&#45;apps/a&#45;todo&#45;api/src/config/index.js -->
<g id="edge9" class="edge">
<title>example&#45;apps/a&#45;todo&#45;api/src/index.js&#45;&gt;example&#45;apps/a&#45;todo&#45;api/src/config/index.js</title>
<path fill="none" stroke="#000000" stroke-width="2" stroke-opacity="0.200000" d="M60.66,-169.41C63.11,-201.54 72.6,-306.29 94,-331 97.61,-335.16 102.37,-338.24 107.44,-340.52"/>
<polygon fill="#000000" fill-opacity="0.200000" stroke="#000000" stroke-width="2" stroke-opacity="0.200000" points="106.69,-342.48 113.04,-342.69 108.21,-338.57 106.69,-342.48"/>
</g>
<!-- example&#45;apps/a&#45;todo&#45;api/src/todo.js -->
<g id="node12" class="node">
<title>example&#45;apps/a&#45;todo&#45;api/src/todo.js</title>
<g id="a_node12"><a xlink:href="example-apps/a-todo-api/src/todo.js" xlink:title="todo.js">
<path fill="#ffffcc" stroke="black" d="M161.06,-137.3C161.06,-137.3 119.46,-137.3 119.46,-137.3 116.36,-137.3 113.26,-134.2 113.26,-131.1 113.26,-131.1 113.26,-124.9 113.26,-124.9 113.26,-121.8 116.36,-118.7 119.46,-118.7 119.46,-118.7 161.06,-118.7 161.06,-118.7 164.16,-118.7 167.26,-121.8 167.26,-124.9 167.26,-124.9 167.26,-131.1 167.26,-131.1 167.26,-134.2 164.16,-137.3 161.06,-137.3"/>
<text text-anchor="middle" x="140.26" y="-125.3" font-family="Helvetica,sans-Serif" font-size="9.00">todo.js</text>
</a>
</g>
</g>
<!-- example&#45;apps/a&#45;todo&#45;api/src/index.js&#45;&gt;example&#45;apps/a&#45;todo&#45;api/src/todo.js -->
<g id="edge10" class="edge">
<title>example&#45;apps/a&#45;todo&#45;api/src/index.js&#45;&gt;example&#45;apps/a&#45;todo&#45;api/src/todo.js</title>
<path fill="none" stroke="#000000" stroke-width="2" stroke-opacity="0.200000" d="M76.3,-150.58C81.82,-147.6 88.08,-144.46 94,-142 98.27,-140.23 102.85,-138.56 107.4,-137.03"/>
<polygon fill="#000000" fill-opacity="0.200000" stroke="#000000" stroke-width="2" stroke-opacity="0.200000" points="108.05,-139.03 113.11,-135.18 106.76,-135.03 108.05,-139.03"/>
</g>
<!-- node_modules/express -->
<g id="node13" class="node">
<title>node_modules/express</title>
<g id="a_node13"><a xlink:href="node_modules/express" xlink:title="express">
<polygon fill="#c40b0a" fill-opacity="0.101961" stroke="black" points="167.26,-60.3 115.32,-60.3 113.26,-58.23 113.26,-41.7 165.19,-41.7 167.26,-43.77 167.26,-60.3"/>
<polyline fill="none" stroke="black" points="165.19,-58.23 113.26,-58.23 "/>
<polyline fill="none" stroke="black" points="165.19,-58.23 165.19,-41.7 "/>
<polyline fill="none" stroke="black" points="165.19,-58.23 167.26,-60.3 "/>
<text text-anchor="middle" x="140.26" y="-48.3" font-family="Helvetica,sans-Serif" font-size="9.00" fill="#c40b0a">express</text>
</a>
</g>
</g>
<!-- example&#45;apps/a&#45;todo&#45;api/src/index.js&#45;&gt;node_modules/express -->
<g id="edge11" class="edge">
<title>example&#45;apps/a&#45;todo&#45;api/src/index.js&#45;&gt;node_modules/express</title>
<path fill="none" stroke="#000000" stroke-opacity="0.200000" d="M65.77,-150.62C72.34,-140.07 83.52,-122.52 94,-108 104.77,-93.07 117.94,-76.67 127.29,-65.31"/>
<polygon fill="#000000" fill-opacity="0.200000" stroke="#000000" stroke-opacity="0.200000" points="129.09,-66.44 131.29,-60.47 125.85,-63.76 129.09,-66.44"/>
</g>
<!-- fs -->
<g id="node14" class="node">
<title>fs</title>
<path fill="#ffffcc" stroke="grey" d="M248.82,-87.3C248.82,-87.3 207.23,-87.3 207.23,-87.3 204.13,-87.3 201.03,-84.2 201.03,-81.1 201.03,-81.1 201.03,-74.9 201.03,-74.9 201.03,-71.8 204.13,-68.7 207.23,-68.7 207.23,-68.7 248.82,-68.7 248.82,-68.7 251.92,-68.7 255.03,-71.8 255.03,-74.9 255.03,-74.9 255.03,-81.1 255.03,-81.1 255.03,-84.2 251.92,-87.3 248.82,-87.3"/>
<text text-anchor="middle" x="228.03" y="-75.3" font-family="Helvetica,sans-Serif" font-size="9.00" fill="grey">fs</text>
</g>
<!-- example&#45;apps/a&#45;todo&#45;api/src/todo.js&#45;&gt;fs -->
<g id="edge12" class="edge">
<title>example&#45;apps/a&#45;todo&#45;api/src/todo.js&#45;&gt;fs</title>
<path fill="none" stroke="#000000" stroke-dasharray="5,2" stroke-opacity="0.200000" d="M157.39,-118.6C171.05,-110.63 190.73,-99.16 205.69,-90.44"/>
<polygon fill="#000000" fill-opacity="0.200000" stroke="#000000" stroke-opacity="0.200000" points="206.84,-92.2 210.97,-87.36 204.72,-88.57 206.84,-92.2"/>
</g>
<!-- uuid/v4 -->
<g id="node15" class="node">
<title>uuid/v4</title>
<path fill="#ffffcc" stroke="red" d="M248.82,-34.3C248.82,-34.3 207.23,-34.3 207.23,-34.3 204.13,-34.3 201.03,-31.2 201.03,-28.1 201.03,-28.1 201.03,-21.9 201.03,-21.9 201.03,-18.8 204.13,-15.7 207.23,-15.7 207.23,-15.7 248.82,-15.7 248.82,-15.7 251.92,-15.7 255.03,-18.8 255.03,-21.9 255.03,-21.9 255.03,-28.1 255.03,-28.1 255.03,-31.2 251.92,-34.3 248.82,-34.3"/>
<text text-anchor="middle" x="228.03" y="-22.3" font-family="Helvetica,sans-Serif" font-size="9.00" fill="red">v4</text>
</g>
<!-- example&#45;apps/a&#45;todo&#45;api/src/todo.js&#45;&gt;uuid/v4 -->
<g id="edge13" class="edge">
<title>example&#45;apps/a&#45;todo&#45;api/src/todo.js&#45;&gt;uuid/v4</title>
<path fill="none" stroke="#000000" stroke-width="2" stroke-opacity="0.200000" d="M152.36,-118.49C160.34,-111.25 170.98,-100.74 178.51,-90 186.17,-79.1 183.99,-73.99 191.51,-63 197.4,-54.4 205.19,-45.84 211.98,-39.02"/>
<polygon fill="#000000" fill-opacity="0.200000" stroke="#000000" stroke-width="2" stroke-opacity="0.200000" points="213.67,-40.3 216.48,-34.6 210.73,-37.3 213.67,-40.3"/>
</g>
</g>
</svg>
