<?xml version="1.0" encoding="UTF-8" standalone="no"?>
<!DOCTYPE svg PUBLIC "-//W3C//DTD SVG 1.1//EN"
 "http://www.w3.org/Graphics/SVG/1.1/DTD/svg11.dtd">
<!-- Generated by graphviz version 2.44.0 (20200408.0750)
 -->
<!-- Title: dependency&#45;cruiser output Pages: 1 -->
<svg width="255pt" height="147pt"
 viewBox="0.00 0.00 255.00 147.00" xmlns="http://www.w3.org/2000/svg" xmlns:xlink="http://www.w3.org/1999/xlink">
<g id="graph0" class="graph" transform="scale(1 1) rotate(0) translate(4 143)">
<title>dependency&#45;cruiser output</title>
<polygon fill="white" stroke="transparent" points="-4,4 -4,-143 251,-143 251,4 -4,4"/>
<g id="clust1" class="cluster">
<title>cluster_example&#45;apps</title>
<path fill="#ffffff" stroke="black" stroke-width="2" d="M12,-8C12,-8 131,-8 131,-8 137,-8 143,-14 143,-20 143,-20 143,-119 143,-119 143,-125 137,-131 131,-131 131,-131 12,-131 12,-131 6,-131 0,-125 0,-119 0,-119 0,-20 0,-20 0,-14 6,-8 12,-8"/>
<text text-anchor="middle" x="71.5" y="-118.9" font-family="Helvetica,sans-Serif" font-weight="bold" font-size="9.00">example&#45;apps</text>
</g>
<g id="clust2" class="cluster">
<title>cluster_example&#45;apps/stepped&#45;vanilla&#45;node&#45;server</title>
<path fill="#ffffff" stroke="black" stroke-width="2" d="M20,-16C20,-16 123,-16 123,-16 129,-16 135,-22 135,-28 135,-28 135,-92 135,-92 135,-98 129,-104 123,-104 123,-104 20,-104 20,-104 14,-104 8,-98 8,-92 8,-92 8,-28 8,-28 8,-22 14,-16 20,-16"/>
<text text-anchor="middle" x="71.5" y="-91.9" font-family="Helvetica,sans-Serif" font-weight="bold" font-size="9.00">stepped&#45;vanilla&#45;node&#45;server</text>
</g>
<g id="clust3" class="cluster">
<title>cluster_example&#45;apps/stepped&#45;vanilla&#45;node&#45;server/1.nodejs&#45;project&#45;setup</title>
<path fill="#ffffff" stroke="black" stroke-width="2" d="M31,-24C31,-24 112,-24 112,-24 118,-24 124,-30 124,-36 124,-36 124,-65 124,-65 124,-71 118,-77 112,-77 112,-77 31,-77 31,-77 25,-77 19,-71 19,-65 19,-65 19,-36 19,-36 19,-30 25,-24 31,-24"/>
<text text-anchor="middle" x="71.5" y="-64.9" font-family="Helvetica,sans-Serif" font-weight="bold" font-size="9.00">1.nodejs&#45;project&#45;setup</text>
</g>
<g id="clust4" class="cluster">
<title>cluster_node_modules</title>
<path fill="#ffffff" stroke="black" stroke-width="2" d="M179,-24C179,-24 230,-24 230,-24 236,-24 242,-30 242,-36 242,-36 242,-65 242,-65 242,-71 236,-77 230,-77 230,-77 179,-77 179,-77 173,-77 167,-71 167,-65 167,-65 167,-36 167,-36 167,-30 173,-24 179,-24"/>
<text text-anchor="middle" x="204.5" y="-64.9" font-family="Helvetica,sans-Serif" font-weight="bold" font-size="9.00">node_modules</text>
</g>
<!-- example&#45;apps/stepped&#45;vanilla&#45;node&#45;server/1.nodejs&#45;project&#45;setup/index.js -->
<g id="node1" class="node">
<title>example&#45;apps/stepped&#45;vanilla&#45;node&#45;server/1.nodejs&#45;project&#45;setup/index.js</title>
<g id="a_node1"><a xlink:href="example-apps/stepped-vanilla-node-server/1.nodejs-project-setup/index.js" xlink:title="index.js">
<path fill="#ffffcc" stroke="black" d="M91.8,-50.3C91.8,-50.3 50.2,-50.3 50.2,-50.3 47.1,-50.3 44,-47.2 44,-44.1 44,-44.1 44,-37.9 44,-37.9 44,-34.8 47.1,-31.7 50.2,-31.7 50.2,-31.7 91.8,-31.7 91.8,-31.7 94.9,-31.7 98,-34.8 98,-37.9 98,-37.9 98,-44.1 98,-44.1 98,-47.2 94.9,-50.3 91.8,-50.3"/>
<text text-anchor="middle" x="71" y="-38.3" font-family="Helvetica,sans-Serif" font-size="9.00">index.js</text>
</a>
</g>
</g>
<!-- node_modules/cowsay -->
<g id="node2" class="node">
<title>node_modules/cowsay</title>
<g id="a_node2"><a xlink:href="node_modules/cowsay" xlink:title="cowsay">
<polygon fill="#c40b0a" fill-opacity="0.101961" stroke="black" points="231,-50.3 179.07,-50.3 177,-48.23 177,-31.7 228.93,-31.7 231,-33.77 231,-50.3"/>
<polyline fill="none" stroke="black" points="228.93,-48.23 177,-48.23 "/>
<polyline fill="none" stroke="black" points="228.93,-48.23 228.93,-31.7 "/>
<polyline fill="none" stroke="black" points="228.93,-48.23 231,-50.3 "/>
<text text-anchor="middle" x="204" y="-38.3" font-family="Helvetica,sans-Serif" font-size="9.00" fill="#c40b0a">cowsay</text>
</a>
</g>
</g>
<!-- example&#45;apps/stepped&#45;vanilla&#45;node&#45;server/1.nodejs&#45;project&#45;setup/index.js&#45;&gt;node_modules/cowsay -->
<g id="edge1" class="edge">
<title>example&#45;apps/stepped&#45;vanilla&#45;node&#45;server/1.nodejs&#45;project&#45;setup/index.js&#45;&gt;node_modules/cowsay</title>
<path fill="none" stroke="#000000" stroke-opacity="0.200000" d="M98.19,-41C119.08,-41 148.42,-41 170.75,-41"/>
<polygon fill="#000000" fill-opacity="0.200000" stroke="#000000" stroke-opacity="0.200000" points="170.85,-43.1 176.85,-41 170.85,-38.9 170.85,-43.1"/>
</g>
</g>
</svg>
