<?xml version="1.0" encoding="UTF-8" standalone="no"?>
<!DOCTYPE svg PUBLIC "-//W3C//DTD SVG 1.1//EN"
 "http://www.w3.org/Graphics/SVG/1.1/DTD/svg11.dtd">
<!-- Generated by graphviz version 2.44.0 (20200408.0750)
 -->
<!-- Title: dependency&#45;cruiser output Pages: 1 -->
<svg width="147pt" height="147pt"
 viewBox="0.00 0.00 147.00 147.00" xmlns="http://www.w3.org/2000/svg" xmlns:xlink="http://www.w3.org/1999/xlink">
<g id="graph0" class="graph" transform="scale(1 1) rotate(0) translate(4 143)">
<title>dependency&#45;cruiser output</title>
<polygon fill="white" stroke="transparent" points="-4,4 -4,-143 143,-143 143,4 -4,4"/>
<g id="clust1" class="cluster">
<title>cluster_example&#45;apps</title>
<path fill="#ffffff" stroke="black" stroke-width="2" d="M12,-8C12,-8 127,-8 127,-8 133,-8 139,-14 139,-20 139,-20 139,-119 139,-119 139,-125 133,-131 127,-131 127,-131 12,-131 12,-131 6,-131 0,-125 0,-119 0,-119 0,-20 0,-20 0,-14 6,-8 12,-8"/>
<text text-anchor="middle" x="69.5" y="-118.9" font-family="Helvetica,sans-Serif" font-weight="bold" font-size="9.00">example&#45;apps</text>
</g>
<g id="clust2" class="cluster">
<title>cluster_example&#45;apps/stepped&#45;cli&#45;and&#45;file&#45;system</title>
<path fill="#ffffff" stroke="black" stroke-width="2" d="M20,-16C20,-16 119,-16 119,-16 125,-16 131,-22 131,-28 131,-28 131,-92 131,-92 131,-98 125,-104 119,-104 119,-104 20,-104 20,-104 14,-104 8,-98 8,-92 8,-92 8,-28 8,-28 8,-22 14,-16 20,-16"/>
<text text-anchor="middle" x="69.5" y="-91.9" font-family="Helvetica,sans-Serif" font-weight="bold" font-size="9.00">stepped&#45;cli&#45;and&#45;file&#45;system</text>
</g>
<g id="clust3" class="cluster">
<title>cluster_example&#45;apps/stepped&#45;cli&#45;and&#45;file&#45;system/2&#45;itertating&#45;arguments</title>
<path fill="#ffffff" stroke="black" stroke-width="2" d="M29,-24C29,-24 109,-24 109,-24 115,-24 121,-30 121,-36 121,-36 121,-65 121,-65 121,-71 115,-77 109,-77 109,-77 29,-77 29,-77 23,-77 17,-71 17,-65 17,-65 17,-36 17,-36 17,-30 23,-24 29,-24"/>
<text text-anchor="middle" x="69" y="-64.9" font-family="Helvetica,sans-Serif" font-weight="bold" font-size="9.00">2&#45;itertating&#45;arguments</text>
</g>
<!-- example&#45;apps/stepped&#45;cli&#45;and&#45;file&#45;system/2&#45;itertating&#45;arguments/index.js -->
<g id="node1" class="node">
<title>example&#45;apps/stepped&#45;cli&#45;and&#45;file&#45;system/2&#45;itertating&#45;arguments/index.js</title>
<g id="a_node1"><a xlink:href="example-apps/stepped-cli-and-file-system/2-itertating-arguments/index.js" xlink:title="index.js">
<path fill="#ccffcc" stroke="black" d="M89.8,-50.3C89.8,-50.3 48.2,-50.3 48.2,-50.3 45.1,-50.3 42,-47.2 42,-44.1 42,-44.1 42,-37.9 42,-37.9 42,-34.8 45.1,-31.7 48.2,-31.7 48.2,-31.7 89.8,-31.7 89.8,-31.7 92.9,-31.7 96,-34.8 96,-37.9 96,-37.9 96,-44.1 96,-44.1 96,-47.2 92.9,-50.3 89.8,-50.3"/>
<text text-anchor="middle" x="69" y="-38.3" font-family="Helvetica,sans-Serif" font-size="9.00">index.js</text>
</a>
</g>
</g>
</g>
</svg>
