<?xml version="1.0" encoding="UTF-8" standalone="no"?>
<!DOCTYPE svg PUBLIC "-//W3C//DTD SVG 1.1//EN"
 "http://www.w3.org/Graphics/SVG/1.1/DTD/svg11.dtd">
<!-- Generated by graphviz version 2.44.0 (20200408.0750)
 -->
<!-- Title: dependency&#45;cruiser output Pages: 1 -->
<svg width="225pt" height="182pt"
 viewBox="0.00 0.00 225.00 182.00" xmlns="http://www.w3.org/2000/svg" xmlns:xlink="http://www.w3.org/1999/xlink">
<g id="graph0" class="graph" transform="scale(1 1) rotate(0) translate(4 178)">
<title>dependency&#45;cruiser output</title>
<polygon fill="white" stroke="transparent" points="-4,4 -4,-178 221,-178 221,4 -4,4"/>
<g id="clust1" class="cluster">
<title>cluster_example&#45;apps</title>
<path fill="#ffffff" stroke="black" stroke-width="2" d="M12,-8C12,-8 131,-8 131,-8 137,-8 143,-14 143,-20 143,-20 143,-154 143,-154 143,-160 137,-166 131,-166 131,-166 12,-166 12,-166 6,-166 0,-160 0,-154 0,-154 0,-20 0,-20 0,-14 6,-8 12,-8"/>
<text text-anchor="middle" x="71.5" y="-153.9" font-family="Helvetica,sans-Serif" font-weight="bold" font-size="9.00">example&#45;apps</text>
</g>
<g id="clust2" class="cluster">
<title>cluster_example&#45;apps/stepped&#45;vanilla&#45;node&#45;server</title>
<path fill="#ffffff" stroke="black" stroke-width="2" d="M20,-16C20,-16 123,-16 123,-16 129,-16 135,-22 135,-28 135,-28 135,-127 135,-127 135,-133 129,-139 123,-139 123,-139 20,-139 20,-139 14,-139 8,-133 8,-127 8,-127 8,-28 8,-28 8,-22 14,-16 20,-16"/>
<text text-anchor="middle" x="71.5" y="-126.9" font-family="Helvetica,sans-Serif" font-weight="bold" font-size="9.00">stepped&#45;vanilla&#45;node&#45;server</text>
</g>
<g id="clust3" class="cluster">
<title>cluster_example&#45;apps/stepped&#45;vanilla&#45;node&#45;server/4.responding&#45;to&#45;root&#45;url</title>
<path fill="#ffffff" stroke="black" stroke-width="2" d="M28,-24C28,-24 114,-24 114,-24 120,-24 126,-30 126,-36 126,-36 126,-100 126,-100 126,-106 120,-112 114,-112 114,-112 28,-112 28,-112 22,-112 16,-106 16,-100 16,-100 16,-36 16,-36 16,-30 22,-24 28,-24"/>
<text text-anchor="middle" x="71" y="-99.9" font-family="Helvetica,sans-Serif" font-weight="bold" font-size="9.00">4.responding&#45;to&#45;root&#45;url</text>
</g>
<g id="clust4" class="cluster">
<title>cluster_example&#45;apps/stepped&#45;vanilla&#45;node&#45;server/4.responding&#45;to&#45;root&#45;url/src</title>
<path fill="#ffffff" stroke="black" stroke-width="2" d="M48,-32C48,-32 94,-32 94,-32 100,-32 106,-38 106,-44 106,-44 106,-73 106,-73 106,-79 100,-85 94,-85 94,-85 48,-85 48,-85 42,-85 36,-79 36,-73 36,-73 36,-44 36,-44 36,-38 42,-32 48,-32"/>
<text text-anchor="middle" x="71" y="-72.9" font-family="Helvetica,sans-Serif" font-weight="bold" font-size="9.00">src</text>
</g>
<!-- example&#45;apps/stepped&#45;vanilla&#45;node&#45;server/4.responding&#45;to&#45;root&#45;url/src/index.js -->
<g id="node1" class="node">
<title>example&#45;apps/stepped&#45;vanilla&#45;node&#45;server/4.responding&#45;to&#45;root&#45;url/src/index.js</title>
<g id="a_node1"><a xlink:href="example-apps/stepped-vanilla-node-server/4.responding-to-root-url/src/index.js" xlink:title="index.js">
<path fill="#ffffcc" stroke="black" d="M91.8,-58.3C91.8,-58.3 50.2,-58.3 50.2,-58.3 47.1,-58.3 44,-55.2 44,-52.1 44,-52.1 44,-45.9 44,-45.9 44,-42.8 47.1,-39.7 50.2,-39.7 50.2,-39.7 91.8,-39.7 91.8,-39.7 94.9,-39.7 98,-42.8 98,-45.9 98,-45.9 98,-52.1 98,-52.1 98,-55.2 94.9,-58.3 91.8,-58.3"/>
<text text-anchor="middle" x="71" y="-46.3" font-family="Helvetica,sans-Serif" font-size="9.00">index.js</text>
</a>
</g>
</g>
<!-- http -->
<g id="node2" class="node">
<title>http</title>
<path fill="#ffffcc" stroke="grey" d="M210.8,-58.3C210.8,-58.3 169.2,-58.3 169.2,-58.3 166.1,-58.3 163,-55.2 163,-52.1 163,-52.1 163,-45.9 163,-45.9 163,-42.8 166.1,-39.7 169.2,-39.7 169.2,-39.7 210.8,-39.7 210.8,-39.7 213.9,-39.7 217,-42.8 217,-45.9 217,-45.9 217,-52.1 217,-52.1 217,-55.2 213.9,-58.3 210.8,-58.3"/>
<text text-anchor="middle" x="190" y="-46.3" font-family="Helvetica,sans-Serif" font-size="9.00" fill="grey">http</text>
</g>
<!-- example&#45;apps/stepped&#45;vanilla&#45;node&#45;server/4.responding&#45;to&#45;root&#45;url/src/index.js&#45;&gt;http -->
<g id="edge1" class="edge">
<title>example&#45;apps/stepped&#45;vanilla&#45;node&#45;server/4.responding&#45;to&#45;root&#45;url/src/index.js&#45;&gt;http</title>
<path fill="none" stroke="#000000" stroke-dasharray="5,2" stroke-opacity="0.200000" d="M98.26,-49C115.57,-49 138.36,-49 156.77,-49"/>
<polygon fill="#000000" fill-opacity="0.200000" stroke="#000000" stroke-opacity="0.200000" points="156.83,-51.1 162.83,-49 156.83,-46.9 156.83,-51.1"/>
</g>
</g>
</svg>
