<?xml version="1.0" encoding="UTF-8" standalone="no"?>
<!DOCTYPE svg PUBLIC "-//W3C//DTD SVG 1.1//EN"
 "http://www.w3.org/Graphics/SVG/1.1/DTD/svg11.dtd">
<!-- Generated by graphviz version 2.44.0 (20200408.0750)
 -->
<!-- Title: dependency&#45;cruiser output Pages: 1 -->
<svg width="475pt" height="454pt"
 viewBox="0.00 0.00 475.02 454.00" xmlns="http://www.w3.org/2000/svg" xmlns:xlink="http://www.w3.org/1999/xlink">
<g id="graph0" class="graph" transform="scale(1 1) rotate(0) translate(4 450)">
<title>dependency&#45;cruiser output</title>
<polygon fill="white" stroke="transparent" points="-4,4 -4,-450 471.02,-450 471.02,4 -4,4"/>
<g id="clust1" class="cluster">
<title>cluster_node_modules</title>
<path fill="#ffffff" stroke="black" stroke-width="2" d="M293.76,-8C293.76,-8 349.76,-8 349.76,-8 355.76,-8 361.76,-14 361.76,-20 361.76,-20 361.76,-111 361.76,-111 361.76,-117 355.76,-123 349.76,-123 349.76,-123 293.76,-123 293.76,-123 287.76,-123 281.76,-117 281.76,-111 281.76,-111 281.76,-20 281.76,-20 281.76,-14 287.76,-8 293.76,-8"/>
<text text-anchor="middle" x="321.76" y="-110.9" font-family="Helvetica,sans-Serif" font-weight="bold" font-size="9.00">node_modules</text>
</g>
<g id="clust2" class="cluster">
<title>cluster_using&#45;express</title>
<path fill="#ffffff" stroke="black" stroke-width="2" d="M20,-188C20,-188 447.02,-188 447.02,-188 453.02,-188 459.02,-194 459.02,-200 459.02,-200 459.02,-426 459.02,-426 459.02,-432 453.02,-438 447.02,-438 447.02,-438 20,-438 20,-438 14,-438 8,-432 8,-426 8,-426 8,-200 8,-200 8,-194 14,-188 20,-188"/>
<text text-anchor="middle" x="233.51" y="-425.9" font-family="Helvetica,sans-Serif" font-weight="bold" font-size="9.00">using&#45;express</text>
</g>
<g id="clust3" class="cluster">
<title>cluster_using&#45;express/6&#45;middleware&#45;and&#45;error&#45;handling</title>
<path fill="#ffffff" stroke="black" stroke-width="2" d="M28,-196C28,-196 439.02,-196 439.02,-196 445.02,-196 451.02,-202 451.02,-208 451.02,-208 451.02,-399 451.02,-399 451.02,-405 445.02,-411 439.02,-411 439.02,-411 28,-411 28,-411 22,-411 16,-405 16,-399 16,-399 16,-208 16,-208 16,-202 22,-196 28,-196"/>
<text text-anchor="middle" x="233.51" y="-398.9" font-family="Helvetica,sans-Serif" font-weight="bold" font-size="9.00">6&#45;middleware&#45;and&#45;error&#45;handling</text>
</g>
<g id="clust4" class="cluster">
<title>cluster_using&#45;express/6&#45;middleware&#45;and&#45;error&#45;handling/exercise&#45;refactor</title>
<path fill="#ffffff" stroke="black" stroke-width="2" d="M36,-204C36,-204 431.02,-204 431.02,-204 437.02,-204 443.02,-210 443.02,-216 443.02,-216 443.02,-372 443.02,-372 443.02,-378 437.02,-384 431.02,-384 431.02,-384 36,-384 36,-384 30,-384 24,-378 24,-372 24,-372 24,-216 24,-216 24,-210 30,-204 36,-204"/>
<text text-anchor="middle" x="233.51" y="-371.9" font-family="Helvetica,sans-Serif" font-weight="bold" font-size="9.00">exercise&#45;refactor</text>
</g>
<g id="clust5" class="cluster">
<title>cluster_using&#45;express/6&#45;middleware&#45;and&#45;error&#45;handling/exercise&#45;refactor/api</title>
<path fill="#ffffff" stroke="black" stroke-width="2" d="M55.5,-304C55.5,-304 255.5,-304 255.5,-304 261.5,-304 267.5,-310 267.5,-316 267.5,-316 267.5,-345 267.5,-345 267.5,-351 261.5,-357 255.5,-357 255.5,-357 55.5,-357 55.5,-357 49.5,-357 43.5,-351 43.5,-345 43.5,-345 43.5,-316 43.5,-316 43.5,-310 49.5,-304 55.5,-304"/>
<text text-anchor="middle" x="155.5" y="-344.9" font-family="Helvetica,sans-Serif" font-weight="bold" font-size="9.00">api</text>
</g>
<g id="clust6" class="cluster">
<title>cluster_using&#45;express/6&#45;middleware&#45;and&#45;error&#45;handling/exercise&#45;refactor/config</title>
<path fill="#ffffff" stroke="black" stroke-width="2" d="M287.5,-227C287.5,-227 423.02,-227 423.02,-227 429.02,-227 435.02,-233 435.02,-239 435.02,-239 435.02,-330 435.02,-330 435.02,-336 429.02,-342 423.02,-342 423.02,-342 287.5,-342 287.5,-342 281.5,-342 275.5,-336 275.5,-330 275.5,-330 275.5,-239 275.5,-239 275.5,-233 281.5,-227 287.5,-227"/>
<text text-anchor="middle" x="355.26" y="-329.9" font-family="Helvetica,sans-Serif" font-weight="bold" font-size="9.00">config</text>
</g>
<g id="clust7" class="cluster">
<title>cluster_using&#45;express/6&#45;middleware&#45;and&#45;error&#45;handling/exercise&#45;refactor/middleware</title>
<path fill="#ffffff" stroke="black" stroke-width="2" d="M44,-212C44,-212 113,-212 113,-212 119,-212 125,-218 125,-224 125,-224 125,-284 125,-284 125,-290 119,-296 113,-296 113,-296 44,-296 44,-296 38,-296 32,-290 32,-284 32,-284 32,-224 32,-224 32,-218 38,-212 44,-212"/>
<text text-anchor="middle" x="78.5" y="-283.9" font-family="Helvetica,sans-Serif" font-weight="bold" font-size="9.00">middleware</text>
</g>
<!-- fs -->
<g id="node1" class="node">
<title>fs</title>
<path fill="#ffffcc" stroke="grey" d="M342.56,-180.3C342.56,-180.3 300.96,-180.3 300.96,-180.3 297.86,-180.3 294.76,-177.2 294.76,-174.1 294.76,-174.1 294.76,-167.9 294.76,-167.9 294.76,-164.8 297.86,-161.7 300.96,-161.7 300.96,-161.7 342.56,-161.7 342.56,-161.7 345.66,-161.7 348.76,-164.8 348.76,-167.9 348.76,-167.9 348.76,-174.1 348.76,-174.1 348.76,-177.2 345.66,-180.3 342.56,-180.3"/>
<text text-anchor="middle" x="321.76" y="-168.3" font-family="Helvetica,sans-Serif" font-size="9.00" fill="grey">fs</text>
</g>
<!-- node_modules/body&#45;parser -->
<g id="node2" class="node">
<title>node_modules/body&#45;parser</title>
<g id="a_node2"><a xlink:href="node_modules/body-parser" xlink:title="body&#45;parser">
<polygon fill="#c40b0a" fill-opacity="0.101961" stroke="black" points="353.77,-96.3 291.82,-96.3 289.75,-94.23 289.75,-77.7 351.7,-77.7 353.77,-79.77 353.77,-96.3"/>
<polyline fill="none" stroke="black" points="351.7,-94.23 289.75,-94.23 "/>
<polyline fill="none" stroke="black" points="351.7,-94.23 351.7,-77.7 "/>
<polyline fill="none" stroke="black" points="351.7,-94.23 353.77,-96.3 "/>
<text text-anchor="middle" x="321.76" y="-84.3" font-family="Helvetica,sans-Serif" font-size="9.00" fill="#c40b0a">body&#45;parser</text>
</a>
</g>
</g>
<!-- node_modules/date&#45;fns -->
<g id="node3" class="node">
<title>node_modules/date&#45;fns</title>
<g id="a_node3"><a xlink:href="node_modules/date-fns" xlink:title="date&#45;fns">
<polygon fill="#c40b0a" fill-opacity="0.101961" stroke="black" points="348.76,-65.3 296.83,-65.3 294.76,-63.23 294.76,-46.7 346.69,-46.7 348.76,-48.77 348.76,-65.3"/>
<polyline fill="none" stroke="black" points="346.69,-63.23 294.76,-63.23 "/>
<polyline fill="none" stroke="black" points="346.69,-63.23 346.69,-46.7 "/>
<polyline fill="none" stroke="black" points="346.69,-63.23 348.76,-65.3 "/>
<text text-anchor="middle" x="321.76" y="-53.3" font-family="Helvetica,sans-Serif" font-size="9.00" fill="#c40b0a">date&#45;fns</text>
</a>
</g>
</g>
<!-- node_modules/express -->
<g id="node4" class="node">
<title>node_modules/express</title>
<g id="a_node4"><a xlink:href="node_modules/express" xlink:title="express">
<polygon fill="#c40b0a" fill-opacity="0.101961" stroke="black" points="348.76,-34.3 296.83,-34.3 294.76,-32.23 294.76,-15.7 346.69,-15.7 348.76,-17.77 348.76,-34.3"/>
<polyline fill="none" stroke="black" points="346.69,-32.23 294.76,-32.23 "/>
<polyline fill="none" stroke="black" points="346.69,-32.23 346.69,-15.7 "/>
<polyline fill="none" stroke="black" points="346.69,-32.23 348.76,-34.3 "/>
<text text-anchor="middle" x="321.76" y="-22.3" font-family="Helvetica,sans-Serif" font-size="9.00" fill="#c40b0a">express</text>
</a>
</g>
</g>
<!-- path -->
<g id="node5" class="node">
<title>path</title>
<path fill="#ffffcc" stroke="grey" d="M342.56,-149.3C342.56,-149.3 300.96,-149.3 300.96,-149.3 297.86,-149.3 294.76,-146.2 294.76,-143.1 294.76,-143.1 294.76,-136.9 294.76,-136.9 294.76,-133.8 297.86,-130.7 300.96,-130.7 300.96,-130.7 342.56,-130.7 342.56,-130.7 345.66,-130.7 348.76,-133.8 348.76,-136.9 348.76,-136.9 348.76,-143.1 348.76,-143.1 348.76,-146.2 345.66,-149.3 342.56,-149.3"/>
<text text-anchor="middle" x="321.76" y="-137.3" font-family="Helvetica,sans-Serif" font-size="9.00" fill="grey">path</text>
</g>
<!-- using&#45;express/6&#45;middleware&#45;and&#45;error&#45;handling/exercise&#45;refactor/api/handlers.js -->
<g id="node6" class="node">
<title>using&#45;express/6&#45;middleware&#45;and&#45;error&#45;handling/exercise&#45;refactor/api/handlers.js</title>
<g id="a_node6"><a xlink:href="using-express/6-middleware-and-error-handling/exercise-refactor/api/handlers.js" xlink:title="handlers.js">
<path fill="#ffffcc" stroke="black" d="M253.06,-330.3C253.06,-330.3 206.44,-330.3 206.44,-330.3 203.34,-330.3 200.24,-327.2 200.24,-324.1 200.24,-324.1 200.24,-317.9 200.24,-317.9 200.24,-314.8 203.34,-311.7 206.44,-311.7 206.44,-311.7 253.06,-311.7 253.06,-311.7 256.16,-311.7 259.26,-314.8 259.26,-317.9 259.26,-317.9 259.26,-324.1 259.26,-324.1 259.26,-327.2 256.16,-330.3 253.06,-330.3"/>
<text text-anchor="middle" x="229.75" y="-318.3" font-family="Helvetica,sans-Serif" font-size="9.00">handlers.js</text>
</a>
</g>
</g>
<!-- using&#45;express/6&#45;middleware&#45;and&#45;error&#45;handling/exercise&#45;refactor/api/handlers.js&#45;&gt;fs -->
<g id="edge2" class="edge">
<title>using&#45;express/6&#45;middleware&#45;and&#45;error&#45;handling/exercise&#45;refactor/api/handlers.js&#45;&gt;fs</title>
<path fill="none" stroke="#000000" stroke-dasharray="5,2" stroke-opacity="0.200000" d="M259.45,-314.68C262.54,-312.96 265.34,-310.77 267.5,-308 279.04,-293.22 268.19,-241.26 275.5,-224 281.97,-208.74 294.48,-194.63 304.71,-184.81"/>
<polygon fill="#000000" fill-opacity="0.200000" stroke="#000000" stroke-opacity="0.200000" points="306.26,-186.24 309.22,-180.62 303.4,-183.17 306.26,-186.24"/>
</g>
<!-- using&#45;express/6&#45;middleware&#45;and&#45;error&#45;handling/exercise&#45;refactor/api/handlers.js&#45;&gt;path -->
<g id="edge3" class="edge">
<title>using&#45;express/6&#45;middleware&#45;and&#45;error&#45;handling/exercise&#45;refactor/api/handlers.js&#45;&gt;path</title>
<path fill="none" stroke="#000000" stroke-dasharray="5,2" stroke-opacity="0.200000" d="M259.56,-314.76C262.63,-313.03 265.4,-310.82 267.5,-308 287.75,-280.9 255.26,-183.09 275.5,-156 278.87,-151.49 283.62,-148.25 288.78,-145.91"/>
<polygon fill="#000000" fill-opacity="0.200000" stroke="#000000" stroke-opacity="0.200000" points="289.64,-147.83 294.49,-143.72 288.13,-143.91 289.64,-147.83"/>
</g>
<!-- using&#45;express/6&#45;middleware&#45;and&#45;error&#45;handling/exercise&#45;refactor/config/index.js -->
<g id="node7" class="node">
<title>using&#45;express/6&#45;middleware&#45;and&#45;error&#45;handling/exercise&#45;refactor/config/index.js</title>
<g id="a_node7"><a xlink:href="using-express/6-middleware-and-error-handling/exercise-refactor/config/index.js" xlink:title="index.js">
<path fill="#ffffcc" stroke="black" d="M342.56,-315.3C342.56,-315.3 300.96,-315.3 300.96,-315.3 297.86,-315.3 294.76,-312.2 294.76,-309.1 294.76,-309.1 294.76,-302.9 294.76,-302.9 294.76,-299.8 297.86,-296.7 300.96,-296.7 300.96,-296.7 342.56,-296.7 342.56,-296.7 345.66,-296.7 348.76,-299.8 348.76,-302.9 348.76,-302.9 348.76,-309.1 348.76,-309.1 348.76,-312.2 345.66,-315.3 342.56,-315.3"/>
<text text-anchor="middle" x="321.76" y="-303.3" font-family="Helvetica,sans-Serif" font-size="9.00">index.js</text>
</a>
</g>
</g>
<!-- using&#45;express/6&#45;middleware&#45;and&#45;error&#45;handling/exercise&#45;refactor/api/handlers.js&#45;&gt;using&#45;express/6&#45;middleware&#45;and&#45;error&#45;handling/exercise&#45;refactor/config/index.js -->
<g id="edge1" class="edge">
<title>using&#45;express/6&#45;middleware&#45;and&#45;error&#45;handling/exercise&#45;refactor/api/handlers.js&#45;&gt;using&#45;express/6&#45;middleware&#45;and&#45;error&#45;handling/exercise&#45;refactor/config/index.js</title>
<path fill="none" stroke="#000000" stroke-width="2" stroke-opacity="0.200000" d="M259.73,-316.17C268.92,-314.64 279.13,-312.94 288.54,-311.37"/>
<polygon fill="#000000" fill-opacity="0.200000" stroke="#000000" stroke-width="2" stroke-opacity="0.200000" points="289.01,-313.42 294.58,-310.36 288.32,-309.28 289.01,-313.42"/>
</g>
<!-- using&#45;express/6&#45;middleware&#45;and&#45;error&#45;handling/exercise&#45;refactor/config/default.js -->
<g id="node10" class="node">
<title>using&#45;express/6&#45;middleware&#45;and&#45;error&#45;handling/exercise&#45;refactor/config/default.js</title>
<g id="a_node10"><a xlink:href="using-express/6-middleware-and-error-handling/exercise-refactor/config/default.js" xlink:title="default.js">
<path fill="#ffffcc" stroke="black" d="M420.82,-315.3C420.82,-315.3 379.22,-315.3 379.22,-315.3 376.12,-315.3 373.02,-312.2 373.02,-309.1 373.02,-309.1 373.02,-302.9 373.02,-302.9 373.02,-299.8 376.12,-296.7 379.22,-296.7 379.22,-296.7 420.82,-296.7 420.82,-296.7 423.92,-296.7 427.02,-299.8 427.02,-302.9 427.02,-302.9 427.02,-309.1 427.02,-309.1 427.02,-312.2 423.92,-315.3 420.82,-315.3"/>
<text text-anchor="middle" x="400.02" y="-303.3" font-family="Helvetica,sans-Serif" font-size="9.00">default.js</text>
</a>
</g>
</g>
<!-- using&#45;express/6&#45;middleware&#45;and&#45;error&#45;handling/exercise&#45;refactor/config/index.js&#45;&gt;using&#45;express/6&#45;middleware&#45;and&#45;error&#45;handling/exercise&#45;refactor/config/default.js -->
<g id="edge7" class="edge">
<title>using&#45;express/6&#45;middleware&#45;and&#45;error&#45;handling/exercise&#45;refactor/config/index.js&#45;&gt;using&#45;express/6&#45;middleware&#45;and&#45;error&#45;handling/exercise&#45;refactor/config/default.js</title>
<path fill="none" stroke="#000000" stroke-width="2" stroke-opacity="0.200000" d="M349,-306C354.7,-306 360.79,-306 366.69,-306"/>
<polygon fill="#000000" fill-opacity="0.200000" stroke="#000000" stroke-width="2" stroke-opacity="0.200000" points="366.99,-308.1 372.99,-306 366.99,-303.9 366.99,-308.1"/>
</g>
<!-- using&#45;express/6&#45;middleware&#45;and&#45;error&#45;handling/exercise&#45;refactor/api/index.js -->
<g id="node8" class="node">
<title>using&#45;express/6&#45;middleware&#45;and&#45;error&#45;handling/exercise&#45;refactor/api/index.js</title>
<g id="a_node8"><a xlink:href="using-express/6-middleware-and-error-handling/exercise-refactor/api/index.js" xlink:title="index.js">
<path fill="#ffffcc" stroke="black" d="M99.3,-330.3C99.3,-330.3 57.7,-330.3 57.7,-330.3 54.6,-330.3 51.5,-327.2 51.5,-324.1 51.5,-324.1 51.5,-317.9 51.5,-317.9 51.5,-314.8 54.6,-311.7 57.7,-311.7 57.7,-311.7 99.3,-311.7 99.3,-311.7 102.4,-311.7 105.5,-314.8 105.5,-317.9 105.5,-317.9 105.5,-324.1 105.5,-324.1 105.5,-327.2 102.4,-330.3 99.3,-330.3"/>
<text text-anchor="middle" x="78.5" y="-318.3" font-family="Helvetica,sans-Serif" font-size="9.00">index.js</text>
</a>
</g>
</g>
<!-- using&#45;express/6&#45;middleware&#45;and&#45;error&#45;handling/exercise&#45;refactor/api/routes.js -->
<g id="node9" class="node">
<title>using&#45;express/6&#45;middleware&#45;and&#45;error&#45;handling/exercise&#45;refactor/api/routes.js</title>
<g id="a_node9"><a xlink:href="using-express/6-middleware-and-error-handling/exercise-refactor/api/routes.js" xlink:title="routes.js">
<path fill="#ffffcc" stroke="black" d="M180.8,-330.3C180.8,-330.3 139.2,-330.3 139.2,-330.3 136.1,-330.3 133,-327.2 133,-324.1 133,-324.1 133,-317.9 133,-317.9 133,-314.8 136.1,-311.7 139.2,-311.7 139.2,-311.7 180.8,-311.7 180.8,-311.7 183.9,-311.7 187,-314.8 187,-317.9 187,-317.9 187,-324.1 187,-324.1 187,-327.2 183.9,-330.3 180.8,-330.3"/>
<text text-anchor="middle" x="160" y="-318.3" font-family="Helvetica,sans-Serif" font-size="9.00">routes.js</text>
</a>
</g>
</g>
<!-- using&#45;express/6&#45;middleware&#45;and&#45;error&#45;handling/exercise&#45;refactor/api/index.js&#45;&gt;using&#45;express/6&#45;middleware&#45;and&#45;error&#45;handling/exercise&#45;refactor/api/routes.js -->
<g id="edge4" class="edge">
<title>using&#45;express/6&#45;middleware&#45;and&#45;error&#45;handling/exercise&#45;refactor/api/index.js&#45;&gt;using&#45;express/6&#45;middleware&#45;and&#45;error&#45;handling/exercise&#45;refactor/api/routes.js</title>
<path fill="none" stroke="#000000" stroke-width="2" stroke-opacity="0.200000" d="M105.53,-321C112.26,-321 119.58,-321 126.59,-321"/>
<polygon fill="#000000" fill-opacity="0.200000" stroke="#000000" stroke-width="2" stroke-opacity="0.200000" points="126.91,-323.1 132.91,-321 126.91,-318.9 126.91,-323.1"/>
</g>
<!-- using&#45;express/6&#45;middleware&#45;and&#45;error&#45;handling/exercise&#45;refactor/api/routes.js&#45;&gt;node_modules/express -->
<g id="edge6" class="edge">
<title>using&#45;express/6&#45;middleware&#45;and&#45;error&#45;handling/exercise&#45;refactor/api/routes.js&#45;&gt;node_modules/express</title>
<path fill="none" stroke="#000000" stroke-opacity="0.200000" d="M161.94,-311.63C166.42,-272.33 189,-119.17 275.5,-41 279.33,-37.55 283.94,-34.83 288.74,-32.69"/>
<polygon fill="#000000" fill-opacity="0.200000" stroke="#000000" stroke-opacity="0.200000" points="289.62,-34.6 294.43,-30.44 288.08,-30.69 289.62,-34.6"/>
</g>
<!-- using&#45;express/6&#45;middleware&#45;and&#45;error&#45;handling/exercise&#45;refactor/api/routes.js&#45;&gt;using&#45;express/6&#45;middleware&#45;and&#45;error&#45;handling/exercise&#45;refactor/api/handlers.js -->
<g id="edge5" class="edge">
<title>using&#45;express/6&#45;middleware&#45;and&#45;error&#45;handling/exercise&#45;refactor/api/routes.js&#45;&gt;using&#45;express/6&#45;middleware&#45;and&#45;error&#45;handling/exercise&#45;refactor/api/handlers.js</title>
<path fill="none" stroke="#000000" stroke-width="2" stroke-opacity="0.200000" d="M187,-321C189.3,-321 191.65,-321 194.01,-321"/>
<polygon fill="#000000" fill-opacity="0.200000" stroke="#000000" stroke-width="2" stroke-opacity="0.200000" points="194.23,-323.1 200.23,-321 194.23,-318.9 194.23,-323.1"/>
</g>
<!-- using&#45;express/6&#45;middleware&#45;and&#45;error&#45;handling/exercise&#45;refactor/config/development.js -->
<g id="node11" class="node">
<title>using&#45;express/6&#45;middleware&#45;and&#45;error&#45;handling/exercise&#45;refactor/config/development.js</title>
<g id="a_node11"><a xlink:href="using-express/6-middleware-and-error-handling/exercise-refactor/config/development.js" xlink:title="development.js">
<path fill="#ccffcc" stroke="black" d="M353.58,-284.3C353.58,-284.3 289.95,-284.3 289.95,-284.3 286.85,-284.3 283.75,-281.2 283.75,-278.1 283.75,-278.1 283.75,-271.9 283.75,-271.9 283.75,-268.8 286.85,-265.7 289.95,-265.7 289.95,-265.7 353.58,-265.7 353.58,-265.7 356.68,-265.7 359.78,-268.8 359.78,-271.9 359.78,-271.9 359.78,-278.1 359.78,-278.1 359.78,-281.2 356.68,-284.3 353.58,-284.3"/>
<text text-anchor="middle" x="321.76" y="-272.3" font-family="Helvetica,sans-Serif" font-size="9.00">development.js</text>
</a>
</g>
</g>
<!-- using&#45;express/6&#45;middleware&#45;and&#45;error&#45;handling/exercise&#45;refactor/config/production.js -->
<g id="node12" class="node">
<title>using&#45;express/6&#45;middleware&#45;and&#45;error&#45;handling/exercise&#45;refactor/config/production.js</title>
<g id="a_node12"><a xlink:href="using-express/6-middleware-and-error-handling/exercise-refactor/config/production.js" xlink:title="production.js">
<path fill="#ccffcc" stroke="black" d="M349.07,-253.3C349.07,-253.3 294.45,-253.3 294.45,-253.3 291.35,-253.3 288.25,-250.2 288.25,-247.1 288.25,-247.1 288.25,-240.9 288.25,-240.9 288.25,-237.8 291.35,-234.7 294.45,-234.7 294.45,-234.7 349.07,-234.7 349.07,-234.7 352.17,-234.7 355.27,-237.8 355.27,-240.9 355.27,-240.9 355.27,-247.1 355.27,-247.1 355.27,-250.2 352.17,-253.3 349.07,-253.3"/>
<text text-anchor="middle" x="321.76" y="-241.3" font-family="Helvetica,sans-Serif" font-size="9.00">production.js</text>
</a>
</g>
</g>
<!-- using&#45;express/6&#45;middleware&#45;and&#45;error&#45;handling/exercise&#45;refactor/index.js -->
<g id="node13" class="node">
<title>using&#45;express/6&#45;middleware&#45;and&#45;error&#45;handling/exercise&#45;refactor/index.js</title>
<g id="a_node13"><a xlink:href="using-express/6-middleware-and-error-handling/exercise-refactor/index.js" xlink:title="index.js">
<path fill="#ffffcc" stroke="black" d="M250.55,-230.3C250.55,-230.3 208.95,-230.3 208.95,-230.3 205.85,-230.3 202.75,-227.2 202.75,-224.1 202.75,-224.1 202.75,-217.9 202.75,-217.9 202.75,-214.8 205.85,-211.7 208.95,-211.7 208.95,-211.7 250.55,-211.7 250.55,-211.7 253.65,-211.7 256.75,-214.8 256.75,-217.9 256.75,-217.9 256.75,-224.1 256.75,-224.1 256.75,-227.2 253.65,-230.3 250.55,-230.3"/>
<text text-anchor="middle" x="229.75" y="-218.3" font-family="Helvetica,sans-Serif" font-size="9.00">index.js</text>
</a>
</g>
</g>
<!-- using&#45;express/6&#45;middleware&#45;and&#45;error&#45;handling/exercise&#45;refactor/index.js&#45;&gt;fs -->
<g id="edge12" class="edge">
<title>using&#45;express/6&#45;middleware&#45;and&#45;error&#45;handling/exercise&#45;refactor/index.js&#45;&gt;fs</title>
<path fill="none" stroke="#000000" stroke-dasharray="5,2" stroke-opacity="0.200000" d="M247.68,-211.6C262.01,-203.63 282.67,-192.16 298.37,-183.44"/>
<polygon fill="#000000" fill-opacity="0.200000" stroke="#000000" stroke-opacity="0.200000" points="299.68,-185.11 303.91,-180.36 297.64,-181.44 299.68,-185.11"/>
</g>
<!-- using&#45;express/6&#45;middleware&#45;and&#45;error&#45;handling/exercise&#45;refactor/index.js&#45;&gt;node_modules/body&#45;parser -->
<g id="edge9" class="edge">
<title>using&#45;express/6&#45;middleware&#45;and&#45;error&#45;handling/exercise&#45;refactor/index.js&#45;&gt;node_modules/body&#45;parser</title>
<path fill="none" stroke="#000000" stroke-opacity="0.200000" d="M233.62,-211.54C239.44,-193.42 253.91,-153.16 275.5,-125 282.74,-115.56 292.71,-106.88 301.44,-100.2"/>
<polygon fill="#000000" fill-opacity="0.200000" stroke="#000000" stroke-opacity="0.200000" points="303.12,-101.57 306.69,-96.32 300.62,-98.2 303.12,-101.57"/>
</g>
<!-- using&#45;express/6&#45;middleware&#45;and&#45;error&#45;handling/exercise&#45;refactor/index.js&#45;&gt;node_modules/date&#45;fns -->
<g id="edge10" class="edge">
<title>using&#45;express/6&#45;middleware&#45;and&#45;error&#45;handling/exercise&#45;refactor/index.js&#45;&gt;node_modules/date&#45;fns</title>
<path fill="none" stroke="#000000" stroke-opacity="0.200000" d="M234.77,-211.62C242.23,-193.85 258.31,-153.95 267.5,-119 272.89,-98.51 261.86,-88.21 275.5,-72 279.05,-67.79 283.78,-64.68 288.85,-62.4"/>
<polygon fill="#000000" fill-opacity="0.200000" stroke="#000000" stroke-opacity="0.200000" points="289.61,-64.35 294.45,-60.22 288.09,-60.44 289.61,-64.35"/>
</g>
<!-- using&#45;express/6&#45;middleware&#45;and&#45;error&#45;handling/exercise&#45;refactor/index.js&#45;&gt;node_modules/express -->
<g id="edge11" class="edge">
<title>using&#45;express/6&#45;middleware&#45;and&#45;error&#45;handling/exercise&#45;refactor/index.js&#45;&gt;node_modules/express</title>
<path fill="none" stroke="#000000" stroke-opacity="0.200000" d="M234.99,-211.67C242.82,-193.99 259.48,-154.24 267.5,-119 271.38,-102.01 264.73,-54.69 275.5,-41 278.99,-36.57 283.78,-33.37 288.96,-31.05"/>
<polygon fill="#000000" fill-opacity="0.200000" stroke="#000000" stroke-opacity="0.200000" points="289.82,-32.97 294.67,-28.87 288.32,-29.05 289.82,-32.97"/>
</g>
<!-- using&#45;express/6&#45;middleware&#45;and&#45;error&#45;handling/exercise&#45;refactor/index.js&#45;&gt;path -->
<g id="edge13" class="edge">
<title>using&#45;express/6&#45;middleware&#45;and&#45;error&#45;handling/exercise&#45;refactor/index.js&#45;&gt;path</title>
<path fill="none" stroke="#000000" stroke-dasharray="5,2" stroke-opacity="0.200000" d="M234.85,-211.65C241.44,-197.62 255.71,-171.17 275.5,-156 279.41,-153.01 283.92,-150.54 288.56,-148.52"/>
<polygon fill="#000000" fill-opacity="0.200000" stroke="#000000" stroke-opacity="0.200000" points="289.64,-150.35 294.45,-146.2 288.1,-146.45 289.64,-150.35"/>
</g>
<!-- using&#45;express/6&#45;middleware&#45;and&#45;error&#45;handling/exercise&#45;refactor/index.js&#45;&gt;using&#45;express/6&#45;middleware&#45;and&#45;error&#45;handling/exercise&#45;refactor/config/index.js -->
<g id="edge8" class="edge">
<title>using&#45;express/6&#45;middleware&#45;and&#45;error&#45;handling/exercise&#45;refactor/index.js&#45;&gt;using&#45;express/6&#45;middleware&#45;and&#45;error&#45;handling/exercise&#45;refactor/config/index.js</title>
<path fill="none" stroke="#000000" stroke-width="2" stroke-opacity="0.200000" d="M234.48,-230.44C240.78,-245.21 254.87,-273.73 275.5,-290 279.37,-293.05 283.86,-295.54 288.48,-297.57"/>
<polygon fill="#000000" fill-opacity="0.200000" stroke="#000000" stroke-width="2" stroke-opacity="0.200000" points="288.02,-299.65 294.37,-299.91 289.57,-295.74 288.02,-299.65"/>
</g>
<!-- using&#45;express/6&#45;middleware&#45;and&#45;error&#45;handling/exercise&#45;refactor/middleware/error&#45;handler.js -->
<g id="node14" class="node">
<title>using&#45;express/6&#45;middleware&#45;and&#45;error&#45;handling/exercise&#45;refactor/middleware/error&#45;handler.js</title>
<g id="a_node14"><a xlink:href="using-express/6-middleware-and-error-handling/exercise-refactor/middleware/error-handler.js" xlink:title="error&#45;handler.js">
<path fill="#ccffcc" stroke="black" d="M110.8,-269.3C110.8,-269.3 46.2,-269.3 46.2,-269.3 43.1,-269.3 40,-266.2 40,-263.1 40,-263.1 40,-256.9 40,-256.9 40,-253.8 43.1,-250.7 46.2,-250.7 46.2,-250.7 110.8,-250.7 110.8,-250.7 113.9,-250.7 117,-253.8 117,-256.9 117,-256.9 117,-263.1 117,-263.1 117,-266.2 113.9,-269.3 110.8,-269.3"/>
<text text-anchor="middle" x="78.5" y="-257.3" font-family="Helvetica,sans-Serif" font-size="9.00">error&#45;handler.js</text>
</a>
</g>
</g>
<!-- using&#45;express/6&#45;middleware&#45;and&#45;error&#45;handling/exercise&#45;refactor/middleware/logger.js -->
<g id="node15" class="node">
<title>using&#45;express/6&#45;middleware&#45;and&#45;error&#45;handling/exercise&#45;refactor/middleware/logger.js</title>
<g id="a_node15"><a xlink:href="using-express/6-middleware-and-error-handling/exercise-refactor/middleware/logger.js" xlink:title="logger.js">
<path fill="#ccffcc" stroke="black" d="M99.3,-238.3C99.3,-238.3 57.7,-238.3 57.7,-238.3 54.6,-238.3 51.5,-235.2 51.5,-232.1 51.5,-232.1 51.5,-225.9 51.5,-225.9 51.5,-222.8 54.6,-219.7 57.7,-219.7 57.7,-219.7 99.3,-219.7 99.3,-219.7 102.4,-219.7 105.5,-222.8 105.5,-225.9 105.5,-225.9 105.5,-232.1 105.5,-232.1 105.5,-235.2 102.4,-238.3 99.3,-238.3"/>
<text text-anchor="middle" x="78.5" y="-226.3" font-family="Helvetica,sans-Serif" font-size="9.00">logger.js</text>
</a>
</g>
</g>
</g>
</svg>
