<?xml version="1.0" encoding="UTF-8" standalone="no"?>
<!DOCTYPE svg PUBLIC "-//W3C//DTD SVG 1.1//EN"
 "http://www.w3.org/Graphics/SVG/1.1/DTD/svg11.dtd">
<!-- Generated by graphviz version 2.44.0 (20200408.0750)
 -->
<!-- Title: dependency&#45;cruiser output Pages: 1 -->
<svg width="482pt" height="454pt"
 viewBox="0.00 0.00 482.01 454.00" xmlns="http://www.w3.org/2000/svg" xmlns:xlink="http://www.w3.org/1999/xlink">
<g id="graph0" class="graph" transform="scale(1 1) rotate(0) translate(4 450)">
<title>dependency&#45;cruiser output</title>
<polygon fill="white" stroke="transparent" points="-4,4 -4,-450 478.01,-450 478.01,4 -4,4"/>
<g id="clust1" class="cluster">
<title>cluster_node_modules</title>
<path fill="#ffffff" stroke="black" stroke-width="2" d="M300.75,-8C300.75,-8 356.76,-8 356.76,-8 362.76,-8 368.76,-14 368.76,-20 368.76,-20 368.76,-111 368.76,-111 368.76,-117 362.76,-123 356.76,-123 356.76,-123 300.75,-123 300.75,-123 294.75,-123 288.75,-117 288.75,-111 288.75,-111 288.75,-20 288.75,-20 288.75,-14 294.75,-8 300.75,-8"/>
<text text-anchor="middle" x="328.75" y="-110.9" font-family="Helvetica,sans-Serif" font-weight="bold" font-size="9.00">node_modules</text>
</g>
<g id="clust2" class="cluster">
<title>cluster_using&#45;express</title>
<path fill="#ffffff" stroke="black" stroke-width="2" d="M20,-188C20,-188 454.01,-188 454.01,-188 460.01,-188 466.01,-194 466.01,-200 466.01,-200 466.01,-426 466.01,-426 466.01,-432 460.01,-438 454.01,-438 454.01,-438 20,-438 20,-438 14,-438 8,-432 8,-426 8,-426 8,-200 8,-200 8,-194 14,-188 20,-188"/>
<text text-anchor="middle" x="237" y="-425.9" font-family="Helvetica,sans-Serif" font-weight="bold" font-size="9.00">using&#45;express</text>
</g>
<g id="clust3" class="cluster">
<title>cluster_using&#45;express/6&#45;middleware&#45;and&#45;error&#45;handling</title>
<path fill="#ffffff" stroke="black" stroke-width="2" d="M28,-196C28,-196 446.01,-196 446.01,-196 452.01,-196 458.01,-202 458.01,-208 458.01,-208 458.01,-399 458.01,-399 458.01,-405 452.01,-411 446.01,-411 446.01,-411 28,-411 28,-411 22,-411 16,-405 16,-399 16,-399 16,-208 16,-208 16,-202 22,-196 28,-196"/>
<text text-anchor="middle" x="237" y="-398.9" font-family="Helvetica,sans-Serif" font-weight="bold" font-size="9.00">6&#45;middleware&#45;and&#45;error&#45;handling</text>
</g>
<g id="clust4" class="cluster">
<title>cluster_using&#45;express/6&#45;middleware&#45;and&#45;error&#45;handling/exercise&#45;refactor</title>
<path fill="#ffffff" stroke="black" stroke-width="2" d="M36,-204C36,-204 438.01,-204 438.01,-204 444.01,-204 450.01,-210 450.01,-216 450.01,-216 450.01,-372 450.01,-372 450.01,-378 444.01,-384 438.01,-384 438.01,-384 36,-384 36,-384 30,-384 24,-378 24,-372 24,-372 24,-216 24,-216 24,-210 30,-204 36,-204"/>
<text text-anchor="middle" x="237" y="-371.9" font-family="Helvetica,sans-Serif" font-weight="bold" font-size="9.00">exercise&#45;refactor</text>
</g>
<g id="clust5" class="cluster">
<title>cluster_using&#45;express/6&#45;middleware&#45;and&#45;error&#45;handling/exercise&#45;refactor/api</title>
<path fill="#ffffff" stroke="black" stroke-width="2" d="M55.5,-304C55.5,-304 262.5,-304 262.5,-304 268.5,-304 274.5,-310 274.5,-316 274.5,-316 274.5,-345 274.5,-345 274.5,-351 268.5,-357 262.5,-357 262.5,-357 55.5,-357 55.5,-357 49.5,-357 43.5,-351 43.5,-345 43.5,-345 43.5,-316 43.5,-316 43.5,-310 49.5,-304 55.5,-304"/>
<text text-anchor="middle" x="159" y="-344.9" font-family="Helvetica,sans-Serif" font-weight="bold" font-size="9.00">api</text>
</g>
<g id="clust6" class="cluster">
<title>cluster_using&#45;express/6&#45;middleware&#45;and&#45;error&#45;handling/exercise&#45;refactor/config</title>
<path fill="#ffffff" stroke="black" stroke-width="2" d="M294.5,-227C294.5,-227 430.01,-227 430.01,-227 436.01,-227 442.01,-233 442.01,-239 442.01,-239 442.01,-330 442.01,-330 442.01,-336 436.01,-342 430.01,-342 430.01,-342 294.5,-342 294.5,-342 288.5,-342 282.5,-336 282.5,-330 282.5,-330 282.5,-239 282.5,-239 282.5,-233 288.5,-227 294.5,-227"/>
<text text-anchor="middle" x="362.25" y="-329.9" font-family="Helvetica,sans-Serif" font-weight="bold" font-size="9.00">config</text>
</g>
<g id="clust7" class="cluster">
<title>cluster_using&#45;express/6&#45;middleware&#45;and&#45;error&#45;handling/exercise&#45;refactor/middleware</title>
<path fill="#ffffff" stroke="black" stroke-width="2" d="M44,-212C44,-212 113,-212 113,-212 119,-212 125,-218 125,-224 125,-224 125,-284 125,-284 125,-290 119,-296 113,-296 113,-296 44,-296 44,-296 38,-296 32,-290 32,-284 32,-284 32,-224 32,-224 32,-218 38,-212 44,-212"/>
<text text-anchor="middle" x="78.5" y="-283.9" font-family="Helvetica,sans-Serif" font-weight="bold" font-size="9.00">middleware</text>
</g>
<!-- fs -->
<g id="node1" class="node">
<title>fs</title>
<path fill="#ffffcc" stroke="grey" d="M349.55,-180.3C349.55,-180.3 307.95,-180.3 307.95,-180.3 304.85,-180.3 301.75,-177.2 301.75,-174.1 301.75,-174.1 301.75,-167.9 301.75,-167.9 301.75,-164.8 304.85,-161.7 307.95,-161.7 307.95,-161.7 349.55,-161.7 349.55,-161.7 352.65,-161.7 355.75,-164.8 355.75,-167.9 355.75,-167.9 355.75,-174.1 355.75,-174.1 355.75,-177.2 352.65,-180.3 349.55,-180.3"/>
<text text-anchor="middle" x="328.75" y="-168.3" font-family="Helvetica,sans-Serif" font-size="9.00" fill="grey">fs</text>
</g>
<!-- node_modules/body&#45;parser -->
<g id="node2" class="node">
<title>node_modules/body&#45;parser</title>
<g id="a_node2"><a xlink:href="node_modules/body-parser" xlink:title="body&#45;parser">
<polygon fill="#c40b0a" fill-opacity="0.101961" stroke="black" points="360.76,-96.3 298.81,-96.3 296.75,-94.23 296.75,-77.7 358.69,-77.7 360.76,-79.77 360.76,-96.3"/>
<polyline fill="none" stroke="black" points="358.69,-94.23 296.75,-94.23 "/>
<polyline fill="none" stroke="black" points="358.69,-94.23 358.69,-77.7 "/>
<polyline fill="none" stroke="black" points="358.69,-94.23 360.76,-96.3 "/>
<text text-anchor="middle" x="328.75" y="-84.3" font-family="Helvetica,sans-Serif" font-size="9.00" fill="#c40b0a">body&#45;parser</text>
</a>
</g>
</g>
<!-- node_modules/date&#45;fns -->
<g id="node3" class="node">
<title>node_modules/date&#45;fns</title>
<g id="a_node3"><a xlink:href="node_modules/date-fns" xlink:title="date&#45;fns">
<polygon fill="#c40b0a" fill-opacity="0.101961" stroke="black" points="355.75,-65.3 303.82,-65.3 301.75,-63.23 301.75,-46.7 353.69,-46.7 355.75,-48.77 355.75,-65.3"/>
<polyline fill="none" stroke="black" points="353.69,-63.23 301.75,-63.23 "/>
<polyline fill="none" stroke="black" points="353.69,-63.23 353.69,-46.7 "/>
<polyline fill="none" stroke="black" points="353.69,-63.23 355.75,-65.3 "/>
<text text-anchor="middle" x="328.75" y="-53.3" font-family="Helvetica,sans-Serif" font-size="9.00" fill="#c40b0a">date&#45;fns</text>
</a>
</g>
</g>
<!-- node_modules/express -->
<g id="node4" class="node">
<title>node_modules/express</title>
<g id="a_node4"><a xlink:href="node_modules/express" xlink:title="express">
<polygon fill="#c40b0a" fill-opacity="0.101961" stroke="black" points="355.75,-34.3 303.82,-34.3 301.75,-32.23 301.75,-15.7 353.69,-15.7 355.75,-17.77 355.75,-34.3"/>
<polyline fill="none" stroke="black" points="353.69,-32.23 301.75,-32.23 "/>
<polyline fill="none" stroke="black" points="353.69,-32.23 353.69,-15.7 "/>
<polyline fill="none" stroke="black" points="353.69,-32.23 355.75,-34.3 "/>
<text text-anchor="middle" x="328.75" y="-22.3" font-family="Helvetica,sans-Serif" font-size="9.00" fill="#c40b0a">express</text>
</a>
</g>
</g>
<!-- path -->
<g id="node5" class="node">
<title>path</title>
<path fill="#ffffcc" stroke="grey" d="M349.55,-149.3C349.55,-149.3 307.95,-149.3 307.95,-149.3 304.85,-149.3 301.75,-146.2 301.75,-143.1 301.75,-143.1 301.75,-136.9 301.75,-136.9 301.75,-133.8 304.85,-130.7 307.95,-130.7 307.95,-130.7 349.55,-130.7 349.55,-130.7 352.65,-130.7 355.75,-133.8 355.75,-136.9 355.75,-136.9 355.75,-143.1 355.75,-143.1 355.75,-146.2 352.65,-149.3 349.55,-149.3"/>
<text text-anchor="middle" x="328.75" y="-137.3" font-family="Helvetica,sans-Serif" font-size="9.00" fill="grey">path</text>
</g>
<!-- using&#45;express/6&#45;middleware&#45;and&#45;error&#45;handling/exercise&#45;refactor/api/controllers.js -->
<g id="node6" class="node">
<title>using&#45;express/6&#45;middleware&#45;and&#45;error&#45;handling/exercise&#45;refactor/api/controllers.js</title>
<g id="a_node6"><a xlink:href="using-express/6-middleware-and-error-handling/exercise-refactor/api/controllers.js" xlink:title="controllers.js">
<path fill="#ffffcc" stroke="black" d="M260.55,-330.3C260.55,-330.3 205.95,-330.3 205.95,-330.3 202.85,-330.3 199.75,-327.2 199.75,-324.1 199.75,-324.1 199.75,-317.9 199.75,-317.9 199.75,-314.8 202.85,-311.7 205.95,-311.7 205.95,-311.7 260.55,-311.7 260.55,-311.7 263.65,-311.7 266.75,-314.8 266.75,-317.9 266.75,-317.9 266.75,-324.1 266.75,-324.1 266.75,-327.2 263.65,-330.3 260.55,-330.3"/>
<text text-anchor="middle" x="233.25" y="-318.3" font-family="Helvetica,sans-Serif" font-size="9.00">controllers.js</text>
</a>
</g>
</g>
<!-- using&#45;express/6&#45;middleware&#45;and&#45;error&#45;handling/exercise&#45;refactor/api/controllers.js&#45;&gt;fs -->
<g id="edge2" class="edge">
<title>using&#45;express/6&#45;middleware&#45;and&#45;error&#45;handling/exercise&#45;refactor/api/controllers.js&#45;&gt;fs</title>
<path fill="none" stroke="#000000" stroke-dasharray="5,2" stroke-opacity="0.200000" d="M266.79,-314.42C269.73,-312.74 272.38,-310.63 274.5,-308 286.24,-293.38 275.18,-241.26 282.5,-224 288.96,-208.74 301.47,-194.63 311.7,-184.81"/>
<polygon fill="#000000" fill-opacity="0.200000" stroke="#000000" stroke-opacity="0.200000" points="313.25,-186.24 316.21,-180.62 310.39,-183.17 313.25,-186.24"/>
</g>
<!-- using&#45;express/6&#45;middleware&#45;and&#45;error&#45;handling/exercise&#45;refactor/api/controllers.js&#45;&gt;path -->
<g id="edge3" class="edge">
<title>using&#45;express/6&#45;middleware&#45;and&#45;error&#45;handling/exercise&#45;refactor/api/controllers.js&#45;&gt;path</title>
<path fill="none" stroke="#000000" stroke-dasharray="5,2" stroke-opacity="0.200000" d="M266.53,-314.73C269.59,-313 272.35,-310.79 274.5,-308 295.11,-281.19 262.25,-183.09 282.5,-156 285.87,-151.49 290.61,-148.25 295.77,-145.91"/>
<polygon fill="#000000" fill-opacity="0.200000" stroke="#000000" stroke-opacity="0.200000" points="296.63,-147.83 301.48,-143.72 295.13,-143.91 296.63,-147.83"/>
</g>
<!-- using&#45;express/6&#45;middleware&#45;and&#45;error&#45;handling/exercise&#45;refactor/config/index.js -->
<g id="node7" class="node">
<title>using&#45;express/6&#45;middleware&#45;and&#45;error&#45;handling/exercise&#45;refactor/config/index.js</title>
<g id="a_node7"><a xlink:href="using-express/6-middleware-and-error-handling/exercise-refactor/config/index.js" xlink:title="index.js">
<path fill="#ffffcc" stroke="black" d="M349.55,-315.3C349.55,-315.3 307.95,-315.3 307.95,-315.3 304.85,-315.3 301.75,-312.2 301.75,-309.1 301.75,-309.1 301.75,-302.9 301.75,-302.9 301.75,-299.8 304.85,-296.7 307.95,-296.7 307.95,-296.7 349.55,-296.7 349.55,-296.7 352.65,-296.7 355.75,-299.8 355.75,-302.9 355.75,-302.9 355.75,-309.1 355.75,-309.1 355.75,-312.2 352.65,-315.3 349.55,-315.3"/>
<text text-anchor="middle" x="328.75" y="-303.3" font-family="Helvetica,sans-Serif" font-size="9.00">index.js</text>
</a>
</g>
</g>
<!-- using&#45;express/6&#45;middleware&#45;and&#45;error&#45;handling/exercise&#45;refactor/api/controllers.js&#45;&gt;using&#45;express/6&#45;middleware&#45;and&#45;error&#45;handling/exercise&#45;refactor/config/index.js -->
<g id="edge1" class="edge">
<title>using&#45;express/6&#45;middleware&#45;and&#45;error&#45;handling/exercise&#45;refactor/api/controllers.js&#45;&gt;using&#45;express/6&#45;middleware&#45;and&#45;error&#45;handling/exercise&#45;refactor/config/index.js</title>
<path fill="none" stroke="#000000" stroke-width="2" stroke-opacity="0.200000" d="M266.69,-315.8C276.03,-314.3 286.22,-312.66 295.56,-311.16"/>
<polygon fill="#000000" fill-opacity="0.200000" stroke="#000000" stroke-width="2" stroke-opacity="0.200000" points="295.96,-313.23 301.55,-310.2 295.29,-309.08 295.96,-313.23"/>
</g>
<!-- using&#45;express/6&#45;middleware&#45;and&#45;error&#45;handling/exercise&#45;refactor/config/default.js -->
<g id="node10" class="node">
<title>using&#45;express/6&#45;middleware&#45;and&#45;error&#45;handling/exercise&#45;refactor/config/default.js</title>
<g id="a_node10"><a xlink:href="using-express/6-middleware-and-error-handling/exercise-refactor/config/default.js" xlink:title="default.js">
<path fill="#ffffcc" stroke="black" d="M427.81,-315.3C427.81,-315.3 386.21,-315.3 386.21,-315.3 383.11,-315.3 380.01,-312.2 380.01,-309.1 380.01,-309.1 380.01,-302.9 380.01,-302.9 380.01,-299.8 383.11,-296.7 386.21,-296.7 386.21,-296.7 427.81,-296.7 427.81,-296.7 430.91,-296.7 434.01,-299.8 434.01,-302.9 434.01,-302.9 434.01,-309.1 434.01,-309.1 434.01,-312.2 430.91,-315.3 427.81,-315.3"/>
<text text-anchor="middle" x="407.01" y="-303.3" font-family="Helvetica,sans-Serif" font-size="9.00">default.js</text>
</a>
</g>
</g>
<!-- using&#45;express/6&#45;middleware&#45;and&#45;error&#45;handling/exercise&#45;refactor/config/index.js&#45;&gt;using&#45;express/6&#45;middleware&#45;and&#45;error&#45;handling/exercise&#45;refactor/config/default.js -->
<g id="edge7" class="edge">
<title>using&#45;express/6&#45;middleware&#45;and&#45;error&#45;handling/exercise&#45;refactor/config/index.js&#45;&gt;using&#45;express/6&#45;middleware&#45;and&#45;error&#45;handling/exercise&#45;refactor/config/default.js</title>
<path fill="none" stroke="#000000" stroke-width="2" stroke-opacity="0.200000" d="M356,-306C361.69,-306 367.78,-306 373.68,-306"/>
<polygon fill="#000000" fill-opacity="0.200000" stroke="#000000" stroke-width="2" stroke-opacity="0.200000" points="373.98,-308.1 379.98,-306 373.98,-303.9 373.98,-308.1"/>
</g>
<!-- using&#45;express/6&#45;middleware&#45;and&#45;error&#45;handling/exercise&#45;refactor/api/index.js -->
<g id="node8" class="node">
<title>using&#45;express/6&#45;middleware&#45;and&#45;error&#45;handling/exercise&#45;refactor/api/index.js</title>
<g id="a_node8"><a xlink:href="using-express/6-middleware-and-error-handling/exercise-refactor/api/index.js" xlink:title="index.js">
<path fill="#ffffcc" stroke="black" d="M99.3,-330.3C99.3,-330.3 57.7,-330.3 57.7,-330.3 54.6,-330.3 51.5,-327.2 51.5,-324.1 51.5,-324.1 51.5,-317.9 51.5,-317.9 51.5,-314.8 54.6,-311.7 57.7,-311.7 57.7,-311.7 99.3,-311.7 99.3,-311.7 102.4,-311.7 105.5,-314.8 105.5,-317.9 105.5,-317.9 105.5,-324.1 105.5,-324.1 105.5,-327.2 102.4,-330.3 99.3,-330.3"/>
<text text-anchor="middle" x="78.5" y="-318.3" font-family="Helvetica,sans-Serif" font-size="9.00">index.js</text>
</a>
</g>
</g>
<!-- using&#45;express/6&#45;middleware&#45;and&#45;error&#45;handling/exercise&#45;refactor/api/routes.js -->
<g id="node9" class="node">
<title>using&#45;express/6&#45;middleware&#45;and&#45;error&#45;handling/exercise&#45;refactor/api/routes.js</title>
<g id="a_node9"><a xlink:href="using-express/6-middleware-and-error-handling/exercise-refactor/api/routes.js" xlink:title="routes.js">
<path fill="#ffffcc" stroke="black" d="M180.8,-330.3C180.8,-330.3 139.2,-330.3 139.2,-330.3 136.1,-330.3 133,-327.2 133,-324.1 133,-324.1 133,-317.9 133,-317.9 133,-314.8 136.1,-311.7 139.2,-311.7 139.2,-311.7 180.8,-311.7 180.8,-311.7 183.9,-311.7 187,-314.8 187,-317.9 187,-317.9 187,-324.1 187,-324.1 187,-327.2 183.9,-330.3 180.8,-330.3"/>
<text text-anchor="middle" x="160" y="-318.3" font-family="Helvetica,sans-Serif" font-size="9.00">routes.js</text>
</a>
</g>
</g>
<!-- using&#45;express/6&#45;middleware&#45;and&#45;error&#45;handling/exercise&#45;refactor/api/index.js&#45;&gt;using&#45;express/6&#45;middleware&#45;and&#45;error&#45;handling/exercise&#45;refactor/api/routes.js -->
<g id="edge4" class="edge">
<title>using&#45;express/6&#45;middleware&#45;and&#45;error&#45;handling/exercise&#45;refactor/api/index.js&#45;&gt;using&#45;express/6&#45;middleware&#45;and&#45;error&#45;handling/exercise&#45;refactor/api/routes.js</title>
<path fill="none" stroke="#000000" stroke-width="2" stroke-opacity="0.200000" d="M105.53,-321C112.26,-321 119.58,-321 126.59,-321"/>
<polygon fill="#000000" fill-opacity="0.200000" stroke="#000000" stroke-width="2" stroke-opacity="0.200000" points="126.91,-323.1 132.91,-321 126.91,-318.9 126.91,-323.1"/>
</g>
<!-- using&#45;express/6&#45;middleware&#45;and&#45;error&#45;handling/exercise&#45;refactor/api/routes.js&#45;&gt;node_modules/express -->
<g id="edge6" class="edge">
<title>using&#45;express/6&#45;middleware&#45;and&#45;error&#45;handling/exercise&#45;refactor/api/routes.js&#45;&gt;node_modules/express</title>
<path fill="none" stroke="#000000" stroke-opacity="0.200000" d="M162.17,-311.59C167.58,-272.1 193.84,-118.33 282.5,-41 286.38,-37.61 291.02,-34.93 295.84,-32.81"/>
<polygon fill="#000000" fill-opacity="0.200000" stroke="#000000" stroke-opacity="0.200000" points="296.72,-34.72 301.53,-30.56 295.18,-30.81 296.72,-34.72"/>
</g>
<!-- using&#45;express/6&#45;middleware&#45;and&#45;error&#45;handling/exercise&#45;refactor/api/routes.js&#45;&gt;using&#45;express/6&#45;middleware&#45;and&#45;error&#45;handling/exercise&#45;refactor/api/controllers.js -->
<g id="edge5" class="edge">
<title>using&#45;express/6&#45;middleware&#45;and&#45;error&#45;handling/exercise&#45;refactor/api/routes.js&#45;&gt;using&#45;express/6&#45;middleware&#45;and&#45;error&#45;handling/exercise&#45;refactor/api/controllers.js</title>
<path fill="none" stroke="#000000" stroke-width="2" stroke-opacity="0.200000" d="M187.12,-321C189.19,-321 191.3,-321 193.43,-321"/>
<polygon fill="#000000" fill-opacity="0.200000" stroke="#000000" stroke-width="2" stroke-opacity="0.200000" points="193.82,-323.1 199.82,-321 193.82,-318.9 193.82,-323.1"/>
</g>
<!-- using&#45;express/6&#45;middleware&#45;and&#45;error&#45;handling/exercise&#45;refactor/config/development.js -->
<g id="node11" class="node">
<title>using&#45;express/6&#45;middleware&#45;and&#45;error&#45;handling/exercise&#45;refactor/config/development.js</title>
<g id="a_node11"><a xlink:href="using-express/6-middleware-and-error-handling/exercise-refactor/config/development.js" xlink:title="development.js">
<path fill="#ccffcc" stroke="black" d="M360.57,-284.3C360.57,-284.3 296.94,-284.3 296.94,-284.3 293.84,-284.3 290.74,-281.2 290.74,-278.1 290.74,-278.1 290.74,-271.9 290.74,-271.9 290.74,-268.8 293.84,-265.7 296.94,-265.7 296.94,-265.7 360.57,-265.7 360.57,-265.7 363.67,-265.7 366.77,-268.8 366.77,-271.9 366.77,-271.9 366.77,-278.1 366.77,-278.1 366.77,-281.2 363.67,-284.3 360.57,-284.3"/>
<text text-anchor="middle" x="328.75" y="-272.3" font-family="Helvetica,sans-Serif" font-size="9.00">development.js</text>
</a>
</g>
</g>
<!-- using&#45;express/6&#45;middleware&#45;and&#45;error&#45;handling/exercise&#45;refactor/config/production.js -->
<g id="node12" class="node">
<title>using&#45;express/6&#45;middleware&#45;and&#45;error&#45;handling/exercise&#45;refactor/config/production.js</title>
<g id="a_node12"><a xlink:href="using-express/6-middleware-and-error-handling/exercise-refactor/config/production.js" xlink:title="production.js">
<path fill="#ccffcc" stroke="black" d="M356.06,-253.3C356.06,-253.3 301.44,-253.3 301.44,-253.3 298.34,-253.3 295.24,-250.2 295.24,-247.1 295.24,-247.1 295.24,-240.9 295.24,-240.9 295.24,-237.8 298.34,-234.7 301.44,-234.7 301.44,-234.7 356.06,-234.7 356.06,-234.7 359.16,-234.7 362.26,-237.8 362.26,-240.9 362.26,-240.9 362.26,-247.1 362.26,-247.1 362.26,-250.2 359.16,-253.3 356.06,-253.3"/>
<text text-anchor="middle" x="328.75" y="-241.3" font-family="Helvetica,sans-Serif" font-size="9.00">production.js</text>
</a>
</g>
</g>
<!-- using&#45;express/6&#45;middleware&#45;and&#45;error&#45;handling/exercise&#45;refactor/index.js -->
<g id="node13" class="node">
<title>using&#45;express/6&#45;middleware&#45;and&#45;error&#45;handling/exercise&#45;refactor/index.js</title>
<g id="a_node13"><a xlink:href="using-express/6-middleware-and-error-handling/exercise-refactor/index.js" xlink:title="index.js">
<path fill="#ffffcc" stroke="black" d="M254.05,-230.3C254.05,-230.3 212.45,-230.3 212.45,-230.3 209.35,-230.3 206.25,-227.2 206.25,-224.1 206.25,-224.1 206.25,-217.9 206.25,-217.9 206.25,-214.8 209.35,-211.7 212.45,-211.7 212.45,-211.7 254.05,-211.7 254.05,-211.7 257.15,-211.7 260.25,-214.8 260.25,-217.9 260.25,-217.9 260.25,-224.1 260.25,-224.1 260.25,-227.2 257.15,-230.3 254.05,-230.3"/>
<text text-anchor="middle" x="233.25" y="-218.3" font-family="Helvetica,sans-Serif" font-size="9.00">index.js</text>
</a>
</g>
</g>
<!-- using&#45;express/6&#45;middleware&#45;and&#45;error&#45;handling/exercise&#45;refactor/index.js&#45;&gt;fs -->
<g id="edge12" class="edge">
<title>using&#45;express/6&#45;middleware&#45;and&#45;error&#45;handling/exercise&#45;refactor/index.js&#45;&gt;fs</title>
<path fill="none" stroke="#000000" stroke-dasharray="5,2" stroke-opacity="0.200000" d="M251.83,-211.6C266.85,-203.56 288.56,-191.96 304.92,-183.21"/>
<polygon fill="#000000" fill-opacity="0.200000" stroke="#000000" stroke-opacity="0.200000" points="305.94,-185.04 310.24,-180.36 303.96,-181.34 305.94,-185.04"/>
</g>
<!-- using&#45;express/6&#45;middleware&#45;and&#45;error&#45;handling/exercise&#45;refactor/index.js&#45;&gt;node_modules/body&#45;parser -->
<g id="edge9" class="edge">
<title>using&#45;express/6&#45;middleware&#45;and&#45;error&#45;handling/exercise&#45;refactor/index.js&#45;&gt;node_modules/body&#45;parser</title>
<path fill="none" stroke="#000000" stroke-opacity="0.200000" d="M237.52,-211.55C244.08,-193.46 260.17,-153.24 282.5,-125 289.87,-115.67 299.85,-107 308.56,-100.3"/>
<polygon fill="#000000" fill-opacity="0.200000" stroke="#000000" stroke-opacity="0.200000" points="310.23,-101.67 313.78,-96.4 307.72,-98.3 310.23,-101.67"/>
</g>
<!-- using&#45;express/6&#45;middleware&#45;and&#45;error&#45;handling/exercise&#45;refactor/index.js&#45;&gt;node_modules/date&#45;fns -->
<g id="edge10" class="edge">
<title>using&#45;express/6&#45;middleware&#45;and&#45;error&#45;handling/exercise&#45;refactor/index.js&#45;&gt;node_modules/date&#45;fns</title>
<path fill="none" stroke="#000000" stroke-opacity="0.200000" d="M238.69,-211.66C246.94,-193.98 264.67,-154.21 274.5,-119 280.19,-98.59 268.85,-88.21 282.5,-72 286.04,-67.79 290.78,-64.68 295.84,-62.4"/>
<polygon fill="#000000" fill-opacity="0.200000" stroke="#000000" stroke-opacity="0.200000" points="296.61,-64.35 301.44,-60.22 295.08,-60.44 296.61,-64.35"/>
</g>
<!-- using&#45;express/6&#45;middleware&#45;and&#45;error&#45;handling/exercise&#45;refactor/index.js&#45;&gt;node_modules/express -->
<g id="edge11" class="edge">
<title>using&#45;express/6&#45;middleware&#45;and&#45;error&#45;handling/exercise&#45;refactor/index.js&#45;&gt;node_modules/express</title>
<path fill="none" stroke="#000000" stroke-opacity="0.200000" d="M239.05,-211.44C247.72,-193.72 265.89,-154.33 274.5,-119 278.62,-102.07 271.72,-54.69 282.5,-41 285.98,-36.57 290.77,-33.37 295.95,-31.05"/>
<polygon fill="#000000" fill-opacity="0.200000" stroke="#000000" stroke-opacity="0.200000" points="296.81,-32.97 301.67,-28.87 295.31,-29.05 296.81,-32.97"/>
</g>
<!-- using&#45;express/6&#45;middleware&#45;and&#45;error&#45;handling/exercise&#45;refactor/index.js&#45;&gt;path -->
<g id="edge13" class="edge">
<title>using&#45;express/6&#45;middleware&#45;and&#45;error&#45;handling/exercise&#45;refactor/index.js&#45;&gt;path</title>
<path fill="none" stroke="#000000" stroke-dasharray="5,2" stroke-opacity="0.200000" d="M238.85,-211.65C246.21,-197.64 261.92,-171.19 282.5,-156 286.54,-153.01 291.2,-150.54 295.95,-148.51"/>
<polygon fill="#000000" fill-opacity="0.200000" stroke="#000000" stroke-opacity="0.200000" points="296.72,-150.47 301.54,-146.33 295.19,-146.56 296.72,-150.47"/>
</g>
<!-- using&#45;express/6&#45;middleware&#45;and&#45;error&#45;handling/exercise&#45;refactor/index.js&#45;&gt;using&#45;express/6&#45;middleware&#45;and&#45;error&#45;handling/exercise&#45;refactor/config/index.js -->
<g id="edge8" class="edge">
<title>using&#45;express/6&#45;middleware&#45;and&#45;error&#45;handling/exercise&#45;refactor/index.js&#45;&gt;using&#45;express/6&#45;middleware&#45;and&#45;error&#45;handling/exercise&#45;refactor/config/index.js</title>
<path fill="none" stroke="#000000" stroke-width="2" stroke-opacity="0.200000" d="M238.47,-230.44C245.53,-245.2 261.09,-273.72 282.5,-290 286.5,-293.05 291.13,-295.54 295.88,-297.59"/>
<polygon fill="#000000" fill-opacity="0.200000" stroke="#000000" stroke-width="2" stroke-opacity="0.200000" points="295.11,-299.54 301.46,-299.78 296.64,-295.63 295.11,-299.54"/>
</g>
<!-- using&#45;express/6&#45;middleware&#45;and&#45;error&#45;handling/exercise&#45;refactor/middleware/error&#45;handler.js -->
<g id="node14" class="node">
<title>using&#45;express/6&#45;middleware&#45;and&#45;error&#45;handling/exercise&#45;refactor/middleware/error&#45;handler.js</title>
<g id="a_node14"><a xlink:href="using-express/6-middleware-and-error-handling/exercise-refactor/middleware/error-handler.js" xlink:title="error&#45;handler.js">
<path fill="#ccffcc" stroke="black" d="M110.8,-269.3C110.8,-269.3 46.2,-269.3 46.2,-269.3 43.1,-269.3 40,-266.2 40,-263.1 40,-263.1 40,-256.9 40,-256.9 40,-253.8 43.1,-250.7 46.2,-250.7 46.2,-250.7 110.8,-250.7 110.8,-250.7 113.9,-250.7 117,-253.8 117,-256.9 117,-256.9 117,-263.1 117,-263.1 117,-266.2 113.9,-269.3 110.8,-269.3"/>
<text text-anchor="middle" x="78.5" y="-257.3" font-family="Helvetica,sans-Serif" font-size="9.00">error&#45;handler.js</text>
</a>
</g>
</g>
<!-- using&#45;express/6&#45;middleware&#45;and&#45;error&#45;handling/exercise&#45;refactor/middleware/logger.js -->
<g id="node15" class="node">
<title>using&#45;express/6&#45;middleware&#45;and&#45;error&#45;handling/exercise&#45;refactor/middleware/logger.js</title>
<g id="a_node15"><a xlink:href="using-express/6-middleware-and-error-handling/exercise-refactor/middleware/logger.js" xlink:title="logger.js">
<path fill="#ccffcc" stroke="black" d="M99.3,-238.3C99.3,-238.3 57.7,-238.3 57.7,-238.3 54.6,-238.3 51.5,-235.2 51.5,-232.1 51.5,-232.1 51.5,-225.9 51.5,-225.9 51.5,-222.8 54.6,-219.7 57.7,-219.7 57.7,-219.7 99.3,-219.7 99.3,-219.7 102.4,-219.7 105.5,-222.8 105.5,-225.9 105.5,-225.9 105.5,-232.1 105.5,-232.1 105.5,-235.2 102.4,-238.3 99.3,-238.3"/>
<text text-anchor="middle" x="78.5" y="-226.3" font-family="Helvetica,sans-Serif" font-size="9.00">logger.js</text>
</a>
</g>
</g>
</g>
</svg>
