<?xml version="1.0" encoding="UTF-8" standalone="no"?>
<!DOCTYPE svg PUBLIC "-//W3C//DTD SVG 1.1//EN"
 "http://www.w3.org/Graphics/SVG/1.1/DTD/svg11.dtd">
<!-- Generated by graphviz version 2.44.0 (20200408.0750)
 -->
<!-- Title: dependency&#45;cruiser output Pages: 1 -->
<svg width="332pt" height="494pt"
 viewBox="0.00 0.00 331.77 494.00" xmlns="http://www.w3.org/2000/svg" xmlns:xlink="http://www.w3.org/1999/xlink">
<g id="graph0" class="graph" transform="scale(1 1) rotate(0) translate(4 490)">
<title>dependency&#45;cruiser output</title>
<polygon fill="white" stroke="transparent" points="-4,4 -4,-490 327.77,-490 327.77,4 -4,4"/>
<g id="clust1" class="cluster">
<title>cluster_node_modules</title>
<path fill="#ffffff" stroke="black" stroke-width="2" d="M214.51,-8C214.51,-8 270.52,-8 270.52,-8 276.52,-8 282.52,-14 282.52,-20 282.52,-20 282.52,-142 282.52,-142 282.52,-148 276.52,-154 270.52,-154 270.52,-154 214.51,-154 214.51,-154 208.51,-154 202.51,-148 202.51,-142 202.51,-142 202.51,-20 202.51,-20 202.51,-14 208.51,-8 214.51,-8"/>
<text text-anchor="middle" x="242.52" y="-141.9" font-family="Helvetica,sans-Serif" font-weight="bold" font-size="9.00">node_modules</text>
</g>
<g id="clust2" class="cluster">
<title>cluster_using&#45;express</title>
<path fill="#ffffff" stroke="black" stroke-width="2" d="M20,-162C20,-162 303.77,-162 303.77,-162 309.77,-162 315.77,-168 315.77,-174 315.77,-174 315.77,-466 315.77,-466 315.77,-472 309.77,-478 303.77,-478 303.77,-478 20,-478 20,-478 14,-478 8,-472 8,-466 8,-466 8,-174 8,-174 8,-168 14,-162 20,-162"/>
<text text-anchor="middle" x="161.88" y="-465.9" font-family="Helvetica,sans-Serif" font-weight="bold" font-size="9.00">using&#45;express</text>
</g>
<g id="clust3" class="cluster">
<title>cluster_using&#45;express/4&#45;express&#45;router</title>
<path fill="#ffffff" stroke="black" stroke-width="2" d="M28,-170C28,-170 295.77,-170 295.77,-170 301.77,-170 307.77,-176 307.77,-182 307.77,-182 307.77,-439 307.77,-439 307.77,-445 301.77,-451 295.77,-451 295.77,-451 28,-451 28,-451 22,-451 16,-445 16,-439 16,-439 16,-182 16,-182 16,-176 22,-170 28,-170"/>
<text text-anchor="middle" x="161.88" y="-438.9" font-family="Helvetica,sans-Serif" font-weight="bold" font-size="9.00">4&#45;express&#45;router</text>
</g>
<g id="clust4" class="cluster">
<title>cluster_using&#45;express/4&#45;express&#45;router/exercises</title>
<path fill="#ffffff" stroke="black" stroke-width="2" d="M36,-178C36,-178 287.77,-178 287.77,-178 293.77,-178 299.77,-184 299.77,-190 299.77,-190 299.77,-412 299.77,-412 299.77,-418 293.77,-424 287.77,-424 287.77,-424 36,-424 36,-424 30,-424 24,-418 24,-412 24,-412 24,-190 24,-190 24,-184 30,-178 36,-178"/>
<text text-anchor="middle" x="161.88" y="-411.9" font-family="Helvetica,sans-Serif" font-weight="bold" font-size="9.00">exercises</text>
</g>
<g id="clust5" class="cluster">
<title>cluster_using&#45;express/4&#45;express&#45;router/exercises/1&#45;refactor&#45;params&#45;queries&#45;body</title>
<path fill="#ffffff" stroke="black" stroke-width="2" d="M44,-186C44,-186 279.77,-186 279.77,-186 285.77,-186 291.77,-192 291.77,-198 291.77,-198 291.77,-385 291.77,-385 291.77,-391 285.77,-397 279.77,-397 279.77,-397 44,-397 44,-397 38,-397 32,-391 32,-385 32,-385 32,-198 32,-198 32,-192 38,-186 44,-186"/>
<text text-anchor="middle" x="161.88" y="-384.9" font-family="Helvetica,sans-Serif" font-weight="bold" font-size="9.00">1&#45;refactor&#45;params&#45;queries&#45;body</text>
</g>
<g id="clust6" class="cluster">
<title>cluster_using&#45;express/4&#45;express&#45;router/exercises/1&#45;refactor&#45;params&#45;queries&#45;body/api</title>
<path fill="#ffffff" stroke="black" stroke-width="2" d="M52,-317C52,-317 271.77,-317 271.77,-317 277.77,-317 283.77,-323 283.77,-329 283.77,-329 283.77,-358 283.77,-358 283.77,-364 277.77,-370 271.77,-370 271.77,-370 52,-370 52,-370 46,-370 40,-364 40,-358 40,-358 40,-329 40,-329 40,-323 46,-317 52,-317"/>
<text text-anchor="middle" x="161.88" y="-357.9" font-family="Helvetica,sans-Serif" font-weight="bold" font-size="9.00">api</text>
</g>
<g id="clust7" class="cluster">
<title>cluster_using&#45;express/4&#45;express&#45;router/exercises/1&#45;refactor&#45;params&#45;queries&#45;body/config</title>
<path fill="#ffffff" stroke="black" stroke-width="2" d="M122,-194C122,-194 265.52,-194 265.52,-194 271.52,-194 277.52,-200 277.52,-206 277.52,-206 277.52,-297 277.52,-297 277.52,-303 271.52,-309 265.52,-309 265.52,-309 122,-309 122,-309 116,-309 110,-303 110,-297 110,-297 110,-206 110,-206 110,-200 116,-194 122,-194"/>
<text text-anchor="middle" x="193.76" y="-296.9" font-family="Helvetica,sans-Serif" font-weight="bold" font-size="9.00">config</text>
</g>
<!-- client -->
<g id="node1" class="node">
<title>client</title>
<g id="a_node1"><a xlink:href="client" xlink:title="client">
<polygon fill="#ccffcc" stroke="black" points="102,-154.3 50.07,-154.3 48,-152.23 48,-135.7 99.93,-135.7 102,-137.77 102,-154.3"/>
<polyline fill="none" stroke="black" points="99.93,-152.23 48,-152.23 "/>
<polyline fill="none" stroke="black" points="99.93,-152.23 99.93,-135.7 "/>
<polyline fill="none" stroke="black" points="99.93,-152.23 102,-154.3 "/>
<text text-anchor="middle" x="75" y="-142.3" font-family="Helvetica,sans-Serif" font-size="9.00">client</text>
</a>
</g>
</g>
<!-- fs -->
<g id="node2" class="node">
<title>fs</title>
<path fill="#ffffcc" stroke="grey" d="M177.06,-154.3C177.06,-154.3 135.46,-154.3 135.46,-154.3 132.36,-154.3 129.26,-151.2 129.26,-148.1 129.26,-148.1 129.26,-141.9 129.26,-141.9 129.26,-138.8 132.36,-135.7 135.46,-135.7 135.46,-135.7 177.06,-135.7 177.06,-135.7 180.16,-135.7 183.26,-138.8 183.26,-141.9 183.26,-141.9 183.26,-148.1 183.26,-148.1 183.26,-151.2 180.16,-154.3 177.06,-154.3"/>
<text text-anchor="middle" x="156.26" y="-142.3" font-family="Helvetica,sans-Serif" font-size="9.00" fill="grey">fs</text>
</g>
<!-- node_modules/body&#45;parser -->
<g id="node3" class="node">
<title>node_modules/body&#45;parser</title>
<g id="a_node3"><a xlink:href="node_modules/body-parser" xlink:title="body&#45;parser">
<polygon fill="#c40b0a" fill-opacity="0.101961" stroke="black" points="274.52,-96.3 212.58,-96.3 210.51,-94.23 210.51,-77.7 272.46,-77.7 274.52,-79.77 274.52,-96.3"/>
<polyline fill="none" stroke="black" points="272.46,-94.23 210.51,-94.23 "/>
<polyline fill="none" stroke="black" points="272.46,-94.23 272.46,-77.7 "/>
<polyline fill="none" stroke="black" points="272.46,-94.23 274.52,-96.3 "/>
<text text-anchor="middle" x="242.52" y="-84.3" font-family="Helvetica,sans-Serif" font-size="9.00" fill="#c40b0a">body&#45;parser</text>
</a>
</g>
</g>
<!-- node_modules/cors -->
<g id="node4" class="node">
<title>node_modules/cors</title>
<g id="a_node4"><a xlink:href="node_modules/cors" xlink:title="cors">
<polygon fill="#c40b0a" fill-opacity="0.101961" stroke="black" points="269.52,-65.3 217.58,-65.3 215.52,-63.23 215.52,-46.7 267.45,-46.7 269.52,-48.77 269.52,-65.3"/>
<polyline fill="none" stroke="black" points="267.45,-63.23 215.52,-63.23 "/>
<polyline fill="none" stroke="black" points="267.45,-63.23 267.45,-46.7 "/>
<polyline fill="none" stroke="black" points="267.45,-63.23 269.52,-65.3 "/>
<text text-anchor="middle" x="242.52" y="-53.3" font-family="Helvetica,sans-Serif" font-size="9.00" fill="#c40b0a">cors</text>
</a>
</g>
</g>
<!-- node_modules/express -->
<g id="node5" class="node">
<title>node_modules/express</title>
<g id="a_node5"><a xlink:href="node_modules/express" xlink:title="express">
<polygon fill="#c40b0a" fill-opacity="0.101961" stroke="black" points="269.52,-127.3 217.58,-127.3 215.52,-125.23 215.52,-108.7 267.45,-108.7 269.52,-110.77 269.52,-127.3"/>
<polyline fill="none" stroke="black" points="267.45,-125.23 215.52,-125.23 "/>
<polyline fill="none" stroke="black" points="267.45,-125.23 267.45,-108.7 "/>
<polyline fill="none" stroke="black" points="267.45,-125.23 269.52,-127.3 "/>
<text text-anchor="middle" x="242.52" y="-115.3" font-family="Helvetica,sans-Serif" font-size="9.00" fill="#c40b0a">express</text>
</a>
</g>
</g>
<!-- node_modules/morgan -->
<g id="node6" class="node">
<title>node_modules/morgan</title>
<g id="a_node6"><a xlink:href="node_modules/morgan" xlink:title="morgan">
<polygon fill="#c40b0a" fill-opacity="0.101961" stroke="black" points="269.52,-34.3 217.58,-34.3 215.52,-32.23 215.52,-15.7 267.45,-15.7 269.52,-17.77 269.52,-34.3"/>
<polyline fill="none" stroke="black" points="267.45,-32.23 215.52,-32.23 "/>
<polyline fill="none" stroke="black" points="267.45,-32.23 267.45,-15.7 "/>
<polyline fill="none" stroke="black" points="267.45,-32.23 269.52,-34.3 "/>
<text text-anchor="middle" x="242.52" y="-22.3" font-family="Helvetica,sans-Serif" font-size="9.00" fill="#c40b0a">morgan</text>
</a>
</g>
</g>
<!-- path -->
<g id="node7" class="node">
<title>path</title>
<path fill="#ffffcc" stroke="grey" d="M177.06,-20.3C177.06,-20.3 135.46,-20.3 135.46,-20.3 132.36,-20.3 129.26,-17.2 129.26,-14.1 129.26,-14.1 129.26,-7.9 129.26,-7.9 129.26,-4.8 132.36,-1.7 135.46,-1.7 135.46,-1.7 177.06,-1.7 177.06,-1.7 180.16,-1.7 183.26,-4.8 183.26,-7.9 183.26,-7.9 183.26,-14.1 183.26,-14.1 183.26,-17.2 180.16,-20.3 177.06,-20.3"/>
<text text-anchor="middle" x="156.26" y="-8.3" font-family="Helvetica,sans-Serif" font-size="9.00" fill="grey">path</text>
</g>
<!-- using&#45;express/4&#45;express&#45;router/exercises/1&#45;refactor&#45;params&#45;queries&#45;body/api/controllers.js -->
<g id="node8" class="node">
<title>using&#45;express/4&#45;express&#45;router/exercises/1&#45;refactor&#45;params&#45;queries&#45;body/api/controllers.js</title>
<g id="a_node8"><a xlink:href="using-express/4-express-router/exercises/1-refactor-params-queries-body/api/controllers.js" xlink:title="controllers.js">
<path fill="#ffffcc" stroke="black" d="M269.82,-343.3C269.82,-343.3 215.22,-343.3 215.22,-343.3 212.12,-343.3 209.02,-340.2 209.02,-337.1 209.02,-337.1 209.02,-330.9 209.02,-330.9 209.02,-327.8 212.12,-324.7 215.22,-324.7 215.22,-324.7 269.82,-324.7 269.82,-324.7 272.92,-324.7 276.02,-327.8 276.02,-330.9 276.02,-330.9 276.02,-337.1 276.02,-337.1 276.02,-340.2 272.92,-343.3 269.82,-343.3"/>
<text text-anchor="middle" x="242.52" y="-331.3" font-family="Helvetica,sans-Serif" font-size="9.00">controllers.js</text>
</a>
</g>
</g>
<!-- using&#45;express/4&#45;express&#45;router/exercises/1&#45;refactor&#45;params&#45;queries&#45;body/api/index.js -->
<g id="node9" class="node">
<title>using&#45;express/4&#45;express&#45;router/exercises/1&#45;refactor&#45;params&#45;queries&#45;body/api/index.js</title>
<g id="a_node9"><a xlink:href="using-express/4-express-router/exercises/1-refactor-params-queries-body/api/index.js" xlink:title="index.js">
<path fill="#ffffcc" stroke="black" d="M95.8,-343.3C95.8,-343.3 54.2,-343.3 54.2,-343.3 51.1,-343.3 48,-340.2 48,-337.1 48,-337.1 48,-330.9 48,-330.9 48,-327.8 51.1,-324.7 54.2,-324.7 54.2,-324.7 95.8,-324.7 95.8,-324.7 98.9,-324.7 102,-327.8 102,-330.9 102,-330.9 102,-337.1 102,-337.1 102,-340.2 98.9,-343.3 95.8,-343.3"/>
<text text-anchor="middle" x="75" y="-331.3" font-family="Helvetica,sans-Serif" font-size="9.00">index.js</text>
</a>
</g>
</g>
<!-- using&#45;express/4&#45;express&#45;router/exercises/1&#45;refactor&#45;params&#45;queries&#45;body/api/routes.js -->
<g id="node10" class="node">
<title>using&#45;express/4&#45;express&#45;router/exercises/1&#45;refactor&#45;params&#45;queries&#45;body/api/routes.js</title>
<g id="a_node10"><a xlink:href="using-express/4-express-router/exercises/1-refactor-params-queries-body/api/routes.js" xlink:title="routes.js">
<path fill="#ffffcc" stroke="black" d="M177.06,-343.3C177.06,-343.3 135.46,-343.3 135.46,-343.3 132.36,-343.3 129.26,-340.2 129.26,-337.1 129.26,-337.1 129.26,-330.9 129.26,-330.9 129.26,-327.8 132.36,-324.7 135.46,-324.7 135.46,-324.7 177.06,-324.7 177.06,-324.7 180.16,-324.7 183.26,-327.8 183.26,-330.9 183.26,-330.9 183.26,-337.1 183.26,-337.1 183.26,-340.2 180.16,-343.3 177.06,-343.3"/>
<text text-anchor="middle" x="156.26" y="-331.3" font-family="Helvetica,sans-Serif" font-size="9.00">routes.js</text>
</a>
</g>
</g>
<!-- using&#45;express/4&#45;express&#45;router/exercises/1&#45;refactor&#45;params&#45;queries&#45;body/api/index.js&#45;&gt;using&#45;express/4&#45;express&#45;router/exercises/1&#45;refactor&#45;params&#45;queries&#45;body/api/routes.js -->
<g id="edge1" class="edge">
<title>using&#45;express/4&#45;express&#45;router/exercises/1&#45;refactor&#45;params&#45;queries&#45;body/api/index.js&#45;&gt;using&#45;express/4&#45;express&#45;router/exercises/1&#45;refactor&#45;params&#45;queries&#45;body/api/routes.js</title>
<path fill="none" stroke="#000000" stroke-width="2" stroke-opacity="0.200000" d="M102.39,-334C109.01,-334 116.19,-334 123.06,-334"/>
<polygon fill="#000000" fill-opacity="0.200000" stroke="#000000" stroke-width="2" stroke-opacity="0.200000" points="123.25,-336.1 129.25,-334 123.25,-331.9 123.25,-336.1"/>
</g>
<!-- using&#45;express/4&#45;express&#45;router/exercises/1&#45;refactor&#45;params&#45;queries&#45;body/api/routes.js&#45;&gt;node_modules/express -->
<g id="edge3" class="edge">
<title>using&#45;express/4&#45;express&#45;router/exercises/1&#45;refactor&#45;params&#45;queries&#45;body/api/routes.js&#45;&gt;node_modules/express</title>
<path fill="none" stroke="#000000" stroke-opacity="0.200000" d="M181.02,-324.6C186.3,-321.39 191.29,-317.25 194.51,-312 208.64,-289.05 195.11,-216.91 202.51,-191 208.72,-169.29 222,-146.73 231.34,-132.54"/>
<polygon fill="#000000" fill-opacity="0.200000" stroke="#000000" stroke-opacity="0.200000" points="233.22,-133.5 234.82,-127.35 229.73,-131.16 233.22,-133.5"/>
</g>
<!-- using&#45;express/4&#45;express&#45;router/exercises/1&#45;refactor&#45;params&#45;queries&#45;body/api/routes.js&#45;&gt;using&#45;express/4&#45;express&#45;router/exercises/1&#45;refactor&#45;params&#45;queries&#45;body/api/controllers.js -->
<g id="edge2" class="edge">
<title>using&#45;express/4&#45;express&#45;router/exercises/1&#45;refactor&#45;params&#45;queries&#45;body/api/routes.js&#45;&gt;using&#45;express/4&#45;express&#45;router/exercises/1&#45;refactor&#45;params&#45;queries&#45;body/api/controllers.js</title>
<path fill="none" stroke="#000000" stroke-width="2" stroke-opacity="0.200000" d="M183.46,-334C189.67,-334 196.43,-334 203.06,-334"/>
<polygon fill="#000000" fill-opacity="0.200000" stroke="#000000" stroke-width="2" stroke-opacity="0.200000" points="203.1,-336.1 209.1,-334 203.1,-331.9 203.1,-336.1"/>
</g>
<!-- using&#45;express/4&#45;express&#45;router/exercises/1&#45;refactor&#45;params&#45;queries&#45;body/config/default.js -->
<g id="node11" class="node">
<title>using&#45;express/4&#45;express&#45;router/exercises/1&#45;refactor&#45;params&#45;queries&#45;body/config/default.js</title>
<g id="a_node11"><a xlink:href="using-express/4-express-router/exercises/1-refactor-params-queries-body/config/default.js" xlink:title="default.js">
<path fill="#ffffcc" stroke="black" d="M263.32,-251.3C263.32,-251.3 221.72,-251.3 221.72,-251.3 218.62,-251.3 215.52,-248.2 215.52,-245.1 215.52,-245.1 215.52,-238.9 215.52,-238.9 215.52,-235.8 218.62,-232.7 221.72,-232.7 221.72,-232.7 263.32,-232.7 263.32,-232.7 266.42,-232.7 269.52,-235.8 269.52,-238.9 269.52,-238.9 269.52,-245.1 269.52,-245.1 269.52,-248.2 266.42,-251.3 263.32,-251.3"/>
<text text-anchor="middle" x="242.52" y="-239.3" font-family="Helvetica,sans-Serif" font-size="9.00">default.js</text>
</a>
</g>
</g>
<!-- using&#45;express/4&#45;express&#45;router/exercises/1&#45;refactor&#45;params&#45;queries&#45;body/config/development.js -->
<g id="node12" class="node">
<title>using&#45;express/4&#45;express&#45;router/exercises/1&#45;refactor&#45;params&#45;queries&#45;body/config/development.js</title>
<g id="a_node12"><a xlink:href="using-express/4-express-router/exercises/1-refactor-params-queries-body/config/development.js" xlink:title="development.js">
<path fill="#ccffcc" stroke="black" d="M188.07,-282.3C188.07,-282.3 124.44,-282.3 124.44,-282.3 121.34,-282.3 118.24,-279.2 118.24,-276.1 118.24,-276.1 118.24,-269.9 118.24,-269.9 118.24,-266.8 121.34,-263.7 124.44,-263.7 124.44,-263.7 188.07,-263.7 188.07,-263.7 191.17,-263.7 194.27,-266.8 194.27,-269.9 194.27,-269.9 194.27,-276.1 194.27,-276.1 194.27,-279.2 191.17,-282.3 188.07,-282.3"/>
<text text-anchor="middle" x="156.26" y="-270.3" font-family="Helvetica,sans-Serif" font-size="9.00">development.js</text>
</a>
</g>
</g>
<!-- using&#45;express/4&#45;express&#45;router/exercises/1&#45;refactor&#45;params&#45;queries&#45;body/config/index.js -->
<g id="node13" class="node">
<title>using&#45;express/4&#45;express&#45;router/exercises/1&#45;refactor&#45;params&#45;queries&#45;body/config/index.js</title>
<g id="a_node13"><a xlink:href="using-express/4-express-router/exercises/1-refactor-params-queries-body/config/index.js" xlink:title="index.js">
<path fill="#ffffcc" stroke="black" d="M177.06,-251.3C177.06,-251.3 135.46,-251.3 135.46,-251.3 132.36,-251.3 129.26,-248.2 129.26,-245.1 129.26,-245.1 129.26,-238.9 129.26,-238.9 129.26,-235.8 132.36,-232.7 135.46,-232.7 135.46,-232.7 177.06,-232.7 177.06,-232.7 180.16,-232.7 183.26,-235.8 183.26,-238.9 183.26,-238.9 183.26,-245.1 183.26,-245.1 183.26,-248.2 180.16,-251.3 177.06,-251.3"/>
<text text-anchor="middle" x="156.26" y="-239.3" font-family="Helvetica,sans-Serif" font-size="9.00">index.js</text>
</a>
</g>
</g>
<!-- using&#45;express/4&#45;express&#45;router/exercises/1&#45;refactor&#45;params&#45;queries&#45;body/config/index.js&#45;&gt;using&#45;express/4&#45;express&#45;router/exercises/1&#45;refactor&#45;params&#45;queries&#45;body/config/default.js -->
<g id="edge4" class="edge">
<title>using&#45;express/4&#45;express&#45;router/exercises/1&#45;refactor&#45;params&#45;queries&#45;body/config/index.js&#45;&gt;using&#45;express/4&#45;express&#45;router/exercises/1&#45;refactor&#45;params&#45;queries&#45;body/config/default.js</title>
<path fill="none" stroke="#000000" stroke-width="2" stroke-opacity="0.200000" d="M183.46,-242C191.54,-242 200.54,-242 209,-242"/>
<polygon fill="#000000" fill-opacity="0.200000" stroke="#000000" stroke-width="2" stroke-opacity="0.200000" points="209.34,-244.1 215.34,-242 209.34,-239.9 209.34,-244.1"/>
</g>
<!-- using&#45;express/4&#45;express&#45;router/exercises/1&#45;refactor&#45;params&#45;queries&#45;body/config/production.js -->
<g id="node14" class="node">
<title>using&#45;express/4&#45;express&#45;router/exercises/1&#45;refactor&#45;params&#45;queries&#45;body/config/production.js</title>
<g id="a_node14"><a xlink:href="using-express/4-express-router/exercises/1-refactor-params-queries-body/config/production.js" xlink:title="production.js">
<path fill="#ccffcc" stroke="black" d="M183.57,-220.3C183.57,-220.3 128.95,-220.3 128.95,-220.3 125.85,-220.3 122.75,-217.2 122.75,-214.1 122.75,-214.1 122.75,-207.9 122.75,-207.9 122.75,-204.8 125.85,-201.7 128.95,-201.7 128.95,-201.7 183.57,-201.7 183.57,-201.7 186.67,-201.7 189.77,-204.8 189.77,-207.9 189.77,-207.9 189.77,-214.1 189.77,-214.1 189.77,-217.2 186.67,-220.3 183.57,-220.3"/>
<text text-anchor="middle" x="156.26" y="-208.3" font-family="Helvetica,sans-Serif" font-size="9.00">production.js</text>
</a>
</g>
</g>
<!-- using&#45;express/4&#45;express&#45;router/exercises/1&#45;refactor&#45;params&#45;queries&#45;body/index.js -->
<g id="node15" class="node">
<title>using&#45;express/4&#45;express&#45;router/exercises/1&#45;refactor&#45;params&#45;queries&#45;body/index.js</title>
<g id="a_node15"><a xlink:href="using-express/4-express-router/exercises/1-refactor-params-queries-body/index.js" xlink:title="index.js">
<path fill="#ffffcc" stroke="black" d="M95.8,-212.3C95.8,-212.3 54.2,-212.3 54.2,-212.3 51.1,-212.3 48,-209.2 48,-206.1 48,-206.1 48,-199.9 48,-199.9 48,-196.8 51.1,-193.7 54.2,-193.7 54.2,-193.7 95.8,-193.7 95.8,-193.7 98.9,-193.7 102,-196.8 102,-199.9 102,-199.9 102,-206.1 102,-206.1 102,-209.2 98.9,-212.3 95.8,-212.3"/>
<text text-anchor="middle" x="75" y="-200.3" font-family="Helvetica,sans-Serif" font-size="9.00">index.js</text>
</a>
</g>
</g>
<!-- using&#45;express/4&#45;express&#45;router/exercises/1&#45;refactor&#45;params&#45;queries&#45;body/index.js&#45;&gt;fs -->
<g id="edge9" class="edge">
<title>using&#45;express/4&#45;express&#45;router/exercises/1&#45;refactor&#45;params&#45;queries&#45;body/index.js&#45;&gt;fs</title>
<path fill="none" stroke="#000000" stroke-dasharray="5,2" stroke-opacity="0.200000" d="M88.73,-193.68C101.83,-184.1 122.34,-169.09 137.13,-158.27"/>
<polygon fill="#000000" fill-opacity="0.200000" stroke="#000000" stroke-opacity="0.200000" points="138.69,-159.73 142.29,-154.49 136.21,-156.34 138.69,-159.73"/>
</g>
<!-- using&#45;express/4&#45;express&#45;router/exercises/1&#45;refactor&#45;params&#45;queries&#45;body/index.js&#45;&gt;node_modules/body&#45;parser -->
<g id="edge6" class="edge">
<title>using&#45;express/4&#45;express&#45;router/exercises/1&#45;refactor&#45;params&#45;queries&#45;body/index.js&#45;&gt;node_modules/body&#45;parser</title>
<path fill="none" stroke="#000000" stroke-opacity="0.200000" d="M83.16,-193.65C89.19,-185.3 97.51,-172.48 102,-160 110.22,-137.17 92.81,-123.12 110,-106 134.26,-81.83 174.6,-79.3 204.22,-81.44"/>
<polygon fill="#000000" fill-opacity="0.200000" stroke="#000000" stroke-opacity="0.200000" points="204.22,-83.55 210.37,-81.96 204.57,-79.36 204.22,-83.55"/>
</g>
<!-- using&#45;express/4&#45;express&#45;router/exercises/1&#45;refactor&#45;params&#45;queries&#45;body/index.js&#45;&gt;node_modules/cors -->
<g id="edge7" class="edge">
<title>using&#45;express/4&#45;express&#45;router/exercises/1&#45;refactor&#45;params&#45;queries&#45;body/index.js&#45;&gt;node_modules/cors</title>
<path fill="none" stroke="#000000" stroke-opacity="0.200000" d="M83.56,-193.38C89.67,-185.05 97.88,-172.42 102,-160 107.83,-142.41 97.31,-90.5 110,-77 134.91,-50.49 178.87,-48.63 209.06,-51.14"/>
<polygon fill="#000000" fill-opacity="0.200000" stroke="#000000" stroke-opacity="0.200000" points="209.1,-53.25 215.28,-51.73 209.5,-49.07 209.1,-53.25"/>
</g>
<!-- using&#45;express/4&#45;express&#45;router/exercises/1&#45;refactor&#45;params&#45;queries&#45;body/index.js&#45;&gt;node_modules/express -->
<g id="edge8" class="edge">
<title>using&#45;express/4&#45;express&#45;router/exercises/1&#45;refactor&#45;params&#45;queries&#45;body/index.js&#45;&gt;node_modules/express</title>
<path fill="none" stroke="#000000" stroke-opacity="0.200000" d="M82.82,-193.52C88.62,-185.07 96.81,-172.2 102,-160 107.4,-147.3 99.45,-138.9 110,-130 137.33,-106.96 180.15,-107.53 209.46,-111.5"/>
<polygon fill="#000000" fill-opacity="0.200000" stroke="#000000" stroke-opacity="0.200000" points="209.25,-113.59 215.5,-112.39 209.87,-109.44 209.25,-113.59"/>
</g>
<!-- using&#45;express/4&#45;express&#45;router/exercises/1&#45;refactor&#45;params&#45;queries&#45;body/index.js&#45;&gt;node_modules/morgan -->
<g id="edge10" class="edge">
<title>using&#45;express/4&#45;express&#45;router/exercises/1&#45;refactor&#45;params&#45;queries&#45;body/index.js&#45;&gt;node_modules/morgan</title>
<path fill="none" stroke="#000000" stroke-opacity="0.200000" d="M83.64,-193.4C89.79,-185.09 98.03,-172.47 102,-160 109.44,-136.65 93.7,-68.3 110,-50 122.84,-35.58 174.42,-29.35 209.04,-26.75"/>
<polygon fill="#000000" fill-opacity="0.200000" stroke="#000000" stroke-opacity="0.200000" points="209.46,-28.82 215.29,-26.3 209.16,-24.64 209.46,-28.82"/>
</g>
<!-- using&#45;express/4&#45;express&#45;router/exercises/1&#45;refactor&#45;params&#45;queries&#45;body/index.js&#45;&gt;path -->
<g id="edge11" class="edge">
<title>using&#45;express/4&#45;express&#45;router/exercises/1&#45;refactor&#45;params&#45;queries&#45;body/index.js&#45;&gt;path</title>
<path fill="none" stroke="#000000" stroke-dasharray="5,2" stroke-opacity="0.200000" d="M83.68,-193.41C89.85,-185.11 98.1,-172.49 102,-160 110.69,-132.16 92.9,-52.62 110,-29 113.35,-24.37 118.08,-20.93 123.24,-18.38"/>
<polygon fill="#000000" fill-opacity="0.200000" stroke="#000000" stroke-opacity="0.200000" points="124.26,-20.23 128.95,-15.94 122.61,-16.36 124.26,-20.23"/>
</g>
<!-- using&#45;express/4&#45;express&#45;router/exercises/1&#45;refactor&#45;params&#45;queries&#45;body/index.js&#45;&gt;using&#45;express/4&#45;express&#45;router/exercises/1&#45;refactor&#45;params&#45;queries&#45;body/config/index.js -->
<g id="edge5" class="edge">
<title>using&#45;express/4&#45;express&#45;router/exercises/1&#45;refactor&#45;params&#45;queries&#45;body/index.js&#45;&gt;using&#45;express/4&#45;express&#45;router/exercises/1&#45;refactor&#45;params&#45;queries&#45;body/config/index.js</title>
<path fill="none" stroke="#000000" stroke-width="2" stroke-opacity="0.200000" d="M88.13,-212.32C94.42,-216.85 102.36,-222.15 110,-226 114.19,-228.11 118.72,-230.07 123.24,-231.83"/>
<polygon fill="#000000" fill-opacity="0.200000" stroke="#000000" stroke-width="2" stroke-opacity="0.200000" points="122.58,-233.83 128.94,-233.97 124.05,-229.9 122.58,-233.83"/>
</g>
</g>
</svg>
